<svg xmlns="http://www.w3.org/2000/svg">
<defs>
<font id="DKMandarinWhispers-Regular" horiz-adv-x="455" >
  <font-face 
    font-family="DK Mandarin Whispers"
    font-weight="400"
    font-stretch="normal"
    units-per-em="1000"
    panose-1="0 0 0 0 0 0 0 0 0 0"
    ascent="800"
    descent="-200"
    x-height="686"
    cap-height="694"
    bbox="-63 -211 733 938"
    underline-thickness="0"
    underline-position="0"
    unicode-range="U+000D-20AC"
  />
<missing-glyph horiz-adv-x="722" 
d="M435 12l-69 4l-55 17l-40 21l-46 60l-26 42l-9 40v26h-4v34h-2v20l-4 3l4 4v29l6 31h2l8 29l15 32l-35 -8h-48l-16 5l-9 5l-12 4l-22 11l-21 4l-27 18l-5 17l4 10l8 11l3 10l6 8l4 8l13 20l53 59l8 5l11 11l21 12l6 2l21 11l52 19l61 6l68 -11l35 -15l37 -27l28 3l3 2
l-3 3l11 9l19 6l57 73l22 37l6 -9l5 2h7l-8 -22l-2 -9l-3 -6l-2 -10h-14l-56 -72l-16 -38l-11 -14l-5 -18l2 -3l40 -9l42 -15l23 -12v-2h3l-1 -2h7l7 -7v-2h4v-3l4 -3l-4 -3h10l6 -6l-4 -3h6v-5h5v-1l2 -3l4 3v-10h2l7 -5l4 3l4 -11h2l4 -5l-6 -4h6v-4l8 -12l3 4l5 -6v-9
l-1 3h-3l3 -10l-6 -7l6 -7l4 3v5h-3l3 11l3 -5l-1 -2l4 -6v-5l4 -7l4 2l-2 -4v-14l4 -11h-6v-7l4 -3l4 3v-18l-1 -2l1 -6v-20l-1 -3l3 -4l-6 -11h3l3 5h5l-11 -16v-12l4 5h5l3 -5l-6 -6l3 -2l3 4l3 -4h5l-3 -7l-2 -3v-13l-3 -5h3v-3l2 -4l-5 -17l-2 -2v-9l2 -3l-6 -11
l-6 -18l-12 -20l-17 -20l-2 -2l3 -7h-9v3l-4 -5v-2l-9 -9l-4 -9l-11 -17l-109 -42zM621 302v-6l5 12l-3 12h2l2 -2l7 2l-9 18l9 5l6 -4l-3 11h-8v2l13 6h2l6 7h2v11h-4l-2 -4l-2 4v7h-5l3 7v11l2 9l-9 9v2l11 -4v6l-8 2l-4 -1l-4 9l-11 6l-6 6h-7l-14 8l3 7h-10v-5l-14 4
l7 2l-5 5l-8 4l-6 -2l2 -2l-5 -3l-1 -3l-4 -4l-2 7h-5v7h-4l2 -4h-10l-12 -6v3h-5l-1 3l1 2h15l-25 13v-8h4v-5h-9l-1 -2l-8 -3v-3h6l3 1l3 -1h6l-9 -5l-1 -2l-7 2h-12v2l8 8l-7 4l-7 -6v5h-6v-5l2 -2v-1h-8l-19 -11v-6h6l-6 -2v-9l-2 -2v-5l-5 -8v-5l-4 -4l-4 2l2 2v7h-4
l5 8l-9 10l-6 -5h-4l-11 -8v-5h6l2 2l7 3l6 6v-2l-2 -4l2 -3l-6 -7v-2l-3 -4l3 -7v-4l12 -3l-4 -4l2 -7h6v-14l15 -8v-6l-11 -3v-2l8 -6l3 4l6 -10l4 2h8l3 -2l-11 -4v-2h7l1 2l7 -4l-2 -5h15l1 2l6 3l8 -5h5l-4 -7l-21 4v-2q8 0 24 -4l7 3l-4 3l10 6v-6l11 -10l7 9l3 -2

<glyph glyph-name=".notdef" horiz-adv-x="722" 
d="M435 12l-69 4l-55 17l-40 21l-46 60l-26 42l-9 40v26h-4v34h-2v20l-4 3l4 4v29l6 31h2l8 29l15 32l-35 -8h-48l-16 5l-9 5l-12 4l-22 11l-21 4l-27 18l-5 17l4 10l8 11l3 10l6 8l4 8l13 20l53 59l8 5l11 11l21 12l6 2l21 11l52 19l61 6l68 -11l35 -15l37 -27l28 3l3 2
l-3 3l11 9l19 6l57 73l22 37l6 -9l5 2h7l-8 -22l-2 -9l-3 -6l-2 -10h-14l-56 -72l-16 -38l-11 -14l-5 -18l2 -3l40 -9l42 -15l23 -12v-2h3l-1 -2h7l7 -7v-2h4v-3l4 -3l-4 -3h10l6 -6l-4 -3h6v-5h5v-1l2 -3l4 3v-10h2l7 -5l4 3l4 -11h2l4 -5l-6 -4h6v-4l8 -12l3 4l5 -6v-9
l-1 3h-3l3 -10l-6 -7l6 -7l4 3v5h-3l3 11l3 -5l-1 -2l4 -6v-5l4 -7l4 2l-2 -4v-14l4 -11h-6v-7l4 -3l4 3v-18l-1 -2l1 -6v-20l-1 -3l3 -4l-6 -11h3l3 5h5l-11 -16v-12l4 5h5l3 -5l-6 -6l3 -2l3 4l3 -4h5l-3 -7l-2 -3v-13l-3 -5h3v-3l2 -4l-5 -17l-2 -2v-9l2 -3l-6 -11
l-6 -18l-12 -20l-17 -20l-2 -2l3 -7h-9v3l-4 -5v-2l-9 -9l-4 -9l-11 -17l-109 -42zM621 302v-6l5 12l-3 12h2l2 -2l7 2l-9 18l9 5l6 -4l-3 11h-8v2l13 6h2l6 7h2v11h-4l-2 -4l-2 4v7h-5l3 7v11l2 9l-9 9v2l11 -4v6l-8 2l-4 -1l-4 9l-11 6l-6 6h-7l-14 8l3 7h-10v-5l-14 4
l7 2l-5 5l-8 4l-6 -2l2 -2l-5 -3l-1 -3l-4 -4l-2 7h-5v7h-4l2 -4h-10l-12 -6v3h-5l-1 3l1 2h15l-25 13v-8h4v-5h-9l-1 -2l-8 -3v-3h6l3 1l3 -1h6l-9 -5l-1 -2l-7 2h-12v2l8 8l-7 4l-7 -6v5h-6v-5l2 -2v-1h-8l-19 -11v-6h6l-6 -2v-9l-2 -2v-5l-5 -8v-5l-4 -4l-4 2l2 2v7h-4
l5 8l-9 10l-6 -5h-4l-11 -8v-5h6l2 2l7 3l6 6v-2l-2 -4l2 -3l-6 -7v-2l-3 -4l3 -7v-4l12 -3l-4 -4l2 -7h6v-14l15 -8v-6l-11 -3v-2l8 -6l3 4l6 -10l4 2h8l3 -2l-11 -4v-2h7l1 2l7 -4l-2 -5h15l1 2l6 3l8 -5h5l-4 -7l-21 4v-2q8 0 24 -4l7 3l-4 3l10 6v-6l11 -10l7 9l3 -2
l4 1h2v7l4 4l7 -9v-2h4l4 -4l4 3l2 3h7l6 -8h3l3 5h11v-5h-5l-6 -5v-4h6l10 -3l7 7v3h8l-3 -10h5zM182 582l26 -4l30 -12l3 -6l-59 -26l-2 -2l-12 4l-24 4h-30l-28 -8h70l8 -10l-44 -30l-44 -14l-22 -2l-18 -8h18l58 12l52 23v-3l-17 -40l17 22l16 31l20 15l43 20l-1 -8
l-6 -24l-6 -16l-14 -26l30 26l9 54h1l58 12l-4 -20l-10 -10v-20l26 40l3 14l19 4l52 16l-70 -10v2l-4 18h-26l10 -8l3 -15l-49 -7l-6 -3v1l-14 8l-18 6l-26 2l-36 -2h18zM414 238q-8 -5 -11 -14q19 11 44 7.5t45 -21.5q27 -23 29 -57q16 22 13.5 49t-21.5 44
q-22 19 -51 16.5t-48 -24.5zM244 329q-4 -4 -9 -16q18 12 41.5 10.5t44.5 -16.5q28 -21 31 -58q15 22 11.5 49t-24.5 43q-22 17 -50.5 13.5t-44.5 -25.5zM406 536v-3h43l6 22v7l-6 -7l-2 -4h-2l-9 17l23 26v3l-25 -10zM256 446l46 34l42 20l26 26l-68 -36zM645 331l4 -5
l9 11l-3 2l8 15l-5 4l5 11l-2 7l-9 -21v-5zM555 289h16l8 5l-1 2h-17l-2 2l8 4h-12l-10 -2zM491 337l-12 2l-3 4v7h-8v5l8 1v-1l4 -3v-5h9l7 -13h-4zM280 600h20l-34 8l-14 2h-8zM608 276l3 -3l2 5l1 3l-1 4l8 2l-5 8l-17 -10h9v-9zM454 359l-8 14l11 -5l7 -7l-2 -5z
M592 291v-4l14 4l-4 3h-2v2h-10l-6 2h-5zM629 394l2 2l-2 3v13h2l7 -16l-7 -6zM530 334v4l10 2l2 3h7v-3l-7 -2v-4l-6 -2zM614 322l3 5v10h6v-10l-4 -2l2 -3l-4 -3h-3v3zM691 309l-3 8l3 3l5 -12l-3 -14l-2 -3v18zM654 229l2 -2v5l5 3l2 10h-5l-4 -5v-11zM590 337l-2 1l2 2
h9v-8h-11zM553 330v2h14l2 -2l-5 -6zM503 337v6h6l5 -6l-3 -3zM395 473v-3h5l3 9h-6l-5 -2zM380 475v-14l9 14h-9zM561 450h-2l-4 5l10 3v-10h-2zM511 365h6l4 -4l-1 -3h-9v7zM621 370v6h6v-11h-2zM494 377l13 -5l-10 -4zM521 325v7l-1 2h3l3 -4h2v-5h-7zM627 358l4 5h3l4 2
l-5 -10zM122 428l22 26l3 6l-31 -38zM521 495l13 -3l6 3l-4 2zM576 338l9 6v-4l-6 -6h-3v4zM631 437l7 -7h2l-2 5v4h-7v-2zM388 456l3 -3l4 4v6zM653 261l3 -8l6 3zM455 470v-4h7v4h-7zM642 229v-4l3 3l3 -4h2v5h-8zM627 437v5l-4 3h-4zM631 278l4 -2l3 5l-3 2zM631 376h4
v-6h-4v6zM393 445v-6h4v6h-4zM667 376v-8l4 7l-2 4zM435 460l1 -3l5 4v2h-5zM672 246l3 -6l2 11zM631 334v-2l9 2l-5 3zM610 360l4 5v-9l-1 -1zM409 443v-4h5v4h-5zM649 385l3 -4l2 2v5zM644 322l2 -6h2v6h-4zM699 232l3 -8l-3 -2v10zM480 383h6l2 -2h-8v2zM553 481v-3l3 1
h3v2h-6zM619 278l-5 -5h3l4 5h-2zM366 473v-3h2l3 5zM670 370l3 -5h2l-2 5h-3zM656 404v-8l2 10v4zM407 478v-3h2l3 3h-5zM492 347h7v-3zM608 374h5v-4zM585 281v-3h3v3h-3zM621 432h2l4 -4h-2zM542 314v-2h4v2h-4zM567 445h4l2 -2h-4zM608 340h5l-2 -2h-3v2zM565 271l2 -4
l2 4h-4zM567 486v-2h4l-2 2h-2zM474 460h2v-3h-2v3zM553 361h3v-3h-1zM582 273l3 -2l3 2h-6zM563 463h4l2 -2h-2zM553 281l-5 1v-1l1 -1zM585 470l3 -2h2l-2 2h-3zM485 484l3 -3v3h-3zM605 276l-3 -3h3v3zM664 305v-3l3 3h-3zM542 504l4 -2v2h-4zM412 388l2 -2l2 2h-4z
M631 83h4l-4 -2v2zM553 314v-2h3zM523 481v-2h3zM576 437h2l1 -2h-1zM663 122h1v-3h-1v3zM497 432h2l-2 -2v2zM350 432v-2h1v2h-1zM669 267l-2 -2h2v2zM685 251l-1 -2h1v2z" />
    <glyph glyph-name=".null" horiz-adv-x="0" 
 />
    <glyph glyph-name="nonmarkingreturn" horiz-adv-x="333" 
 />
    <glyph glyph-name="NULL" horiz-adv-x="0" 
 />
    <glyph glyph-name="NULL" horiz-adv-x="0" 
 />
    <glyph glyph-name="CR" unicode="&#xd;" horiz-adv-x="300" 
 />
    <glyph glyph-name="space" unicode=" " horiz-adv-x="300" 
 />
    <glyph glyph-name="exclam" unicode="!" horiz-adv-x="170" 
d="M65 219q0 -7 -4 -7q-1 0 -3 2.5t-4 2.5h-2q-1 -1 -1 -6h-2q-1 0 -2.5 2.5t-6.5 2.5v7h-2l-2 -2h-1q-2 0 -4 5t-3 6q-6 112 -6 226q0 27 1 80.5t1 80.5q0 35 -2 57v1q-1 1 -1 2q-1 2 -1 14q5 0 5.5 -2t-0.5 -4t2 -3q6 2 7 7q1 -5 8 -5q2 0 5.5 1.5t5.5 1.5q5 0 7 -5
q3 3 3 4l1 -3h1l4 3q4 -6 12 -6q25 -4 38 -11h3q2 -6 2.5 -13t0.5 -16v-14q-1 -52 1 -149t2 -138v-32l-4 -1v-10h-2l-3 2q-1 -1 -1 -2v-14q-1 -3 -1 -4q0 2 -2 2l-3 -17q-2 1 -2.5 -2t-1 -6.5t-2.5 -4.5q0 4 -3 5q-2 -1 -2 -7.5t-2 -7.5l-2 -1v7h-3l-2 -1v-15l-4 3v-5
q-3 3 -3 9h-1l-1 -6q-1 -6 -2 -12.5t-1 -8.5q0 2 -3 2l-3 -5l-2 3h-1q-2 0 -2 -2q0 6 -2 9h-2zM47 13l-11 42q1 7 -1 19.5t-2 17.5q-2 4 -2 28v6h2v-9l3 -1q2 2 3.5 8t6.5 6v-8h1l1 1h1l3 -1h1q2 0 2.5 3t2 5.5t5.5 1.5q1 0 3 -2.5t4 -2.5q4 0 4 5q3 -1 13.5 -2.5t15.5 -4.5
h3v5q1 0 2 -2t2 -2t1 2t2 2q3 0 4 -5.5t3 -5.5t4 5q0 -2 1 -2.5t2.5 -1.5t2.5 -3q1 -4 7 -38q7 -40 7 -49q0 -3 -3.5 -5t-3.5 -4q-1 -3 -4.5 -5t-4.5 -7v-1q-2 0 -3 2t-2 2h-1q0 -11 -5 -11q-1 0 -1 2l-1 3q-3 -2 -3 -5q-5 3 -10.5 -3t-8.5 -6l-1 1l-4 4h-1l-2 -3h-1l-4 2
q-5 1 -6 1t-3 -2.5t-4 -2.5t-3 2t-2.5 4t-3.5 2q-4 0 -5.5 1.5t-2.5 5t-3 6.5zM128 591v67l2 5q0 -1 1 -15.5t3 -17.5v-263q-6 112 -6 224zM138 106v4l2 -3q0 -3 3 -24v-3l7 -40v-1q-3 1 -3 5q-9 54 -9 62zM135 356q1 -1 1 -6.5t-1 -6.5v13zM134 364q2 -2 0 -3q-1 0 -1 1.5
t1 1.5zM137 26v-1h1v1h-1zM125 126l-1 -1v-1z" />
    <glyph glyph-name="quotedbl" unicode="&#x22;" horiz-adv-x="356" 
d="M87 493q0 -3 2 -3l-10 -5q0 2 -3 2q-1 0 -7 -6.5t-10 -6.5h-1l14 18q0 3 -3 3l-3 -6v6l-3 2v1q0 4 23 42l3.5 7l4.5 9l2 5l1 1q4 12 6 17q1 1 4 29h1v13h-20l-2 -1h-2q-2 0 -9.5 1.5t-10 2.5t-8 2.5t-8 3t-6.5 4t-6.5 6t-5.5 8.5q-10 16 -10 35q0 17 14 51.5t29 34.5
q3 0 7.5 -3t7.5 -3v3l-1 1q5 0 7 2v-6l2 -1h21l1 -4q4 0 10 -3t11 -3h1q0 -2 14 -9l5.5 -5.5t5.5 -4.5q0 -1 1 -3q0 -7 4 -7h1l3 3v-41q0 -60 -6 -100q-2 -1 -3 -5q0 -5 -3 -4q-5 -17 -10 -28q-1 -3 -5.5 -9t-5.5 -7l-4 -6q-4 -6 -7 -10t-8.5 -9.5t-11.5 -9t-13 -4.5z
M259 496q0 -3 2 -3l-10 -5q0 2 -3 2q-1 0 -7 -6.5t-10 -6.5h-1l14 18q0 3 -3 3l-3 -6v6l-3 2v1q0 4 23 42l3.5 7t4.5 10l2 4l1 1q4 12 6 17q1 2 4 29h1v13h-20l-2 -1h-2q-2 0 -9.5 1.5t-10 2.5t-8 2.5t-8 3t-6.5 4t-6.5 6t-5.5 8.5q-10 16 -10 35q0 17 14 51.5t29 34.5
q3 0 7.5 -3t7.5 -3v3l-1 1q5 0 7 2v-6l2 -1h21l1 -4q4 0 10 -3t11 -3h1q0 -2 14 -9q1 0 5.5 -5t5.5 -5q0 -1 1 -3v-3t1 -2.5t3 -1.5h1l3 3v-41q0 -60 -6 -100q-2 -1 -3 -5q0 -5 -3 -4q-5 -17 -10 -28q-1 -3 -5.5 -9t-5.5 -7l-4 -6q-4 -6 -7 -10t-8.5 -9.5t-11.5 -9t-13 -4.5
zM61 495q0 -5 -3 -6v1q0 5 3 5zM233 498q0 -4 -3 -6v1q0 5 3 5zM247 508v-4q3 0 3 4h-3zM75 505v-4q3 0 3 4h-3zM80 492v-2h3v2h-3zM252 495v-2h3v2h-3zM76 682q-1 0 -1 -1.5t1 -1.5q2 0 2 1.5t-2 1.5zM248 685q-1 0 -1 -1.5t1 -1.5q2 0 2 1.5t-2 1.5zM230 779q1 0 1 -1.5
t-1 -1.5q-2 0 -2 1.5t2 1.5zM58 776q1 0 1 -1.5t-1 -1.5q-2 0 -2 1.5t2 1.5zM328 602v-2h2v2h-2zM156 599v-2h2v2h-2zM83 496v-1h3v1h-3zM255 499v-1h3v1h-3zM53 486l-2 -3l1 3h1zM69 506v-1h2v1h-2zM282 598v-2h1v2h-1zM110 595v-2h1v2h-1zM225 489l-2 -3l1 3h1zM241 509
v-1h2v1h-2zM237 661q0 1 -1 1t-1 -1q0 -2 2 0zM65 658q0 1 -1 1t-1 -1q0 -2 2 0zM131 755q0 -2 -1 -3q0 2 1 3zM272 545q0 1 -1 1t-1 -1h2zM100 542q0 1 -1 1t-1 -1h2zM303 758q0 -2 -1 -3q0 2 1 3zM75 497q0 1 -1 1t-1 -1h2zM247 500q0 1 -1 1t-1 -1h2zM88 500h-1h1z
M260 503h-1h1z" />
    <glyph glyph-name="dollar" unicode="$" horiz-adv-x="402" 
d="M179 -94l-1 -2h-2l-1 2v12l-2 -10q-1 3 -3 4q-2 17 -2 51q0 33 -1 57h-9q-5 3 -15.5 7t-15.5 8q-87 66 -107 149q0 4 4 4h2q1 0 3.5 -3.5t3.5 -3.5q1 3 8 3q3 0 4 -1q0 3 3 3h1q1 0 4 -2.5t6 -3.5h3l8 6v-5l4 2q-1 -2 0.5 -2.5t4.5 -0.5q0 1 2 4.5t1 6.5q8 0 16 4h1
q3 0 5 -0.5t3.5 -2t2.5 -3t2.5 -3.5t2.5 -3q1 -2 3.5 -2t5 0.5t6.5 -0.5q0 -1 1 -1l14 -22q2 -2 3 -2v3q-2 9 -9 19h2q2 0 2 -2q14 -31 33 -58q1 -3 6.5 -6t5.5 -4v-1l-3 2v-2q2 -4 3 -5l3 -2v6l11 -11h1v6q3 0 4 -3t3 -3q4 0 6.5 3t4.5 8t3 6q9 23 9 52q0 55 -28 99
q-2 3 -3.5 4t-3.5 2.5t-5 4.5q-3 2 -20.5 19.5l-20.5 20.5l-9 7q-6 4 -13.5 11t-16 16t-13.5 13q-34 34 -48.5 64.5t-14.5 73.5q0 49 23.5 106t69.5 79q0 16 0.5 56.5t0.5 65.5q1 3 3 2q1 -1 2 -1v5q2 0 2.5 -3t1.5 -3t2 1t2 1q3 0 4 -2l1 4q2 -2 2 -4h1q0 7 1 9l1 -2v-7h1
q1 0 5 1t5 1q2 0 4 -2t3 -2q1 1 1 2h1l3 -4h3l2 -3q0 -1 1 -1l2 2h1q2 0 5 -9q0 3 2 3t2 -5l4 -3l1 -1q1 -3 1 -16v-78h1q0 51 2 65l2 17v-82q4 0 12 1l8 1q13 0 23 -3.5t17.5 -14t10.5 -14.5t9.5 -20.5t6.5 -17.5q11 -24 11 -30v-2l-2 -1q0 -2 -1 -5.5t-1 -4.5l-8 -4
q-7 -5 -20 -9.5t-25 -2.5v-7h-4q-2 6 -8.5 15.5t-7.5 11.5q-1 3 -5.5 21.5t-10 32.5t-12.5 14q-5 0 -10.5 -4.5t-5.5 -9.5q0 -2 2 -3q-5 -3 -8 -14t-8 -12v-8l-14 -42v-18l5 -4l4 9h2q3 -1 3 -2v-28l1 -4l4 -43q1 -2 3 -9t6 -8v6q3 0 12 -26h2l2 3q1 0 5.5 -6.5t9.5 -14
t7 -9.5l6 -5q4 -3 31 -30q9 -11 41 -36t53 -49t21 -47q0 -1 -1 -2t-1 -2q0 -4 3 -11t3 -10q5 -10 5 -22v-13q0 -31 -11 -53q-1 -2 -2 -3l-3 -2q-27 -41 -50.5 -58.5t-73.5 -32.5v-60l-1 6q0 2 -2 54l-2 -1v-75q-1 -1 -1 -2v-8q-1 3 -2 2t-2 -1q0 -7 -8 -26l-2 -1v8h-2
q0 -8 -3 -9q1 4 -1 4t-2.5 -1t-0.5 -3.5t-1 -3.5q0 -1 -2.5 -1t-3.5 -3q-3 -5 -8 -4l-2 -5q-1 1 -1.5 3.5t-1.5 3.5v-6q-1 0 -3.5 5t-3.5 5l-2 -6q-1 -5 -3 -5t-2 7zM164 126v-1q0 -7 5 -7q1 -2 16 -23l6 -6h3l-25 33zM199 106q1 0 1 -2h2q1 0 1 -2t-1 -2q-3 0 -3 2
q-1 0 -1 2t1 2zM199 432q-1 0 -1 -2t1 -2q2 0 2 2t-2 2zM155 498q-1 0 -1 -2t1 -2q2 0 2 2t-2 2zM197 442q1 0 1 -2t-1 -2t-1 2t1 2zM42 471q-1 0 -1 -2t1 -2q2 0 2 2t-2 2zM122 394q-1 0 -1 -1.5t1 -1.5q2 1 0 3zM297 609q-1 0 -1 -2t1 -2t1 2t-1 2zM133 145v-2q2 0 2 1
t-2 1zM51 452q-1 0 -1 -2t1 -2t1 2t-1 2zM180 -51v-4h2q0 2 -2 4zM238 256v-2v2zM106 638q-1 0 -1 -1.5t1 -1.5q2 0 2 1.5t-2 1.5zM202 329h-3q0 -3 3 0zM238 686v-2h2v2h-2zM349 209v-2q1 0 1 1t-1 1zM152 149v-4h1q0 4 -1 4zM160 548q0 -4 -2 0h2zM247 181v-1v1zM243 -32
v-5v5zM194 -86v-4q2 2 0 4zM162 479l-2 -2h2v2zM193 10v-2h1v2h-1zM155 143v-2q1 0 1 1t-1 1zM84 163q0 1 -1 1t-1 -1q0 -2 2 0zM143 816v-3q-1 0 -1 1.5t1 1.5zM233 289h-1h1zM193 112v-1v1zM193 99v-1v1zM179 -90v-1v1z" />
    <glyph glyph-name="quotesingle" unicode="'" horiz-adv-x="184" 
d="M87 493q0 -3 2 -3l-10 -5q0 2 -3 2q-1 0 -7 -6.5t-10 -6.5h-1l14 18q0 3 -3 3l-3 -6v6l-3 2v1q0 4 23 42l3.5 7l4.5 9l2 5l1 1q4 12 6 17q1 1 4 29h1v13h-20l-2 -1h-2q-2 0 -9.5 1.5t-10 2.5t-8 2.5t-8 3t-6.5 4t-6.5 6t-5.5 8.5q-10 16 -10 35q0 17 14 51.5t29 34.5
q3 0 7.5 -3t7.5 -3v3l-1 1q5 0 7 2v-6l2 -1h21l1 -4q4 0 10 -3t11 -3h1q0 -2 14 -9l5.5 -5.5t5.5 -4.5q0 -1 1 -3q0 -7 4 -7h1l3 3v-41q0 -60 -6 -100q-2 -1 -3 -5q0 -5 -3 -4q-5 -17 -10 -28q-1 -3 -5.5 -9t-5.5 -7l-4 -6q-4 -6 -7 -10t-8.5 -9.5t-11.5 -9t-13 -4.5z
M61 495q0 -5 -3 -6v1q0 5 3 5zM75 505v-4q3 0 3 4h-3zM80 492v-2h3v2h-3zM76 682q-1 0 -1 -1.5t1 -1.5q2 0 2 1.5t-2 1.5zM58 776q1 0 1 -1.5t-1 -1.5q-2 0 -2 1.5t2 1.5zM156 599v-2h2v2h-2zM83 496v-1h3v1h-3zM53 486l-2 -3l1 3h1zM69 506v-1h2v1h-2zM110 595v-2h1v2h-1z
M65 658q0 1 -1 1t-1 -1q0 -2 2 0zM100 542q0 1 -1 1t-1 -1h2zM131 755q0 -2 -1 -3q0 2 1 3zM75 497q0 1 -1 1t-1 -1h2zM88 500h-1h1z" />
    <glyph glyph-name="parenleft" unicode="(" horiz-adv-x="351" 
d="M90 65q-25 29 -37 55l-13 31l-16 64q1 3 0 6t-1 6q-3 27 -3 46v18q0 53 7 84q22 90 38 134q0 6 5 11q3 9 11 25l9 16q2 2 2 5l24 36q6 6 6 9q-4 0 -15.5 -16.5t-12.5 -17.5v1l20 33q4 20 45 48l3 2q2 1 5 4t6.5 7t4.5 5q18 15 50 15q0 -1 -4.5 -2.5t-10 -3.5t-7.5 -3h3
q2 0 8.5 1.5t10.5 1.5q14 0 14 -3q10 0 14 -2l6 -1q6 -2 7 -2q61 -12 62 -16l-3 -1v-2l1 -2v-1h-10q0 -1 2.5 -2t2.5 -3h-17l-3 -5q-16 3 -33.5 -5.5t-26.5 -17t-25 -26.5l-4 -4q5 1 11 8l-11 -15q-1 -1 -8.5 -11.5t-6.5 -11.5l-20 -39h2q3 0 3 2l-3 -10l2 -2v-2
q-5 -11 -12.5 -34t-9.5 -29q-1 -3 -3 -11t-3 -14l-2 -6v-2q-20 -92 -20 -140q0 -33 2 -46q4 -39 6 -44l3 -8q2 4 2 5q0 3 -2 7.5t-2 6.5q-4 53 -5 56v16q0 65 8 67q0 -4 -1.5 -22t-1.5 -19v-24q0 -131 54 -184q1 0 11 -8.5t13 -10.5l7 -4l32 -6q8 -5 30 -10t32 -11l7 -6v-2
q-7 1 -17.5 -7t-16.5 -9q-25 -3 -55 -3q-76 0 -115 25q-1 1 -9.5 8l-17 14t-8.5 8zM83 559v-2q-5 -7 -30 -71l-3 -5l16 47q11 26 17 31zM233 700h4q-3 -2 -10 -2h-6q4 2 12 2zM146 175q0 -7 3 -9v2q0 8 -3 9v-2zM203 683q-5 0 -6 -4h2q3 0 4 4zM230 605q2 0 2 -1.5t-2 -1.5
t-2 1.5t2 1.5zM68 251q-2 0 -2 -1.5t2 -1.5t2 1.5t-2 1.5zM208 696q-1 -2 -2.5 -2t-2.5 2h5zM241 696q1 0 1 -2t-1 -2t-1 2t1 2zM212 590q-1 0 -1 -2t1 -2q2 0 2 2t-2 2zM37 210q-1 0 -1 -1.5t1 -1.5t1 1.5t-1 1.5zM31 257q-1 0 -1 -1.5t1 -1.5t1 1.5t-1 1.5zM185 673l-7 -3
v-1q6 3 7 4zM214 613v-2q1 0 1 1t-1 1zM199 694h1l-1 -2h-2zM161 472v-2h1v2h-1zM77 306l2 -2v2h-2zM186 68l2 -2v2h-2zM149 163q0 -3 2 0h-2zM154 443h-2q0 -2 2 0zM215 697q-1 -1 -3 0h3zM237 687v-1v1z" />
    <glyph glyph-name="parenright" unicode=")" horiz-adv-x="346" 
d="M58 37q-8 -7 -17 -7q-1 0 -2 0.5t-2 0.5q3 1 3 5v3q-2 0 -5.5 -3t-5.5 -3h-1l3 6q1 2 10 15l9 13v1q-2 -1 -12.5 -11t-15.5 -10l-2 1q0 2 12 14t16 14l53 58q3 5 10 13.5t9 10.5l9 16v2l-9 -13q-1 -1 -11.5 -13.5t-12.5 -13.5q-16 -22 -40 -43l-19 -17q-10 -10 -15 -10v2
q0 1 7 8l12 11h-1q-1 0 -2 -1t-3 -1h-1q0 1 5 6q5 3 14 13t15 14q1 0 2 -1h2q0 1 2 3l2 2q-2 2 -2 3q3 2 3 3l5 4q-3 -3 -3 -6v-1q3 0 8.5 6.5t11.5 16t8 11.5q12 15 39 57q2 0 2 2q1 1 5 11q63 103 63 232q0 49 -5 72q-10 43 -34 77t-59 34q-2 0 -4 -2t-3 -2h-1l-1 2h-1
q-2 0 -5.5 -3t-4.5 -3t-12 0.5t-14 0.5h-2l-3 -3h-1q-10 0 -14 6v2l1 4v2q-2 0 -3 -2q-2 -2 -3 -2q0 2 1 2l2 5v1q0 2 -2 2q-2 2 -2 3q0 4 6 10l1 3q16 18 48 20l-3 2h-7q-5 0 -14 -1t-14 -1q2 6 22 6h11q3 -1 16.5 -5t25 -7.5t15.5 -4.5q1 0 6 -1h5q27 -8 56 -21q5 -1 6 -1
q56 -40 72 -87q4 -12 4 -14l9 -27q2 0 4 2q-1 -6 0 -13.5t3 -16.5t3 -13q0 -1 0.5 -9.5t0.5 -11.5q0 -7 2 -20.5t2 -21.5q0 -20 -2 -50l-7 -28q-3 -34 -11 -60q-1 -1 -2 -6.5t-3 -6.5l-2 2l-2 -6v-4h1q0 -2 -3.5 -6.5t-3.5 -5.5q-10 -24 -28 -59l-1 -1l-9 -16l-4 -3v-5
q-10 -21 -17 -25h-2q-2 1 -3 1q0 -10 -13.5 -22.5t-16.5 -18.5q-29 -29 -42 -38q0 2 -2 2v2l19 19h-1q-1 0 -9.5 -8t-18.5 -17.5t-14 -11.5q-3 -1 -8.5 -1t-8.5 -2q-24 -12 -25 -12h-1q-3 2 -3 3q-18 -11 -25 -11h-2q2 2 2 4v4zM284 232h3q0 -9 -6 -9h-1zM175 95q-1 0 -1 -2
t1 -2t1 2t-1 2zM258 623q-2 0 -2 -2t2 -2q1 0 1 2t-1 2zM137 188q-1 0 -1 -2t1 -2t1 2t-1 2zM277 296q-2 0 -2 -2v-2q2 1 2 3v1zM324 492q1 0 1 -1.5t-1 -1.5q-2 0 -2 1.5t2 1.5zM196 224q-2 0 -2 -1.5t2 -1.5q1 0 1 1.5t-1 1.5zM158 197q-1 0 -1 -1.5t1 -1.5q2 0 2 1.5
t-2 1.5zM67 114q-1 0 -1 -1.5t1 -1.5t1 1.5t-1 1.5zM124 137q-2 0 -2 -1.5t2 -1.5q1 0 1 1.5t-1 1.5zM107 690q-1 0 -1 -1.5t1 -1.5t1 1.5t-1 1.5zM134 182q-1 -1 -1 -4h1v4zM289 240v-2h-2zM268 445h-1h1zM64 111l-1 -2h1v2z" />
    <glyph glyph-name="comma" unicode="," horiz-adv-x="180" 
d="M55 -134h-3q-2 0 -6 -4.5t-7 -4.5h-1q1 4 6.5 10t5.5 10h-3q-1 0 -4.5 -4t-4.5 -6l-3 3q3 3 4.5 7.5t2.5 6.5q46 76 55 101l4 15v1h-14q-3 0 -6 2t-5 2t-5 -1t-4 -1l-5 1q-2 0 -5 3l-9 1q-10 0 -14 2q-14 5 -14 45q0 16 15 48q0 9 3 12q0 1 2 1h1l4 -1v-2l-5 -5h2
q3 0 6 3.5t4 3.5q3 0 4.5 -1t3.5 -1q-3 -2 -4 -2v-2q4 -4 8 -4q1 0 4 1.5t6 1.5q1 -4 1 -5q1 -1 4.5 -1t5.5 -1q6 -4 19 -10.5t19 -10.5q0 -3 7 -10q6 -2 7 -3q16 -9 19.5 -17t3.5 -30q0 -26 -7 -47q-1 -1 -5 -8q-1 -3 -3 -8t-4 -9l-2 -5q-4 -16 -14 -26q-3 1 -5 -0.5t-4 -6
t-3 -5.5l-37 -36q-6 -2 -9 -4q0 3 5 7t5 6h-1q-4 0 -11 -11l-10 -10q-2 0 -4 0.5t-3 -1.5q1 2 4 6zM118 90q2 0 2 -1.5t-2 -1.5q-1 0 -1 1.5t1 1.5zM47 -116h-3q0 -1 1 -1t2 1zM55 -124v-1h1v1h-1zM49 121h1v-2z" />
    <glyph glyph-name="hyphen" unicode="-" horiz-adv-x="562" 
d="M20 290v1q2 2 2 12v2q0 9 -2 11v2q0 10 19 14t21 6l61 14q10 -2 30.5 1.5t25.5 3.5q109 8 205 8l4 -1q4 -1 5 -1t12.5 -0.5t14.5 -0.5v-8q12 0 13 5l2 -4q4 -6 32 -6h1l4 3q5 -3 6 -3t8.5 -0.5t8.5 -0.5l2 -5l4 5q3 -5 16 -7t17 -9q1 -2 5 -3t5 -3l-8 -10q-1 -2 -6 -1.5
t-6 -2.5q-1 -1 -1.5 -2.5t-1.5 -2t-5 -0.5q-8 -1 -35.5 -3.5t-41.5 -4.5l-2 -2q-10 -5 -45 -5.5t-36 -0.5q-12 0 -12 -2l-2 -4q-21 -1 -29 -1q-55 -3 -123 -14q-3 -1 -29.5 -7.5t-40.5 -6.5q-63 0 -92 29q0 1 -3 2t-3 3zM398 355q6 0 10 -2h1q3 0 3 5q-11 0 -14 -3zM92 276
q-2 0 -2 -2t2 -2q1 0 1 2t-1 2zM227 301v-2h3v2h-3zM456 358q-2 -4 -6 0h6zM540 318q0 -1 -1 -1t-2 1q1 1 3 0zM423 363q1 -1 1 -3t-1 -2v5zM391 355l1 -2l2 2h-3z" />
    <glyph glyph-name="period" unicode="." horiz-adv-x="164" 
d="M49 3q1 3 -2 3q-2 0 -4.5 -0.5t-3.5 -0.5q-9 0 -14 14.5t-5 25.5t7 31t17 20q1 0 3 -0.5t4 -0.5l1 3h1q1 0 2 -2.5t2 -2.5q2 0 5.5 1.5t4.5 1.5q6 0 9 -5q12 0 14 -2q4 0 14 -7q12 -5 13 -5q2 -1 3.5 -3.5t2.5 -2.5q1 -1 5.5 -2t6.5 -3t2 -5v-4q-15 -36 -17 -42
q-4 -1 -13 -8t-17 -7q-2 0 -4.5 1t-3.5 1q-2 0 -5 -1t-4 -1q-3 0 -11 2t-13 1zM141 53q1 0 1 -1.5t-1 -1.5h-1q1 -1 0.5 -2t-1.5 -1t-1 1.5t1 1.5h1q0 1 1 3zM142 56q2 0 2 -1.5t-2 -1.5q-1 0 -1 1.5t1 1.5zM138 45v-1l-3 -6v2zM78 38h-2h2z" />
    <glyph glyph-name="slash" unicode="/" horiz-adv-x="328" 
d="M64 -10q-2 -2 -5 -2q0 1 -1 4l-1 2q-2 0 -2 1v2q1 4 1 5l-3 2l-4 -7l-3 2q-7 -7 -8 -7q0 8 -5 11t-5 7q0 2 0.5 5t-0.5 6v6l-1 -1h-2l-3 -10h-1q-1 6 2.5 17t3.5 15l19 75v10l6 22q5 22 12 51t10 44l22 97q9 32 10 44l65 265l1 -6q3 2 3.5 10t2.5 10l1 -5q3 3 3 8l1 5h2
l1 -1h2l4 3h2l1 -2h2l3 2v-1l2 -1l4 5l3 -3h1v3h3q1 0 1 -1l1 -2l-1 -1v-2l9 -4l3 7h1l1 -2h2q1 3 2 4q0 -3 7 -8t8 -6l3 4q2 -3 9 -5t9 -4l2 8l1 -5q3 -1 4 -1l2 2h3l2 -12l3 1l4 -5h3q13 -6 15 -16q1 -12 0.5 -18t-3 -19t-3.5 -18l-28 -111q0 -4 -1 -5t-2 -5
q-1 -6 -3 -18.5t-4 -18.5l-1 2q0 1 0.5 3.5t0.5 4.5l-1 2q-4 -9 -7 -25t-4 -20l-70 -298q-1 -3 -4 -17t-5 -16v6l31 128q0 6 3.5 17.5t2.5 17.5v1q-1 -1 -5 -14t-4 -15l-23 -85v-5l-22 -78q-1 -4 -16 -18t-19 -14l-1 8q-1 2 -2 2q-10 -20 -25 -18q-2 0 -4 1.5t-3 1.5h-1
l-2 -4q0 -3 -6 -3l-1 7q-2 -8 -7 -8q-4 0 -4 4zM240 366q-3 0 -5.5 -8.5t-1.5 -12.5h2q6 17 5 21zM233 342q-7 -8 -6 -16q0 -3 3 1q4 4 4 13zM245 394q-6 -2 -3 -12l1 -3q3 12 3 13zM216 265q-5 -2 -3 -12q4 6 3 10v2zM302 640q-3 -3 -1 -9h1q2 0 0 7v2zM189 242q-2 -1 1 -4
q2 1 -1 4zM59 51q-1 0 -1 -1.5t1 -1.5t1 1.5t-1 1.5zM170 51q2 0 2 -1.5t-2 -1.5t-2 1.5t2 1.5zM218 398q-2 -1 1 -4q1 1 -1 4zM170 645q-2 -1 1 -4q1 1 -1 4zM262 619q-2 -1 1 -4q1 1 -1 4zM155 106q-1 0 -1 -2t1 -2t1 2t-1 2zM119 386q0 -4 1 -4q2 1 -1 4zM264 441
q-1 -1 1 -4q1 1 -1 4zM185 675q-1 -1 1 -3q0 1 -1 3zM168 636q-1 0 -1 -1.5t1 -1.5q2 0 2 1.5t-2 1.5zM29 34q-1 0 -1 -1.5t1 -1.5t1 1.5t-1 1.5zM90 287q-2 0 -2 -1.5t2 -1.5q1 0 1 1.5t-1 1.5zM46 111v-4v-1q2 -2 2 1h-2v4zM261 419l1 -4zM126 10q-1 -1 -2 -1l1 -2
q3 0 1 2l1 1h-1zM45 94q-1 0 -1 -2t1 -2t1 2t-1 2zM298 615v-3q2 2 2 3h-2zM301 626l-2 -3l1 -1l1 1v3zM35 54l-1 -1l-1 -1l2 -1v3zM217 274q-1 0 -1 -4v-1l1 3v2zM193 687q1 -1 1 -2zM265 444l-1 -1l1 -1v2zM127 17v-1h2v1h-2zM37 69v-1h2v1h-2zM77 247q-1 0 -1 -1t1 -1
t1 1t-1 1zM46 101v-2t1 0z" />
    <glyph glyph-name="zero" unicode="0" horiz-adv-x="454" 
d="M46 114q-2 5 -13 67l-2 2q-6 14 -6 54q-1 2 -2 22.5t-1 22.5v2l1 1l1 1l4 -4l1 2v32h-3v-23q-4 -2 -5 -6v29q-1 54 6 109q1 1 3.5 12t2.5 13q0 3 2 13t3.5 19t1.5 12q7 32 14.5 54t21.5 52.5t37 47.5t52 17q0 3 -2.5 7.5t-2.5 7.5q1 0 5 -1t6 -1q6 0 5 4q2 0 8 -1t7 -1h2
q1 0 1 1l2 1l3 2q0 -1 3 -4q0 2 5.5 3.5t6.5 5.5q6 1 7 1q13 0 25 -4t29 -13.5t22 -11.5q1 -7 9 -7q0 -1 1 -1q3 -4 4 -4l2 4h1q4 0 14 -9.5t21.5 -22t15.5 -16.5q7 4 16 -14t17.5 -40t12.5 -24v2q0 4 -1.5 9.5t-1.5 7.5v3l6 -7l13 -72v10l5 -6v-75q2 -3 2 -9q0 -4 -1 -22.5
t0 -22.5l-3 -5l1 -1h3q0 -10 -8 -31q-2 -5 -3 -6v-2q2 0 2 -5v-1q1 -6 -4.5 -19.5t-5.5 -19.5q0 -1 1.5 -3t1.5 -3q0 -4 -10 -29l3 -3v-1q0 -22 -46 -95v-3q4 2 13 14l9 11v-1q0 -8 -20 -28l-2 -2q-1 -1 -7 -6.5t-11 -10.5l-6 -6q1 -4 -3 -5l-5 -1q-3 -2 -8.5 -7t-8.5 -7
q-25 -20 -78 -37q-5 -1 -13 -5.5t-11 -5.5q-9 -2 -28 -4.5t-28 -4.5h-1q-63 0 -102 77q-1 1 -3 7.5t-3.5 12t-2.5 5.5zM176 183q10 -31 12 -41q6 -28 20 -41v1l1 2q0 3 -10 23q-11 29 -11 39v3q7 -27 16 -42q1 -4 6.5 -11.5t6.5 -10.5l2 -4h2q7 7 7 8q28 37 41 79
q2 6 12.5 40t11.5 38q3 2 5 10v1q15 92 14 146v23q0 7 -5 22q-7 51 -17.5 80t-39.5 59q-18 18 -40 18h-7q-7 -5 -15.5 -20t-8.5 -21v-4l5 9l2 2v-2q-12 -33 -18 -64q-10 -43 -9 -55h2q0 -13 -1 -13h-5v-1l1 -3l1 -3v-29l4 -4q0 -1 -3 -3q-2 -1 -2 -4q0 -2 1 -4t1 -3
q0 -2 -1 -7.5t-1 -9.5v-9l5 2v-2q0 -2 -2.5 -5.5t-2.5 -6.5v-1l2 -3q2 -17 4 -50.5t4 -50.5q0 -1 2 -21t4.5 -38t3.5 -18zM52 503q-9 0 -9 -20q0 -1 -0.5 -2.5t-0.5 -2.5q-14 -54 -13 -84q5 0 6 10.5t-1 14.5l15 75q2 2 2 5zM417 476q0 -13 1.5 -37t1.5 -38l2 4q1 0 1 27v13
q0 33 -3 44h-2q-1 -7 -1 -9v-4zM26 330l1 -10h2q1 8 1 47h-4q-1 -7 -1 -11zM401 571q6 -9 6 -19h-2q-3 11 -4 15v4zM27 244v-2l1 -3v-4h1q3 0 3 9h-5zM366 602q0 -8 4 -8q0 8 -4 8zM393 587v2q5 -7 5 -9v-2q-5 7 -5 9zM28 274q0 -5 2 -5t2 2q0 4 -4 6v-3zM185 184v4
q2 -4 2 -9v-5q0 2 -1 5zM241 150q2 0 2 -2.5t-2 -2.5q-1 0 -1 2.5t1 2.5zM33 217v-6h2v6h-2zM427 494q2 0 2 -2t-2 -2q-1 0 -1 2t1 2zM428 452q-2 0 -2 -2t2 -2t2 2t-2 2zM28 258v-4l4 4h-4zM47 316q-1 0 -1 -2.5t1 -2.5t1 2.5t-1 2.5zM30 385v-5h2v5h-2zM181 213q1 -1 1 -4
t-1 -4v8zM274 233q2 0 2 -2t-2 -2t-2 2t2 2zM386 604q2 0 2 -2t-2 -2t-2 2t2 2zM183 202q1 0 1 -2t-1 -2t-1 2t1 2zM414 505q1 -3 2 -4v7zM176 677q2 -3 4 -3v3h-4zM428 333v-7q1 1 1 3.5t-1 3.5zM165 483q1 0 1 -1.5t-1 -1.5t-1 1.5t1 1.5zM288 568q-2 0 -2 -1.5t2 -1.5
t2 1.5t-2 1.5zM280 251q2 0 2 -1.5t-2 -1.5t-2 1.5t2 1.5zM418 497v-5q2 1 2 3t-2 2zM412 459q-1 0 -1 -1.5t1 -1.5q2 1 0 3zM175 248q4 -2 0 -4q-1 0 -1 2t1 2zM171 515q2 0 2 -1t-2 -1v2zM408 527v-6q1 1 1 3t-1 3zM414 523q-1 0 -1 -1t1 -2q1 0 1 1.5t-1 1.5zM307 402
q1 0 1 -1.5t-1 -1.5t-1 1.5t1 1.5zM399 515v-7q1 3 1 7h-1zM400 508q-1 0 -1 -1.5t1 -1.5q2 0 2 1.5t-2 1.5zM28 264l2 -2l2 2h-4zM367 142v-2h2v2h-2zM213 98v-2h2v2h-2zM170 573v-2v2zM402 501h-2q0 -1 1 -1t1 1zM421 295q-1 0 -1 -1t1 -1v2zM178 221v-1v1zM183 195
q2 -2 0 -2v2zM399 576q1 0 1 -1t-1 -2v3zM397 528v-1v1zM288 286q0 -1 1 -2zM26 371v-1l2 1h-2zM207 90v-1h1v1h-1zM321 421v-2q1 0 1 1t-1 1zM269 205v-1h-2zM168 504q0 1 1 1q-1 -1 -1 -2v1zM276 238v-1v1zM384 605v-1v1zM425 309v-1v1zM389 515v-1v1zM426 318v-1v1z" />
    <glyph glyph-name="one" unicode="1" horiz-adv-x="378" 
d="M103 -32q-4 0 -9 7.5t-9 5.5v-1q-1 3 -4.5 9t-3.5 7l1 1v2l9 17v2l-9 -8l-4 5l-1 1q0 4 10.5 14.5t24 22t14.5 12.5l32 24h3q1 0 5 3.5t5 5.5l1 6q1 7 1 9v27v18h2q0 26 -1 105.5t0 123.5q0 12 2 46t2 52v5q-5 -5 -12 -18t-8 -15q-22 -31 -55 -57t-59 -25l-2 3
q-2 2 -3.5 4t-2.5 2q-1 2 -6.5 9.5t-5.5 10.5v1h2q6 3 6 7q9 8 18 18t14.5 16.5t15 21t12.5 19.5t14 23.5t13 21.5q57 93 63 103q9 5 10 7q1 4 1.5 10.5t2 10.5t4.5 7l1 -4h7l2 4q0 1 10 1q2 0 8.5 0.5t8.5 1.5q1 0 5.5 3.5t9.5 3.5q6 0 6 -3l3 -2l3 4l6 -4l5 4h3
q2 0 4.5 -2t4.5 -2h1q1 0 5 1h4q0 -3 2 -3h1l1 1q1 1 3 1q6 -1 6 -10l-1 -1v-2h2v-6q-2 -18 -2 -25l2 5q2 6 4 12.5t3 9.5v-1q0 -7 -3 -22.5t-3 -24.5v-4l4 2l-19 -457l-3 -3v-20h30q0 -5 19 -10.5t19 -12.5q0 -1 -1 -1t-2 -2l-2 -3q-2 -4 -4 -6.5t-4 -4t-3.5 -2.5t-5 -2
t-5.5 -2q-18 -9 -18 -10q-1 2 -5 1.5t-5 -3.5l-12 -4t-12.5 -5t-10.5 -5.5t-11 -7t-10 -7t-11 -8.5t-11 -8q-3 -3 -5 -3q-8 -3 -51 -29t-66 -25zM174 447v-5l1 -2l3 44h-1q-3 0 -3 -29q-1 -6 0 -8zM175 404q-3 -10 -3 -26v-9q3 9 3 25v10zM172 422l1 -5l1 -5q2 9 1 18
q0 6 -1 6q-2 -4 -2 -14zM312 623l1 -3q0 -5 -2 -9v5q0 5 1 7zM139 560q-1 0 -1 -2t1 -2q2 -1 2 1t-2 3zM293 147q2 -1 1 -4q-1 1 -1 4zM290 169l1 -3l1 -3v7zM154 587l-2 -2l-1 -1l1 -1q2 1 2 2v2zM124 541q-1 0 -1 -2t1 -2q2 0 2 2t-2 2zM178 623q-1 0 -1 -2t1 -2t1 2t-1 2
zM292 406l1 -5h1l-1 5h-1zM302 625v-2v2zM290 158v-1h2v1h-2zM285 140h-1h1zM212 202h-1h1zM246 302l2 -1v1h-2z" />
    <glyph glyph-name="two" unicode="2" horiz-adv-x="452" 
d="M81 12l3 3q-5 0 -12.5 9.5t-8.5 14.5q1 6 11 21q117 222 164 421q11 49 11 93v20q-5 58 -28 59t-46 -23t-37 -51q-4 -8 -9.5 -15t-8.5 -13.5t-5 -19.5q-2 -4 -2 -14q-4 18 -5 20q-1 -3 -1 -16q0 -6 2.5 -17.5t2.5 -18.5q0 -13 -6 -15l-12 -7q-2 -1 -2 -2q-1 0 -7 -4
t-11.5 -7t-6.5 -3t-3 1.5t-4 1.5q-1 0 -2 -0.5t-3 -0.5h-2q-2 6 -12 16l-2 3q-19 41 -19 70v20q9 54 52 90.5t99 44.5q6 2 15 2h22h26h22q6 -1 18 -3.5t18 -2.5h3l3 3q15 0 36 -17.5t21 -31.5q1 0 4 1h3q2 -1 2 -2q18 -41 19 -82q0 -57 -6 -57q-21 -110 -25 -123
q-18 -55 -53 -139q-5 -19 -10 -27q0 -3 -6.5 -21t-6.5 -21l-20 -44h44h18t18 -1q34 0 87 -15q0 -6 9 -8q-5 -3 -10.5 -11t-9.5 -11q0 -3 -4.5 -2t-7.5 1q-4 -1 -11 -6.5t-10 -6.5h-4h-5l-3 1q-5 -1 -17.5 -5.5t-19.5 -3.5l-5 1h-3q-12 0 -25 -4t-30.5 -12t-23.5 -10
q-17 -7 -44 -15l-20 -4q-10 -1 -36 -6.5t-41 -5.5q-9 0 -11 1q-1 1 -3.5 1.5t-4 0.5t-2.5 1.5t0 3.5zM168 178q-2 0 -2 -2t2 -2t2 2t-2 2zM199 262q-1 0 -1 -2t1 -2t1 2t-1 2zM282 576q-2 0 -2 -2t2 -2t2 2t-2 2zM358 640q-2 0 -2 -1.5t2 -1.5t2 1.5t-2 1.5zM64 57
q0 -3 -2 -2zM360 637v-2q2 0 0 2zM207 295v-1v1zM364 616v-1v1z" />
    <glyph glyph-name="three" unicode="3" horiz-adv-x="517" 
d="M66 164q-4 29 9 29q3 0 6 -3t7 -3h1q1 0 4 1t4 2q0 -4 2 -6h2q2 1 3 2v-6l4 4v-10l2 2l2 3q1 3 2 3l7 8h2l-1 -8q1 0 6 -1.5t6 -1.5l8 6h2l2 -3v-1l1 1q4 0 4 3h3q3 -3 4 -3q-2 -9 2 -15l1 -1l1 1q1 0 1.5 1.5t-0.5 2.5q3 -1 6.5 -4t6.5 -5t7 -2l-1 -7q3 0 5.5 5.5
t3.5 5.5v-1q0 -33 12 -47l9 -8l7 4l3 -3q4 -11 15 -11q4 0 8 1t8 3t5 2h3q-2 -3 -8.5 -5t-8.5 -4v-2l3 -1q1 0 6 2t6 3q22 7 29 13.5t18 27.5q10 13 10 15v1q-3 -3 -5 -3q1 4 6.5 14t5.5 11q10 27 10 59q-1 69 -76 106q-14 7 -21 7q-6 0 -17.5 -5t-16.5 -5q-8 1 -9 0
q-11 0 -15 -2q-2 2 -5 2h-1q-1 0 -3.5 -1t-4.5 -1q-4 0 -20 2l-2 2h-2q-6 0 -8 -2q-1 4 -2 5t-2.5 0.5t-3.5 1.5q-3 3 -9 15t-5 15l1 4l13 11l1 2v2q-1 3 -1 4l-12 -5l-2 1l-1 1l1 1q16 22 74 20q5 5 21 19t21.5 19t17.5 17.5t16.5 21t11 21.5t9 27t2.5 30q0 43 -28 81l-2 2
q-12 14 -20 15q-19 0 -62 -34q-11 -15 -19 -19l-7 -12q-3 -6 -20 -23l-1 3q-4 -4 -6 -16l-1 -13h-1q-2 1 -3 6l-1 5h-2q2 -11 -8 -19h-8l-6 -5h-1q-1 0 -2.5 2t-2.5 2q-3 0 -8.5 -3.5t-8.5 -3.5q-1 0 -5 1l-4 1h-2q-2 1 -3 0q0 -1 -1 -1h-2q-4 0 -7 1l-4.5 1.5t-3 3t-2 3.5
t-2 5.5t-1.5 5.5q-7 14 -7 21q-1 34 40 74.5t78 55.5q27 10 62 10l15 -3q51 -2 86 -13t63 -43q11 0 26 -26.5t20 -42.5q7 -31 7 -53q0 -27 -15 -56q-1 -2 -3.5 -3.5t-3.5 -2.5q-6 -9 -27 -40l-39 -38l-8 -4v-2l2 -1l45 -19q1 2 27 -11q51 -32 75 -68t25 -91
q1 -46 -19.5 -84.5t-58.5 -59.5q-5 -2 -22.5 -8t-25.5 -11q-52 -15 -136 -15q-61 0 -100 23q-68 43 -68 115zM489 194q0 -9 -5 -26.5t-5 -27.5l1 -2q6 3 9.5 24.5t2.5 33.5q0 39 -8 52q0 -4 -1 -5q0 -7 3 -23.5t3 -25.5zM306 145q-2 -7 -13.5 -20t-16.5 -12h-1q4 3 14.5 15
t16.5 17zM455 100l2 -3h1l10 13v4q-14 -7 -13 -14zM451 92q-5 0 -5 -7q3 0 5 7zM475 132v-5q3 1 3 5h-3zM307 151q2 -1 1 -4q-2 1 -1 4zM343 531q-1 0 -1 -2t1 -2t1 2t-1 2zM305 66q-1 0 -1 -2t1 -2t1 2t-1 2zM164 127q-2 0 -2 -2t2 -2t2 2t-2 2zM127 593q-1 0 -1 -2t1 -2
t1 2t-1 2zM354 572q-2 0 -2 -1.5t2 -1.5t2 1.5t-2 1.5zM372 652q-1 -1 1 -3q1 1 -1 3zM305 93q-1 -1 -1 -3q1 1 1 3zM270 111q0 -2 -3 -5h-2zM135 407q-1 0 -1 -1.5t1 -1.5q2 1 0 3zM347 340q-1 0 -1 -1.5t1 -1.5t1 1.5t-1 1.5zM352 445q0 1 -1.5 1t-1.5 -1q1 -3 3 0z
M131 395h-2q0 -1 1 -1t1 1zM439 80v-2q2 0 0 2z" />
    <glyph glyph-name="six" unicode="6" horiz-adv-x="382" 
d="M225 9q-2 0 -2 -4q-21 -4 -53 -4q-102 -1 -137 111q-1 5 -4.5 23t-6.5 26q-5 52 7 129l6 41l33 117q0 9 11 31q0 8 6 14q-1 0 -1 2l1 2q10 31 30 71q1 7 4 12l4 5l18 37l19 34v1l1 1q23 31 38 38l17 4q4 0 4 -4q1 0 8 -1.5t9 -1.5l4 -1q1 -1 0 -3l-1 -2h27q4 0 7.5 -11
t9.5 -9q-2 -1 -8 -7l1 -2q1 -1 3 -1q-9 -9 -10 -15q-1 -2 0 -3t1 -2t-7.5 -18.5t-8.5 -18.5q0 -1 -2 -1l-8 -30q2 0 4 -0.5t1 -3.5q-21 -38 -59 -149q-18 -53 -22 -79l-2 -13h4q11 45 20 75l10 24l3 3q-1 -2 -20 -66l-5 -30l-3 -2l2 -2v-1q0 -2 -3 -2q3 -4 12.5 -6.5
t21 -3.5t14.5 -2l9 -5l4 -1q47 -17 74 -36t43 -58q7 -7 5 -13h-5v1q-4 22 -12 22h-1q6 -12 4 -20l2 -7q3 -7 3 -8q0 -11 3 -11l1 -3l7 4q2 -10 1.5 -15t-2 -16.5t-1.5 -15.5l-1 -4q-14 -42 -15 -44q-16 -21 -21 -41q-2 -3 -6 -5t-10 -4t-8 -3q-39 -19 -73 -23zM161 235
q-11 -68 15 -135q2 -5 6 -10.5t5 -7.5l2 -2q54 33 64 90l3 15q-4 23 -27 46.5t-45 23.5q-20 0 -23 -20zM356 191h3q1 -5 0 -8v-3q-6 0 -3 11zM211 455l1 -3q-1 -4 -3.5 -10t-3.5 -10l1 3q0 2 2.5 10.5t2.5 9.5zM257 634q-4 0 -4 -9q4 0 4 9zM221 477v-2q0 -1 -1.5 -4.5
t-3 -6.5t-1.5 -4q-1 2 0 3q1 6 6 14zM249 574l1 1q1 1 1 2h2l2 -3q-4 -2 -5 -2zM283 32q-1 -1 -1 -4q2 0 2.5 2t-1.5 2zM226 495q2 0 2 -2t-2 -2t-2 2t2 2zM190 365q1 -1 -1 -3q-1 1 1 3zM266 634q-2 0 -3 -3h3v3zM223 487q1 0 1 -2t-1 -2v4zM257 129l-1 -2h2l1 2h-2z
M263 641l-1 -2h2l1 2h-2zM43 352l-1 -2q3 1 4 2h-3zM167 548q0 1 -1.5 1t-1.5 -1q2 -2 3 0zM255 287h-2q0 -1 1 -1t1 1zM94 465h-2q0 -2 2 0z" />
    <glyph glyph-name="seven" unicode="7" horiz-adv-x="363" 
d="M96 -21q-1 0 -5 -2l-3 7l1 4q-5 0 -6 -1v25l-1 6v4q0 3 4.5 24.5t6.5 22.5l7 31q2 3 2 4l35 128q4 7 7.5 25.5t8.5 26.5l29 118l32 182q2 2 5 36v3q-2 2 -11 2q-18 0 -52 -11.5t-51 -11.5h-7l-5 1l-3 2h-25q-1 2 -8 2q-8 0 -9 -2q-1 0 -5 2t-8.5 4.5t-5.5 3.5
q-3 2 -4.5 6.5t-2.5 12.5v8q-2 1 -2 5q0 5 5.5 7t5.5 6l2 -1v-1l1 1q94 29 156 29q24 0 37 -2q22 -4 60 -22t50 -35h-1l-3 1h-1l-1 -1l2 -4l1 -5v-9v-8v-2q0 -24 -6 -60v-4h3q2 15 3 22q5 62 6 64q3 -12 3 -30q0 -1 -0.5 -7t-0.5 -7q-1 -1 -4 -25.5t-5 -28.5v-2l2 -2
q0 -1 -6 -13q-1 -2 -1 -19q0 -7 1 -7q-4 -1 -4 -11q0 -1 1 -3t1 -4v-1q-1 0 -1 0.5t-1 0.5h-1q-4 0 -4 -20q0 -2 1 -4t1 -5q-7 0 -7 -16q0 -2 1.5 -4t1.5 -3v-2q-2 2 -3 2v1q-3 0 -3 -10q0 -1 1.5 -3t1.5 -4l-1 -1q-1 1 -2 1l-6 -21v-3q1 -2 1 -3q3 0 5 10v-3q0 -7 -4 -10
l-4 -3q2 -3 2 -4v-1q0 -10 -5 -17v-2l1 -2q0 -1 -2.5 -9t-3.5 -9q1 0 1 -2v-1q-2 -2 -3 -2l2 -2v-3q0 -1 -1 -4l-1 -3l-60 -214q-1 1 -2.5 0.5t-2.5 -2.5l-18 -66v4q0 4 1.5 11.5t1.5 11.5q-3 0 -5 -6.5t-4 -15t-3 -11.5q0 -3 -6 -3q-4 -2 -9.5 -8t-10.5 -11l-4 -5l-1 1
q-1 1 -2 1h-1q-3 0 -6 -6q0 4 -4 4q-10 0 -18 -14q0 2 -3 2h-1q-2 -2 -5 -2q-3 1 -3 2h-1l-8 -4l-8 8h-1q0 -6 -4 -8l-9 -3v11h-1zM314 453l3 -3l1 1l10 64v11q-2 0 -3 -3l-7 -49q1 -4 -1.5 -11t-2.5 -10zM316 444h-2l-3 -17h3q0 3 1 8.5t1 8.5zM308 406q-4 0 -4 -9q1 0 6 7
zM306 412q2 -2 4 -2v4q-3 0 -4 -2zM325 454q1 0 1 -1.5t-1 -1.5t-1 1.5t1 1.5zM323 448q1 0 1 -2t-1 -2t-1 2t1 2zM151 236q-1 0 -1 -2t1 -2t1 2t-1 2zM123 108q-1 0 -1 -2t1 -2t1 2t-1 2zM327 532q0 -3 2 -3v3h-2zM234 102v-2h2v2h-2zM256 543q0 1 -1 1t-1 -1h2zM91 76
q1 0 1 -1.5t-1 -2.5v4zM333 502q1 -1 1 -2.5t-1 -1.5v4zM315 404q4 0 0 -2v2zM231 79q1 -1 0 -3q-1 0 -1 1.5t1 1.5zM310 419v-1h2v1h-2zM339 627q1 0 1 -1t-1 -1t-1 1t1 1zM331 492q1 0 1 -1t-1 -1t-1 1t1 1zM320 431q1 -1 1 -2.5t-1 -1.5v4zM228 64q2 0 0 -2v2zM328 474
q2 -2 0 -2q-1 0 -1 1t1 1zM312 388q1 0 1 -1.5t-1 -1.5v3zM229 72q1 0 1 -1t-1 -1v2zM319 419v-1v1z" />
    <glyph glyph-name="eight" unicode="8" horiz-adv-x="399" 
d="M20 202q0 61 31 135q1 3 5.5 9t6.5 9q22 42 46 63v4q0 4 -16 49q-15 62 -15 102q0 20 10 68q3 5 4.5 5t2.5 2l7.5 15t13 23t11.5 10q0 -1 1 -1q-11 -11 -11 -14l1 -1q15 18 35 18v-1q1 0 4 -1l3 -1l2 3q2 2 5 2l6 3h2q2 -2 2 -3h2q4 2 25 2h2q46 0 92.5 -18.5t62.5 -54.5
q15 -34 15 -112q0 -33 -5 -48l-9 -19q-6 -5 -6 -6q-4 -6 -11 -18.5t-8 -13.5l-3 -4l-5 -6h-6q-3 -2 -9 -11.5t-8 -11.5q-8 -9 -26 -22.5t-20 -14.5v-2q0 -7 15.5 -29.5t15.5 -26.5v-1q0 2 -4 2h-1l1 -3l47 -73q6 -6 6 -13v-4q-1 1 -6.5 10t-8.5 12h-2q-3 -1 -4 -1v-2l2 -2
q2 0 4 2q1 -4 2 -6t1.5 -4.5t0.5 -7.5q5 0 8.5 -5.5t7.5 -14.5t6 -12h1q0 1 2 3l3 -3h2l3 2v-5h-1v-4l1 -1q0 1 1 1l1 2q1 -2 8 -15t7 -19q0 -25 -30.5 -47t-61.5 -33q-53 -17 -105 -17q-85 0 -126 62q-36 55 -36 115zM138 204q1 0 3 -11.5t4 -24t3 -14.5q4 -2 4 -3
q14 -37 20 -45q1 -3 10.5 -13t12.5 -10q31 0 47 23l1 2q1 1 2 1q19 8 19 23q0 5 -3.5 13t-3.5 9q-23 48 -68 113q-9 21 -27 46l-6 7q-3 0 -4 -6l-2 -6q-14 -51 -15 -89v-2.5t1 -3.5v-2l4 -2v-1q0 -4 -2 -4zM216 432l1 -2h2q1 0 3 2q16 30 20.5 50t4.5 54v8q0 3 -1.5 20
t-2.5 19l-1 2v3q-6 43 -26 53h-2q-22 -40 -22 -94q0 -50 24 -115zM260 114l-1 -2q-2 -1 -11.5 -8t-10.5 -9q-1 0 -3 -2t-2 -3h1q14 0 29 24h-2zM152 333q-8 -13 -8 -18h2q4 0 6 10v8zM314 228q0 -4 4 -5l1 1q0 4 -5 6v-2zM97 663v-1q0 -8 -5 -11q3 9 5 12zM349 175l1 1
q2 0 2 -6v-4zM292 283l2 -1q2 0 2 -2t-2 -2t-2 2q-1 0 -1 1.5t1 1.5zM304 243q2 -4 4 -5v5h-4zM100 623q-2 0 -2 -2t2 -2t2 2t-2 2zM301 456q-1 0 -1 -2t1 -2t1 2t-1 2zM316 483q-2 0 -2 -2t2 -2t2 2t-2 2zM143 311q-2 -1 -2 -4v-2q2 1 2 5v1zM112 168q-2 0 -2 -1.5t2 -1.5
t2 1.5t-2 1.5zM359 171q1 0 1 -1.5t-1 -1.5t-1 1.5t1 1.5zM342 189q2 -1 2 -4v-2l-2 4v2zM158 509q-1 0 -1 -2t1 -2q2 0 2 2t-2 2zM357 546q-1 0 -1 -2t1 -2t1 2t-1 2zM340 633q-1 0 -1 -2t1 -2q2 0 2 2t-2 2zM366 136q-2 0 -2 -1.5t2 -1.5q1 0 1 1.5t-1 1.5zM276 306
q-2 0 -2 -1.5t2 -1.5q1 0 1 1.5t-1 1.5zM318 216q-2 0 -2 -1.5t2 -1.5q1 0 1 1.5t-1 1.5zM172 700q-2 0 -2 -1.5t2 -1.5q1 0 1 1.5t-1 1.5zM319 221q0 -1 2 -3v3h-2zM112 673l-2 -3l2 1l1 1zM225 89l-2 -2q1 -1 1.5 0t0.5 2zM309 236q0 -1 2 -3v3h-2zM105 680v-2q-1 0 -1 1
t1 1zM334 189v-2q2 0 0 2zM345 181h1q1 0 1 -1v-2l-1 2zM272 308l2 -2v2h-2zM284 291q-1 0 -1 -1t1 -1q2 0 0 2zM254 183v-2v2zM152 47v-1v1z" />
    <glyph glyph-name="nine" unicode="9" horiz-adv-x="422" 
d="M79 4q0 -4 -4 -4h-1q-2 0 -21 6t-22 9q-4 4 -3 7q1 0 1 1t-2 2.5t-6 3.5q-1 1 -1 3q0 4 13 4q0 3 3 3h2l4 -1q4 -1 5 -1h3.5t4 0.5t3.5 1.5t0 3h79q17 0 42 9q19 6 33.5 20t21.5 28t12.5 38t7 36.5t3.5 37.5q2 6 2 30q0 7 -0.5 42t-0.5 42q-12 0 -40 -6.5t-44 -5.5
q-29 0 -49 5q-4 2 -12.5 5.5t-14.5 8.5q-35 26 -35 78q0 68 38 146l2 2v1q-4 2 -5 4.5t1 6t4 6.5t5 6.5t4 5.5q19 41 53 58q16 7 20 7h47q7 -3 20 -6t23.5 -7t18.5 -11q18 -18 22 -24q1 -3 1 -4q4 -14 8 -17.5t18 -9.5q4 -3 5 -3h8q0 -2 10 -5.5t12 -9.5q3 2 3 5q4 -6 4 -10
q1 -5 1 -34l2 -2h1l-1 -1l-2 -2q0 -4 2 -15t2 -14q2 -29 2 -87q0 -166 -11 -250q-2 -15 -13 -56q-3 -1 -4 -7.5t-3 -8.5q-30 -36 -80 -57q-9 -2 -17 -5q-1 0 -2.5 -0.5t-2.5 -0.5q-79 -17 -126 -17h-9h-11l-5 1q-25 0 -29 9zM187 422q0 -22 5 -30l1 2q-1 3 -1 11.5t1 11.5
q0 6 2 6q0 -14 2 -18l1 -3q0 -1 1 -1l1 1q1 0 2 1q16 21 32 58l7 16v-2q0 -10 -12 -31q-23 -39 -27 -48q-2 0 -2 -4h2q4 4 7 3l32 69q2 5 5 15t6 18t7 15q3 28 3 62q0 10 -15 19q-4 -1 -8.5 -5.5t-7 -8.5t-6.5 -11.5t-5 -8.5l-10 -18v-4l7 5v-1q-14 -33 -29 -102
q-1 -6 -1 -17zM383 127l11 64q4 24 4.5 72t0.5 55l2 -7q0 -38 -2 -92q0 -1 -1 -12l-1 -11v-5q-4 -34 -9 -55q-5 -32 -18 -60l-2 -2v4q1 2 6 21t9 28zM222 649q4 -1 11 -1h4q-1 1 -9 1h-6zM234 588v-2q0 1 3.5 4.5t4.5 5.5zM399 325q1 0 1 -2t-1 -2t-1 2t1 2zM197 439
q1 0 1 -2t-1 -2t-1 2t1 2zM202 466q1 0 1 -2t-1 -2q-2 0 -2 2t2 2zM198 546q-1 0 -1 -2t1 -2q2 0 2 2t-2 2zM197 434v-2q0 -3 -2 -3v1q1 3 2 4zM195 387l-2 -3h2q0 2 2 2zM210 496q2 0 2 -1.5t-2 -1.5q-1 0 -1 1.5t1 1.5zM203 472q1 0 1 -1.5t-1 -1.5t-1 1.5t1 1.5zM401 350
q1 0 1 -1.5t-1 -1.5t-1 1.5t1 1.5zM294 173q-2 0 -2 -1.5t2 -1.5q1 0 1 1.5t-1 1.5zM147 517q0 1 -1 1t-1 -1h2zM401 380q1 0 1 -1v-2q-1 -1 -1 -2v5zM371 280v-2q4 2 0 2zM321 598l1 -2h-1v2zM401 396l1 -2h-1v2zM294 47h-2h2zM220 651h-1h1z" />
    <glyph glyph-name="colon" unicode=":" horiz-adv-x="164" 
d="M49 471q1 3 -2 3q-2 0 -4.5 -0.5t-3.5 -0.5q-9 0 -14 14.5t-5 25.5t7 31t17 20q1 0 3 -0.5t4 -0.5l1 3h1q1 0 2 -2.5t2 -2.5q2 0 5.5 1.5t4.5 1.5q6 0 9 -5q12 0 14 -2q4 0 14 -7q12 -5 13 -5q2 -1 3.5 -3.5t2.5 -2.5q1 -1 5.5 -2t6.5 -3t2 -5v-4q-15 -36 -17 -42
q-4 -1 -13 -8t-17 -7q-2 0 -4.5 1t-3.5 1q-2 0 -5 -1t-4 -1q-3 0 -11 2t-13 1zM49 3q1 3 -2 3q-2 0 -4.5 -0.5t-3.5 -0.5q-9 0 -14 14.5t-5 25.5t7 31t17 20q1 0 3 -0.5t4 -0.5l1 3h1q1 0 2 -2.5t2 -2.5q2 0 5.5 1.5t4.5 1.5q6 0 9 -5q12 0 14 -2q4 0 14 -7q12 -5 13 -5
q2 -1 3.5 -3.5t2.5 -2.5q1 -1 5.5 -2t6.5 -3t2 -5v-4q-15 -36 -17 -42q-4 -1 -13 -8t-17 -7q-2 0 -4.5 1t-3.5 1q-2 0 -5 -1t-4 -1q-3 0 -11 2t-13 1zM141 521q1 0 1 -1.5t-1 -1.5h-1q1 -1 0.5 -2t-1.5 -1t-1 1.5t1 1.5q0 3 2 3zM141 53q1 0 1 -1.5t-1 -1.5h-1q1 -1 0.5 -2
t-1.5 -1t-1 1.5t1 1.5q0 3 2 3zM142 56q2 0 2 -1.5t-2 -1.5q-1 0 -1 1.5t1 1.5zM142 524q2 0 2 -1.5t-2 -1.5q-1 0 -1 1.5t1 1.5zM138 45v-1l-3 -6v2zM138 513v-1l-3 -6v2zM78 38h-2h2zM78 506h-2h2z" />
    <glyph glyph-name="semicolon" unicode=";" horiz-adv-x="180" 
d="M55 -134h-3q-2 0 -6 -4.5t-7 -4.5h-1q1 4 6.5 10t5.5 10h-3q-1 0 -4.5 -4t-4.5 -6l-3 3q3 3 4.5 7.5t2.5 6.5q46 76 55 101l4 15v1h-14q-3 0 -6 2t-5 2t-5 -1t-4 -1l-5 1q-2 0 -5 3l-9 1q-10 0 -14 2q-14 5 -14 45q0 16 15 48q0 9 3 12q0 1 2 1h1l4 -1v-2l-5 -5h2
q3 0 6 3.5t4 3.5q3 0 4.5 -1t3.5 -1q-3 -2 -4 -2v-2q4 -4 8 -4q1 0 4 1.5t6 1.5q1 -4 1 -5q1 -1 4.5 -1t5.5 -1q6 -4 19 -10.5t19 -10.5q0 -3 7 -10q6 -2 7 -3q16 -9 19.5 -17t3.5 -30q0 -26 -7 -47q-1 -1 -5 -8q-1 -3 -3 -8t-4 -9l-2 -5q-4 -16 -14 -26q-3 1 -5 -0.5t-4 -6
t-3 -5.5l-37 -36q-6 -2 -9 -4q0 3 5 7t5 6h-1q-4 0 -11 -11l-10 -10q-2 0 -4 0.5t-3 -1.5q1 2 4 6zM49 471q1 3 -2 3q-2 0 -4.5 -0.5t-3.5 -0.5q-9 0 -14 14.5t-5 25.5t7 31t17 20q1 0 3 -0.5t4 -0.5l1 3h1q1 0 2 -2.5t2 -2.5q2 0 5.5 1.5t4.5 1.5q6 0 9 -5q12 0 14 -2
q4 0 14 -7q12 -5 13 -5q2 -1 3.5 -3.5t2.5 -2.5q1 -1 5.5 -2t6.5 -3t2 -5v-4q-15 -36 -17 -42q-4 -1 -13 -8t-17 -7q-2 0 -4.5 1t-3.5 1q-2 0 -5 -1t-4 -1q-3 0 -11 2t-13 1zM141 521q1 0 1 -1.5t-1 -1.5h-1q1 -1 0.5 -2t-1.5 -1t-1 1.5t1 1.5q0 3 2 3zM142 524q2 0 2 -1.5
t-2 -1.5q-1 0 -1 1.5t1 1.5zM118 90q2 0 2 -1.5t-2 -1.5q-1 0 -1 1.5t1 1.5zM138 513v-1l-3 -6v2zM78 506h-2h2zM47 -116h-3q0 -1 1 -1t2 1zM55 -124v-1h1v1h-1zM49 121h1v-2z" />
    <glyph glyph-name="question" unicode="?" horiz-adv-x="353" 
d="M135 237l-1 -1l-3 -2l-4 8q-6 36 -6 45q-1 15 -1 21q0 2 0.5 10t0.5 10q0 1 0.5 4t0.5 4q0 19 3 28q0 8 10 51q0 2 6.5 18t5.5 22l6 15l29 46q4 4 6.5 7.5t4 8t3.5 7.5q2 4 8.5 15.5t9.5 17.5t6 16.5t3 19.5q0 8 -2 10q-13 11 -17 13h-1q-2 0 -9.5 -4t-8.5 -4l-14 -11
l-16 -9l-4 -4l-1 1h-2l-14 -16q-5 -5 -11 -17l-4 -2q-3 -3 -5.5 -9.5t-3.5 -8.5t-1.5 -1.5t-2.5 -0.5t-5 -7.5t-7 -6.5q-1 0 -2 2t-2 2q-1 -1 -2 -5l-2 -3h-1v6l-3 1q-1 -1 -1.5 -6t-2.5 -5h-1q0 1 -3 1h-1q-2 -2 -2 -3q-1 0 -5.5 -0.5t-5.5 -0.5h-2l-7 1l-3 -1h-2l-3 1h-1
q-1 0 -2.5 -1.5t-2.5 -1.5q-2 0 -5.5 2.5t-5.5 2.5l-6 18v19q3 -1 8 10q11 24 40 57l3 3l6 6l-1 2q-30 -26 -55 -75v1q0 10 7.5 26t8.5 18q10 14 18 20l5 5t8.5 8t5.5 5q4 4 19 14q27 19 45 19l-4 -3q-39 -14 -79 -52q-1 -1 -3 -4h1q8 7 11 10q7 7 16 13q-1 -3 3 -3
q3 0 6 3.5t5 4.5t9 4t9 6l-1 1q-5 0 -14 -7t-13 -7h-2q5 9 39 22l18 6l4 3h9q2 0 13 1t13 2l3 2h1l50 -10q7 -2 18 -7t13 -6q62 -20 70 -61v-13q0 -27 -11 -51.5t-32.5 -54t-29.5 -43.5q-28 -49 -31 -121q0 83 42 145q4 7 18.5 26.5t21.5 30.5t14 29.5t7 35.5q0 11 -2 18
l-2 6h-2v-30q-1 -33 -35 -83.5t-37 -56.5q-13 -26 -19 -49q0 -2 -3.5 -20t-3.5 -20l-1 -2q-1 -2 -1 -3q-5 -47 -4 -69q-9 -7 -12 -22v-3h-1q-2 1 -3 1l-1 -1v-8h-1l-3 2q0 -1 -2 -3.5t-3 -2.5l-1 -1l-1 1l-3 2q-2 0 -2 -1l-1 -4h-3q0 -1 -3 -5t-4 -4h-4q-5 0 -7 -3q0 3 -4 7
q-1 -1 -1.5 -3t-1.5 -3q-5 0 -9 8q-1 -1 -2 -5.5t-3 -4.5q-6 0 -7 9t-4 9zM152 26l-1 -1l-3 -3q-10 36 -10 42q-3 33 -3 76v3h2q0 -11 3 -11q1 0 5.5 2t7.5 3q10 0 12 8h2q0 -7 3 -7h1l1 3q5 1 6 2h1q1 0 4 -1.5t4 -1.5l5 -2h14q2 -1 6 -1h2l3 1q1 -1 2 -1l1 -3q1 -3 1 -4
l13 -2l1 -2l1 -8q0 -8 1 -20t1 -16q0 -2 0.5 -10t0.5 -10q-3 0 -4.5 -1.5t-2.5 -5t-2 -4.5q-2 -3 -5 -6.5t-4 -8.5q-3 3 -4 3q-2 -1 -4 -4.5t-3 -4.5q-2 3 -3 4h-1l-6 -8l-2 2h-1l-4 -7l-2 1h-1q-3 0 -3 -4q-3 3 -5 3l-2 -2q-1 2 -2 2t-2 -1t-3 -1t-2.5 2.5t-1.5 3.5
q-1 -2 -3.5 -4t-3.5 -5zM180 506q-10 -10 -17 -28h1q1 0 8.5 12t7.5 14v2zM242 112v8l2 -3q1 -27 2 -38v-6q-4 12 -4 39zM115 661l2 -1q3 0 3 4q-4 0 -5 -3zM123 664l2 -1q1 1 1 3q-2 0 -3 -2zM184 511q-2 0 -2 -1.5t2 -1.5q1 0 1 1.5t-1 1.5zM229 288q1 0 1 -1.5t-1 -1.5
t-1 1.5t1 1.5zM312 612l-1 -1h2zM146 144h1v-1h-1v1zM156 463h-1h1z" />
    <glyph glyph-name="at" unicode="@" horiz-adv-x="598" 
d="M493 114l-12 -26l-2 -1q-2 -1 -3 -3q-3 -6 -10 -14.5t-10 -12.5l-1 -4q-5 -7 -21 -15q-50 -27 -95 -36q-1 -1 -7 -1q-49 -9 -81 -9q-48 0 -88 13q-4 2 -6.5 4.5t-6.5 4.5q-39 22 -41 24q-33 28 -57 80t-29 102v38q-2 2 -2 3v2q1 2 2 2v1q0 1 -3 25q0 3 1.5 9.5t1.5 9.5
q16 114 29 149q6 18 17 41q0 1 5.5 10t5.5 10v2l1 2l-1 1v2q3 0 5.5 4t5 9.5t3.5 6.5q8 15 41 52h-3q0 1 6 2l5 8q11 11 25 19l4 1q1 1 0 3l-1 1q-12 -8 -16 -11q-20 -11 -46 -40q-3 -4 -9 -12.5t-11 -13.5l-1 2q0 4 4.5 10t11 12.5l7.5 7.5q33 39 79 62.5t94 23.5h18
q2 0 17.5 -2t17.5 -2h4q32 -11 40 -12q22 -7 51.5 -22t37.5 -26q3 1 4.5 0t2.5 -3.5t2 -3.5q51 -51 67 -110q0 -1 2 -3q4 -7 8 -26.5t6 -25.5q0 -2 1 -2q3 1 3 2v-5q0 -3 2 -11l1 -7l1 -1q2 1 2 4q1 -2 1 -15q0 -15 -1 -15q0 -6 -3.5 -21t-3.5 -22q4 0 6 12t4 13v-4
q0 -6 -1 -7q-36 -119 -94 -144q-5 -2 -45 -9h-1h-4q-4 1 -5 1l-1 5h-2q-1 -4 -1 -5h-7q-30 0 -53 33l-1 3t-2 3q-6 6 -7 8q-2 -2 -3 -2q-30 -30 -42 -34q-10 -5 -30 -9q-2 -1 -9 -1t-9 -2h-8q-36 0 -52 14q-19 15 -30 42.5t-11 54.5t4 48q0 3 2 5h2v5q13 35 16 40
q1 2 5.5 10.5t5.5 12.5l30 40v1l-3 1h-1q0 -1 -1 -2q-22 -29 -26 -37h-2v1q0 6 10 19q19 33 38 42q1 0 5 3t8 5t5 2q5 0 21.5 -5t18.5 -5q1 -3 3.5 -4.5t6 -1.5t5.5 -1l4 -5q4 -2 13.5 -4t13.5 -4q6 -4 12.5 -14t11.5 -13q4 -3 12 -5.5t11 -3.5q3 -4 3 -5q3 -1 7 -1
q1 0 2 -2.5t3 -2.5q3 0 4 4v-32q0 -3 6 -9q0 -2 1 -12.5t2.5 -19.5t5 -23.5t8.5 -28.5q1 -2 2.5 -8.5t3 -11.5t3.5 -5v1l6 6q24 33 35 62q11 58 11 63q0 45 -21.5 90t-55.5 79q-13 14 -42.5 24.5t-49.5 10.5q-15 0 -39 -10h-1l-2 -1q-12 -6 -16 -6q-22 -11 -25 -14
q-8 -4 -18 -14l-29 -30q-1 -1 -10 -12.5t-11 -14.5q-33 -46 -33 -64q0 -1 2 -2l1 -1l-1 -1q-8 -24 -9 -36l-2 -2q-2 -10 -3 -14q-3 -24 -3 -26t1 -3t1 -3q0 -6 -3 -20t-3 -18q-1 -18 -1 -54q0 -43 3 -64q1 -4 4.5 -14t3.5 -12l2 -7q12 -46 24 -68q1 0 4.5 -6t7.5 -13t5 -8
q33 -33 49 -40q2 -1 9 -2t10 -3l4 -1h5l9 1q30 6 32 7q5 3 18.5 7.5t15.5 5.5q31 15 65 54q3 2 5.5 4.5t4.5 6.5t4 6q0 4 3 4q4 4 12 17t13 18v-3h1l7 7h1q0 -4 -4 -9.5t-4 -6.5v-1l2 -1q3 2 8 9.5t9 10.5v-7q3 0 9 3t8 3q3 0 4 -3t4 -3q2 0 7 2.5t6 2.5q3 0 4.5 -4t2.5 -9
v-5q0 -1 2 -4l2 -3v-2l-1 -2q5 4 6 3t-1 -8v-1q1 -3 -11 -28zM238 319q0 -32 16 -47q5 5 10 2q6 6 15 18t14 17l3 1l-1 5q5 0 5 1l12 22l1 2v-2q0 -7 -8.5 -19.5t-8.5 -19.5q5 0 15.5 23t10.5 30v1q-12 52 -13 94q-3 6 -13 16q-4 -2 -10 -4l-11 -12q-3 -3 -10 -13.5
t-7 -11.5l2 -4q0 -3 -6.5 -14.5t-5.5 -15.5l-7 -23v-2l2 -2l-2 -3l1 -3v-4q-5 0 -5 -8h3q0 -4 -1 -11.5t-1 -12.5zM136 457q-3 -2 -8 -20t-5 -23v-1l2 2l11 39v3zM82 548l1 -1l-10 -16v3q0 3 3 8.5t6 5.5zM43 452l-1 -14l-2 -2v14l2 1zM151 484h1l-4 -10h-3q0 10 6 10z
M50 471q0 -10 -4 -12v1q0 11 4 11zM430 156q-6 -6 -6 -9v-2q6 4 6 10v1zM39 433l1 -2q0 -7 -3 -7q0 8 2 9zM116 572l-1 -2l-4 -6v-1l7 7zM70 520v-2q0 -3 -3 -6v1q0 4 3 7zM30 393v-3q0 -4 -2 -7v3q0 4 2 7zM429 166q-1 0 -4 -5h1q2 0 4 5h-1zM59 497q1 0 1 -1.5t-1 -1.5h-1
q1 -1 0.5 -2t-1.5 -1t-1 1.5t1 1.5q0 3 2 3zM83 540h1l-2 -2q-1 -3 -2 -4v1q0 5 3 5zM246 276q0 -5 3 -5q0 5 -2 5h-1zM163 90q-1 0 -1 -1.5t1 -1.5t1 1.5t-1 1.5zM90 551h1q0 -4 -3 -4q0 4 2 4zM250 405h1h-1zM464 160v-2q-1 -1 -1 -2q1 0 3 3zM129 595l-5 -5l-1 1l3 3l2 1
h1zM21 327q1 0 1 -2t-1 -2t-1 2t1 2zM126 379q2 0 2 -2t-2 -2q-1 0 -1 2t1 2zM71 529h1l-3 -5v2q0 3 2 3zM33 413q1 0 1 -1.5t-1 -1.5t-1 1.5t1 1.5zM52 478q1 0 1 -1.5t-1 -1.5q-2 0 -2 1.5t2 1.5zM155 491q1 0 1 -1.5t-1 -1.5t-1 1.5t1 1.5zM62 503q1 0 1 -1.5t-1 -1.5
q-2 0 -2 1.5t2 1.5zM72 515q1 0 1 -1.5t-1 -1.5q-2 0 -2 1.5t2 1.5zM86 545q1 0 1 -1.5t-1 -1.5q-2 0 -2 1.5t2 1.5zM30 237q-2 0 -2 -1.5t2 -1.5q1 0 1 1.5t-1 1.5zM95 557l1 -1l-4 -2v2h2zM43 325q-1 -1 -1 -3q2 0 3 1zM21 320q1 -1 1 -3t-1 -2v5zM84 554h3l-3 -3v3z
M53 485h2l-2 -4v4zM121 401v-4q1 0 1 1.5t-1 2.5zM207 447q-2 0 -2 -2h2v2zM157 496q1 0 1 -1.5t-1 -1.5t-1 1.5t1 1.5zM264 280q1 0 1 -1.5t-1 -1.5t-1 1.5t1 1.5zM64 509h2v-1h-2v1zM35 420q1 0 1 -1t-1 -1t-1 1t1 1zM115 583q1 0 1 -1t-1 -1t-1 1t1 1zM577 377q1 0 1 -1
t-1 -1t-1 1t1 1zM267 503q0 1 -1 1t-1 -1q2 -2 2 0zM142 463h1l-1 -3v3zM253 411v-3l1 1v2h-1zM177 635v-1h1v1h-1zM484 104l-1 -2h1v2zM73 197v-2h1zM121 406v-1h1zM479 152v-1v1zM251 499h-1h1zM562 427v-1h1zM240 508h-1h1z" />
    <glyph glyph-name="A" unicode="A" 
d="M33 17q-1 1 -1 3t1 3q-3 0 -4 -2q-4 0 -6 7q-5 13 2 53q0 19 8 99q4 12 7 53q5 36 16.5 100.5t15.5 88.5q1 7 6.5 23t6.5 25l1 2v2l-1 4q2 11 10.5 48.5t11.5 57.5q1 1 2 13.5t2 13.5q5 30 14 66q6 18 10.5 21.5t20.5 3.5h2l17 -2q3 -2 4 -2l2 2q2 -1 3 -1l3 -1q1 0 1 -1
l2 -1q2 0 8.5 3.5t8.5 3.5h1q5 -1 12 -6t18 -7q4 0 13 1.5t14 0.5q5 0 9.5 -2t7 -3.5t6 -6t4.5 -7t4.5 -9t4.5 -8.5q1 -3 7 -17.5t7 -16.5q5 -5 5 -6l2 -1l8 3h1q-1 -2 -1 -10.5t2 -9.5h1l2 1l2 1q4 -16 14.5 -46.5t14.5 -44.5q21 -80 39 -176q0 -1 3 -13t2 -17h-2
q-2 0 -4 12.5t-4 28t-5 20.5l-17 78q-5 -2 -5 -5q-1 -2 1 -15.5t4 -17.5l9 -37q2 -3 2 -4l30 -164q0 -4 9 -54t6 -73l-3 -7l-1 -7q0 -16 -1 -19q-1 -5 -8 -13.5t-11 -11.5q-2 0 -5 0.5t-3 -1t-2 -9.5q-3 0 -4.5 3t-2.5 3q0 -6 -6 -12q-4 -1 -5 -1q-7 0 -7 6q-2 -2 -5 -2h-2
q-17 16 -26 65l-1 7q-2 11 -7.5 49t-8.5 49l-3 3l-10 69q1 4 -4 4q-8 1 -64.5 -17.5t-59.5 -22.5q-4 -41 -11 -61q-1 -5 -6.5 -16t-6.5 -18q-1 -2 -4 -14l-3 -13q-1 -3 -3.5 -9.5t-6.5 -12.5t-7 -6h-1q-3 1 -4 2q2 -3 0 -4t-2 -4l-2 -8q-2 -4 -10 -8t-9 -5q-37 -26 -64 -23
h-8l-2 5q-2 4 -1 5zM207 359l-10 -76q0 -4 5 -4q2 0 5.5 2t5.5 2l1 -2q2 -1 3 -1h1l39 6q24 -4 37 -4h4t5 0.5t2 2.5v1l-19 94q-4 21 -14 63q-11 58 -31 117l-2 10q-14 -61 -14 -62l-1 -4q0 -5 3 -5l-4 -40l3 -3l-4 -19q-1 -11 -6.5 -32t-6.5 -31q0 -1 0.5 -4t-0.5 -5
q0 -6 -2 -6zM410 296q3 -1 13.5 -52t9.5 -57v-3l-3 3q-12 62 -18 88q0 4 -1.5 11t-0.5 10zM371 462q-3 -9 3 -10q0 9 -3 10zM134 76l-2 -7q5 1 5 7h-3zM337 593q-2 -1 -1 -5q2 0 2.5 2t-1.5 3zM368 481q-2 0 -2.5 -2t1.5 -2q2 1 1 4zM134 65q-1 -2 -1 -5q1 2 1 5zM41 211
q-1 -2 2 -4l1 4h-3zM431 176v1q1 0 2 -1l1 -2v-2q-3 0 -3 4zM135 99l-1 -4q3 0 3 3zM344 571q-2 0 -2 -2t2 -2q1 0 1 2t-1 2zM313 642l1 1l2 -5h-1l-1 1q-1 1 -1 2v1zM181 538v-4l3 1zM98 522q-2 -2 1 -4l1 4h-2zM350 536v-3l3 -1zM64 15l-1 -2h2l1 2h-2zM76 120v-2v2z
M186 419q-1 0 -1 -1t1 -1v2zM117 87q-1 0 -1 -1t1 -1q4 0 0 2zM313 649v-2v2zM118 331q-1 -1 -1 -3q1 0 1 3zM223 486v-1v1zM415 152v-2q1 0 1 1t-1 1zM321 629v-5q-2 2 0 5zM363 489v-2l2 2h-2zM359 504v-2h2zM338 580v-2h2zM37 118l-1 -2q3 0 1 2zM233 688v-1v1z" />
    <glyph glyph-name="B" unicode="B" horiz-adv-x="450" 
d="M100 -42l-3 -2l-1 6q-2 5 -3 6l-1 2q-2 0 -6.5 -3.5t-3.5 -4.5q-1 5 -7 21t-7 28q0 1 0.5 14.5t0.5 15.5l-8 117q0 6 -1.5 19t-2 19.5t0.5 18.5l-10 160q0 2 -0.5 8.5t-2 29.5t-3.5 55q-3 24 -3 28l-19 179v4q0 5 7 5h2l2 -3l2 -3h1q2 0 11 4t11 6h2q1 0 1 -4t2 -4l3 1
q33 26 58 34.5t64 5.5l3 3l2 -2q0 2 5 2q4 0 6 -3q99 5 157 -62q19 -24 17 -77q-1 -34 -11 -67q-3 -5 -7.5 -17t-6.5 -16q-30 -68 -65 -96v-1q5 -2 8 -3q132 -23 129 -132q0 -1 -1 -4v-3q-5 -3 -3 -13q-4 -24 -14 -62l-3 -4q-43 -65 -83.5 -97t-111.5 -57q-3 0 -7 -4
q-2 0 -12.5 -2.5t-11.5 -2.5l-4 -2l-3 -1l-3 -1l-7 3q-1 0 -10.5 -15.5t-18.5 -17.5q-7 0 -9 -2q-3 -1 -3 -7q-3 3 -3 7q-3 -1 -3.5 -8t-2.5 -7t-7 8h-2zM181 455l7 -48l1 -1q1 0 3.5 2.5l5.5 5.5l2 4q39 45 57 106q5 17 13 80v2q1 31 -24.5 51.5t-59.5 21.5
q-12 1 -35.5 -9.5t-23.5 -22.5q0 -7 2 -13l3 1q2 -2 5 -13l2 -1v8q6 -3 3 -11q3 2 4 2h1q0 -1 5.5 -19t7.5 -26q1 -4 2 -20t3 -24q0 -9 6 -4q0 -18 2 -24q0 -1 2 -8l2 -7q0 -24 4 -33zM171 95l1 -4q0 -1 0.5 -10t0.5 -10h1q4 0 22 12t20 16l1 3q3 2 5 0q10 6 13 13l2 5h4
q4 2 9 11t10 9l-1 2v2l1 2l4 2l2 2q10 16 12 17q27 48 28 91v3q0 35 -7 45q-18 26 -56 28q-38 0 -48 -17v-24q1 -2 1 -26q0 -40 -2 -58l-2 -5v-32q-1 -3 -3.5 -6t-2.5 -4v-77h-1l-3 11l-1 -6l-6 52q0 4 -4 6q0 -7 0.5 -21t0.5 -20v-5v-4zM188 67q-1 -1 -5 -2.5t-5.5 -3
t-3 -4t-1.5 -6.5q1 0 9.5 5.5t9.5 7.5q15 15 20 16l37 35q5 5 6 7h-3q-23 -24 -56 -49q-1 -1 -2.5 -3.5t-3.5 -3.5zM275 150q-10 -10 -10 -14v-1q10 10 10 14v1zM378 630v4q3 -4 3 -9v-3q-3 4 -3 8zM413 297v-7h3q0 7 -3 7zM383 619q1 -7 1 -16v-3l-1 -2v21zM167 518
q-1 0 -1 -2.5t1 -2.5q2 0 2 2.5t-2 2.5zM376 645q2 0 2 -2t-2 -2q-2 1 -2 2.5t2 1.5zM173 159v-8q1 1 1 4t-1 4zM172 177q-2 0 -2 -2t2 -2q2 -1 2 1t-2 3zM370 655q2 0 2 -2t-2 -2t-2 2t2 2zM397 282q-1 0 -1 -2.5t1 -2.5t1 2.5t-1 2.5zM191 161q2 0 2 -2t-2 -2q-1 0 -1 2
t1 2zM261 410q-1 0 -1 -1.5t1 -1.5t1 1.5t-1 1.5zM418 200q2 0 2 -1.5t-2 -1.5t-2 1.5t2 1.5zM427 249q1 3 2 4l-1 -8l-1 2v2zM250 61q-2 0 -2 -2t2 -2v4zM260 133q-1 0 -1 -1.5t1 -1.5q2 1 0 3zM102 192q-2 -1 0 -3q1 0 1 1.5t-1 1.5zM98 -37q-1 0 -1 -2t1 -2q2 0 2 2t-2 2
zM289 457q-1 0 -1 -1.5t1 -1.5t1 1.5t-1 1.5zM428 239q2 0 2 -1.5t-2 -1.5q-1 0 -1 1.5t1 1.5zM190 241q-2 0 -2 -1.5t2 -1.5q1 0 1 1.5t-1 1.5zM420 257v-4l2 1zM188 232v-2q1 0 1 1t-1 1zM139 643q-1 -1 -1 -2q0 1 1 2zM378 639q0 -2 -1 -2zM361 642q-1 0 -1 -1t1 -1
q2 0 0 2zM427 258v-1v1z" />
    <glyph glyph-name="C" unicode="C" horiz-adv-x="377" 
d="M28 236q-3 14 -4.5 37t-3.5 28q6 33 6 67l-1 3q1 2 0 6h2v1v7q0 3 1 4l-1 1v2q1 1 1 2l3 17q-1 3 2 6l2 15l3 1h-4l-1 2q6 6 15 56v2l-1 5l2 2l2 2l1 2q0 2 -1.5 4.5t-1.5 4.5q1 3 4 4t3 2l-1 3q-1 2 0 4v3l3 -3q0 3 -0.5 4.5t-0.5 2.5v2q0 1 1 6l2 5l1 3q25 59 68 94.5
t103 28.5q7 0 10 -3q5 -1 18 -1q28 -4 57.5 -20t27.5 -38l-1 -2q2 -17 -10 -21q-2 -1 -4 -3l-3.5 -3.5l-2.5 -2.5l-2 -2h-2l-2 1l-5 -3q-5 -3 -12 -6t-14 -2v5q2 16 -11.5 35t-29.5 20q-2 0 -6 -2t-8 -4.5t-5 -3.5v-2q0 -5 -9.5 -19t-9.5 -18q0 -2 1 -2h-1q-19 -46 -19 -65
v-6q-1 0 -3.5 -7t-4.5 -8l1 -3q0 -1 -1 -5t-1 -5q0 -32 -7 -48l-2 -29q0 -14 -4 -22v-1q0 -22 1 -27h3q0 -1 -0.5 -7.5t-0.5 -11t2 -10t5 -7.5v-52q19 -86 26 -102q22 -51 64 -39l9 3q10 12 26 12q3 -1 9 -7q0 2 5 5t9 2v-5q6 -1 13.5 0t11.5 2l5 2h2q0 -18 -3 -26
q-26 -48 -111 -48l-33 -3l-7 1q-2 0 -4 -1l-33 5l-2 1l-7 1q-43 13 -73.5 46t-44.5 78q-1 3 -5.5 19t-3.5 27q-2 0 -2 2zM173 385v-13q0 -13 -1 -13t-1 13t2 13zM176 340q1 0 1 -3q0 -2 -1 -2q-2 0 -2 3q0 2 2 2zM307 139q1 0 1 -2t-1 -2q-2 2 -2 3t2 1zM167 345v-4h2v4h-2z
M300 132q-1 -1 -1 -3h2q0 1 1 3h-2zM35 450q1 0 1 -2h-1l-1 -1l-1 1q0 2 2 2zM171 288q0 1 -1 1l-1 -1q0 -2 1 -2q1 1 1 2zM97 518v-2h1v2h-1zM47 507l2 -2h-1q-1 0 -1 2zM67 448q-1 1 -2 1v-1h2zM75 384q0 1 -2 1q-1 1 -1 0zM330 602v-1h2z" />
    <glyph glyph-name="D" unicode="D" horiz-adv-x="456" 
d="M86 -20q-38 73 -32 207l-23 375q-3 20 -11 107q0 6 7 6q2 0 2 -1q1 -1 2 -1l3 4l2 -4q94 24 127 24q3 0 10 -1t13 -1q5 0 14 0.5t10 0.5q2 -2 31 -6q60 -16 101.5 -42.5t66.5 -74.5q1 -3 9.5 -30t8.5 -40h-3q0 -9 3.5 -24.5t3.5 -22.5q-2 5 -6 5v-48q-4 -12 -5.5 -34.5
t-4.5 -33.5q-17 -63 -43 -122t-76 -119t-110 -84q-3 -1 -6 -6t-7 -5l-4 4q-6 -19 -24.5 -29t-21.5 -13q-7 0 -7 2q-1 0 -1.5 -2t-3.5 -2q-9 0 -15.5 5t-9.5 6zM188 317l10 -178q8 4 14 13.5t12.5 24t7.5 17.5q12 15 22 33.5t13.5 26.5t13 34t10.5 29q0 1 0.5 2t0.5 2
q25 77 25 121q0 93 -53 167q-15 18 -47.5 30t-55.5 12q-16 0 -16 -6q0 -3 6 -27q2 2 3 2q2 0 3 -7.5t7 -7.5q6 -12 11 -83q13 -147 13 -205zM200 127l1 -2l1 -1q39 45 63 101q-2 0 -5.5 -6t-7.5 -14t-7 -11q-45 -60 -45 -67zM429 496v2q1 -3 4 -13.5t2 -14.5q-6 12 -6 26z
M392 585q0 -4 1.5 -6.5t4.5 -1.5q0 7 -6 9v-1zM415 524q0 -6 8 -6q0 6 -8 6zM433 439q0 -7 -2 -7q0 6 2 7zM381 605q0 -2 2 -4l2 2q-1 2 -4 2zM431 415q1 0 1 -2t-1 -2q-2 0 -2 2t2 2zM158 489q-1 0 -1 -2t1 -2t1 2t-1 2zM33 586q-2 0 -2 -2q1 -1 2 -1l1 1zM378 612
q-2 0 -2 -2q1 -1 2 -1l1 1zM365 520l-3 -2h3v2zM157 426l-2 -1q0 -1 2 -1v2zM422 512q0 1 -2 1q0 -2 1 -2t1 1zM99 19q-1 0 -1 -2h1q1 0 1 1zM402 352q-1 1 -2 1l-1 -1h3z" />
    <glyph glyph-name="E" unicode="E" horiz-adv-x="358" 
d="M28 48q-8 74 -8 141q0 15 1 31t2.5 36t2.5 31q1 17 2 48t2.5 56.5t4.5 47.5v184q0 1 0.5 10.5t0.5 11.5t1 10.5t2 14.5t3 13.5t6 11.5t9 4v-8q2 2 10 4t14.5 3.5t6.5 3.5l2 -3h1q84 20 126 20q1 0 11 -1t12 -1h4q18 -2 36 -2q12 -1 35 -12.5t23 -20.5h-10l5 -6
q-6 -2 -15 -7.5t-17 -8t-18 -2.5q-7 0 -19.5 3t-19.5 3q-40 0 -76 -11q0 -1 -1 -8t-1 -9q0 -6 4 -23t4 -20v-8q2 -12 2 -37q0 -1 1 -9t2 -9l1 -2v-3v-1v-5q-1 -5 -1 -6v-1l1 -5v-6t1 -10t1 -11l2 5v-27l5 -4v-6q0 -7 -1 -21t-1 -22q5 0 14.5 2t15.5 2q4 0 11.5 -1.5
t11.5 -1.5q7 0 21.5 1.5t20.5 1.5h10l24 -13l2 -2q0 -13 -27 -25h-1l-103 -34q0 -2 -7 -89v-30q0 -55 2 -87q1 -6 1.5 -8.5t2 -3.5t6.5 -1q10 0 28 2.5t28 2.5h2q3 0 17 -1t16 -2q2 -2 9.5 -3.5t12.5 -4t5 -7.5v-1q-2 -3 -2 -4q-18 -13 -28 -19q-30 -11 -32 -12
q-8 -5 -23.5 -16.5t-23.5 -16.5q-7 -4 -37 -16l-5 -3q-2 -1 -9.5 -6.5t-14.5 -10t-10 -5.5h-11l-12 -6t-16 -5q-15 0 -27 11.5t-17 21.5t-12 28zM158 643v-17q4 13 4 26q-5 0 -8 -5zM191 297v-6q0 -6 -2 -28v8q0 21 2 26zM189 230q0 -2 -1 -7.5t-1 -8.5v21q0 -1 1 -3z
M159 590q-1 0 -1 -2.5t1 -2.5h1q0 -2 2 -2t2 2.5t-2 2.5h-1q0 2 -2 2zM189 178q1 -2 1 -7t-1 -7v14zM191 308q1 0 1 -2.5t-1 -2.5t-1 2.5t1 2.5zM154 635q-2 0 -2 -2t2 -2t2 2t-2 2zM189 464q1 0 1 -2t-1 -2t-1 2t1 2zM182 474q-2 0 -2 -2t2 -2t2 2t-2 2zM189 157
q1 0 1 -1.5t-1 -1.5t-1 1.5t1 1.5zM47 38q-1 0 -1 -2t1 -2t1 2t-1 2zM191 126q1 0 1 -1.5t-1 -1.5t-1 1.5t1 1.5zM152 639l2 -3v5zM187 246q1 0 1 -1t-1 -1v2zM187 202v-1v1zM80 133v-2h1v2h-1zM161 588q-1 0 -1 -3q1 0 1 3z" />
    <glyph glyph-name="F" unicode="F" horiz-adv-x="335" 
d="M110 -24h-1q-4 0 -4 -1q0 9 -1 9q-2 0 -2 -4h-1q-16 1 -45 128l-6 23l-12 66l1 4q-10 70 -11 132v54t-1 54q0 1 -1 4t-1 4q3 29 3 85t2 85q-7 10 -10 20q9 11 16 12q0 25 11 24q2 0 2 -6q4 0 13 7h2l2 -2l1 -1l1 1q7 3 23.5 11t25.5 11q9 2 19.5 3t23 1.5t18.5 1.5
q3 0 23 1.5t22 1.5h11q7 0 12.5 -2t12.5 -5t11 -4q-5 -3 -6 -7t-5 -7q-24 -14 -48 -12q0 -1 -6 -3t-13.5 -4t-9.5 -3q-25 -15 -30 -17v-2q0 -5 1 -21l1 -17q0 -8 1 -9q0 1 3 4h1q0 -8 3 -9q2 -1 4 1q3 -111 2 -133q3 0 23 5q62 6 65 6q0 -2 -3 -3t-4 -2h7q5 0 16 2t17 1
q13 0 16 -3t3.5 -6.5t1.5 -5t5 -1.5q-1 -6 -22.5 -18t-30.5 -15q-40 -22 -85 -38v-11l-2 9h-2l-4 -3q0 -1 -1 -6v-4q0 -12 2 -17q5 -117 8 -136q2 -7 6.5 -30t9 -48t5.5 -29q3 -6 1 -12v-2q0 -3 -2 -4l-1 -28q-2 -3 -2 -4v-18q-4 2 -6 10t-3 9l-1 -2l-1 -1v-1l1 -7
q1 -8 1 -9q0 -3 -1 -3q0 -9 -3 -9h-1l-1 3q-2 2 -3 2q-2 0 -3 -4t-1.5 -8.5t-1.5 -5.5q0 -3 -5 -3q0 -1 -1 -5l-1 -4q-3 -8 -17.5 -12t-15.5 -11l-4 4q-1 -5 -7 -5q-3 0 -5.5 2t-4.5 2zM177 345l1 -5l-1 -28v33zM96 3q-5 0 -5 -4h5v4zM179 303q2 -5 -1 -11zM180 287
q1 -1 1.5 -3.5t-0.5 -3.5v-2h-2zM183 104q-1 0 -1 -2t1 -2t1 2t-1 2zM144 626q-2 0 -2 -1.5t2 -1.5t2 1.5t-2 1.5zM194 107q-2 1 -2 -1t2 -3q1 0 1 2t-1 2zM181 273q1 -1 1 -3t-1 -3v6zM259 468h2l-1 -2h-2zM88 24v-2h2v2h-2zM131 -18v-4q1 1 1 2.5t-1 1.5zM222 450
q-2 1 -2 0q2 -4 2 0zM185 57q-1 0 -1 -1t1 -1t1 1t-1 1zM133 511q-1 0 -1 -1t1 -1t1 1t-1 1zM86 175h-2q2 -2 2 0zM38 491h-2q0 -2 2 0zM183 60v-2q2 2 0 2zM179 71v-2q2 2 0 2zM179 309q2 0 0 -2q-1 0 -1 1t1 1zM177 350v-2v2z" />
    <glyph glyph-name="G" unicode="G" horiz-adv-x="457" 
d="M20 291q0 121 61 266l18 42q3 5 15.5 30.5t23 44.5t27.5 36t34 17q8 0 23.5 -5t22.5 -5h16q21 0 21 -14q0 -6 -6.5 -10.5t-6.5 -8.5l1 -2l1 -2q-4 -8 -16 -14t-17 -19q0 -1 2 1q4 3 5 3q1 -6 -4 -19.5t-12.5 -29.5t-9.5 -21q-2 -8 -3 -23t-4 -23q-3 -10 -10 -28
t-9.5 -26.5t-7.5 -26.5t-10 -40t-11 -53v-5q0 -36 -6 -46q1 -13 2 -35.5t3 -41.5t8 -41q2 -5 7.5 -25.5t13.5 -38.5t18 -26l2 1q0 1 -7 15q-32 62 -32 111q5 -25 20.5 -73.5t24.5 -48.5q17 0 61 138l1 2v-2q0 -8 -46 -129l-2 -7q2 -1 5.5 4.5t7.5 16t8 21.5t8 21.5t6 14.5
l36 127l-1 3l-3 -3q-1 5 3 7.5t4 5.5q0 1 -0.5 7t-0.5 7h-1q0 -10 -4 -14v14q0 4 -4 4q-6 -2 -7 -2q-45 -2 -45 15q0 4 1 6q-7 0 -7 7t11.5 17.5t21.5 18t8 8.5q-2 -2 -10 -2q27 15 64 15q47 0 104 -20q0 -14 -18 -19.5t-19 -14.5q-3 6 -5 6l-2 -2l-3 -2q4 -6 5.5 -28.5
t1.5 -23.5q5 0 5 31v10q0 -5 4 -9q0 -10 -3 -30.5t-3 -34.5q1 -1 2 -1q2 1 5 11q0 -18 -24 -114q-5 -5 -5 -16v-2q1 -2 1 -3q0 -12 -11.5 -48t-15.5 -42h4q0 -4 -5.5 -10t-5.5 -10h4q-10 -11 -42 -26l-32 -15l-63 -13q-6 0 -21.5 -0.5t-19.5 0t-15.5 3.5t-21 9.5t-22.5 17.5
q-46 39 -69 111.5t-23 147.5zM264 409l-26 -21v1q1 1 5.5 6.5t10 9.5t10.5 4zM400 285q-4 0 -4 -15q4 0 4 8v7zM284 262q0 -10 -5 -10zM49 425q-5 0 -5 -7q5 0 5 7zM169 245v4q2 -7 2 -16q-2 4 -2 12zM45 410q-4 0 -4 -6q3 -1 3.5 1.5t0.5 4.5zM26 325v-6h2v6h-2zM409 310
l1 -1v-2l-1 -3q-1 0 -1 3t1 3zM38 216q-1 -1 -1 -4l4 2zM162 495v-3h2v3h-2zM116 270v-3h2v3h-2zM284 267h3q0 -1 -2 -1q-1 0 -1 1zM59 294h-2l1 -2q0 1 1 2z" />
    <glyph glyph-name="H" unicode="H" horiz-adv-x="420" 
d="M394 448q-1 0 -1 -2t1 -2l-11 -218q-1 -6 -2 -7l-2 -4v-1q0 -14 3 -44t3 -45v-14q-1 -1 -2 -1l-5 -16v-6l-7 -1l-1 -3l1 -4q1 0 1 -1l-2 -1l-4 -2t-2 -3q0 -8 -1 -9q-3 -6 -14.5 -12t-13.5 -10q0 -3 -2 -3q-3 2 -4 3q-1 -2 -7 -8h-3q-1 0 -4 1.5t-4 1.5l-1 1l-1 -1
q-2 -2 -2 -3q-57 48 -57 181q0 23 2.5 69t2.5 69q-6 0 -40 -13.5t-35 -15.5v-12v-19v-12l-1 3l-3 1q0 -1 -0.5 -10t-0.5 -11q0 -56 18 -123l-2 -2l-2 2q-4 11 -8 34.5t-7 39t-6 15.5q10 -80 23 -124v-3q0 -5 -3 -5l-1 1q-2 6 -4 7q1 -11 -1 -31v-1q-6 -1 -6 -10h-1
q-1 0 -3 1l-2 1q-1 0 -1.5 -10t-9.5 -10l-1 -9h-1q-4 2 -7 -3q-6 -13 -7 -13q-4 1 -4 0q-22 -13 -22 -19l-6 8q3 -11 -5 -11t-11 6q-3 -1 -3 -9l-1 1q-12 12 -20 35q-28 79 -33 113q-7 41 -10.5 116.5t-6.5 104.5v231q0 67 1 80q4 7 14 7l3 -1q3 0 5 2.5t5 2.5q1 0 2 -1
t3 -1t7 2t7 2h1l4 -2l3 2q4 3 8.5 5.5t8.5 2.5t12 -2.5t12 -2.5q1 0 3 1.5t4 1.5l2 -1l4 -11h1q2 0 5 6q8 -3 10 -19q0 1 1 3l1 3h1q6 0 6 -19h4q0 -10 1 -32.5t1 -34.5v-3l2 -17h2q0 4 8 19q1 -5 1.5 -12.5t0.5 -9.5q0 -32 5 -189h4q13 0 37.5 7.5t35.5 7.5q2 0 5 62.5
t5.5 135t4.5 86.5q5 25 5 39v4.5t1 6t4 2.5q4 -2 5 -2l9 -1q2 0 8 1.5t8 1.5t6 -1t7 -1q1 0 7.5 2.5t8.5 1.5l3 -4h2l3 2l2 -2q2 0 8 -1.5t7 -1.5q2 -2 2 -4q2 -6 2 -22q1 1 2 4l2 3l2 -1q-3 -39 3 -56h2l3 2v15l2 -2q6 -47 7 -53q0 -4 3 -7v-27q0 -4 2 -8.5t2 -7.5
q0 -9 -1 -25t-1 -24q0 -12 2 -15l-5 -47v-3zM182 228l1 2q1 -5 2 -12t0 -7l-2 -1q0 1 -0.5 9t-0.5 9zM364 154q-1 0 -1 -1.5t1 -1.5l2 -4q2 2 0 6h-1zM167 291v-24q1 2 1 11.5t-1 12.5zM167 609q1 0 1 -2.5t-1 -2.5t-1 2.5t1 2.5zM150 670q-2 0 -2 -2t2 -2t2 2t-2 2z
M113 532q-1 0 -1 -1.5t1 -1.5t1 1.5t-1 1.5zM80 111q-2 0 -2 -1.5t2 -1.5t2 1.5t-2 1.5zM167 599l1 -13l-1 -2v15zM167 300q-1 0 -1 -2t1 -2t1 2t-1 2zM163 564l2 -2v4zM165 451v-3q1 0 1 1.5t-1 1.5zM381 646q-1 0 -1 -1.5t1 -1.5q1 1 0 3zM176 299q-1 0 -1 -1.5t1 -1.5
q2 2 0 3zM32 324q-1 0 -1 -1t1 -1t1 1t-1 1zM394 444l1 3q0 -3 -1 -3zM365 153l-1 -2q3 0 1 2zM182 110q-1 0 -1 -1t1 -1v2zM366 394v-1v1z" />
    <glyph glyph-name="I" unicode="I" horiz-adv-x="175" 
d="M61 -23q-12 16 -19.5 33t-12 45t-6.5 52t-2 74t0.5 91t2 124t2.5 152v2q2 3 2 4v17q0 50 5 112l3 6q1 2 2 2h27q0 2 4 2l4 -2q14 0 17 3h12q16 0 20.5 -3t13.5 -18q4 -6 5 -6v-17q5 -2 6 -7.5t4 -6.5l3 -24l-9 -145q0 -11 2 -11l2 4v-3q0 -18 -3 -53.5t-3 -53.5
q0 -5 2 -6l-2 -4l2 -3q0 -2 -1 -4t-1 -5q1 2 2.5 -24.5t1.5 -45.5q0 -16 2 -48t2 -47q0 -1 -1 -3t-1 -5q0 -5 5 -5q0 -5 -2.5 -13.5t-2.5 -12.5q0 -8 2.5 -22t2.5 -21q0 -8 -3 -17l-6 13h-7q9 -40 9 -53v-4q-2 1 -2 4v2q0 2 -7 2v-2l2 -6q2 -5 2 -6v-1q0 -10 -5 -10h-2v-18
q0 -3 -16 -11.5t-17 -14.5l-1 2h-2q-1 -1 -4 -3t-5 -2t-4 2q-2 1 -3 1h-4q-8 5 -18 18zM154 646q1 0 1 -3q0 -2 -1 -2q-2 0 -2 2q0 3 2 3zM154 62v-1q1 -1 1 -2l-1 -2q-2 0 -2 2q0 3 2 3zM139 89q0 -3 3 -4l1 2q0 2 -4 2z" />
    <glyph glyph-name="J" unicode="J" horiz-adv-x="405" 
d="M102 -3q-2 4 -8 4.5t-8 2.5q-25 13 -45.5 44.5t-20.5 57.5q0 10 1 12q3 -5 5 -5q1 0 4 1t5 1q5 -4 6 -4l4 2q3 0 8 -2t7 -2q5 0 5 2v2q1 0 2.5 -2t4 -5t4.5 -5v17q19 -5 26 -18.5t16 -20.5q1 -1 11 -6t12 -5q20 0 51 62l2 6q3 6 5 13t3 9q7 13 11.5 28.5t7 35.5t3.5 33
t2 38.5t2 35.5q0 174 -55 285q-1 1 -10 13.5t-13.5 20t-9.5 19.5t-5 20l5 6l11 -5q1 0 4.5 2.5t5.5 2.5l4 -3q2 0 4.5 0.5t3.5 0.5t3.5 -0.5t4.5 -0.5l4 1q5 -2 14 -2q1 0 4.5 1t5.5 1q23 0 29 -8q0 1 1 3l1 2q26 1 64 -58q1 -3 7.5 -7.5t8.5 -8.5q21 -36 37 -106h1
q0 3 -1 7.5t-1 6.5h3l10 -38l2 -2q5 -6 9.5 -50t4.5 -77q0 -83 -16 -146.5t-59 -123.5q-27 -38 -83.5 -65t-99.5 -27q-18 2 -25 4zM283 203q-2 0 -2 -3q0 -2 2 -2q1 0 1 2q0 3 -1 3zM314 614q-2 0 -2 -2t2 -2q1 0 1 2t-1 2zM314 211q-2 0 -2 -2t2 -2q1 0 1 2t-1 2zM226 93
q-2 0 -2 -2t2 -2q1 0 1 2t-1 2zM327 516q-1 0 -1 -2t1 -2q2 0 2 2t-2 2zM359 504q-2 0 -2 -2t2 -2q1 0 1 2t-1 2zM349 557q0 -1 0.5 -1t0.5 -1h-1q-2 0 -2 1q1 1 2 1zM260 563l3 -2v2h-3zM259 671q-1 0 -1 -2h1q1 0 1 1z" />
    <glyph glyph-name="K" unicode="K" horiz-adv-x="421" 
d="M304 61l-60 97l-19 36l-2 3l-42 78l-2 -3v-70q-1 -1 -1 -2l-1 -1l1 -1l2 -3v-42q0 1 -1 5t-2 7q1 -18 -9 -72q-1 -1 -1 -2q-3 -3 -3 -10q-2 3 -4 17l-6 -38h-1l-1 2q-2 3 -3 6t-2 3l-2 -1l-2 -20l-4 5l-3 -19l-4 3q1 -4 -0.5 -5t-5.5 -1.5t-5 -1.5q-11 -9 -16 -9
q-1 0 -2 2t-4 2t-7.5 -6.5t-7.5 -6.5q-7 0 -14 7.5t-8 13.5q-4 -2 -4 -6q-4 2 -7 9t-4 13t-2.5 14.5t-1.5 10.5l-5 17q-21 200 -16 455q2 65 5 107q0 23 9 23q7 -2 6 -10l3 2v-2q1 1 3.5 5.5t4.5 4.5t4.5 -1t3.5 -1t2 1.5t3 1.5l1 -1q1 -1 1 -2q6 0 16.5 2.5t14.5 2.5
q3 0 9 -2t8 -2q8 0 9 -1l2 -2q2 -2 3 -2h2l1 4l1 1q4 0 7.5 -6.5t6.5 -6.5v8l3 -8h1l5 5q5 -4 4.5 -14.5t3.5 -15.5l1 10q6 -8 4 -24l5 6v-44q2 -4 2 -26q0 -16 1 -70t0 -83h1l6 8v34l2 -26l3 1q55 92 83 172q0 6 7 20q1 2 3.5 10t5.5 15.5t6.5 16t8 13.5t8.5 5q2 0 16 -3.5
t14 -4.5h9q3 0 11 3t11 3q6 -1 11.5 -10.5t10.5 -9.5q-8 -19 -16 -52v-2l-1 -2l-1 -2v-4q4 2 6 11t5 11v-4q0 -1 -2 -6l-1 -5q-5 -19 -18 -51q-2 -5 -14.5 -30t-13.5 -28q0 -3 -3 -6q-12 -16 -35 -62q-5 -4 -9.5 -15t-8.5 -15q-2 -2 -5 -3.5t-4 -2.5l-14 -25v-1
q0 -7 7.5 -19.5t12.5 -15.5v4q0 4 -5.5 11t-4.5 12v1q3 -3 3 -4q61 -85 101 -179l4 -8q4 -8 4 -11v-1q-5 4 -12 18.5t-13 17.5q0 -4 4 -12.5t11 -19.5t8 -14v-1l-1 -1l-2 -1q0 -9 11.5 -24t11.5 -24q-2 0 -4 2t-4 5t-3 4v-3q0 -4 1.5 -8.5t4.5 -9.5t4 -8q1 -5 1 -26v-17
q-3 -11 -11 -11q-4 3 -4 4q-1 -1 -1 -2l1 -3v-3q-9 -9 -11 -18q-5 3 -5 8l-9 -13q-1 3 -12 3v-3h-1q-1 0 -5 4t-5 7q-1 2 -2 3q-3 8 -15 28.5t-16 28.5zM341 212q0 -4 5 -12.5t9 -11.5v1q0 13 -14 24v-1zM185 507q2 -4 2 -26l-1 -11l-1 -2v39zM395 630v-1l-6 -12v3q0 8 6 10
zM312 262l5 -8l1 1q0 7 -5 7h-1zM370 150v-2q0 -2 4 -6v2q0 3 -4 6zM306 279q0 -3 3 -8v1q0 5 -3 8v-1zM347 2q-2 0 -2 -2t2 -2q1 0 1 2t-1 2zM285 318v-5l3 -1q0 4 -3 6zM376 142q-2 0 -2 -2t2 -2t2 2t-2 2zM112 82q-2 0 -2 -2.5t2 -2.5t2 2.5t-2 2.5zM293 304q-1 0 -1 -2
t1 -2t1 2t-1 2zM157 102q-1 0 -1 -1.5t1 -1.5h2q2 3 -2 3zM330 235q-1 1 -1 -1q-1 -3 1 -4q1 0 1 2.5t-1 2.5zM289 310q-1 0 -1 -2t1 -2q2 0 2 2t-2 2zM333 225l4 -2v2l-1 1q-2 1 -3 1v-2zM190 230q2 0 2 -2t-2 -2q-1 0 -1 2t1 2zM396 638q2 0 2 -2t-2 -2q-1 0 -1 2t1 2z
M133 101v-2h3v2h-3zM177 175q-1 1 -1 0l1 -3q1 1 1 2t-1 1zM189 253l1 -11h-1v11zM297 296v-4h2zM92 28v-2q1 0 1 1t-1 1zM373 9v-2v2zM282 321l2 -2v2h-2zM95 19q1 0 1 -1t-1 -1v2zM186 456q0 -1 -1 -1t-1 1t1 1t1 -1zM75 283h-1h1zM186 461v-1v1z" />
    <glyph glyph-name="L" unicode="L" horiz-adv-x="354" 
d="M118 15q-33 0 -36 17q-11 3 -21 23.5t-13 36.5q-5 47 -7 135.5t-3 108.5q0 4 -2.5 45.5t-2.5 46.5q0 1 0.5 10t0.5 16v11q0 3 -0.5 31.5t-0.5 31.5l-10 140q-4 9 -2 23l1 8l3 4q3 -1 13.5 -0.5t14.5 1.5l4 4h2l1 -3l1 -3q1 3 16 3q2 1 9.5 5.5t10.5 4.5l1 -1v-3
q1 -1 9.5 -3.5t10.5 -1.5q1 0 5 4h1q15 0 14 -10q3 5 12 5q24 -3 25 -25l9 -101q0 -5 2 -27q0 -30 2.5 -110t-0.5 -106l3 -4q2 -39 2 -55q0 -23 1 -35q7 -108 9 -113l2 2l6 2q0 -10 3 -10q12 -1 53 15t53 18l4 1q4 3 6 1h3l1 -1q0 -5 -6 -11.5t-15.5 -14.5t-10.5 -9
q-4 -3 -76 -63q-23 -16 -70 -37q-4 -1 -17 -4t-21 -3zM202 244q1 -3 0.5 -13t-1.5 -13zM201 267l1 -10l-2 -1zM195 472q1 0 1 -2t-1 -2l-1 4h1zM195 482q1 0 1 -2t-1 -2l-1 4h1zM195 466q1 0 1 -2t-1 -2l-1 4h1zM198 333q2 0 2 -2t-2 -2q-1 0 -1 2t1 2zM194 522q3 -2 0 -4
q-1 0 -1 2t1 2zM207 124q0 -5 1 -5v3l-1 5v-3zM44 471v-4q4 2 0 4zM200 302q2 -2 0 -3q-2 0 -2 1.5t2 1.5zM77 157v-4l1 3zM141 53v-1h2v1h-2z" />
    <glyph glyph-name="M" unicode="M" horiz-adv-x="561" 
d="M67 5q-3 0 -3 -6h-1q-1 1 -4.5 3.5t-4.5 4.5v-6h-2q0 1 -2 7t-3 6q-2 0 -5 -3q0 1 -1 5l-1 4q-15 180 -15 360q0 132 -1 159q0 2 -2 14t-2 13q0 3 1 19t1 17q0 7 3 19t8 13q4 1 6 -0.5t3 -4t2 -3.5l6 13l2 2q1 -4 8 -4q6 0 18 7t18 7h1l5 -1q5 -1 6 -1q4 3 5 3h1
q20 0 21 -3l1 -3l2 -3h5q5 0 5 -4q10 -6 14 -13q3 2 8 -6.5t7 -8.5h1q0 1 -0.5 2t-0.5 2l-12 17v4q7 -5 12.5 -14t11.5 -20t9 -16q5 -10 19 -33.5t21 -36.5q6 -10 15 -30.5t13 -27.5l2 4q26 67 33 84q2 4 7 13t8.5 15.5t4.5 6.5l1 3v-3q-19 -43 -28 -59q-2 -4 -9 -19
t-10.5 -26t-3.5 -21v-3l5 7q7 30 15 41q2 5 13 29t12 27q9 11 24 36.5t26 38.5q6 7 3 21v1q6 8 16 10.5t23 2.5t19 2l2 2q4 2 7 2q2 0 6 -2q5 -2 11 -3q4 -1 5 -3t5 -11l1 -1v-1h2l1 2v13q5 -2 15 -37t13 -36v6q8 -2 12 -35v-2q0 -2 2.5 -17t2.5 -17l5 -35l3 -10
q11 -96 9 -217l4 5q-2 -64 2 -108q0 -2 2 -19t2 -19v-11q0 -43 -6 -49q-9 0 -9 -2q-2 -2 -2 -12q-3 2 -5.5 -1.5t-4.5 -8.5t-3 -5q-4 -8 -12 -11q-2 1 -14 -5.5t-13 -9.5q-23 1 -36 13t-17.5 26t-6.5 37q0 7 -1.5 22.5t-3 28.5t-1.5 14v163l2 2l-2 1q-3 64 -5 90v15
q0 2 -2.5 23t-3.5 27q-5 64 -9 66l-6 -11q-1 -2 -17.5 -40.5t-21.5 -56.5q-1 -3 -6.5 -28t-6.5 -28q-12 -48 -12 -55h-1q0 -6 2 -17t2 -16q0 -7 -9 -15q-2 -2 -4 -6.5t-4 -5.5l-4 -1h-7q-1 -1 -3 -5.5t-7 -4.5q-2 0 -15 8q-11 7 -26 25.5t-15 28.5l-60 127q0 2 -1 2v-33
q0 -45 3 -137t3 -138v-36q1 -5 -5 -10t-7 -7l-1 -8q-3 -7 -11 -14.5t-10 -19.5l-4 4h-2v-5l-1 -3q-5 0 -7 -2q-2 -6 -3 -7t-5 -3t-4 -5q-7 3 -11.5 -2t-8.5 -5h-1l-4 2q-1 0 -1.5 -3t-1.5 -3q-4 0 -6 -2q-1 -4 -2 -5h-2zM32 247q0 -23 5 -65l2 2l-4 76l-2 -1q-1 0 -1 -12z
M32 313q0 -41 3 -48v74l-2 4q-1 -4 -1 -30zM37 169v-4q0 -2 1 -15.5t1 -15.5l1 3v2q0 26 -1 30h-2zM171 380q1 -5 1 -23.5t-1 -23.5v47zM173 281q1 -5 1 -21.5t-1 -21.5v43zM346 624v-2l-9 -15l-3 -3q9 18 12 20zM175 223q1 -2 1 -10t-1 -11v21zM406 71v1l2 2q1 -1 1.5 -5
t0.5 -5v-1h-2q-1 5 -2 8zM499 566v-7h3v7h-3zM494 619q2 -8 2 -13h-2v13zM529 265q-1 0 -1 -2.5t1 -2.5q2 0 2 2.5t-2 2.5zM274 265q-2 0 -2 -2.5t2 -2.5t2 2.5t-2 2.5zM406 84q2 -2 2 -4.5t-2 -3.5v8zM511 328v-13q1 1 1 6t-1 7zM501 526q0 -4 2 -4v7q-2 -1 -2 -3zM40 260
v-8q2 0 2 1q0 5 -2 7zM32 412l-1 -5q0 -3 1 -3v8zM517 115q-2 0 -2 -2t2 -2q1 0 1 2t-1 2zM195 516q-1 0 -1 -1.5t1 -1.5q2 1 0 3zM180 609q-2 0 -2 -1.5t2 -1.5q2 1 0 3zM492 41q-2 0 -2 -2t2 -2t2 2t-2 2zM503 549q-2 0 -2 -5h2v5zM186 599q-1 0 -1 -2.5t1 -2.5q2 0 2 2.5
t-2 2.5zM261 451v-6h2v3q-2 2 -2 3zM496 591v-7q1 1 1 3.5t-1 3.5zM171 322q1 -1 1 -3.5t-1 -3.5v7zM106 81q-2 0 -2 -1.5t2 -1.5t2 1.5t-2 1.5zM356 639q2 0 2 -1.5t-2 -1.5t-2 1.5t2 1.5zM404 102q2 0 2 -1.5t-2 -1.5t-2 1.5t2 1.5zM175 232q1 0 1 -1.5t-1 -1.5t-1 1.5
t1 1.5zM31 367q0 -3 2 -4v2q0 3 -1 3t-1 -1zM171 310h2l-2 -7v7zM511 257q-1 0 -1 -2t1 -2t1 2t-1 2zM511 244q-1 0 -1 -2t1 -2t1 2t-1 2zM505 537q-2 2 -2 3v-5h2v2zM502 507q-2 0 -2 -2t2 -2q2 2 0 4zM171 390q1 0 1 -2t-1 -2t-1 2t1 2zM329 600q1 0 1 -2t-1 -2t-1 2t1 2z
M503 360q-1 0 -1 -2t1 -2t1 2t-1 2zM171 401q1 0 1 -2t-1 -2t-1 2t1 2zM171 330q1 0 1 -2t-1 -2t-1 2t1 2zM33 354q-2 0 -2 -4h2v4zM54 260q-2 0 -2 -1.5t2 -1.5q1 0 1 1.5t-1 1.5zM511 197q-1 0 -1 -1.5t1 -1.5t1 1.5t-1 1.5zM539 167q1 0 1 -1.5t-1 -1.5t-1 1.5t1 1.5z
M98 122q-1 0 -1 -1.5t1 -1.5q2 0 2 1.5t-2 1.5zM199 574q-1 0 -1 -1.5t1 -1.5t1 1.5t-1 1.5zM171 298q2 -1 2 -3h-2v3zM402 109q1 -1 1 -3.5t-1 -3.5v7zM511 280q-1 0 -1 -2.5t1 -2.5q1 1 1 2.5t-1 2.5zM76 37v-2h2v2h-2zM502 556v-2q1 0 1 1t-1 1zM497 578q-1 0 -1 -1t1 -1
v2zM453 147q0 -2 2 -2v2l-2 1v-1zM514 56l3 -2v2h-3zM135 164l3 -2v2h-3zM32 433v-2v2zM352 632q0 -1 -1 -2q0 1 1 2zM540 147q1 -1 1 -3t-1 -3v6zM32 388v-5l1 3zM511 265q-1 0 -1 -1.5t1 -1.5q1 2 0 3zM442 210l-2 -1h2l2 1h-2zM127 48v-2h1v2h-1zM171 408q1 0 1 -1t-1 -1
t-1 1t1 1zM511 209q-1 0 -1 -1t1 -1t1 1t-1 1zM100 408q0 1 -1 1t-1 -1t1 -1t1 1zM37 175q-1 0 -1 -1t1 -1q2 0 0 2zM203 413v-1v1zM404 94v-1v1zM32 376v-1h1z" />
    <glyph glyph-name="N" unicode="N" horiz-adv-x="487" 
d="M60 10l-2 1q-3 -3 -3 -4q2 -2 2 -4q-2 0 -3 1.5t-2 4t-2 3.5h-1q-3 -3 -2 -4l-8 7l-8 25l-2 3l-2 10l4 1q0 17 -2 25q-5 105 -5 196q0 10 1 12q1 4 1 23.5t0.5 37t2.5 17.5q-2 9 0.5 26.5t1.5 24.5v229q-3 16 6 16q3 0 4 -4.5t4 -4.5t5 4.5t4 4.5l2 -1l4 -2h4l4 1h1
q2 0 7 -1t7 -1q3 0 7 2t6 2q14 0 22 -5l2 -2q2 -1 3 -1l1 -1q2 0 4 2q2 1 3 1h1l8 -8l2 -24q4 -1 5.5 1.5t1.5 6.5v4h1q5 -17 16 -22h9l4 -4l3 2q1 1 8 1h1q3 0 4.5 -1.5t3.5 -4t4 -4.5l3 6q4 0 24 -10q0 -4 9.5 -26t12.5 -22q2 0 4 2l-4 -8q1 -1 3 -1h4l6 -14
q5 -10 13.5 -32t14.5 -32l5 -9q5 -8 6 -10l30 -64q4 -7 5 -7h2l4 33q0 1 1 4v2l11 90l1 2q1 2 0 3q1 8 2 22.5t2.5 26t4.5 21.5q1 2 3 15t6 21t10 4q-4 8 -4 9l2 4v10q1 0 3.5 -1t4.5 -1q-1 9 2 24t3 21q2 -4 10.5 -7t12.5 -2q3 -5 15 -9t19 -4q9 -14 11 -40q1 -3 1 -13
q0 -26 -7 -47v-4q0 -1 1.5 -3t2.5 -4v-3l-7 -69q-8 -18 -4 -55h2l5 39l4 9v-3l-16 -221l5 -44q-2 0 -2 -5.5v-6.5q-3 -62 -2 -70q1 -5 7 -16t7 -18q1 -6 -0.5 -12t-7.5 -5q-3 2 -3 3q-4 -3 -6 -9t-4 -8h-4q-4 -1 -10 -5t-11.5 -6t-12.5 -1q-3 -7 -29 -7q-8 1 -18 13.5
t-13 14.5l-44 77q-3 9 -20 37l-1 2l-60 135l-1 7l-41 91l-1 3q0 1 -2 1v-1l-5 -58q2 -10 2 -13t-1.5 -11.5t-1.5 -13.5q-3 -56 -1 -214q-3 -12 -3 -26q-4 2 -4 -1l-10 -38q-9 2 -12 -2.5t-4 -15.5q-1 2 -3 7.5t-4 6.5q-2 -1 -3 -4t-1 -6.5v-4.5q-4 -7 -16 -13t-20 -5h-5
q-1 0 -3 1l-2 1q-1 -1 -1 -2q-4 -8 -9 -8h-1q0 1 -1.5 2.5t-2.5 3.5l-1 2v3zM22 90q1 -2 2 -8t0 -7zM240 581l1 1q1 -1 2 -3l1 -1v-2q-3 3 -4 3v2zM24 69q1 -2 1.5 -7.5t-0.5 -7.5zM464 566q2 -1 0 -3q-2 0 -2 1.5t2 1.5zM447 331q-1 0 -1 -2t1 -2t1 2t-1 2zM21 129
q1 -1 1 -8zM462 485q2 -5 1 -6zM418 622l-1 -1q-2 -2 -3 -2v-2l5 4zM434 63l1 -2h4l-3 2h-2zM375 594v-4h1v4h-1zM450 419v-2h2v2h-2zM48 23l-3 -2h4zM376 584h-2q0 -2 2 0zM406 652h-2q0 -2 2 0zM451 408q0 1 -1 1t-1 -1q2 -4 2 0zM459 288q1 0 1 -1.5t-1 -1.5v3zM439 635
l2 -2v2h-2z" />
    <glyph glyph-name="O" unicode="O" horiz-adv-x="467" 
d="M438 440v-3q0 -3 2 -3q1 0 3 6q2 -8 4 -14q-2 -31 -5 -46q-2 -7 -6.5 -41.5t-12.5 -68.5t-20 -62q-2 -4 -15 -33t-15 -35v-7l-27 -39q-22 -33 -71.5 -49t-97.5 -16q-46 0 -84.5 45t-54.5 96q-18 55 -18 123q0 64 22 165q6 5 6 18q10 34 21.5 66.5t28 67t36.5 55.5t40 21
q8 0 25.5 -2t36.5 -2q1 -4 17 -7.5t17 -7.5l-3 -1q0 -6 13 -6h7q38 -16 48 -22q26 -13 56 -46.5t29 -49.5l-4 2q-1 -3 1 -3.5t4 -0.5q6 -8 9 -21.5t5.5 -36t5.5 -36.5q-3 -1 -3 -6zM302 267v-3l1 1l-8 -14q0 -1 0.5 -1t0.5 -1q-2 0 -2 8l12 31q4 3 4 7q0 6 4 9t4 4
q0 10 4.5 19t4.5 16q8 35 8 57q0 2 -2 4t-2 3t2 6t2 6q0 39 -1.5 60.5t-8.5 49t-24 47t-44 34.5q-23 15 -33 15q-3 0 -25.5 -41.5t-22.5 -48.5q5 0 8 8v-4h2q3 0 3 7l-2 3q2 4 6 4q0 -5 -3.5 -14.5t-3.5 -10.5q-21 -50 -21 -79q0 -7 3 -14.5t3 -8.5q-1 -1 -6 -36t-7 -55
q0 -2 -0.5 -14.5t-1 -24t0.5 -22t3 -12.5v-4q-1 -4 -1 -6q0 -12 14 -62q2 -12 16.5 -42t22.5 -30q3 1 3 2v-4h2q3 3 12 9.5t14.5 12.5t6.5 13q2 8 7.5 20t7.5 12l2 -1q-7 -14 -7 -25q6 4 21 36.5t17 42.5l-14 -23l12 32q1 0 2 -1l1 -1q2 0 6.5 15t5.5 22l-7 -13h-2zM427 441
q1 -3 5 -3q0 22 -4 60t-12 38l-2 -1q13 -41 13 -94zM437 393l1 -2q4 3 6 35l-2 2q-5 0 -5 -35zM267 182q5 11 17 31q-14 -31 -17 -31zM318 301q-3 0 -4 -3.5t-1 -7.5v-4q5 2 5 15zM177 529h-2l-3 -6q-4 -6 -3 -7q8 0 8 13zM291 247q0 -1 -1 -4.5t-2.5 -7.5t-1.5 -6
q-1 2 -1 3q0 3 3 8.5t3 6.5zM420 565q4 -8 4 -13q-1 0 -2 4l-2 4v5zM323 341q0 -6 -3 -7q0 5 3 7zM170 511q-5 0 -5 -4q5 0 5 4zM179 522q-2 0 -2 -2t2 -2q1 1 1 2zM427 544q1 0 1 -2t-1 -2t-1 2t1 2zM441 446h2v-6zM431 343v-2h2v2h-2zM398 601l1 -1l-1 -1q-2 0 -2 1
q1 1 2 1zM429 539q0 -1 0.5 -1t0.5 -1q0 -5 -1 -1v3zM147 439l-1 1l-1 -1l1 -1q1 0 1 1zM257 151l-3 -1l1 -1zM32 207v1l-1 -1v-2q1 0 1 2zM425 549q1 -1 1 -2l-1 -1v3zM407 446l-1 1l-1 -1h2zM180 529v-1l2 1h-2zM437 382v-2h1zM304 267l-1 -2q1 1 1 2z" />
    <glyph glyph-name="P" unicode="P" horiz-adv-x="396" 
d="M69 52l1 4v5q3 -36 7 -47v14l-13 132v7l-13 140v3q-4 37 -10.5 112t-10.5 111l-9 87q0 1 -0.5 7.5t0 10.5t1.5 9.5t3.5 8t7.5 2.5q2 0 4 -2t4 -2h1q8 8 18 8q2 0 6 -1.5t6 -1.5q3 0 53 31q9 4 38 7h34q6 0 18.5 2.5t20.5 2.5q55 0 97 -27q17 -12 39 -56q2 -5 2.5 -14.5
t1.5 -13.5q-4 -74 -19 -108q-1 -3 -8.5 -17.5t-8.5 -16.5l-15 -24q-1 -2 -2.5 -3.5t-2.5 -2t-1.5 -2.5t-0.5 -4l-56 -57q-5 -4 -20.5 -15t-26 -18t-22.5 -12q-2 -2 -2 -11v-1q0 -11 2.5 -36.5t1.5 -39.5q2 -2 2 -6q0 -28 -2 -80t-2 -68q0 -1 -1 -8l-1 -7v-3t-0.5 -3.5
t-2.5 -1.5h-1l-2 3l-7 55q-2 -2 -2 -5q0 -13 3 -38.5t3 -38.5l-4 -4q-3 2 -3 10h-3q-2 -3 -2 -17h-3q-4 -21 -14 -23q-2 -1 -8 -5.5t-12 -3.5q-3 0 -3 3v-3v-3l1 -3q-4 3 -7 -2t-5 -5q-1 0 -2 1t-2 1q-4 0 -6 -2h1q-3 1 -5 2t-2.5 2t-2.5 3t-5 4q-5 1 -5 2q-2 5 -3 5
q-13 22 -13 29q-4 8 -4 29v4q-1 4 -1 6zM178 426q-1 -8 2.5 -20t3.5 -18h1q11 9 15 13q2 0 2 2q2 0 2 3l21 28l13 21l2 3q7 32 8 40q1 5 6 17t6 16q6 32 6 48q0 3 -0.5 7.5t-2 9t-1.5 6.5q-4 19 -9 27t-20 14q-19 8 -38 8q-41 0 -70 -34v-3q2 -6 2 -18q3 -2 5.5 -8t5.5 -9
v14q3 0 3 -3t-1 -4l5 1q19 -100 20 -108q1 -3 1.5 -15.5t2.5 -18.5v13l7 -24l-2 -2l1 -1q0 -2 3 -5zM172 167v-18q2 1 2 9t-2 9zM168 432q0 -9 2 -14v16l-2 2v-4zM172 144l3 -14v15zM80 672l1 -1q-1 -3 -2 -4h-2l2 4zM139 569q-1 0 -1 -2.5t1 -2.5t1 2.5t-1 2.5zM133 600
q1 0 1 -2t-1 -2t-1 2t1 2zM122 664q-2 0 -2 -2t2 -2t2 2t-2 2zM170 184q-2 0 -2 -2t2 -2t2 2t-2 2zM79 9q-1 0 -1 -2t1 -2t1 2t-1 2zM122 -14q-2 0 -2 -1.5t2 -1.5t2 1.5t-2 1.5zM230 393q-2 0 -2 -1.5t2 -1.5t2 1.5t-2 1.5zM130 589v-2q1 0 1 1t-1 1zM170 41v-2q4 0 0 2z
M168 195l2 -3v3h-2zM109 684l-4 -2l2 2h2zM105 -27l2 -2v2h-2zM72 665v-1v1zM348 524v-2q2 0 0 2zM88 677v-2h-1zM189 42v-1v1z" />
    <glyph glyph-name="Q" unicode="Q" horiz-adv-x="483" 
d="M189 703l-1 -1q2 1 8.5 4.5t10.5 5.5l23 8q13 -2 45 -4.5t49 -5.5q2 0 6.5 -1.5t9 -2.5t7.5 -1q7 3 10 3q5 0 23 -10q37 -17 56 -63q2 -6 5 -17.5t6 -19.5l8 -72q0 -2 -1 -22.5t-1 -22.5v-5q0 -5 2 -9q3 6 4 19.5t1 26t-0.5 31t-0.5 24.5h2q2 -13 2 -18v-23
q0 -9 -1 -27.5t-1 -28.5q2 -3 2 -4v-2q-4 -21 -9.5 -79t-13.5 -89q-19 -64 -32 -112q-1 -2 -5 -11.5t-7.5 -17.5t-3.5 -9v-1q1 -2 2 -5t2 -4v-1v-1q0 -1 -1 -4t-1 -5q0 -4 3 -8.5t3 -7.5q-1 -3 -2 -3v-1q0 -4 12 -20.5t12 -24.5q0 -7 -5.5 -12t-6.5 -9l2 -2q1 -3 1 -4h-8
q0 -5 -3 -11.5t-4 -9.5q-3 3 -9 3.5t-9 1.5q-7 3 -22.5 23.5t-20.5 20.5h-2q-31 -36 -80 -52q-7 -2 -20.5 -7t-22 -7.5t-21 -5t-23.5 -2.5q-43 0 -74 26t-46 68t-21.5 82t-6.5 81v13q10 124 18 158q3 21 19.5 73.5t17.5 55.5l27 59q5 2 22.5 32.5t32.5 42.5l12 8q3 2 9 7
t9 7q-1 1 -1 2l1 1zM163 236q0 -36 17.5 -96.5t41.5 -60.5q10 0 29.5 25.5t19.5 36.5q0 2 -1 3q-2 1 -3 4l-18 30l-17.5 28t-19 30t-14.5 27t-12 32v2q0 4 7 4q1 0 7 -2l21 6q1 0 3 -1t4 -1t4 1t3 1l4 -2q1 0 5.5 3.5t6.5 3.5q5 -2 6 -2h2q4 0 4 2q6 -4 10.5 -5t7 -3.5
t8.5 -12.5q1 -2 2 -2q1 3 1 11v5q3 -5 10 -18t12 -20h1q1 0 2 -1t2 -1l5 13q0 11 2 13q22 100 25 119v3q0 17 4.5 54.5t4.5 56.5q0 23 -6.5 65t-16.5 51q-26 22 -35.5 27.5t-23.5 5.5t-38 -35l-4 -6l-13 -20v-3h4q0 -4 -9.5 -24.5t-15.5 -28.5l-8 -20q-30 -122 -37 -183h4
v-5q0 -10 -2 -14v-76l2 -18zM220 600q-12 -7 -12 -17h2q6 12 10 17zM193 554l-4 -9h1q4 0 4 9h-1zM390 138q-2 0 -2 -2q0 -4 4 -4q1 0 1 2t-1 2h-1q0 2 -1 2zM330 332v-2q0 -4 -2 -6v2q0 4 2 6zM88 95q-2 0 -2 -2t2 -2t2 2t-2 2zM163 367v-6h-2v2zM335 365q1 0 1 -2t-1 -2
q-2 0 -2 2t2 2zM159 144q-2 0 -2 -2t2 -2q1 0 1 2t-1 2zM357 630q-2 0 -2 -2t2 -2q1 0 1 2t-1 2zM414 52q-2 0 -2 -2t2 -2q1 0 1 2t-1 2zM116 132q-2 0 -2 -2t2 -2q1 0 1 2t-1 2zM451 452q-1 0 -1 -3q0 -2 1 -2q1 1 1 2v1zM445 420q-1 0 -1 -2t1 -2t1 2t-1 2zM157 344
q-1 0 -1 -2t1 -2q1 1 1 2v1zM159 232v-2h2v2h-2zM333 351q1 -1 1 -3l-1 -2v5zM385 25q-2 0 -2 -2h3q0 1 -0.5 1t-0.5 1zM165 377l1 -1l-1 -1h-1q0 2 1 2zM371 358q-1 0 -1 -2h1q1 0 1 1zM202 571l-2 -3l2 1v2zM404 105l2 -2h-2v2z" />
    <glyph glyph-name="R" unicode="R" horiz-adv-x="406" 
d="M43 130q-1 5 -1 15l-6 153q2 30 -1 87t-3 64q-1 12 -1 32v32q0 6 -1 15t0 16l-9 105v14q0 21 2 25h3q2 0 4 -2.5t1 -4.5q10 7 12 7h1q4 -4 8 -4q3 0 3 4h3l1 -2q9 -1 27.5 8.5t19.5 9.5q9 5 62 19l3 1h14q7 0 19.5 -2.5t17.5 -2.5q7 -1 21 -2t20 -2t16.5 -3t19.5 -5
t19 -8q3 -2 10 -5.5t10.5 -5.5t8 -5.5t8 -7.5t5.5 -9q2 2 4 2q4 0 8.5 -10t8.5 -22.5t5 -14.5v-22q-1 -5 -1 -21q0 -1 -1.5 -8t-3 -15.5t-2.5 -12.5q-2 -8 -1 -9l-27 -63q-5 -9 -8 -12q-13 -24 -22 -34q-4 0 -4 -1l-11 -15h-2q-6 -2 -18.5 -16.5t-14.5 -16.5q-3 -2 -13 -8
t-16.5 -12t-6.5 -12q1 -1 2 0l3 2l5 -6q5 -7 15.5 -18.5t13.5 -15.5q34 -48 71 -120q28 -47 27 -73q0 -21 -26 -21l-1 -10h-4v-7h-2l-3 1q-3 1 -4 1l-4 -1h-4q-11 16 -41 58t-46 65q-11 16 -17 30l-2 1q-32 45 -35 49l-2 2h-1q0 -11 1 -46.5t0 -54.5q0 -34 -5 -39v-31l-2 -2
q-1 -8 -5 -19t-5 -16q-3 5 -4 15.5t-3 14.5l-1 -30l-3 -6q-4 -6 -4 -7l-5 4q-1 -9 -11.5 -20t-19.5 -11q-3 1 -4 2q0 -4 -11.5 -8t-16.5 -4q-2 0 -4 1.5t-8 1.5q0 -5 -1 -5q-1 4 -7.5 14t-7.5 15q-11 24 -9 76v5zM166 564l4 -15q0 -1 1 -21.5t2.5 -47.5t1.5 -41v-4v-7.5
v-7.5v-5v-15q8 6 15.5 14.5t16.5 20.5t13 16q1 8 5.5 16t11.5 17.5t10 14.5q1 3 8 16t8 15q0 1 1.5 8.5t1.5 8.5q2 3 3 4q0 2 4.5 19.5t4.5 20.5q1 9 1 12q0 24 -1 37q-2 13 -28.5 24.5t-41.5 12.5q-28 0 -72 -21q-7 -4 -7 -7q0 -9 6 -9q3 0 6 5q0 -13 8 -33q1 -3 2.5 -16.5
t3.5 -25.5l2 -12v30l2 -3q2 -6 2 -17zM375 635q-1 -5 1 -7l1 2q0 5 -2 7v-2zM359 518q-3 -1 -1 -5q1 2 1 5zM155 117v-9h2l-1 3v4q0 2 -1 2zM371 645q0 -5 2 -5v2q0 3 -1 5zM155 125q-1 0 -1 -2.5t1 -2.5t1 2.5t-1 2.5zM135 647q1 0 1 -2t-1 -2t-1 2t1 2zM346 81q1 0 1 -2
t-1 -2q-2 0 -2 2t2 2zM238 343q-2 0 -2 -2t2 -2q1 0 1 2t-1 2zM154 149l-2 -2q0 -2 2 -2q1 0 1 1.5t-1 2.5zM152 173v-4q2 0 2 2t-2 2zM142 158q-1 0 -1 -1.5t1 -1.5q2 1 0 3zM146 76q-1 0 -1 -2t1 -2q2 0 2 2t-2 2zM165 579q1 0 1 -1.5t-1 -1.5t-1 1.5t1 1.5zM306 237v-2v2
zM216 453l-1 -1zM51 133v-3h2zM160 177q-1 0 -1 -1.5t1 -1.5q2 2 0 3zM168 102v-1h2v1h-2zM137 411l-1 1q0 -2 1 -1zM264 420q0 1 -1 1t-1 -1t1 -1t1 1zM172 161v-2q2 0 0 2zM177 179v-1v1z" />
    <glyph glyph-name="S" unicode="S" horiz-adv-x="369" 
d="M20 180q0 4 4 4h1q1 0 3.5 -3.5t3.5 -3.5q2 3 7 3q3 0 4 -1q0 3 2 3h1q1 0 4 -3t5 -4h3l7 7v-5l4 2q-2 -4 5 -4q0 2 1.5 6t0.5 7q7 0 15 4h1q3 0 5.5 -1.5t3.5 -3l3 -4.5t2 -4q1 -2 3 -2.5t5.5 0t5.5 0.5q0 -2 1 -2l13 -24q1 -2 2 -2v3q-4 14 -8 21h2q2 0 2 -2
q12 -33 30 -65q1 -2 6 -5.5t5 -5.5v-1l-3 2v-2q2 -4 3 -5l2 -2v6q7 -7 10 -12h1v7q3 0 4 -3.5t3 -3.5q4 0 12 19q9 26 9 58q0 60 -26 109q-1 1 -11 13q-9 7 -37 44l-8 8q-5 4 -39 44q-31 38 -44.5 72t-13.5 81q0 28 7 63t21 70.5t40 59.5t58 24q4 0 11 -2t12 -2h2
q1 0 10.5 1.5t10.5 1.5q12 0 21.5 -4t16 -15t9.5 -16.5t8 -23t6 -19.5q10 -24 10 -33v-2l-2 -2q-1 -3 -1 -6.5v-4.5v-2.5t-1 -2t-2.5 -1.5t-5.5 -2h-1q-3 -1 -13.5 -8t-14.5 -7q-9 0 -11 6v-8h-3l-15 30q-1 3 -5 23.5t-9 36t-11 15.5q-5 0 -10 -5t-5 -10q0 -3 2 -4
q-4 -3 -7 -15t-8 -13v-9l-12 -47v-20q4 -2 4 -5l4 10q0 1 1 1l1 -1q2 -1 2 -2v-31l1 -4l4 -48q2 -2 3.5 -10t4.5 -9v7q1 0 11 -29h2l2 3q1 0 5 -7t8.5 -15t6.5 -11l5 -6q12 -9 28 -33q9 -12 38 -40t48 -54.5t19 -51.5q0 -1 -1 -2t-1 -3q0 -4 2.5 -12t2.5 -11q5 -12 5 -24
v-15q0 -33 -10 -59q-1 -2 -2 -3l-3 -2q-25 -46 -47 -66t-71 -36q-4 -1 -20 -4t-21 -5h-30q-4 3 -13.5 7.5t-14.5 8.5q-78 75 -97 166zM151 115v-1q0 -4 4 -8q2 -8 15 -25l5 -7h3l-23 37zM183 93q1 0 1 -2h1q1 0 1 -2t-1 -2q-2 0 -2 2q-1 0 -1 2t1 2zM183 455q-1 0 -1 -2
t1 -2t1 2t-1 2zM181 466q1 0 1 -2t-1 -2t-1 2t1 2zM143 528q-1 0 -1 -2t1 -2t1 2t-1 2zM183 9q-1 0 -1 -2t1 -2t1 2t-1 2zM40 498q-1 0 -1 -2t1 -2q2 0 2 2t-2 2zM218 260q-2 0 -2 -1.5t2 -1.5t2 1.5t-2 1.5zM123 137q-1 0 -1 -1.5t1 -1.5t1 1.5t-1 1.5zM48 477q-1 0 -1 -2
t1 -2q2 0 2 2t-2 2zM272 651q-1 0 -1 -2t1 -2q2 0 2 2t-2 2zM98 684q-1 0 -1 -2t1 -2q2 0 2 2t-2 2zM113 413q-1 0 -1 -1.5t1 -1.5t1 1.5t-1 1.5zM218 737v-2h2v2h-2zM319 207v-2q1 0 1 1t-1 1zM226 177v-2q2 0 0 2zM140 141v-4h1q0 4 -1 4zM78 156h-2q0 -2 2 0zM185 341h-2
q0 -4 2 0zM147 584q0 -4 -2 0h2zM149 507l-2 -2h2v2zM143 134v-2q1 0 1 1t-1 1zM177 86v-2q2 0 0 2zM214 296h-1h1zM177 100v-1v1z" />
    <glyph glyph-name="T" unicode="T" horiz-adv-x="340" 
d="M198 -21q-3 -2 -4 -2l-4 9q-3 8 -3 9q-3 -3 -8 -16q-35 62 -42 188q-4 65 -2 206t-3 206h-3q-32 -18 -64 -26q-5 0 -13 -4l-4 -2h-1q-6 0 -10 2t-5.5 4t-5.5 8t-5 8q0 1 -0.5 3t-0.5 3q0 5 3 7q2 3 16 15t16 14q13 7 35 23q40 23 62 26q2 2 18 2q12 1 43 9h1q1 0 10.5 2
t10.5 2t12 0.5t14 2.5h22q3 3 10 3q5 0 16 -3t11 -6q0 -6 -17.5 -15.5t-17.5 -10.5q-2 -9 -2 -28v-4l3 4q6 -63 6 -135q1 -14 0 -83.5t-1 -70.5v-175l-3 9h-2q0 -3 2 -8t2 -7q-2 -4 -2 -5v-2l15 -72v-3q-5 9 -9.5 27.5t-7.5 25.5q-1 -2 -1 -7v-2l11 -52q2 -4 2 -6t-7 -2v-8
h-5v-8q0 3 -3 3l-1 1l-1 -1q0 -6 -7.5 -13.5t-7.5 -15.5h-2q-2 0 -3 2l-10 19v-2q0 -3 1 -9t1 -10q0 -2 -6 -11.5t-9 -10.5q-4 -1 -6 -0.5t-3 -0.5t-2 -6q-3 14 -7 14v-5q-3 0 -7 -4t-6 -4t-2 2v-7q-4 4 -6 4h-1zM273 619q0 -10 2 -16q4 15 4 34v6q-6 -2 -6 -24zM283 130
q0 -6 2 -9v4q0 7 -2 9v-4zM209 153q-1 0 -1 -2.5t1 -2.5t1 2.5t-1 2.5zM281 151q-1 0 -1 -2.5t1 -2.5t1 2.5t-1 2.5zM28 568q-2 0 -2 -2t2 -2t2 2t-2 2zM196 357q-2 0 -2 -1.5t2 -1.5t2 1.5t-2 1.5zM281 141q-1 0 -1 -1.5t1 -1.5t1 1.5t-1 1.5zM236 49q-1 0 -1 -2t1 -2
q2 0 2 2t-2 2zM242 450q-1 0 -1 -2t1 -2q2 0 2 2t-2 2zM286 623q2 0 2 -2t-2 -2q-1 0 -1 2t1 2zM187 319v-2h2v2h-2zM144 130v-2q4 2 0 2zM194 74v-1h2v1h-2zM144 265l2 -2v2h-2z" />
    <glyph glyph-name="U" unicode="U" horiz-adv-x="424" 
d="M20 364v29l20 186q1 2 3.5 18.5t7.5 28t14 11.5q3 0 3 -3l7 5l1 -1q1 -2 2 -2h1q1 0 1.5 3t2.5 3q6 0 4 -6q1 4 4.5 5.5t9 2t7.5 1.5q7 5 10 9h1q2 0 6 -3.5t5 -3.5l4 2l4 2h2l3 -4h1l10 7q2 -2 2 -8q0 -3 -1 -8.5t-1 -8.5v-5q1 4 4 8.5t4.5 9t0.5 9.5l5 -4q0 3 5 3
q0 -5 -2 -14t-2 -14q-1 -11 3 -11h1l1 1q2 1 2 2l-1 -5v-20l-12 -106q1 -8 -2 -22t-3 -18q-4 -48 -4 -75v-27l6 -66l11 -31q1 12 -6 46q-4 29 -4 67v18l2 -7q4 -62 10 -109q2 -22 4 -32l29 -81q9 -14 21 -27q3 -6 5 -6l1 1q2 5 7.5 13.5t8.5 17.5q40 101 40 223q0 64 -5 94
q-1 14 -6.5 34.5t-6.5 27.5v7q0 13 -5 33q-4 9 -4 21q2 0 5.5 1t4.5 1h2l3 -3q4 1 4 9h2q2 0 7 -3l4 -4v1q0 1 -1 4l-1 3v2l6 -5l4 1l-2 2l-1 2q1 1 13.5 6t14.5 5q5 0 6 -3h13q7 -14 8 -15v15q1 2 2 2h1q6 0 6.5 -12t5.5 -12v2q-4 8 -4 22l-1 2v2q4 0 9.5 -11.5t6.5 -17.5
l7 -48l-1 -5v-2h1l10 -60q0 -3 0.5 -25.5t4.5 -34.5l2 -46l-2 -4l1 -3l1 -3v-2q0 -1 -1 -2t-1 -2v-1l2 -2l-5 -49v-4q0 -2 0.5 -4t0.5 -4q0 -3 -2.5 -6.5t-2.5 -6.5v-2q2 1 4 5v-3q0 -4 -1 -4.5t-5 -0.5q0 -1 1 -3t1 -4q0 -9 -5 -25t-6 -20q-8 -32 -19 -52v-2q12 10 24 39
q1 2 2 3q0 -22 -43 -74q-3 -3 -22 -22.5t-22 -23.5l-2 -1q-2 -1 -3 -1l-3 2q4 -7 -13 -17l-32 -17q-13 -4 -24 -15q-8 -5 -25 -8.5t-24 -6.5h-15q-33 0 -60 24.5t-40 57.5q-2 2 -2 3q-3 4 -5 9t-3.5 12t-2.5 10q-30 83 -30 234zM25 358v-26q1 2 1 12.5t-1 13.5zM25 296l2 -1
v1q0 8 -2 14v-14zM384 481l2 -10h1l-1 12zM163 412q1 -1 1 -4.5t-1 -4.5v9zM356 570v-1v-1l1 -2q3 4 3 6q-4 0 -4 -2zM163 388q1 0 1 -2.5t-1 -2.5t-1 2.5t1 2.5zM397 403q-1 0 -1 -2.5t1 -2.5t1 2.5t-1 2.5zM63 114q-1 0 -1 -2.5t1 -2.5t1 2.5t-1 2.5zM391 418
q-1 0 -1 -2.5t1 -2.5t1 2.5t-1 2.5zM193 69q-1 0 -1 -2.5t1 -2.5t1 2.5t-1 2.5zM344 586q-2 0 -2 -2.5t2 -2.5t2 2.5t-2 2.5zM372 552v-6h2v6h-2zM369 569q0 -4 2 -6v2q0 5 -2 6v-2zM384 499v-5h2q0 5 -2 5zM333 466q-1 0 -1 -2t1 -2t1 2t-1 2zM382 507q-2 0 -2 -2t2 -2t2 2
t-2 2zM279 535q-1 0 -1 -2t1 -2t1 2t-1 2zM27 285q-1 0 -1 -2t1 -2t1 2t-1 2zM311 328q-1 0 -1 -2t1 -2t1 2t-1 2zM391 440q-1 0 -1 -2t1 -2t1 2t-1 2zM40 368q-2 0 -2 -1.5t2 -1.5t2 1.5t-2 1.5zM50 391q-2 0 -2 -1.5t2 -1.5t2 1.5t-2 1.5zM283 423q1 0 1 -2t-1 -2t-1 2
t1 2zM376 535q-1 0 -1 -2t1 -2q2 1 2 2.5t-2 1.5zM153 622q-2 -1 0 -3q1 0 1 1.5t-1 1.5zM25 326v-6q1 1 1 3t-1 3zM218 115q0 1 -3 7l3 -8v1zM53 473q-1 0 -1 -1.5t1 -1.5t1 1.5t-1 1.5zM371 559q-1 0 -1 -1.5t1 -1.5t1 1.5t-1 1.5zM117 622q-1 0 -1 -1.5t1 -1.5t1 1.5
t-1 1.5zM283 398q1 0 1 -1.5t-1 -1.5t-1 1.5t1 1.5zM283 408q1 -1 1 -2.5t-1 -2.5v5zM165 431q3 -1 0 -3q-1 0 -1 1.5t1 1.5zM382 511v-2q1 0 1 1t-1 1zM283 382q1 0 1 -1.5t-1 -2.5v4zM389 460h-2q0 -1 1 -1t1 1zM391 433v-2q4 0 0 2zM304 589q0 1 -1.5 1t-1.5 -1q1 -1 3 0
zM283 322q1 0 1 -1t-1 -1v2zM61 117q-1 0 -1 -1t1 -1q2 0 0 2zM380 522q-1 0 -1 -1t1 -1q2 0 0 2z" />
    <glyph glyph-name="V" unicode="V" horiz-adv-x="427" 
d="M158 -2q-29 20 -33 48l-103 578l-1 8q-1 7 -1 10q0 10 3 20q6 -4 8 -4q3 0 12 3t14 3q3 0 6 -1t5 -1t8 6.5t10 6.5t9 -4.5t8 -4.5q1 0 2 0.5t3 0.5q4 0 4 -9t3 -9q4 0 4 12q7 -40 13 -43l8 -29q1 -1 2.5 0t2.5 1q0 3 -1.5 9t-1.5 8q0 5 3 6q5 -19 7 -26l4 -4l26 -110
q2 -5 4 -4v8l10 -21l-2 -3l4 -2q0 -2 -1 -4t-1 -4q0 -5 6 -5q0 -3 -1.5 -6t-1.5 -4q-2 0 2 -2q2 -1 3 -1t-2 -3q-1 -1 -1 -3t3 -7.5t3 -8.5q0 -1 -0.5 -2t-0.5 -3l4 -7q3 -7 3 -9l14 -62l1 -17h4q2 0 9 43q5 5 14 45t10 42q28 155 63 248l3 9l4 -3l2 4l4 -3q1 -1 3.5 0.5
t3.5 1.5q2 0 3.5 -2t4.5 -2q2 0 5 1t5 1t4 -1t5 -1t8.5 3.5t12.5 2.5l2 -2l5 -17l3 -2q1 -17 -10 -56.5t-13 -53.5q-2 -12 -8.5 -38t-8.5 -41q-1 -6 -7 -21t-6 -22l-24 -95q-2 -1 -5 -20q-6 -26 -20 -75.5t-20 -73.5q-2 -8 -8 -34.5t-9 -36t-8.5 -26.5t-11.5 -27t-13 -17
q-6 -2 -11.5 -12.5t-16.5 -12.5q-9 -1 -18 -12h-2q-2 0 -6 -1t-6 -1t-7 1.5t-7 1.5h-2zM393 587q1 0 1 -2t-1 -2q-2 0 -2 2t2 2zM322 449q-2 0 -2 -2t2 -2q1 0 1 2t-1 2zM142 581v-2h3v2h-3zM190 442v-3h2v3h-2zM272 388v-2h2v2h-2zM45 539l-1 1l-1 -1l1 -1zM113 155l-2 -2
h2v2zM299 528v-2h2zM375 499q0 -1 0.5 -1t0.5 -1l-1 -1v3zM125 112l-1 1l-1 -1h2zM57 655v-2h1zM145 574v-2h1z" />
    <glyph glyph-name="W" unicode="W" horiz-adv-x="603" 
d="M97 55q-4 -2 -5 -2h-1q-9 9 -15 21.5t-10 29t-6 27t-4.5 31.5t-3.5 26l-1 3q-1 3 -1 4q-1 7 -2 21t-2.5 25t-5.5 20l-13 151q1 15 -0.5 44t-1.5 37q0 13 -2.5 85.5t-1.5 110.5q5 0 7 -4.5t7 -4.5q1 0 3 5t8 6q0 -1 1 -2t1 -2q2 0 7.5 3.5t7.5 2.5q3 -4 4 -4l3 2h3
q3 0 4 -4l12 8q1 1 2 1q3 0 11 -4.5t11 -5.5q7 0 8 -1l5 -3h2l3 2v-11q6 6 8 6l2 -1q0 -2 3 -13t4 -11h2q0 3 2 5v-9q2 -2 3 -2l2 4h1l1 -1q11 -59 7 -114q1 -1 2 -27.5t2 -56t1 -33.5q4 -56 3 -85q7 0 7 11q0 16 -2.5 49.5t-2.5 49.5v4q1 4 1 6q0 -1 1 -3l1 -2l6 -97h1
q10 25 22 47q2 0 2 -1v-2q-15 -21 -15 -35v-1l3 3l33 70q3 3 3.5 4t0.5 3t1 5l18 34q0 2 4 6v-2l1 -2q-1 -7 -9.5 -22t-10.5 -19q-2 -3 -6 -12t-8.5 -18.5t-5.5 -11.5v-2h1q2 0 5 8q18 40 39 73q9 18 13 20l3 -1q0 11 8 11q2 0 4 -1.5t4 -1.5t8 2t9 2q2 0 5 -2.5t5 -2.5
q3 0 9.5 3t9.5 3q2 0 5 -2t6 -4.5t5 -3.5q1 -1 6.5 -2.5t7.5 -4.5l7 -23l13 -75q5 -10 6 -10q1 8 -1.5 21t-2.5 19q0 3 1 4q2 -7 7 -30t9 -40.5t6 -17.5h1l5 13l33 159q9 42 12 45q4 42 14 94q0 1 0.5 2.5t0.5 2.5l2 8q2 0 2 4l4 16h3v-7q4 2 5 6h13l3 -3q7 0 15 8h2
q6 -6 9 -6h3q1 0 5 4.5t7 3.5q7 0 7 -3l6 -10q2 -3 6.5 -7t4.5 -7q-3 -16 -8 -64v-10v-9l1 -1q2 4 2 5q1 2 2 11.5t1 11.5l1 -6q-1 -18 -10 -76q-16 -91 -18 -99q-2 -2 -2 -14q-4 -32 -7 -32l-2 -1q0 -2 -0.5 -11t-0.5 -10q-1 -2 -3 -5l-2 -4q-6 -41 -9 -43q-5 -27 -10 -38
q-15 -67 -18 -85l1 17l-2 3l-1 -3q-7 -22 -17 -80q-1 -4 -4 -9.5t-4 -9.5q-2 -3 -4.5 -9t-5.5 -10q-5 -6 -15.5 -12.5t-24 -12.5t-17.5 -8l-3 -3l-3.5 -3.5t-4.5 -1.5h-2l-3 5l-4 2q-7 1 -11 6t-7.5 15t-5.5 13q-4 11 -8 41q0 2 -2 17t-4 29.5t-3 17.5q-11 70 -25 123l-3 13
q-2 13 -4.5 21.5t-6.5 10.5q-2 -8 -15.5 -37.5t-13.5 -38.5q0 -3 2 -4q-1 -2 -3 -1q-2 0 -4 -3l-1 -3l-49 -119q-31 -58 -42 -65q-6 -4 -12 -5.5t-8.5 -4t-8.5 -9.5l-2 -3q-3 3 -4 3q-2 0 -8 -4.5t-9 -4.5l-1 1l-2 2l-2 1q-3 0 -2 -3t0 -4t-7 -1l-6 -6zM571 574
q-4 -1 -4 -22q6 0 6 19q0 2 -2 3zM246 201q-7 -26 -12 -28v1q0 5 4.5 15.5t7.5 11.5zM191 346q0 -4 4 -4q1 0 3 5t4.5 11t2.5 8v1q-4 -2 -5.5 -9.5t-4.5 -8.5q0 -1 -2 -1t-2 -1v-1zM215 388q-5 -3 -5 -8v-1q5 2 5 7v2zM582 624q1 -1 0.5 -3.5t-1.5 -3.5v6zM282 293q2 0 2 -2
t-2 -2t-2 2t2 2zM208 125q2 0 2 -2t-2 -2t-2 2t2 2zM344 432q-2 -1 -1 -4q2 0 2.5 2t-1.5 2zM487 664q-2 -4 2 -4l1 1q0 3 -3 3zM176 500q2 -2 2 -3t-1 -3l-1 -2v8zM229 442q1 0 1 -2t-1 -2t-1 2t1 2zM187 329v-3h3v3h-3zM213 148q-1 0 -1 -2t1 -2t1 2t-1 2zM503 231
q-1 0 -2 -1q-3 -2 1 -2q1 1 1 3zM231 447q1 0 1 -1.5t-1 -1.5t-1 1.5t1 1.5zM491 156q2 -1 -1 -5zM121 546q-1 0 -1 -2t1 -2t1 2t-1 2zM150 648q-3 0 -3 -3h3v3zM219 421v-2q0 -3 -2 -4v3q2 2 2 3zM494 166q2 -2 0 -4q-2 0 -2 2t2 2zM108 233q-1 0 -1 -1.5t1 -1.5q2 1 0 3z
M225 434q1 0 1 -2t-1 -2t-1 2t1 2zM176 474q2 -2 2 -4h-2v4zM393 438q1 -1 1 -3t-1 -3v6zM267 501q1 -3 -2 -3zM185 342v-2h2v2h-2zM475 576v-2h2v2h-2zM191 336v-4q1 1 1 2.5t-1 1.5zM209 373h-2h2zM382 493v-2v2zM272 267v-1v1zM500 589h-1h1zM194 359v-2q1 0 1 1t-1 1z
M495 177q1 0 1 -1t-1 -1t-1 1t1 1zM268 255l-2 -4v2q2 1 2 2zM491 670v-1h2z" />
    <glyph glyph-name="X" unicode="X" horiz-adv-x="412" 
d="M40 33q1 9 6.5 36t4.5 41q13 63 13 67q5 16 5 17l26 106q2 0 2 6q2 5 11 35.5t10 35.5q0 2 4.5 13.5t4.5 17.5l-5 15l-20 39q-1 1 -2 4q-1 2 -1 3q-9 14 -18 37q-5 11 -26 49t-30 59q-5 10 -5 15q0 3 8 3q3 -4 3 -5l10 4q0 3 2 3q0 1 1 1t1.5 -2t2.5 -2q2 -1 3 1t2 2
q3 0 9 -2.5t9 -2.5t6 3t6 3h3l4 -2l3 1q2 0 9 -3t10 -3l1 -1l2 4l1 1q3 0 8.5 -4.5t5.5 -7.5l3 5l1 -1q1 0 11 -5q4 2 5 2l8 -10q0 2 2 2q0 1 1 1q0 -1 1 -1q3 -3 21 -37l7 11q44 132 66 131l24 -1q1 -3 2 -4h2l5 3l1 1l1 -1q-2 0 -2 -3q0 -2 4 -2q2 0 4.5 1.5t6.5 1.5l2 -2
h1q2 0 6 1t5 1h2q-2 0 -2 -4t4 -4l3 3l1 1q0 -12 5 -12q0 -5 -5.5 -12.5t-5.5 -12.5v-3l4 3q-14 -52 -14 -60v-10q3 3 4.5 9t3.5 9v-4l1 -3v-1q0 -9 -5.5 -26t-5.5 -26q0 -1 1 -3t1 -3q0 -3 -18 -71l-8 -32q-1 -4 -4.5 -12.5t-6 -15.5t-2.5 -13q0 -8 7 -20l-4 1q-1 -4 6 -17
q3 -6 7.5 -20t7.5 -20q16 -34 30 -62v-1q-3 0 -6 3.5t-5.5 8t-4.5 6.5v-2l1 -2q1 -2 1 -3q6 -11 17.5 -35t18.5 -37l11 -17v-3q-3 2 -7 8t-8 9v-2q0 -9 18.5 -37t15.5 -41l15 -35q-4 0 -4 -3q-1 -1 -3 0l-1 1q0 -3 6 -21l-1 -1q-2 0 -3.5 2.5t-3.5 6.5t-3 5v-2q0 -3 1 -7
t1 -8l-2 -1l-5 -4l-1 -1l-1 1l-5 4v-1q0 -3 2 -5l6 -11q-2 -2 -2.5 -7.5t-2.5 -6.5q-9 9 -11 9l-3 -1v-7q-2 1 -3 1q-4 3 -8 10t-6 9l-23 41q-2 1 -2 2q-4 7 -8.5 14.5t-10 16.5t-8.5 14q-1 2 -9.5 17t-12.5 19l-30 44q-3 17 -13 23l-3 -11l-2 -4q-3 -7 -6 -22t-6 -22
q-17 -78 -21 -93q-1 -7 -4 -12.5t-8.5 -12.5t-8.5 -12q-7 -11 -10 -13l-5 -3l1 20h-2l-7 -28q-2 -10 -5 -11l-2 4h-1q-2 0 -3 -2l-2 -4l-1 -3q-6 0 -7 1q-2 -1 -4.5 -5t-5.5 -6q-1 -2 -7.5 -2t-8.5 -1q-8 -4 -18 -4l-2 -2l-18 1q-1 3 -8 14t-7 20zM335 219q-1 -2 5 -8l1 1
l-1 1q-3 5 -3 6q-1 1 -2 1v-1zM359 189q4 0 4 -5v-1q-4 2 -4 6zM374 135q-2 1 -2 -1t1 -3q2 1 1 4zM304 297q0 -4 2 -4v2q0 3 -2 4v-2zM299 306q0 -4 1 -4q1 1 1 2q0 3 -2 4v-2zM88 135q-2 0 -2 -2t2 -2t2 2t-2 2zM304 551q-2 0 -2 -2t2 -2t2 2t-2 2zM354 112q-2 0 -2 -1.5
t2 -1.5t2 1.5t-2 1.5zM132 483q-2 0 -2 -1.5t2 -1.5t2 1.5t-2 1.5zM307 556q-2 -1 -1 -4q1 1 1 4zM306 594q-2 0 -2 -2t2 -2q1 0 1 2t-1 2zM172 144q-1 0 -1 -2t1 -2q2 0 2 2t-2 2zM342 211q-2 0 -2 -1.5t2 -1.5q1 0 1 1.5t-1 1.5zM389 88q2 -2 2 -4h-2v4zM190 255
q-2 0 -2 -1.5t2 -1.5q1 0 1 1.5t-1 1.5zM328 678l-3 -1q0 1 1 1.5t2 -0.5zM289 323q0 -2 1 -2v2l-1 2v-2zM320 627v-2v2zM307 610v-2h1v2h-1zM59 5v-2l2 2h-2zM302 542q-1 0 -1 -1t1 -1t1 1t-1 1z" />
    <glyph glyph-name="Y" unicode="Y" horiz-adv-x="494" 
d="M155 90q1 45 5 81q0 1 1 2t1 2v2l-2 2q0 2 2 4l1 25l2 4l-1 4v5v1q0 3 0.5 8t0.5 7q0 3 -1 5q0 14 -2.5 26.5t-8.5 30t-8 24.5q-12 44 -44.5 121t-40.5 99t-40 129v5q0 5 1 6t6 1q2 0 4.5 -1.5t3.5 -1.5l9 4h2l4 -2l4 2h2q4 0 6 -2q2 0 13 2.5t13 2.5h2q3 0 9 -3t9 -3
q3 1 4 1q5 0 8 -6l4 4h1q6 0 8.5 -1.5t3.5 -3t2.5 -4t4.5 -4.5q3 7 5 6h1q13 -15 15 -31l4 3l1 -2v-1q0 -1 -1 -2t-1 -3l4 -6q4 -7 9 -15t5 -11l10 -20l34 -79l1 -2h2q3 0 8.5 8.5t10.5 19t6 11.5l21 34q1 0 3.5 3t2.5 4l1 1l1 -2l3 -1l1 1l27 38l21 25l4 4l1 -1h1l-29 -38
q-6 -4 -33.5 -47t-27.5 -49v-3l2 1l21 34q8 12 15 17l45 63l2 3q25 32 65 69h3l2 -2q4 -3 20 -3q0 -2 4 -4q2 2 3 2q11 7 25 5q12 0 12 -24q0 -3 -2.5 -6.5t-6 -7t-4.5 -5.5l-6 -17q-3 -3 -14 -19.5t-13 -18.5t-2 -3q-45 -66 -60 -91q-4 -7 -12 -25.5t-14 -27.5l-42 -108
q-7 -14 -7 -22q0 -2 1 -12.5t0 -13.5l1 12h2q2 -15 3 -22q2 -8 2 -17l-15 -194l-2 6v35l-2 2q-2 -5 -4 -25.5t-4 -37.5t-6 -17l-4 2l-4 -12q-4 1 -9 -6t-5 -11q-8 -2 -27.5 -12.5t-30.5 -9.5q-4 0 -6 2t-4 6t-4 6q-5 6 -9 13t-5.5 12.5t-2.5 15t-1 14v16.5v15zM286 217
q-2 -1 -1 -5q1 2 1 5zM352 660l-6 -6v2l4 4h2zM363 676q1 0 1 -2t-1 -2t-1 2t1 2zM285 579l-6 -11q1 1 6 10v1zM369 680q0 -2 -2 -2h-2l2 2h2zM295 597h-1h1zM262 542v-2l2 2h-2zM265 82v-4l1 3zM159 64q-1 0 -1 -1t1 -1t1 1t-1 1zM255 87v-2q2 0 0 2z" />
    <glyph glyph-name="Z" unicode="Z" horiz-adv-x="372" 
d="M63 74q1 6 3.5 15t3.5 13l1 6q1 7 1 8q2 5 6.5 23.5t4.5 19.5q23 79 33 98l44 146l5 30l9 29q1 5 0 6t2 5l35 165q0 3 -4 7h-7q-24 1 -70.5 -12.5t-70.5 -13.5q-17 0 -21 4q-3 1 -10.5 15.5t-7.5 16.5l1 2q7 7 17 10.5t27.5 6.5t20.5 4l50 15q16 0 20 3q24 4 83 2
q3 0 23 -1t23 -1q2 -1 19 -5.5t32.5 -10t15.5 -9.5l-1 -18q0 -15 -23 -107q-1 -3 -3.5 -8.5t-3.5 -8.5q0 -16 -5 -24l-6 -36l-29 -113v-6l2 -3q0 -5 -4.5 -19t-4.5 -16q-2 -12 -6 -25t-9.5 -29t-8.5 -25q0 -1 -7 -11q-1 -3 -3.5 -17t-4.5 -22q-1 -1 -4 -9t-3 -9q-1 -2 0 -11
l1 -8q6 -1 15 1t13 2l4 -1q1 0 4 -2t4 -2q25 -4 62 -4q-1 -2 0.5 -3.5t4 -2t5.5 -0.5t4.5 -1t1.5 -3q0 -5 -4 -4q-2 1 -3 1q0 -2 1 -5.5t1 -5.5q-1 -7 -36.5 -23.5t-45.5 -15.5h-7q-3 5 -5 5q-8 0 -27.5 -7.5t-24.5 -11.5q-4 -4 -5 -6q-7 -10 -41 -20.5t-49 -10.5h-5l-5 1
q-3 4 -12 13t-12.5 16.5t-3.5 17.5zM58 89q2 0 2 -2t-2 -2t-2 2t2 2zM279 347q-1 0 -1 -2t1 -2t1 2t-1 2zM191 671v-2q1 0 1 1t-1 1z" />
    <glyph glyph-name="underscore" unicode="_" horiz-adv-x="753" 
d="M54 -12q-2 2 -9 6t-8 5l-13 11q-4 8 -4 11l6 23h7h7q128 -4 197 -5q29 -1 88 -1q47 0 61 -3h154q20 -2 58 -2t52 -1q2 0 4 -1q-6 1 -7 -2q-7 0 -34.5 -1t-40.5 0q-3 0 -3 -3q4 0 12 -0.5t13 -0.5q6 -2 9 -2q9 -1 25.5 0t24.5 1q0 -4 -5 -4q6 -1 27 -1.5t31 -4.5
q0 -2 1 -2q4 -2 6 -2v-2q-9 0 -10 -3l30 -2q-4 -2 -5 -2l-6 -1l2 -4l7 -1l-15 -2l-5 -3q-5 -3 -15 -4.5t-15 -3.5l-25 -1q-2 0 -13 -0.5t-19.5 -2t-9.5 -3.5l13 -1q-3 -2 -13 -2t-19.5 0.5t-15.5 -0.5q-8 -1 -22.5 -1h-22.5q-4 0 -12 -3t-14 -3q-124 0 -186 1q-112 3 -123 2
l-103 6q-13 1 -37 12l-2 1q-1 0 -1 1zM34 52l181 -5q4 -1 45 -1h46h7l-1 -2q-31 0 -91.5 1t-90.5 1h-27.5t-28.5 1l-41 2zM317 46l59 -1v-2q-20 -1 -60 1zM407 44l20 1l4 -2h-24v1zM565 28q-1 0 -10 -3q0 -1 2 -1h8v4zM550 29q-4 1 -7 -4l2 -1q3 -1 4 0t1 5zM509 27
q-1 0 -7 -2h10q0 2 -3 2zM402 43q-9 0 -10 1zM387 44q-1 -1 -3.5 -0.5t-3.5 1.5zM447 44q0 -2 -2 -2t-3 2h5zM604 -24v-2h3v2h-3zM603 26q1 0 1 -1.5t-1 -1.5t-1 1.5t1 1.5zM647 -17q0 -1 3 -1h1v1h-4zM412 18v-1h3v1h-3zM714 -2v-2h2l-1 2h-1zM424 30h-3q1 -2 3 0zM494 26
q0 1 -1.5 1t-1.5 -1t1 -1t2 1zM641 20h-2q2 -2 2 0zM517 28q0 1 -1 1t-1 -1h2zM711 -8h-2q2 -2 2 0z" />
    <glyph glyph-name="a" unicode="a" horiz-adv-x="395" 
d="M20 81q0 13 4 45q0 3 3 18.5t2 23.5l34 339v3l10 135q0 11 4 18q-1 4 -1 16t1 15q0 19 2 23q0 9 7 9q1 0 3.5 -1.5t3.5 -1.5h1q7 5 18 5q5 0 5 -2h14l1 4q2 -1 16.5 -3t17.5 -10v-3q2 -2 2 -6q2 1 3 6t4 7q4 -2 3.5 -9.5t1.5 -10.5q4 -4 29 -7t34 -17h4q5 -9 7 -13
q6 -7 9 -17l35 -99l1 -3q1 -3 1 -4q11 -33 25 -82q-1 -8 7 -39q0 -4 4 -12t3 -13l8 -37v-5l-3 7h-2l25 -106v-5h-2q0 -10 3.5 -32t3.5 -33v-9q-5 5 -9.5 18.5t-7.5 18.5v-3q0 -24 5 -52q2 0 2 -1v-6l8 -42q2 -1 2 -2v-1q0 -15 -3 -15q0 8 -6 11v-4q0 -6 2 -17t2 -16
q0 -3 -2 -6.5t-5 -1.5q0 -2 -1 -7.5t-1 -6.5q-1 -4 -2 -4q-3 0 -3 -1q-1 -2 -2.5 -6t-3 -6t-5.5 -2h-3l-1 -2q-2 -2 -4 -3l-1 -1q-2 -2 -6 2v-11q-2 1 -2 2q-2 0 -2 3q0 -12 -9 -12q1 1 -1 3t-5.5 4.5t-4.5 5.5q0 2 -3 5q2 -6 -5 -6q-2 0 -2 1q0 4 -2 9t-5 11t-4 10
q-1 3 -2 12.5t-2.5 18t-4.5 13.5l-14 71l-1 3v3q-4 32 -15 63l-1 5q0 -1 -3 -1q0 -9 -2 -10q-1 0 -5 -2h-1q-1 -1 -2 -1v-3q-12 -5 -17 -7q-2 -1 -15 -4.5t-23 -7t-12 -6.5q-6 -50 -8 -76q-1 -9 -4 -29.5t-4 -32.5h-3q-2 -23 -16 -23l-3 1h-4l2 -3q1 -1 1 -2h-1q0 -2 -4 -2
v-9l-1 1q-4 2 -6 2l1 -2l1 -2q-1 -2 -8 -4.5t-10 -6.5l-1 -2q-10 0 -28 -3l-7 -4h-3q-5 0 -14 7q-6 0 -6 2q-16 13 -16 52v26zM217 249q14 0 19 -5h2v7l-30 130q-1 5 -3 16q-2 6 -5 18.5t-6 22.5l-2 9l-1 3l-20 -190v-13q12 -1 16 -1h3q4 0 12.5 2t14.5 1zM145 318v-23
q3 6 3 23l2 2l-2 1zM349 232q0 -14 4 -16v6q0 10 -4 10zM143 286q-2 -2 -2 -9v-5l2 2v12zM353 331v3q2 -2 2 -7v-4q-2 4 -2 8zM337 276q2 -3 2 -4q0 -3 1 -4v9q-3 0 -3 -1zM150 344v-7q2 1 2 3.5t-2 3.5zM122 112v-6q2 1 2 3.5t-2 2.5zM217 689q-1 0 -1 -2t1 -2t1 2t-1 2z
M84 72q-2 0 -2 -2t2 -2t2 2t-2 2zM328 7q2 0 2 -2t-2 -2t-2 2t2 2zM349 203q-1 0 -1 -1.5t1 -1.5t1 1.5t-1 1.5zM152 395q-2 0 -2 -1.5t2 -1.5t2 1.5t-2 1.5zM136 240h2v6l-2 -4v-2zM335 38q-1 0 -1 -1.5t1 -1.5t1 1.5t-1 1.5zM139 265v-4h2v4h-2zM360 272q-2 0 -2 -1.5
t2 -1.5t2 1.5t-2 1.5zM136 152q-2 0 -2 -1.5t2 -1.5t2 1.5t-2 1.5zM365 175q1 0 1 -1.5t-1 -1.5t-1 1.5t1 1.5zM129 177v-4q1 1 1 2.5t-1 1.5zM176 624q-1 0 -1 -2t1 -2q2 0 2 2t-2 2zM363 165q1 0 1 -2t-1 -2t-1 2t1 2zM326 327q-1 0 -1 -2t1 -2q2 0 2 2t-2 2zM146 90
q-1 0 -1 -2t1 -2q2 0 2 2t-2 2zM347 239q0 -3 2 -4v4h-2zM360 106q1 -2 2 -3v5q-2 0 -2 -2zM122 124v-2l2 -2v4h-2zM325 434q-1 0 -1 -1.5t1 -1.5t1 1.5t-1 1.5zM362 263q-2 0 -2 -1.5t2 -1.5q1 0 1 1.5t-1 1.5zM101 590q-1 0 -1 -1.5t1 -1.5t1 1.5t-1 1.5zM49 101
q-1 0 -1 -1.5t1 -1.5t1 1.5t-1 1.5zM363 182q1 0 1 -1.5t-1 -1.5t-1 1.5t1 1.5zM356 321q1 0 1 -2t-1 -3v5zM139 256q-1 -1 -1 -5h1v5zM333 299v-4q2 2 0 4zM57 364v-2h2v2h-2zM342 265v-4q1 1 1 2.5t-1 1.5zM182 422q-1 0 -1 -2t1 -2t1 1.5t-1 2.5zM118 63v-2q4 0 0 2z
M120 90v-2q4 0 0 2zM344 256v-3q1 1 1 2t-1 1zM346 247q0 -2 1 -3v2q0 2 -1 3v-2zM65 450v-2v2zM154 417v-2h1v2h-1zM363 256q-1 0 -1 -2v-1l1 1v2zM335 166v-1h2v1h-2zM148 330v-2h2zM222 358v-1h2v1h-2zM349 348q1 0 1 -1t-1 -1t-1 1t1 1zM328 318q-1 0 -1 -1t1 -1t1 1
t-1 1zM337 209q-1 0 -1 -1t1 -1t1 1t-1 1zM351 341q1 0 1 -1t-1 -1t-1 1t1 1zM332 307v-3v3zM45 240v-1v1zM66 526v-2q2 0 0 2zM124 131v-2q2 2 0 2zM92 7h-1h1zM332 406q-1 0 -1 -1t1 -1v2z" />
    <glyph glyph-name="b" unicode="b" horiz-adv-x="460" 
d="M33 670l59 15q50 18 88 18q6 0 57 -6l3 -1q3 -1 20.5 -4t25.5 -7q27 -15 27 -17q11 -8 19.5 -22.5t13.5 -25.5t8 -12v-9q0 -61 -82 -158v-1q0 -3 14.5 -5.5t34.5 -6t29 -6.5q45 -16 67.5 -56.5t22.5 -90.5q0 -62 -20 -106q-23 -50 -78 -91t-113 -57q-5 -1 -16 -5.5
t-21 -7t-17 -2.5h-1q-3 2 -4 2t-6 -8t-14 -16t-19 -8h-2q-2 1 -3 1q0 -4 -2 -4h-1l-4 5v1l-5 -2h-2q0 -11 -7 -11q-5 0 -8 6.5t-7 6.5q-2 0 -6 -2v9l-3 2l-43 236q0 1 -1 11t-2.5 22t-1.5 16q-4 40 -6 226v6q1 18 1 43q0 37 -4 103q-4 16 -4 20l2 2h1q4 0 10 -3zM204 70
q1 -1 2 -1h1q61 25 112 91v2l-9 -6v2q32 37 44 100v56q0 41 -29 61.5t-69 20.5h-1q-9 -3 -15 -3l-22 -9q-3 -4 -18.5 -11.5t-16.5 -16.5v-17q0 -7 1.5 -23.5t1.5 -25.5l20 -161q0 1 -3 12t-6.5 20t-5.5 9v-4q10 -43 13 -96zM174 624q7 -64 7 -167q11 0 48 61q37 56 37 99
q0 19 -22.5 31t-44.5 12q-36 0 -36 -8v-1zM195 64l1 -1l4 4v2l-2 7h-2q-1 -7 -1 -9v-3zM281 127l16 17v-2l-16 -17v2zM189 21q-2 0 -2 -2t2 -2q1 0 1 2t-1 2zM306 155q1 0 1 -2t-1 -2q-2 0 -2 2t2 2zM174 646q1 0 1 -2t-1 -2q-2 0 -2 2t2 2zM261 110q1 -1 1 -2l-1 -1l-2 1
q0 2 2 2zM220 83q1 0 1 -2q0 -1 -1 -1l-2 1q0 2 2 2zM422 327q-2 0 -2 -2q1 -1 2 -1l1 1q0 2 -1 2zM86 673v-2h2v2h-2zM301 147q1 0 1 -1h-3l1 1h1zM211 78h2l-2 -2v2zM264 112h2l-2 -2v2z" />
    <glyph glyph-name="c" unicode="c" horiz-adv-x="346" 
d="M20 293v32q4 14 4 18h-2q0 8 3 24t3 23v1l-2 2v1q0 5 2.5 13.5t2.5 11.5h-2q0 2 1 3q3 5 5 26q2 2 3 2v3l1 3v2q5 6 2 15l2 -2q5 7 7.5 24.5t4.5 21.5q6 16 22 44.5t21 41.5l31 36q37 43 68 43l5 -1l11 -2l4 2q2 0 6 -2.5t6 -2.5q8 -3 24.5 -4.5t23.5 -3.5
q22 -5 35.5 -26t13.5 -45q0 -56 -25 -93l-1 -2q-5 -3 -9.5 -10.5t-7.5 -10.5q-6 -5 -18 -7t-15 -3q-1 0 -2.5 -1.5l-3.5 -3.5l-2 -1h-13q0 1 -1 3l-1 2h-2q0 -1 -2 -2l-2 -1v10h-4q0 7 -4 11l-1 2q-1 2 -1 3q0 4 12.5 25t12.5 31v2l-4 -3v2q12 31 12 56q0 10 -2 18
q-2 2 -6 2h-1q-18 -15 -37 -47.5t-26 -56.5q-1 0 -1 -1l1 -2q0 1 3 8q9 18 12 18h2v-3q3 10 6 11v-1q0 -11 -8.5 -33t-8.5 -34h1q0 -3 -1 -7t-1 -7v-1l4 1v-6l-2 -11h-3q0 -3 1 -5t1 -4q0 -12 -5 -37t-4 -38q-1 0 -3 -18.5t-2 -22.5q0 -5 2 -9q-1 -6 -1 -27.5t1 -27.5
q0 -25 3 -46l8 -46q2 -21 10 -29l2 2v2q-16 70 -16 108q0 2 2 3q7 -60 17 -105q0 -3 3 -3q3 2 3 3h2v-3l-2 -5v-2l4 2h2q2 -5 2 -6h1q7 0 14 13v1h1q3 0 9.5 -3.5t16.5 -3.5q0 -1 -0.5 -3t-0.5 -4h3l5 2q2 -2 3 -2q2 -1 3 -1l1 -1q1 0 6 3.5t8 3.5q0 -10 2 -12v-26h8
q0 -25 -11 -43q-3 -2 -4 -2q-9 -4 -25 -12t-23 -11t-24 -4.5t-24 -4.5q-10 -2 -34 -2h-3q-21 3 -26 3q-15 11 -21 16q-1 1 -2 1q-2 3 -8.5 8.5t-8.5 9.5q-52 69 -52 227zM45 487q1 0 1 -2.5t-1 -2.5t-1 2.5t1 2.5zM209 689q2 0 2 -2t-2 -2q-1 0 -1 2t1 2zM98 265v-3h3v3h-3z
M173 296q1 0 1 -2.5t-1 -2.5t-1 2.5t1 2.5zM183 477q1 0 1 -2t-1 -2t-1 2t1 2zM207 154q1 0 1 -2t-1 -2t-1 2t1 2zM106 48q0 -2 3 -3v3h-3zM173 285q1 -1 1 -6t-1 -6v12zM230 545q2 0 2 -1.5t-2 -1.5q-1 0 -1 1.5t1 1.5zM49 498q1 -1 0 -2t-2 0t0 2t2 0zM173 314q1 0 1 -1.5
t-1 -1.5t-1 1.5t1 1.5zM173 268q1 0 1 -1.5t-1 -1.5t-1 1.5t1 1.5zM98 459v-3q1 2 0 3zM183 534v-4q1 1 1 2.5t-1 1.5zM229 540v-2l-2 -2zM213 685h-1h1zM177 459v-1v1z" />
    <glyph glyph-name="d" unicode="d" horiz-adv-x="485" 
d="M108 17q-2 -2 -5 2q-2 3 -3 3q-11 0 -13 3q2 1 4 4.5t5 3.5v11q3 0 6 3.5t3 6.5q0 2 -2.5 3t-2.5 3q0 3 1.5 5.5t1.5 4.5v1l-8 82v3q-8 83 -18 249q0 4 -0.5 8t-1.5 9.5t-1 8.5q-3 43 -5 136q0 30 -2 35q-2 3 -21 13t-22 9q2 2 2 6q0 3 -2 13l-2 -3v-1l-1 1
q-1 7 2.5 12.5t6.5 8.5l4 3v1q0 3 -3 3l7 15l-2 1q2 1 16 10t21 9h1q-2 -3 -10.5 -5.5t-10.5 -6.5h4l15 7q8 3 8 7h6q0 3 1 4q48 10 71 8l2 1l2 1q13 0 14 -4h11q57 -9 118 -43q5 -3 13.5 -9.5t12.5 -9.5q136 -118 131 -222l3 -6v-1l-1 -2q2 -54 -16 -136
q-27 -130 -107 -206q-7 -6 -15 -12t-18 -13t-15 -11h-2q0 2 5.5 6t12 9t8.5 7h-2l-27 -18q-2 1 -7 -2t-7 -3q-2 -2 -18 -10l10 10h-1q-1 0 -14 -6t-15 -7l-6 -2l-6 -1q0 -8 -2 -10q0 -2 -2 -2q-5 0 -8 7h-2q-2 -3 -2 -4v-7l-1 -6q-8 1 -15.5 -6.5t-10.5 -14.5q0 1 -4 1
l-3 -1h-2h-10q-11 -1 -14.5 0t-12 3.5t-15 10t-12.5 19.5zM207 610q7 -177 23 -383q0 -3 0.5 -8t0.5 -8q4 -57 5 -58l2 -5q2 0 7 5l22 22q44 47 68.5 122t24.5 145q0 94 -58 161q-14 14 -18 16q-21 11 -62 11q-1 0 -5 -0.5t-5 -0.5q-3 0 -5 -4v-15zM225 175q4 -33 5 -33h1v6
l-4 36l-2 3v-12zM347 96l-16 -17q3 1 4 2l13 13v2h-1zM224 214v-10q2 5 0 10zM322 74q-2 0 -2 -2t2 -2t2 2t-2 2zM148 715q-2 0 -2 -1.5t2 -1.5t2 1.5t-2 1.5zM160 717q-2 0 -2 -1.5t2 -1.5t2 1.5t-2 1.5zM238 30q2 0 2 -1.5t-2 -1.5t-2 1.5t2 1.5zM38 667q-2 0 -2 -2t2 -2
q1 0 1 2t-1 2zM95 709q-1 0 -1 -2t1 -2t1 2t-1 2zM314 108q-2 0 -2 -2t2 -2q1 0 1 2t-1 2zM251 32q1 0 1 -2t-1 -2t-1 2t1 2zM335 194q-2 -1 0 -3q1 0 1 1.5t-1 1.5zM378 137q-2 0 -2 -1.5t2 -1.5q1 0 1 1.5t-1 1.5zM91 482q-1 0 -1 -1.5t1 -1.5t1 1.5t-1 1.5zM367 513
q-1 0 -1 -1.5t1 -1.5t1 1.5t-1 1.5zM96 492q-1 0 -1 -1.5t1 -1.5q2 0 2 1.5t-2 1.5zM166 715q-2 0 -2 -1.5t2 -1.5q1 0 1 1.5t-1 1.5zM46 688v-2h2v2h-2zM126 712h-2q0 -4 2 0zM436 255v-2q4 0 0 2zM352 566v-3h1v3h-1zM134 712h-1h1zM276 676l-2 -2h2v2zM224 646q0 1 -1 1
t-1 -1h2zM327 75h-1h1zM156 714h-1h1zM348 118l2 -1v1h-2z" />
    <glyph glyph-name="e" unicode="e" horiz-adv-x="383" 
d="M80 4h-3l-3 -1q-2 0 -13.5 16.5t-11.5 19.5q0 1 1.5 2t1.5 3l-3 2l1 3l1 3q0 30 -5 89t-5 89v15l-11 188v21q0 30 -5 90.5t-5 91.5v2q0 23 8 28q2 1 7.5 -1.5t8.5 -2.5q1 0 5 1t6 1t3 -1t2 -1q15 0 49.5 18.5t60.5 18.5q2 0 3.5 -1t2.5 -1q12 0 12 2q1 0 9 -4q1 0 14 1
t16 1q9 0 39 -6.5t30 -15.5l12 -12q-1 -1 -7.5 -8t-12.5 -11q-22 -11 -43 -11q-8 0 -17.5 6.5t-13.5 6.5q-11 0 -29 -12t-23 -14q-4 -2 -15 -6t-15 -7q-1 -3 2 -12t3 -12h5v7q5 -3 8.5 -33t3.5 -46t3 -37t5 -21q0 -2 -0.5 -4t-0.5 -3t1 -1l2 4q4 -4 4 -30l4 -3l7 -56
q5 0 15 2.5t16 2.5q3 0 8 -1.5t8 -1.5q5 0 17 2t18 2q9 0 25 -16q-13 -20 -55.5 -36t-47.5 -23q0 -82 5 -138h5q0 -2 -2 -4q13 1 44.5 10.5t39.5 9.5q1 0 3.5 -0.5t4.5 -0.5q37 6 66 -1q17 -7 12 -17q-13 -8 -24 -18q-9 -4 -28.5 -12.5t-30.5 -13.5t-26 -13.5t-27 -18
t-23 -20.5q-2 -2 -6 -10t-11 -15q-1 0 -3 1h-1q-3 0 -4 -7.5t-7 -7.5l-4 8q0 2 -3 -3q-4 -7 -10 -9q-48 -16 -66 -16q-8 0 -8 3l1 2v4zM137 573q0 -7 4 -7q0 12 -2 12q-2 -1 -2 -5zM216 74l-2 -2l3 2h-1zM141 535v-2h2v2h-2zM302 137v-3h1z" />
    <glyph glyph-name="f" unicode="f" horiz-adv-x="373" 
d="M64 -10q-5 20 -5 27v6l-23 186q0 40 -5 50l-11 281q2 18 2 52.5v42.5q0 3 0.5 21t0.5 21l5 17q2 12 10 12h2q7 0 7 -4q3 -1 11.5 3.5t11.5 4.5v-6q1 3 9.5 4.5t20 2t12.5 0.5q6 0 16.5 5.5t14.5 6.5q37 14 77 13q5 0 5 -1l2 -2h6q6 -1 19 -1h20t19 -3.5t17 -4.5
q24 0 25 -1l19 -8v-3q1 -4 1 -5v-1q-1 -12 -16.5 -15t-15.5 -9q-12 3 -40 -4l-6 -3h-2q-4 0 -14 4.5t-15 5.5q-4 0 -8 -1q-52 -21 -71 -40q0 -2 -0.5 -9.5t-0.5 -8.5q0 -5 0.5 -14t0.5 -13v-1l-1 -4q0 -3 1 -3q1 -10 1 -49.5t3 -61.5q0 -1 3 -2l4 74v-70l3 -3l1 26l1 -23
q0 -1 5.5 -2.5l11 -3t6.5 -1.5q5 0 15 1t15 1t18 -2.5t21 -2.5q2 -1 9 -4t12 -5.5t5 -4.5q-1 -6 -7.5 -10.5t-19.5 -7.5l-12 -4l-7 -3q-7 -3 -8 -4q-3 -2 -19 -9t-28 -12.5t-13 -8.5q0 -1 -0.5 -6.5t-0.5 -7.5v-40v-6l-2 2v-3q0 -14 4 -14v-16l1 -1q0 -2 -0.5 -9t-0.5 -8
q0 -2 1.5 -13.5t3 -24.5t1.5 -17q0 -2 1 -5.5t0 -7.5l23 -180v-2l-2 -2l-36 293q2 7 -0.5 30t-2.5 27q-2 7 -3 7v-6q-4 -46 2 -67l5 -70q2 -4 2 -16.5t3 -15.5l9 -91l1 -4q1 -4 1 -5l5 -34q4 -35 4 -42v-6q1 -5 1 -6q0 -12 -3 -17l-2 4q-2 -1 -7.5 -11.5t-11.5 -13.5
q0 11 -4 15q0 -22 -10 -26l-3 9h-1q-1 -8 -6 -12t-7 -9l-4 4l-1 -7q-5 0 -14.5 -4t-13.5 -4q-3 0 -7 12h-1q0 -2 0.5 -5t0.5 -6q-2 -6 -13 -6l-1 1l-3 2q-3 3 -4 3l-3 -1v-8q-4 4 -4 13l-4 2q-5 2 -6 3q-2 3 -4 10t-4 10zM174 579q2 -14 2 -22h-2v22zM74 242h-2q-3 -2 1 -3
q1 1 1 3zM179 517q1 0 1 -1.5t-1 -1.5t-1 1.5t1 1.5zM136 354q-2 0 -2 -1.5t2 -1.5q1 0 1 1t-1 2zM184 476v-2h2v2h-2zM233 475v-2l2 -1v2zM181 388q-1 0 -1 -1.5t1 -1.5v3zM175 30q-1 0 -1 -1.5t1 -1.5v3zM181 382v-2v2zM159 642v-2v2zM81 49v-2h1v2h-1z" />
    <glyph glyph-name="g" unicode="g" horiz-adv-x="437" 
d="M20 293v32q4 14 4 18h-2q0 8 3 24t3 23v1l-2 2v1q0 5 2.5 13.5t2.5 11.5h-2q0 2 1 3q3 5 5 26q2 2 3 2v3l1 3v2q5 6 2 15l2 -2q5 7 7.5 24.5t4.5 21.5q6 16 22 44.5t21 41.5l31 36q37 43 68 43l5 -1l11 -2l4 2q2 0 6 -2.5t6 -2.5q8 -3 24.5 -4.5t23.5 -3.5
q22 -5 35.5 -26t13.5 -45q0 -56 -25 -93l-1 -2q-5 -3 -9.5 -10.5t-7.5 -10.5q-6 -5 -18 -7t-15 -3q-1 0 -2.5 -1.5l-3.5 -3.5l-2 -1h-13q0 1 -1 3l-1 2h-2q0 -1 -2 -2l-2 -1v10h-4q0 7 -4 11l-1 2q-1 2 -1 3q0 4 12.5 25t12.5 31v2l-4 -3v2q12 31 12 56q0 10 -2 18
q-2 2 -6 2h-1q-18 -15 -37 -47.5t-26 -56.5q-1 0 -1 -1l1 -2q0 1 3 8q9 18 12 18h2v-3q3 10 6 11v-1q0 -11 -8.5 -33t-8.5 -34h1q0 -3 -1 -7t-1 -7v-1l4 1v-6l-2 -11h-3q0 -3 1 -5t1 -4q0 -12 -5 -37t-4 -38q-1 0 -3 -18.5t-2 -22.5q0 -5 2 -9q-1 -6 -1 -27.5t1 -27.5
q0 -25 3 -46l5 -30q5 -19 15 -43v2q-16 70 -16 108q0 2 2 3q7 -60 17 -105q0 -3 3 -3q3 2 3 3h2v-3l-2 -5v-2l4 2h2q2 -5 2 -6h1q7 0 14 13v1h1h2l2 -1q10 17 18 41q-1 -2 -2 -6l-13 -37q1 -1 2 -1q2 -1 3 -1q7 19 49 145l-1 3l-3 -3q-1 5 3 7.5t4 5.5q0 1 -0.5 7t-0.5 7h-1
q0 -10 -4 -14v14q0 4 -4 4q-6 -2 -7 -2q-45 -2 -45 15q0 4 1 6q-7 0 -7 7t11.5 17.5t21.5 18t8 8.5q-2 -2 -10 -2q27 15 64 15q47 0 104 -20q0 -14 -18 -19.5t-19 -14.5q-3 6 -5 6l-2 -2l-3 -2q4 -6 5.5 -28.5t1.5 -23.5q5 0 5 31v10q2 -7 4 -9q0 -10 -3 -30.5t-3 -34.5
q1 -1 2 -1q2 1 5 11q0 -13 -2 -23.5t-7 -28.5t-8 -28q-5 -5 -5 -16l1 -2v-3q0 -12 -11.5 -48t-15.5 -42h4q0 -4 -5.5 -10t-5.5 -10h4q-10 -11 -42 -26l-32 -15l-63 -13q-7 0 -18.5 -0.5t-16.5 -0.5t-13.5 1.5t-15.5 4.5t-16 9l-7 1q-15 11 -21 16q-1 1 -2 1q-2 3 -8.5 8.5
t-8.5 9.5q-52 69 -52 227zM244 389l-26 -21v1q1 1 5.5 6.5t10 9.5t10.5 4zM380 265q-4 0 -4 -15q4 0 4 8v7zM45 487q1 0 1 -2.5t-1 -2.5t-1 2.5t1 2.5zM209 689q2 0 2 -2t-2 -2q-1 0 -1 2t1 2zM179 160q2 -8 6 -14zM389 290l1 -1v-2l-1 -3q-1 0 -1 3t1 3zM98 265v-3h3v3h-3z
M173 296q1 0 1 -2.5t-1 -2.5t-1 2.5t1 2.5zM183 477q1 0 1 -2t-1 -2t-1 2t1 2zM207 154q1 0 1 -2t-1 -2t-1 2t1 2zM173 285q1 -1 1 -6t-1 -6v12zM173 314q1 0 1 -1.5t-1 -1.5t-1 1.5t1 1.5zM173 268q1 0 1 -1.5t-1 -1.5t-1 1.5t1 1.5zM230 545q2 0 2 -1.5t-2 -1.5
q-1 0 -1 1.5t1 1.5zM49 498q1 -1 0 -2t-2 0t0 2t2 0zM98 459v-3q1 2 0 3zM183 534v-4q1 1 1 2.5t-1 1.5zM229 540v-2l-2 -2zM213 685h-1h1zM177 459v-1v1z" />
    <glyph glyph-name="h" unicode="h" horiz-adv-x="413" 
d="M84 -26q-4 -2 -5 -2l-1 2l-5 6l-3 -3q-19 31 -15 91l-10 92q1 7 -8 72q-16 156 -16 320q0 6 -0.5 35.5t0 42.5t2.5 35.5t7 39.5q3 1 6.5 -1.5t2.5 -5.5q7 10 23 5q2 3 5 3q0 -5 3 -5l3 6l2 -2l3 -1h3q3 0 7.5 1.5t7.5 1.5q23 0 25 -22h1q1 0 3 5.5t4 6.5h1q2 0 2.5 -4.5
t1 -8.5t3.5 -4v5q7 -3 7 -14l2 1h2q2 -6 2 -21.5t3 -20.5q-1 5 2.5 8t7.5 3q0 -6 1 -7v-2l1 -2v-2l-1 -3q0 -6 1.5 -19.5t1.5 -19.5v-13q0 -1 -1 -3t-1 -3q1 -4 2 -4q2 -14 2 -53v-40q0 -31 2 -41q0 -11 5 -13l3 4q6 -6 10 -6q6 0 11.5 1t12 2.5t10.5 2.5h1v-8q11 0 22 4
q0 2 0.5 10t0.5 9v2q0 10 -2.5 105t-2.5 106v15q0 26 2 45q1 14 14 14h1l2 -3l2 -3q5 2 6 3l1 1h2l4 -4q4 2 4 3q2 0 4 -1.5t3 -1.5q2 0 3 1.5t2 1.5h1q5 -5 8 -5q1 0 6 5h5q6 0 13.5 -5t12.5 -5v-13q2 -1 3 -1q1 1 2.5 7.5t4.5 6.5l1 -1l5 -3v-37q4 2 4 -3t3 -6l3 8l6 -22
q0 -28 7 -28v11l2 -19h3v8l11 -29v-274q-3 -7 -3 -17v-7q1 -2 2 -19.5t1 -19.5v-1q0 -13 -8 -18v-18q0 -11 1 -33t1 -32q0 -7 -1 -10v-29q-1 0 -1 1q-2 3 -2.5 8.5t-1.5 9.5q0 1 -1.5 3t-1.5 3q-3 7 -6 42q0 1 -1 11.5t-1 13.5q0 5 -3 7v-16q0 -2 3 -77q0 -4 1.5 -10t1.5 -9
q0 -4 -1 -4q3 -5 4.5 -14t1.5 -21.5v-14.5v-2q-3 0 -6 7.5t-6 17t-4 11.5v-4q0 -8 3 -24t3 -24q-2 0 -4 3q3 -11 -11 -40l-4 4h-2l-4 -4h-1q-4 0 -4 7h-2l-6 -9h-1q-11 0 -13 5q-1 -4 -1 -9q-1 0 -1 -1l-2 -1q-7 1 -8.5 7.5t-4.5 7.5l-1 -1h-3q-1 0 -4 3.5t-4 3.5h-3
q-4 4 -5 16.5t-4 16.5q-28 98 -28 220v48q0 3 -0.5 20t-0.5 20q-2 0 -2 3q0 1 1 2t1 2v19q-1 3 -6 3q-6 0 -16 -2.5t-13 -3.5q-1 0 -11 -2.5t-17.5 -5t-7.5 -6.5l21 -274l-4 -1q0 -5 -1 -9.5t-2.5 -10t-2.5 -9.5v-13l-2 -3l-2 -3v-8h-1l-2 1q-3 -6 -4 -7l-4 22h-2v-19
q0 -18 -7 -18l-1 1l-3 9l-2 -2l-4 -15h-2q-2 0 -9 -10q-8 -7 -20 -10h-10v6q-3 0 -3 -4q0 -3 -2 -3l-11 -5h-2q-3 3 -3 5l-3 -5h-3v8zM361 685q-1 -3 0 -7t1 -6h-5q0 1 0.5 6t0.5 6q2 1 3 1zM364 237q0 -7 3 -10v2q0 11 -1 13q-2 0 -2 -5zM182 342h2v-8h-2v8zM364 256
q-2 0 -2 -2.5t2 -2.5t2 2.5t-2 2.5zM184 319q2 0 2 -2.5t-2 -2.5t-2 2.5t2 2.5zM188 274q2 -1 2 -7h-2v7zM383 248q-1 0 -1 -2t1 -2t1 2t-1 2zM387 265q-1 0 -1 -2t1 -2t1 2t-1 2zM186 83q-2 0 -2 -1.5t2 -1.5t2 1.5t-2 1.5zM385 345q-1 0 -1 -1.5t1 -1.5t1 1.5t-1 1.5z
M389 227q1 0 1 -2t-1 -2t-1 2t1 2zM102 -22q0 -3 2 -4v3q-2 2 -2 3v-2zM379 139q-1 0 -1 -2t1 -2t1 2t-1 2zM389 232q1 0 1 -1.5t-1 -1.5t-1 1.5t1 1.5zM176 433q2 -1 2 -2.5t-2 -2.5v5zM192 88q-1 0 -1 -1.5t1 -1.5q3 1 0 3zM315 111q-1 0 -1 -1.5t1 -1.5v3zM184 64l2 -2v4
zM366 221v-4q1 1 1 2.5t-1 1.5zM184 311v-2q-1 0 -1 1t1 1zM184 125v-2q4 2 0 2zM190 103q-1 0 -1 -1.5t1 -1.5q2 2 0 3zM135 282v-2h1v2h-1zM255 640l-2 -2h2v2zM184 326q0 -1 -1 -1t-1 1t1 1t1 -1zM349 49q-1 0 -1 -1t1 -1q2 0 0 2zM119 37v-1v1zM286 203v-1v1z" />
    <glyph glyph-name="i" unicode="i" horiz-adv-x="204" 
d="M59 -8l-4 -8q0 1 -2.5 6t-1.5 7q-3 -2 -4 -2q-3 0 -6 6q-6 18 -10 38t-6 34.5t-3 40.5t-1 36v40.5v36.5q0 72 6.5 215.5t6.5 214.5q0 9 -1 26.5t-1 25.5q3 0 7.5 -2t6.5 -2h1q1 0 5 4t8 4h1l1 -6h2l1 1h2h2q2 1 5 2t4 1h2q0 -1 2 -2l2 -1h1q1 0 19 6l1 1q1 1 2 1l1 1
q1 0 2 -3t2 -3l8 -4q3 1 4 1q24 0 25 -18q6 4 3 11q8 0 10 -2q3 -4 4 -4h4q11 -3 11 -21q0 -6 1 -17.5t1.5 -21t0.5 -17.5l-1 -10q0 -2 -2 -17t-2 -17v-55q0 -28 -4 -90t-4 -95v-8q0 -4 -0.5 -23.5t-0.5 -22.5q0 -6 -3 -9v-166h-5q-1 -9 -6 -35q-1 -4 -5 -9t-2 -16
q-5 9 -8 43l-3 -48q-3 0 -3 -3v-9l-5 8h-1q-1 1 -2 1q-3 -3 -2 -9.5t-1 -9.5l-4 -1q0 -1 -1 -1l-1 -2q-6 -12 -15 -17h-6l-3.5 -3.5t-5.5 -2.5q-5 0 -7 10h-1v-13l-4 4l-8 -10q-6 0 -9 10zM158 319q-1 0 -1 -2.5t1 -2.5q2 1 2 2.5t-2 2.5zM158 192v-4q2 1 2 2.5t-2 1.5z
M135 45v-4q1 1 1 2.5t-1 1.5zM45 714h3q0 -3 -3 -3v3zM118 116v-4q1 0 1 2t-1 2zM179 325q1 -1 1 -2.5t-1 -2.5q-1 0 -1 2.5t1 2.5zM80 9q-1 0 -1 -2t1 -2q2 2 0 4zM139 99v-4q1 0 1 1.5t-1 2.5zM162 122v-4q1 0 1 1.5t-1 2.5zM156 277q-1 0 -1 -1.5t1 -1.5q2 2 0 3zM72 100
v-1h2v1h-2zM152 123v-1v1zM179 336q1 0 1 -1t-1 -1t-1 1t1 1zM101 70q-1 0 -1 -1t1 -1q2 2 0 2z" />
    <glyph glyph-name="j" unicode="j" horiz-adv-x="362" 
d="M36 76q-16 50 -15 80q1 8 2.5 19.5t2.5 17.5q2 2 5 11l3 8q2 11 12 27.5t18 21.5h3q0 -1 2 -3t2 -3h3q0 1 3 2l3 2l-1 -7h4q2 0 2 -6q2 6 9 6q2 0 4 -1t4 -1t9.5 4.5t8.5 4.5l4 -1h2q0 -8 3 -11q6 -1 7 -1q1 -1 2.5 -5.5t4.5 -5.5h1l8 9h1q0 -5 -2 -13t-2 -11h2q2 6 6 13
l1 -2q0 -11 -7.5 -35t-8.5 -37q0 -27 5 -46q6 4 14 23l13 42v9l9 62l1 8v11q1 39 -10 100v303q0 5 2 7l2 1h7v-8l2 -1q3 0 3 3q5 1 6 1q3 0 6 -1t5 -1h1q4 3 4 4h2l1 -3q1 -3 1 -4l2 2h9q17 0 28.5 -7.5t10.5 -23.5q2 2 4 9t5 7t2.5 -13t4.5 -16l1 9h2q1 0 1 -10.5
t0.5 -22.5t2.5 -15v14h3q1 -7 1 -10q1 -2 0.5 -3t0 -2t3.5 -3l6 -34v7l3 -1v-16l5 8q2 -6 9 -76q0 -1 0.5 -3.5t0.5 -3.5q11 -127 8 -203q0 -30 -2 -46q-12 -66 -25 -100q-15 -35 -60 -62q-4 -2 -8.5 -3.5t-8.5 -4.5q-61 -21 -129 -18q-22 1 -34.5 13t-25.5 35zM337 263
q1 1 1 39l-1 39l2 -1q1 -11 2 -16q0 -3 0.5 -16.5t0.5 -15.5v-8q-1 -7 -1.5 -15.5t-0.5 -12.5q-1 -8 -1 -29q0 -3 -8 -55q0 -1 -1 -5t-1 -5l-1 -1q0 1 -0.5 2t-0.5 2l1 4q0 1 0.5 3.5t0.5 3.5q7 49 8 87zM311 119l12 29v-4q0 -12 -12 -28v3zM147 217q-7 -4 -10 -21h2
q1 0 8 18v3zM138 190h-3q-1 0 -1 -10v-4q4 2 4 14zM83 87q-2 0 -2 -2t2 -2q1 0 1 2t-1 2zM292 86q2 0 2 -2t-2 -2t-2 2t2 2zM233 64q-1 1 -1 -1t1 -3q1 0 1 2t-1 2zM338 351h1v-6h-2zM75 144q-1 0 -1 -2t1 -2q2 0 2 2t-2 2zM336 363q2 0 2 -1.5t-2 -1.5t-2 1.5t2 1.5z
M337 371q1 0 1 -1.5t-1 -1.5t-1 1.5t1 1.5zM336 392q2 0 2 -1.5t-2 -1.5q-1 1 0 3zM338 381q1 0 1 -2t-1 -2q-2 0 -2 2t2 2zM200 241q-2 0 -2 -2t2 -2q1 0 1 2t-1 2zM59 254q-1 0 -1 -2t1 -2q1 -1 1 1t-1 3zM324 242q-1 0 -1 -2t1 -2q2 0 2 2t-2 2zM324 156h3l-3 -4v4z
M299 95v-4h-2q0 2 2 4zM134 170q-1 0 -1 -1t1 -2q1 1 1 2t-1 1zM75 249q-1 0 -1 -1.5t1 -1.5t1 1.5t-1 1.5zM107 39l-2 1q1 0 2 -1zM338 360q2 -2 0 -4v4zM334 410q1 -1 0 -3v3zM310 113q1 0 1 -1t-1 -1v2zM306 104q-2 -5 -4 -6l2 2q1 3 2 4zM336 383q1 0 1 -1t-1 -1v2z
M311 557q1 -1 1 -2t-1 -1v3z" />
    <glyph glyph-name="k" unicode="k" horiz-adv-x="446" 
d="M82 -23q-50 129 -50 274v297q0 25 -6 76t-6 77q0 6 4 6q3 0 7.5 -2.5t7.5 -2.5q11 0 17 5v-6q1 0 5 -0.5t5 -0.5l4 3q1 -2 1 -3h1q3 0 8 2.5t7 2.5q6 0 24 -9q4 -1 4 -3q-1 -1 -1 -2q0 -5 3 -5l5 3v7q3 2 4 -0.5t2.5 -7t3.5 -5.5l1 -1q3 0 13 7q1 -7 6.5 -19.5
t10.5 -12.5h1l5 -27q13 -7 13 -122v-43q0 -4 3 -4q-1 0 10 12.5t23 29.5t12 25l51 81q7 11 14 23.5t10.5 19t7.5 12.5t8 8.5t10 2.5q4 0 11 -2t12 -2v-5h6v-6q29 0 29 -16q0 -12 -15 -51l-22 -41q-10 -8 -10 -19v-1l1 -2q-4 -2 -5 -4q2 -1 2 -2q0 -4 -3.5 -10.5t-9.5 -14
t-8 -10.5l-35 -39q0 -10 -4 -12t-6 -6l2 -2q0 -5 -10.5 -15t-11.5 -11l-24 -29q-9 -12 -9 -14q0 -3 7.5 -9t9.5 -6l38 -40q6 -6 15.5 -19.5t16 -22t9.5 -8.5l66 -77q16 -8 32 -60l2 -5q3 -4 3 -5l1 -2h-4q9 -16 9 -33q0 -3 -6 -15q-2 5 -6 5l-6 -5l-22 25q-21 26 -45.5 52.5
t-30.5 27.5l-50 55q-4 6 -15 16.5t-15 15.5l-27 34l-20 20q0 -24 1 -72t1 -72v-17l-3 -4q-5 -5 -5 -32q0 -3 0.5 -6.5t0.5 -5.5v-3l-3 -24q-5 8 -7 24h-2q-4 -4 -4 -6l2 -4q4 -19 4 -44q0 -3 -2 -3q-3 2 -4 10.5t-5 8.5h-2q0 -1 -1 -1q6 -24 6 -38l-2 -9q0 -1 -1.5 -11
t-2.5 -11q-4 -17 -29 -15h-3l-6 -6q-3 0 -3 -5q1 -4 1 -5v-2q-2 -2 -3 -2h-1q-6 0 -16 10t-12 17zM160 109v-11q5 0 5 11h-5zM116 -39q2 0 2 -2t-2 -2t-2 2t2 2zM178 171v-4h2v4h-2zM411 85q-2 0 -2 -2q0 -1 2 -1l1 1q0 2 -1 2zM175 191v-2h3v2h-3zM168 34q1 -1 1 -2l-1 -2
q-1 0 -1 2t1 2zM169 214l2 -2l2 2h-4zM315 500v-1h2z" />
    <glyph glyph-name="l" unicode="l" horiz-adv-x="271" 
d="M31 110v55q0 32 1 95t1 95q0 113 -10 253q0 30 -3 42v6q0 10 2 38q1 4 5 4q2 0 3.5 -2.5t2.5 -2.5q2 0 6 3.5t6 3.5q3 -3 3 -4h1q5 0 18 2.5t19 2.5h4l4 -1l4 -2q7 1 8 0l4 -5h2l5 5q2 -5 6 -5h1l3 1v-17h3q0 11 3 12q1 0 4 -10t3 -13q2 -4 2 -16l3 4l1 -3l1 -3h2
q1 1 1 4q3 -4 3 -13.5t1 -11.5q3 -3 3 -16q6 -66 6 -80q3 -81 3 -83l-2 -3v-8q0 -9 2 -12q-1 -8 0.5 -21.5t1.5 -19.5v-11l-2 -4v-2l2 -3v-28q0 -30 -2 -90t-2 -90v-2q0 -1 1 -16.5t1 -17.5q0 -6 3.5 -23.5t9.5 -17.5q0 9 -3.5 27.5t-3.5 26.5q0 1 -0.5 19.5t-0.5 24.5
q0 3 0.5 15t0.5 13l1 2q0 -52 2 -78q2 -30 11 -52q1 -2 5 -2q37 -2 48 -5l1 -2h4q4 -1 5 -1v-2l-3 -2v-2q0 -1 5 -1v-2q-3 -3 -4.5 -6.5t-2.5 -4.5q-3 -2 -10 -4.5t-10 -4.5v-1q-2 -6 -30 -11l-77 -18h-32q-4 0 -10 6q-3 2 -4 3q-1 3 -2 4q-4 -1 -5 0q-1 2 -2 3q-2 2 -7 7.5
t-9 10.5q-8 13 -11 38t-4 30zM173 246q1 -4 1 -18t-1 -18v36zM36 656q-2 0 -2 -2t2 -2t2 2t-2 2zM175 283q1 0 1 -2t-1 -2t-1 2t1 2zM177 327q1 0 1 -2t-1 -2t-1 2t1 2zM175 253q1 0 1 -2t-1 -2t-1 2t1 2zM175 274q1 -1 1 -3.5t-1 -3.5v7zM101 159q-1 0 -1 -1.5t1 -1.5
t1 1.5t-1 1.5zM175 346q1 0 1 -1.5t-1 -1.5t-1 1.5t1 1.5zM177 374q1 0 1 -1.5t-1 -1.5t-1 1.5t1 1.5zM177 388q1 0 1 -1.5t-1 -1.5t-1 1.5t1 1.5zM129 129q-1 0 -1 -1.5t1 -1.5t1 1.5t-1 1.5zM119 200q-1 0 -1 -2t1 -2t1 2t-1 2zM98 207q-2 0 -2 -2t2 -2q1 0 1 2t-1 2z
M60 88q-1 0 -1 -2t1 -2q2 0 2 2t-2 2zM173 477q1 0 1 -2t-1 -2t-1 2t1 2zM175 297q1 -1 1 -3t-1 -3v6zM89 567q-1 0 -1 -1.5t1 -1.5t1 1.5t-1 1.5zM175 316q1 -1 1 -2t-1 -1v3zM175 307q1 -1 0 -3v3zM52 205q-1 0 -1 -1t1 -1t1 1t-1 1zM175 413q1 0 1 -1t-1 -1t-1 1t1 1z
M173 484q2 -2 0 -2v2zM57 98h-2q2 -2 2 0zM177 395v-1v1z" />
    <glyph glyph-name="m" unicode="m" horiz-adv-x="616" 
d="M23 -8q0 9 -1.5 27t-1.5 27q0 11 1 22.5t1 17.5q0 2 -1 11t-1 10q0 68 7.5 197t8.5 145q0 4 0.5 23.5t1.5 37.5t3 42.5t5.5 44.5t8.5 38t13.5 27.5t18.5 8.5q2 0 11.5 3t12.5 3l4 -4l8 2q14 0 25 -2t17.5 -3.5t14 -7.5t10.5 -9t11 -13t11 -14q2 -3 8.5 -8t8.5 -8
q14 -17 24.5 -36.5t25 -51t22.5 -46.5l2 -2q7 5 12 21.5t8 20.5v-10q5 3 7 13.5t3 11.5l-2 2q6 4 12.5 22.5t10.5 20.5l-20 -54v-8q10 30 36 82q4 7 15.5 26t26 48t14.5 40q0 2 -0.5 5.5t-0.5 4.5l6 -7q4 4 9.5 11.5t8.5 10.5l4 -5h11q6 0 7 2v-1q0 -4 14.5 -5.5t14.5 -3.5
v-2q1 -4 8 -4q0 -2 -2 -5t-2 -6q0 -8 11.5 -20.5t11.5 -17.5q7 -37 20 -163l2 -2l2 2v47l2 -2q0 -5 6 -54t6 -50l13 -120q0 -2 -0.5 -6t-0.5 -5q0 -10 3 -19l16 -164v-40l-4 6l-5 -1v-30q-5 2 -4 3q-1 0 -6 -9.5t-15 -19t-21 -9.5q-1 0 -2 0.5t-2 0.5q-4 -11 -16 -11
q-3 0 -5.5 4t-5.5 4v-8q-5 4 -15 26t-11 29l-43 468q0 3 -2 5q-9 -16 -21 -49t-19 -46q-13 -13 -27 -50.5t-31 -51.5v-3q0 -16 -15.5 -31.5t-31.5 -15.5q-6 0 -7 3q-12 18 -34 66t-39.5 84t-24.5 36v-60q-1 -4 -4 -61q-6 -15 -6 -110q0 -154 -11 -209q0 -1 -1 -3l-1 -2v6h-6
q0 -13 -9 -26l-9 -12v2q0 3 -5 3q1 0 -7 -10.5t-23.5 -21.5t-31.5 -11q-1 0 -4 1.5t-4 1.5t-8.5 -4.5t-8.5 -5.5q-3 6 -8 6q-3 0 -3 -3.5t-2 -3.5q-3 3 -5 13.5t-9 10.5zM185 208q0 -1 0.5 -17.5t0.5 -27.5v-19.5t-0.5 -18t-0.5 -8.5q-2 0 -2 46t2 46v-1zM384 643v-2
q-24 -55 -28 -62q1 9 6 20.5t12.5 25.5t9.5 18zM187 262q0 -1 0.5 -6.5t0.5 -8.5t-0.5 -8t-0.5 -6q-1 0 -1 14q0 15 1 15zM189 297q0 -1 0.5 -4.5t0.5 -5.5v-5l-1 -4q-1 0 -1 9zM182 89q1 -2 1 -8t-1 -7l-1 8q0 7 1 7zM187 230q0 -7 -2 -9l-1 3q0 5 3 6zM549 578q2 -1 2 -4
l-1 -4q-1 -3 -1 -5v13zM453 740q2 0 2 -2t-2 -2t-2 2t2 2zM547 594q1 -1 1 -3t-1 -2t-1 2q0 3 1 3zM182 71q1 -1 1 -3t-1 -2t-1 2q0 3 1 3zM458 736q1 -1 1 -2l-1 -2q-2 0 -2 2t2 2zM38 399h-2q0 -2 1 -2q1 1 1 2zM329 504l-1 1l-1 -1q0 -1 1 -1t1 1zM193 365q1 0 1 -1h-3
q0 1 2 1zM134 29v-3h1zM325 522q1 0 1 -1h-2q0 1 1 1z" />
    <glyph glyph-name="n" unicode="n" horiz-adv-x="492" 
d="M383 35q-1 0 -1 1q-2 0 -2 2h-1q-2 0 -2 -1.5t-0.5 -3t-3.5 -1.5q-6 0 -8 2q0 -5 -2 -5l-1 -1l-10 13q-15 31 -34.5 64.5t-43 73t-36.5 62.5q-23 40 -71 141q-1 -3 -1 -18.5t-1 -18.5q-4 -140 -4 -211v-33l-3 2q-2 0 -2 -2v-16l-2 -2v-28q0 -3 -2.5 -9t-2.5 -8h-3
q-5 1 -6 1h-3q0 -10 -5 -15h-6l-1 -5q0 -1 -4.5 -1t-5.5 -1l-3 -4q-1 0 -11 -5h-2q-5 1 -5 2h-1q-4 0 -12.5 -3.5t-11.5 -3.5q-18 0 -35 32q0 1 -0.5 1t-0.5 1l-2 4q-4 22 -11 125v33q0 57 4.5 171t4.5 172v89q3 37 9 37q2 0 5 -3t6 -3q1 0 4 1.5t5 1.5q10 0 33 -6t30 -11
q1 -3 4 -18v-1q5 0 5 13q2 -14 4 -20h3l4 2l5 -6v1l2 1h3l3 -5q5 -6 16.5 -15.5t14.5 -12.5q5 -6 12.5 -18t9.5 -15q12 -16 29.5 -48t29 -54.5t13.5 -22.5q0 1 1 1q7 -10 9 -20l3 -11q1 -8 12.5 -32.5t14.5 -32.5q2 -7 6.5 -19.5t8.5 -22.5t9 -19q2 4 2 5t-0.5 3.5t-0.5 3.5
q0 25 3 67t3 65v20l17 141q3 4 3 11v2l17 88q2 2 5 18.5t8 31t12 14.5h3q-6 -12 -6 -16v-2l17 15q0 -7 3 -8l2 5h2l3 -3l4 5q2 0 2 -2v-1l-1 -2q2 2 5 2l3 -4h9q4 0 4 -4l4 2q6 -1 6 -6t-4 -15t-4 -12q-14 -47 -38 -444q0 -15 0.5 -44t0.5 -43q0 -4 -0.5 -11.5t-0.5 -11.5
q0 -5 1 -7v-16q0 -21 -3.5 -30t-16.5 -27q-1 -1 -2 -3.5t-2.5 -4.5t-2.5 -3l-2 2h-1q1 0 -3 -3.5t-8 -8t-4 -6.5zM406 712q-5 0 -5 -7v-6q5 7 5 13zM365 29q1 0 1 -3q0 -2 -1 -2q-2 0 -2 2q0 3 2 3zM156 124q0 -4 2 -4v1q0 4 -2 4v-1zM321 294q-2 0 -2 -2t2 -2q1 0 1 2t-1 2
zM380 140q-2 0 -2 -2t2 -2q1 1 1 2zM165 602q-2 0 -2 -2q1 -1 2 -1l1 1q0 2 -1 2zM429 642q-2 0 -2 -2q1 -1 2 -1l1 1q0 2 -1 2zM284 419q-1 0 -1 -2t1 -2t1 2t-1 2zM369 576q-2 0 -2 -2q1 -1 2 -1l1 1zM103 95q-2 0 -2 -2q1 -1 2 -1l1 1q0 1 -0.5 1t-0.5 1zM75 488
q-1 0 -1 -2q0 -1 1 -1l1 1q0 2 -1 2zM83 112h-1q-1 0 -1 -1t2 -1l1 1zM407 722v-3l2 3h-2zM44 193v-1h2zM94 50v-1h1z" />
    <glyph glyph-name="o" unicode="o" horiz-adv-x="465" 
d="M170 -3q-34 16 -57 35l-2 3q-17 20 -23 24q-65 94 -68 205v20l9 96l4 25q13 54 39 134q3 5 6.5 15.5l4.5 13.5l17 34q6 12 24 39q2 3 6.5 11t7 11t7 9t9 8t11 4t13.5 2h8q2 0 6.5 -1t8.5 -1l4 -1l2 -2h15q5 -1 17.5 -2t21 -3t15.5 -7q-3 0 -3 -2q-1 -3 31 -16
q5 -4 22 -15.5t23 -18.5t10 -15q1 -2 7 -6.5t7 -7.5l6 -10q1 -4 5 -7.5t5 -6.5l11 -28q1 0 3 -4.5t2 -5.5l3 -1l-1 7q3 -3 5 -9.5t1 -8.5l20 -107v-9.5t0.5 -13.5t0.5 -9l3 -1q0 -2 -1 -3v-57q-4 -6 -4 -54v-2l-1 -2q1 1 2 5.5t1.5 9t2 8t3.5 3.5v13l2 -11v-4l-12 -75
q0 -5 -3 -14l-2 -4q0 -1 -1 -1t-1 1q1 -21 -19 -70q-22 -46 -25 -51q-26 -38 -74 -56.5t-101 -16.5q-4 0 -16.5 2.5t-17.5 1.5zM160 195q0 -1 0.5 -2t0.5 -2q23 -74 46 -105q16 -19 18 -20q41 -5 89 162v2q1 1 1 2q2 24 8 35l5 48q1 2 1 14q1 2 1 14.5t-1 15.5v27v5.5v6.5v6
v3q0 1 -5 30.5t-6 39.5q-7 49 -30 94t-62 62q-19 -12 -44 -80q-1 -2 -5.5 -14.5t-5.5 -14.5q0 -1 -3.5 -8t-3.5 -11v-3q2 0 2 2q6 6 4 9l3 -2l6 14h3v-1q-29 -84 -37 -170l-4 -28q0 -7 3 -16v7q1 -1 2 -1v-1v-24.5v-25.5q0 -32 8 -57l1 -2q1 -2 1 -3v-3q-1 -4 -1 -5q0 2 4 2
q1 -1 1 -2zM429 253q-7 -34 -4 -32q1 1 3 4l4 22zM394 571v2l1 -1q8 -14 7 -22h-3q-5 0 -5 21zM141 273q-2 -10 -2 -19l3 -1zM402 547q4 0 4 -10v-2q-4 6 -4 12zM148 348v-2q0 -10 -1 -12l-1 6q0 6 2 8zM382 594q4 0 4 -5q-4 0 -4 5zM437 409v1q3 0 3 -5l-1 -1q-1 0 -2 5z
M125 268q-1 -1 0 -6q1 1 1 3t-1 3zM330 253h-2q1 -2 3 -4q1 1 -1 4zM153 374v-4l-1 -1q0 2 1 5zM218 62q-2 -1 1 -4q2 1 -1 4zM416 166q-2 -1 1 -4q2 1 -1 4zM157 483q-1 0 -1 -2t1 -2q2 0 2 2t-2 2zM149 287q1 -1 1 -5t-1 -5v10zM382 569q-2 0 -2 -2t2 -2t2 2t-2 2z
M140 309q-1 0 -1 -2.5t1 -2.5q2 0 2 2.5t-2 2.5zM328 260q-1 -1 -1 -3q2 -1 2.5 0.5t-1.5 2.5zM409 516q-2 -2 1 -4v3q0 4 -1 5v-4zM437 419q1 0 1 -1.5t-1 -1.5t-1 1.5t1 1.5zM413 155q-1 0 -1 -1.5t1 -1.5t1 1.5t-1 1.5zM149 253q1 -1 1 -4q-2 1 -1 4zM159 187q-2 -2 1 -4
v3q1 1 -1 4v-3zM143 243q-1 1 -1 -1t1 -3q1 0 1 2t-1 2zM145 328q2 0 2 -2q0 -3 -2 -3v5zM170 503q-2 0 -2 -2t2 -2q1 0 1 2t-1 2zM442 372q2 -1 0 -3q-1 0 -1 1.5t1 1.5zM425 180q1 0 1 -2t-1 -2t-1 2t1 2zM154 473v-3h2v3h-2zM440 309l2 -1l-2 -4v5zM442 319l2 -1
q-1 -3 -2 -4v5zM388 558q-2 0 -2 -1.5t2 -1.5q1 0 1 1.5t-1 1.5zM162 498q-1 0 -1 -1.5t1 -1.5q2 0 2 1.5t-2 1.5zM131 370q-1 0 -1 -1.5t1 -1.5t1 1.5t-1 1.5zM270 52l-3 -4h1l2 2v2zM153 467q-1 0 -1 -2t1 -2v4zM393 532l1 -4h2zM150 323q1 0 1.5 -1t-0.5 -2q-1 1 -1 3z
M416 427q0 -1 1 -2q1 0 1 1t-2 1zM394 392q0 -1 1 -2q1 0 1 1t-2 1zM166 495q0 -1 1 -3q2 0 -1 3zM151 236q2 -2 1 -3q-1 1 -1 3zM141 298q-1 1 -1 -0.5v-2.5q1 1 1 3zM427 185v-2v2zM153 222q1 -2 0 -3q-1 0 -1 1.5t1 1.5zM421 511q1 -1 0 -3q-1 0 -1 1.5t1 1.5zM441 327
l2 -2h-2v2zM386 586q1 -1 1 -3h-1v3zM429 458h2v-2zM390 579l2 -2h-2v2zM433 448l1 -2l-1 -2v4zM356 120v-2q1 0 1 1t-1 1zM163 486v-2q1 0 1 1t-1 1zM419 413q-1 0 -1 -1t1 -1t1 1t-1 1zM111 119v-2q2 2 0 2zM156 477v-1v1zM126 248v-2q1 0 1 1t-1 1zM384 565l1 -1z
M268 606v-2v2zM443 342v-1v1z" />
    <glyph glyph-name="p" unicode="p" horiz-adv-x="425" 
d="M105 -23l-4 2q0 6 -5.5 19.5t-6.5 20.5q-13 108 -17 125l-20 226v3q0 2 -1 6t-1 7l-12 100q0 8 -2 10l-16 140v45q0 2 3 2h6q3 0 5 -2q38 33 70.5 46t82.5 13q21 0 52.5 -6.5t71 -21.5t67 -47t27.5 -75q0 -67 -44 -136t-105 -97l-16 -8q-1 -1 -3.5 1t-3.5 2q-2 -2 -16 -8
l-14 -7v-14l4 -4v-32q4 -5 4 -32q0 -3 -1 -7t-1 -7q0 -7 2.5 -31t3.5 -25v-37l2 -4v-11q0 -15 1.5 -45t1.5 -44h-3q-1 5 -6.5 30t-5.5 29t-2 6q-1 -1 -2 -1q0 -6 2.5 -17.5t2.5 -17.5q0 -3 -1.5 -5t-1.5 -3q5 -42 6 -47t-1.5 -9.5t-2.5 -6.5q-6 19 -9 19h-1
q0 -13 -1.5 -19.5t-4 -11t-3.5 -7.5l-2 2q-1 0 -2 -2.5t-3.5 -5.5t-5.5 -4q-1 -1 -9.5 -3.5t-15 -5t-6.5 -3.5l-2 2l-2 -1h-2v-4q-3 0 -4.5 1.5t-3.5 1.5q-2 -5 -3 -5q-2 0 -2.5 3.5t-3.5 3.5t-3 -4v-2q-4 0 -11 20zM174 512q-1 -8 4 -17.5t5 -15.5q0 -49 8 -57l2 -1
q39 27 76.5 84t37.5 106q0 27 -31.5 51t-59.5 24q-22 0 -59.5 -11.5t-37.5 -20.5q0 -5 2 -6l2.5 2.5t2.5 3.5l2 2l4 -3q-1 -3 -1 -9q0 -7 9 -24t8 -20l4 8q0 -13 4 -20l12 -66q1 -5 6 -10zM193 410q0 -3 2 -3l33 32q0 3 11 16l4 6q-2 -1 -7 -6q-46 -40 -43 -45zM137 615
q0 -8 2 -9q3 0 3 2q0 7 -5 7zM290 409q-2 0 -2 -3q0 -2 2 -2t2 2q0 3 -2 3zM42 653q-2 0 -2 -3q0 -2 2 -2q1 0 1 2q0 3 -1 3zM77 150q-2 0 -2 -2t2 -2q1 0 1 2t-1 2zM262 486q-6 -6 -6 -9q3 3 6 9zM162 6q-1 0 -1 -3q0 -2 1 -2t1 2q0 3 -1 3zM199 121v-3h2v3h-2zM148 591v-2
h2v2h-2zM203 34l-1 1l-1 -1q0 -2 1 -2q1 1 1 2zM303 407q-1 1 -2 1v-3zM268 494l-1 1l-1 -1q0 -1 1 -1t1 1zM345 467v-1h3z" />
    <glyph glyph-name="q" unicode="q" horiz-adv-x="452" 
d="M58 128h5q0 3 -2.5 8t-2.5 7q-4 -5 -6 5q-2 5 -3 6l-11 48v1q0 1 2.5 4t2.5 5q-4 0 -5.5 0.5t-2.5 2.5t-1 7v1l1 1l1 1v2q-2 5 -3.5 15t-3.5 15q-3 21 -8 83l-1 6v8q0 1 0.5 7t0.5 7l4 3q4 3 4 4t-2.5 3t-2.5 4q0 1 1.5 2t1.5 3l-1 1l-2 1l-1 11v60q2 11 4.5 29t5 33
t7.5 28q2 0 4 6t4 13t4 10q22 52 50.5 84t74.5 32h3q16 0 20 -2h2q4 0 12 2t13 2q20 0 28 -9q7 -8 20 -16q1 -1 2.5 -7t3.5 -13t3 -9q3 -5 21.5 -14t23.5 -16q19 -30 30 -62l3 -11q4 -10 4 -11l3 -4v6q0 11 -10 34q-8 20 -17 35h2q8 0 25.5 -52t19.5 -71q1 -4 0.5 -23
t4.5 -23q6 -47 3 -95l3 -2v6q5 -5 5 -6v-1q0 -2 -2 -7t-2 -6q-1 -7 -1 -24q0 -4 1 -6v-11q0 -15 -6 -43t-6 -42v-2q1 0 4.5 -3t3.5 -4v-11q2 -3 9.5 -9.5t8.5 -8.5q4 -7 11 -11v-2l-9 5l-1 1l-1 -1q-1 0 -3 -2q0 -1 8 -10.5t9 -12.5v-1l-1 -4q0 -7 4 -7v-8q0 -14 -12 -18
l-7 -3v-1q0 -4 -2 -7q-4 4 -7 4l-1 -1l-1 -3q-1 -2 -1.5 -4t-1.5 -2h-2l-3 2h-2q-4 0 -4 -2q-16 19 -27 25q-2 -1 -7.5 -12.5t-9.5 -14.5q-35 -29 -48 -34q-6 -3 -22 -7t-24 -8l-4 -5l-4 -2q-3 -1 -4 -1q-7 -2 -47 -8h-2q-7 0 -13 0.5t-11.5 2.5t-9 3.5t-9.5 5.5t-7.5 5.5
t-9 7.5t-9.5 8l-5 2q-24 18 -43 61q-2 6 -3.5 11.5t-5.5 11.5zM172 269q4 -7 1 -10l19 -78l16 -42q10 -26 21 -34v6q-22 35 -29 66h2l14 -31q13 -32 18 -32t14.5 27t9.5 33v3l-31 31q-3 1 -12 11.5t-9 13.5q0 7 6 7h2q3 -2 4 -2q16 0 40 6q2 0 9.5 3.5t10.5 3.5l2 -1h3v15
q-3 -7 -5 -8v4q0 5 6 23v-7h2q0 6 2 14t2 14q2 22 2 44h-3q1 69 -12 153q-3 6 -6.5 22t-7.5 24q-14 30 -20 38q-2 -2 -4.5 0.5t-4.5 6.5l-1 4q-9 13 -29 22v1l4 2q1 1 1 2q0 3 -5 6.5t-9 1.5q1 3 26 8v1q0 5 -9 14l-21 -21q-1 -3 -6 -9.5t-5 -11.5v-2q6 10 9 11v-2
q-15 -30 -15 -41q0 -19 6 -23v15q0 -1 4.5 -5t4.5 -5q0 -5 -1 -16t-1 -17l-2 -1q-1 -1 -1 1l-1 3q-5 -3 -9 -9t-6 -14t-3.5 -15.5t-2 -18t-0.5 -16.5v-16v-12v-27q0 -1 1 -2t1 -2l-2 -4v-16q0 -52 10 -110zM384 545q7 -5 11.5 -29.5t4.5 -38.5v-9q-13 55 -16 72v5zM263 171
q-1 -1 -13 -32t-12 -34q6 0 16 28.5t10 35.5zM380 448l4 -43q0 -8 2 -10v12q0 11 -2 30t-2 25h-2q-2 -5 -2 -8v-2q2 -3 2 -4zM28 303q0 -25 4 -26v8q0 17 -2 29l-1 -1q-1 -7 -1 -10zM286 328q3 -1 3 -4v-4l-5 -30h-1q0 20 3 38zM374 493l4 -25h3q0 14 -3 26h-1zM403 411
q2 -11 2 -26q0 -23 -2 -40v66zM290 385l2 -5v14q0 18 -2 29v-38zM189 219h2q3 -8 4 -11q2 -12 2 -13v-3l-2 4zM377 562q5 0 5 -9v-5q-5 2 -5 14zM200 504q12 0 12 -6q-12 0 -12 6zM371 520q0 -9 3 -18v3q0 9 -3 18v-3zM289 342v-8h-4q0 7 4 8zM388 185l7 -7q0 7 -6 7h-1z
M66 112q2 0 2 -2t-2 -2t-2 2t2 2zM401 451q1 -1 1 -4t-1 -4v8zM189 231q1 0 1 -2t-1 -2t-1 2t1 2zM183 248q1 0 1 -2t-1 -2t-1 2t1 2zM357 600q1 0 1 -2t-1 -2t-1 2t1 2zM183 158q-1 0 -1 -2t1 -2t1 2t-1 2zM29 326v-6h2q0 4 -2 6zM180 548l-1 -5l1 -1v6zM34 496
q-2 0 -2 -1.5t2 -1.5t2 1.5t-2 1.5zM51 163q0 -4 2 -5v5h-2zM290 368q0 -3 2 -3v5q-2 0 -2 -2zM40 229q-2 0 -2 -2t2 -2q1 0 1 2t-1 2zM283 273q-1 0 -1 -2t1 -2t1 2t-1 2zM301 592q-1 0 -1 -2t1 -2t1 2t-1 2zM32 263l2 -2v4zM29 426q-1 0 -1 -1.5t1 -1.5v3zM294 529l2 -2v4
zM38 516v-2q1 0 1 1t-1 1zM200 494q0 -2 -2 0h2zM49 171v-2q4 2 0 2zM47 194q-1 0 -1 -5l1 3v2zM49 179l-2 -2h2v2zM218 500h2v-1h-2v1zM235 100v-1v1zM34 257v-1h2v1h-2zM95 342v-2q1 0 1 1t-1 1zM403 420q1 0 1 -1t-1 -1t-1 1t1 1zM192 628v-2h-1zM40 523v-1v1zM181 534
v-1v1z" />
    <glyph glyph-name="r" unicode="r" horiz-adv-x="424" 
d="M68 35l-17 184q-2 6 -2 14.5v10.5q0 5 -0.5 15t-0.5 15t-0.5 15t-0.5 15q-10 231 -27 362q2 5 4 5h24v-1q0 -2 4 -2q2 0 4 1t4 1h2q44 24 114 24h18l48 -9l3 -2q39 0 81.5 -32.5t42.5 -69.5q0 -89 -107 -162q-2 -2 -11.5 -6t-16 -8.5t-6.5 -9.5l23 -39q1 -2 6 -11.5
t9 -14.5l63 -113q1 0 20 -33.5t26 -48.5v-8q1 -1 5 -9t5 -9l5 -11q4 -11 9 -23t5 -16q-1 1 -1 -2q2 -20 -22 -31q3 -2 5 -7l-9 -7l-7 1l-5 -1q-13 24 -33 55q-15 20 -17 25l-67 118q-6 12 -19.5 31.5t-17.5 26.5q-2 4 -10.5 17.5t-14.5 24t-6 14.5l-3 -3l6 -12l3 -54l3 -54
q1 -6 4 -30.5t3 -37.5q0 -11 -2.5 -32.5t-2.5 -32.5v-9q-2 -2 -2.5 -9.5t-6.5 -8.5v-12q0 -2 -4 4q-3 5 -5 5h-1q0 -2 -0.5 -11t-0.5 -10l-3 -5q-2 1 -3 5.5t-4 4.5v-3q0 -12 -2 -16l-2 2q-2 -6 -18 -17t-29 -11q-5 5 -5 6q-1 -7 -6 -10l-2 2q-2 4 -7.5 5t-7.5 4
q-7 9 -14 51zM140 567q6 -6 6 -28l4 -6q3 -13 6 -42.5t7 -44.5q2 -2 2 -11h1q2 0 14 9q106 83 106 149h-4v8q0 22 -35.5 36t-62.5 14h-21q-12 0 -30.5 -4t-18.5 -12v-2v-7l1 -7l6 3q0 -5 2 -7l5 -33h4q6 -18 6 -29h2v14zM111 -12q-1 0 -1 -4q0 -3 1 -3t1 3t-1 4zM128 -10
q-2 0 -2 -2t2 -2q1 0 1 2t-1 2zM288 648q-2 0 -2 -2t2 -2q1 1 1 2zM148 528q-2 0 -2 -2q1 -1 2 -1l1 1q0 2 -1 2zM220 668q-2 0 -2 -2q1 -1 2 -1l1 1q0 2 -1 2zM212 426q-1 0 -1 -2t1 -2t1 2t-1 2zM229 276q-1 0 -1 -2t1 -2t1 2t-1 2zM372 21q-1 0 -1 -2h1q1 0 1 1zM365 138
q-1 0 -1 -2q0 -1 1 -1v3z" />
    <glyph glyph-name="s" unicode="s" horiz-adv-x="340" 
d="M99 10q-25 0 -49 47t-28 78q0 3 1 3q4 0 6.5 -4.5t4.5 -4.5q3 -1 5.5 -1.5t3 -0.5t2 -0.5t2.5 -2.5t4 -5q3 -2 6 4q3 -5 5 -6.5t6 -2.5t7 -2q1 -5 6 -8l1 1l-2 14h3q3 0 16.5 -22t26.5 -22q11 0 19 11t10 23l2 -2q3 -1 8 7t6 12h-2l-9 -10q-1 6 7.5 17.5t9.5 15.5
q20 51 11 107q-4 43 -16 71q-11 23 -38 60.5t-34 48.5q-8 14 -19 33.5t-10 18.5q-12 26 -19 66q-6 37 5.5 72t39.5 54q35 21 52 21t45 -12q5 -2 20 -5.5t24 -9t15 -15.5l5 -7q2 -5 -4 -13t-7 -10q-2 -10 -10.5 -25t-16.5 -15q-2 0 -5 3t-5 3v6v5h-3l-2 12h-2q-2 0 -3 4
q0 2 0.5 8t-0.5 9q0 9 -9 9q-11 0 -26 -13.5t-16 -26.5q1 -8 -1.5 -29.5t-0.5 -33.5l4 -1l2 -15l1 -2q4 0 4 10q3 -24 27.5 -61.5t57 -78.5t40.5 -54q24 -41 31 -97q7 -50 4 -70l-1 -5q-5 -31 -9 -38q-3 -5 -7.5 -15.5t-7.5 -15.5q-23 -40 -53 -60.5t-78 -33.5l-15 -3z
M288 270q-2 0 -2 -3q0 -2 3 -2v2zM130 81l2 -1q2 -2 -1 -2q-1 0 -3 2q1 1 2 1zM201 87q-3 0 -1 -2l1 -2q1 0 1 2zM21 142l2 -1l-1 -1h-1v2zM200 681h-2q0 -1 1 -1t1 1z" />
    <glyph glyph-name="t" unicode="t" horiz-adv-x="430" 
d="M167 -57q0 2 -1 7v5q-2 4 -2 6l-3 -1v-11q-2 0 -4.5 10t-6 21t-7.5 13l-22 375q1 6 0 16t-1 13v44q0 3 -1 22.5t-1 21.5v2q0 1 1 13t1 14v6q0 2 -1 5t-1 5t1 6t1 7q0 5 -2 7v80q-9 0 -27.5 -5t-29.5 -5h-16q-2 2 -7 4t-6 2q-3 2 -4.5 8.5t-3.5 8.5l-4 3v3q0 3 3.5 6
t7.5 4t9.5 2.5t6.5 1.5q8 2 21.5 7t25 8.5t22.5 5.5q5 1 18.5 1.5t25 2t15.5 5.5q24 -1 69.5 1.5t63.5 2.5h53q3 -1 20.5 -3.5t28.5 -9.5v-4l-1 -8q-5 -1 -6 -1q-1 -1 -4 -2t-4 -1q-17 -6 -34 -9q-12 -2 -25 -3t-29 -1.5t-25 -1.5l-17 -2l-2 -2v-57q0 -1 0.5 -23t3 -107.5
t5.5 -213.5q0 -4 3 -4q-1 -14 -0.5 -21t2 -21t1.5 -21q1 -13 2.5 -37t2.5 -43.5t1 -36.5q-2 -3 -2 -4v-24q-7 0 -7.5 -18t-3.5 -18l-4 1q-1 0 -2 -0.5t-2 -0.5q0 6 -4 7l-1 -2l-5 -33q-1 -1 -1 -2q0 11 -6 14l-3 -2v-21q-3 0 -15 -10.5t-15 -10.5q-5 0 -13 6h-2l-1 -3l-1 -3
h-1l-5 2q-2 0 -3.5 -1t-4.5 -1h-5q0 3 -2 3.5t-4.5 0.5t-3.5 -1zM272 460h4v-32h3l1 -10q-2 2 -2 4l-2 -1q0 -14 -1 -16q-1 3 -2 21.5t-1 21.5v12zM277 351v12l2 -1l3 -3v-2q0 -2 -3 -2v-38q-2 10 -2 34zM272 488q3 -7 3 -22h-3v22zM278 305l2 -3v-22q-2 12 -2 22v3z
M284 234q1 -3 1 -14t-1 -14v28zM282 267q1 -3 1 -11.5t-1 -11.5v23zM266 17q0 -3 3 -5l2 2q-1 3 -5 3zM275 397q1 -1 1 -4t-1 -4l-1 7zM265 -12q1 -2 1 -5t-1 -5v10zM403 680q1 -2 4 -2q0 2 -3 4zM282 380q1 -2 1 -5.5t-1 -4.5v10zM160 -23v-8h1v8h-1zM280 464q2 0 2 -1.5
t-2 -2.5v4zM286 183q1 -1 1 -3t-1 -3v6zM280 448q1 -1 0 -3v3zM278 545q3 -1 0 -3q-1 0 -1 1.5t1 1.5zM280 456v-2v2zM286 192q1 0 1 -1.5t-1 -2.5v4zM271 574q1 0 1 -1t-1 -2v3zM271 554q1 0 1 -1t-1 -2q-1 0 -1 1.5t1 1.5zM271 565q1 0 1 -1t-1 -1t-1 1t1 1zM137 399h-2
q0 -1 1 -1t1 1zM177 596h-2q2 -2 2 0zM272 51l-1 -2h1v2z" />
    <glyph glyph-name="u" unicode="u" horiz-adv-x="442" 
d="M28 244q-5 5 -5 33q-3 21 -3 60v28q4 50 10 92l3 18q40 216 56 216h23l4 2q2 0 10 -4q0 4 4 4h2l3 -2q1 0 6.5 1.5t6.5 1.5h1q7 0 13 -3l3 -2q3 -1 5.5 -1.5t3.5 -0.5t1.5 -1t0.5 -4q0 -4 -1 -5l4 -2q1 -9 2 -14v-2q0 -22 -6 -35h2l6 8l2 -3q0 -17 -5.5 -50.5t-5.5 -50.5
h3q0 -7 -4 -22.5t-4 -24.5l2 -3q0 -5 -4 -7v-10q0 -11 -2 -30.5t-2 -29.5q0 -40 4 -69q0 -5 3 -15.5t3 -15.5v-4l10 -57q0 -2 4.5 -18t4.5 -19l7 -18q1 -1 1 -2q13 -42 24 -42q3 0 4 1l2 -4q1 1 3 4t3 4q0 -7 3 -7q39 77 56 183v4q0 4 3.5 42t3.5 43v60q0 19 -5 45t-5 38
l-21 82q-4 15 -4 31v10q3 3 6 3q1 0 2 -2.5t4 -2.5t5 3t4 3q3 0 7 -12q6 14 12 14q5 0 5 -8q8 10 16 10t14.5 -10t8.5 -11q5 5 6 5q26 -75 33 -121l3 -3q2 2 2 3q0 3 -2.5 8.5t-2.5 8.5l-15 74q4 -6 6.5 -13.5t4 -17.5t2.5 -15q0 -1 8 -28t10 -45l2 -4q2 -6 2 -25l3 -8l3 17
q0 -37 6 -39v-26q0 -71 -9 -140l-25 -81q0 -1 -2 -6.5t-4.5 -11.5t-2.5 -7q-2 -5 -3 -14.5t-3 -14.5q-28 -66 -96 -96q-5 -2 -18 -8.5t-20 -9t-18 -7t-20.5 -6t-19.5 -1.5q-33 0 -59 20q-44 33 -63 78t-31 114zM177 534q1 0 1 -2t-1 -2q-2 0 -2 2t2 2zM175 620q-2 0 -2 -2
t2 -2q1 0 1 2t-1 2zM371 330q-2 0 -2 -2t2 -2q1 0 1 2t-1 2zM89 116q-2 0 -2 -2t2 -2q1 0 1 2t-1 2zM308 638q-2 0 -2 -2t2 -2q1 0 1 2t-1 2zM399 473q-2 0 -2 -2q1 -1 2 -1l1 1z" />
    <glyph glyph-name="v" unicode="v" horiz-adv-x="428" 
d="M60 363q-6 17 -9.5 52.5t-7.5 50.5l-23 170v10q0 15 3 36h1q2 0 2.5 -2t3.5 -2t4 3t3 3h29l4 7q2 -5 7 -5q4 0 6.5 3t4.5 7l1 3q5 0 11 -5t7 -5q1 3 2 3h2q5 0 8 -3l3 -3v-28l6 10l4 -19h4q0 -3 -2 -4v-14l2 -17h3q0 7 1 9q4 -25 10 -25v10q9 -36 11 -39l10 -45h4
l22 -138q-1 -12 9.5 -36t7.5 -37l5 3v-2q3 0 4.5 3t3 8t2.5 8q1 -1 1 -5q0 -3 -2.5 -10t-2.5 -11q1 -2 2 -2q0 3 2 7l92 276q26 59 27 61l2 2l4 -12q0 -1 1 -1q4 0 7 7t4 8l2 -4l6 7l5 -5h2q4 4 4 5q0 -1 1.5 -3.5t2 -5t0.5 -3.5v-1l-2 -4v-2q2 0 5.5 4.5t5.5 5.5v-15l3 -1
q2 0 2 4l1 -4q0 -6 -4.5 -15.5t-4.5 -14.5l1 -3q1 1 3.5 6t5 9t3.5 4v-3l-23 -80q-2 -3 -2 -4q-1 -2 -8.5 -21t-10.5 -29q-1 -1 -3.5 -14t-2.5 -14l-51 -195q-22 -91 -29 -122q-3 -11 -3 -12l-12 -65q-2 -10 -10 -14.5t-8 -5.5q-3 -5 -15.5 -19t-15.5 -16q-2 -2 -10 -2
l-2 -4q-17 -10 -29 -10q-5 0 -8.5 2t-8 6.5l-5.5 5.5q-40 36 -48 89zM235 358v-4q0 -5 -5 -18v5q0 7 5 17zM27 672v-19q2 4 2 13v2q0 3 -2 4zM381 636q-1 -1 -1 -3q-1 -1 -0.5 -3t1.5 -2t1 2t-1 3q1 0 1 1.5t-1 1.5zM138 613q-2 0 -2 -2.5t2 -2.5t2 2.5t-2 2.5zM103 162
q-1 0 -1 -2.5t1 -2.5t1 2.5t-1 2.5zM31 689q1 0 1 -2.5t-1 -2.5t-1 2.5t1 2.5zM80 536q-2 0 -2 -2t2 -2t2 2t-2 2zM83 678q-2 0 -2 -2t2 -2q1 0 1 2t-1 2zM249 413q2 0 2 -2t-2 -2q-1 0 -1 2t1 2zM204 380q1 -1 1 -4.5t-1 -4.5v9zM151 102q-2 0 -2 -2t2 -2q1 0 1 2t-1 2z
M161 114q-1 0 -1 -2t1 -2t1 2t-1 2zM173 536q1 0 1 -2t-1 -2t-1 2t1 2zM27 645q-1 0 -1 -2t1 -2t1 2t-1 2zM243 297q-1 0 -1 -2t1 -2t1 2t-1 2zM27 639q-1 0 -1 -2t1 -2t1 2t-1 2zM243 390q1 0 1 -2t-1 -2t-1 2t1 2zM175 215q-1 0 -1 -2t1 -2t1 2t-1 2zM381 643l-1 -2l1 -2
q1 0 1 2t-1 2zM146 525q-2 0 -2 -1.5t2 -1.5t2 1.5t-2 1.5zM241 381q1 0 1 -1.5t-1 -1.5t-1 1.5t1 1.5zM171 381q-1 0 -1 -1.5t1 -1.5t1 1.5t-1 1.5zM222 302q-1 0 -1 -2.5t1 -2.5q2 1 2 2.5t-2 2.5zM202 392q2 -2 0 -4l-2 2q0 2 2 2zM247 402q1 0 1 -2.5t-1 -3.5v6z
M138 658h2v-5q-2 2 -2 5zM350 635v-4q2 1 2 4h-2zM119 213q-1 0 -1 -2t1 -2t1 2t-1 2zM152 48q-1 0 -1 -1.5t1 -1.5q2 0 2 1.5t-2 1.5zM171 515l2 -2v4zM383 571v-2h2v2h-2zM136 248q0 1 -1 1t-1 -1h2zM216 308h-2h2zM116 110v-2q2 2 0 2zM356 649l2 -2h-2v2zM200 402v-1v1z
M206 361q1 0 1 -1t-1 -1t-1 1t1 1z" />
    <glyph glyph-name="w" unicode="w" horiz-adv-x="595" 
d="M125 -3h-1q-3 -1 -4 -2q-22 30 -39 105l-3 12q-7 51 -27 272q-1 13 -2 55.5t-4 65.5q-2 13 -4.5 35t-4.5 34l-11 72v4q0 5 -2.5 16t-2.5 15q0 7 3 7t7 -3t7 -3h3l3 1q3 1 6 1l3 1h1l16 -4h1l12 4h1q4 0 10 -5t8 -5q1 0 3 1q0 -2 4 -6l2 -4q2 0 3.5 3t2.5 3q2 0 8 -12h2
l1 2q1 2 1 3h1q2 0 3 -2.5t2 -6.5l1 -3l4 2q13 -34 18 -64h2v17q5 -11 29 -164q0 -2 0.5 -12.5t1 -20t2.5 -10.5q0 -58 8 -72q0 4 3 7q0 3 13.5 31t14.5 28l1 1v-1q1 0 -6 -15t-15 -32.5t-8 -23.5v-3q1 2 17.5 41t28.5 62.5t17 23.5q6 0 6 -9l1 1q1 2 2 2l3 6q0 -2 2.5 -2
t7 -0.5t7.5 -4.5l5 3q1 -1 4 -11h1q1 0 3.5 1.5t4.5 1.5q4 0 6 -9t14 -9q3 0 7.5 1.5t6.5 1.5h1l7 -3.5l8 -4t6 -5t4 -6.5l8 -31q6 -29 9 -29h1v4v4q2 -1 6 -8q2 -2 2 -4l25 -110l3 -2q1 26 7.5 72t8.5 64v5q5 105 27 207q1 6 6 13l2 -2q1 2 3.5 10t2.5 9v1l-1 2l-2 2v1
l13 38q14 38 30 38h3v-1l-1 -4v-1q2 0 5 0.5t6 0.5q9 0 12 -8l6 4q0 -1 1.5 -2t1.5 -2h6l2 -3l6 -2q3 0 3 -7q0 -6 -4.5 -20t-4.5 -16q-26 -104 -33 -158v-4q0 -14 -4 -28l-16 -231q0 -1 -2 -16t-4 -34t-3 -27q-2 -12 -13 -33.5t-11 -26.5l-3 2q-5 0 -5 -6q0 -9 3 -9v-2
q0 -2 -3 -3.5t-3 -2.5q-4 -11 -7 -14t-10.5 -4.5t-13.5 -4.5q-8 -6 -13 -6h-1l-3 2q-2 -1 -2 -2h-1l-2 1l-2 1h-2q0 -1 -1 -1t-1 -1h-1q-4 0 -8.5 6t-9 16t-8 19.5t-7.5 21t-6 15.5q-30 69 -35 87l-6 20q0 8 -3 11l-24 116q-1 1 -2 1h-2q-21 -37 -23 -58l-39 -112l-15 -61
q0 -4 1 -10.5t1 -9.5v-7l-5 13q-1 -4 -1 -5q0 -3 2 -9t2 -10q0 -14 -6 -26q2 0 2 -2q-1 -1 -2 -1l-1 1q-3 -3 -5 -3q-1 0 -3 0.5l-2 0.5v-16q-5 0 -9 -2l-1 -5h-2q-2 0 -4 2h-1q-2 0 -4 -5.5t-6 -6.5h-8q-5 0 -15 -3.5t-16 -3.5q-3 0 -7 3t-6 3zM392 332q0 -4 2 -10q0 1 2 4
l1 3l1 1q-4 0 -4 5v3q-2 -2 -2 -6zM251 190v-3q0 -3 -4 -11v1q0 9 4 13zM258 212v-2q0 -8 -4 -9v1q0 4 4 10zM538 677q-2 0 -2 -2t2 -2t2 2t-2 2zM86 252q-2 0 -2 -2t2 -2q1 0 1 2t-1 2zM445 219q-2 0 -2 -2t2 -2q1 0 1 2t-1 2zM368 408q-2 0 -2 -2t2 -2q1 0 1 2t-1 2z
M209 43h-1q-1 -1 -1 -2q0 -2 2 -2q1 0 1 1v1q-1 1 -1 2zM240 415q1 -1 1 -2l-1 -2q-2 0 -2 2t2 2zM504 620q-2 0 -2 -2q0 -1 2 -1l1 1q0 2 -1 2zM324 431q1 0 1 -2q0 -1 -1 -1l-2 1q0 2 2 2zM238 411q1 0 1 -2q0 -1 -1 -1l-2 1q0 2 2 2zM245 169v-2q-1 -2 -2 -3v2q0 3 2 3z
M234 402q1 0 1 -2q0 -1 -1 -1l-2 1q0 2 2 2zM225 72q1 0 1 -2q0 -1 -1 -1l-2 1q0 2 2 2zM476 582q-1 0 -1 -2t1 -2q1 1 1 2l-1 1v1zM144 587q-1 0 -1 -2q0 -1 1 -1l1 1q0 2 -1 2zM469 542q-1 0 -1 -2q0 -1 1 -1l1 1v1zM157 620q1 0 1 -1h-2q0 1 1 1zM163 497q-1 1 -2 1v-1h2
zM241 158l1 -1l-1 -1v2zM460 325l-1 -1h1v1z" />
    <glyph glyph-name="x" unicode="x" horiz-adv-x="431" 
d="M50 32q-8 -8 -8 2q-2 -2 -3 -2l-1 -1l-1 1q-1 0 -1 0.5t-1 0.5q-1 -1 -2 -1v-5h-1v2q0 18 -12 19q1 6 7 28q1 2 6 18.5t7 20.5q2 3 2 4q0 2 4.5 12.5t9.5 21.5t6 13q71 155 81 190q19 43 19 49v7q-2 2 -7 17q-3 7 -12 25.5t-16 33.5t-8 18q-37 62 -38 63q-5 3 -23.5 35
t-18.5 40q1 5 5 5q9 0 16 -1q-1 4 3 4q3 0 8.5 -2.5t7.5 -2.5l3 2h3q3 0 5 -2q15 5 20 5q1 0 12 -6t13 -8l1 2l5 3l14 -10q5 2 18 -13.5t27 -35.5t18 -23v4q2 0 3.5 -1.5t2.5 -4t2 -3.5h1q5 0 18 38l45 85q1 1 1 2q10 17 19 17h1q4 -5 12 -6q3 0 5 0.5t3 0.5q3 0 5 -3t3 -3
l5 3h1q2 0 5 -1.5t6 -1.5q3 -1 7.5 0t6.5 1q6 0 13 -10t5 -17q8 12 11 12q0 -8 -8 -23t-8 -22v-1l1 -1q0 -2 -1 -4.5t-1 -5.5q2 0 7 11t10 14q-5 -8 -9 -23.5t-5 -18.5t-8 -18.5t-7 -23.5h3q-1 -28 -19 -52l-45 -112v-1q-1 -18 18 -51l3 -14q2 -4 8 -12q7 -23 33 -65t33 -63
h-2q-6 10 -9 13v-1q0 -2 7 -18v-2l-1 -1l-1 -1q9 -4 9 -12q0 -1 -1 -2.5t-1 -2.5v-1q1 -1 2 -1q0 -1 2 -6l2 -6h-2l-14 20v-3q0 -5 3.5 -18t2.5 -20q0 -10 -2 -21q-2 -4 -2 -10q-7 -7 -23 -7h-1q-4 1 -4 2l-1 1h-1q2 -6 2 -11q-2 0 -4.5 2t-4.5 2l-1 -7q-3 0 -5 2t-4.5 5
t-3.5 4l-1 -4l-1 -1l-1 1q-1 0 -3 2q-2 5 -15.5 36t-21.5 46q-7 14 -42 64q0 1 -1 3l-2 2h-1q-1 0 -6 -5l-2 -5q-2 -5 -4.5 -10.5t-2.5 -6.5l-3 -3h-2q1 2 4 7.5t5.5 12t3.5 7.5q2 3 2 8t-4 5l-5 -9q-4 -4 -4 -8l1 -2v-2l-2 -5q-3 -4 -6.5 -9t-4.5 -7q-34 -77 -47 -103
l-1 -2l-1 -1l-2 -3l-3 -3l-7 -12q-4 -1 -6 -2q-4 -1 -9 -12.5t-13 -11.5q-11 0 -20 -15q-4 3 -5 3q-3 0 -11.5 -5t-14.5 -4l-2 -2h-15v-1l-1 -2h-3l-3 3q-4 0 -7.5 0.5t-5.5 0.5zM317 324q0 -7 4 -9v2q0 7 -4 8v-1zM306 345q0 -5 4 -8v2q0 6 -4 6zM231 192q0 3 4 7
q0 -7 -4 -8v1zM168 98q-1 0 -1 -2.5t1 -2.5q2 0 2 2.5t-2 2.5zM221 170q1 0 1 -2t-1 -2q-2 0 -2 2t2 2zM375 555q2 0 2 -2t-2 -2q-1 0 -1 2t1 2zM122 263q-2 0 -2 -2.5t2 -2.5t2 2t-2 3zM113 271q-1 0 -1 -2t1 -2q1 -1 1 1t-1 3zM403 652q1 0 1 -1.5t-1 -1.5q-2 1 0 3z
M328 304q-2 0 -2 -2t2 -2t2 2t-2 2zM326 308q-2 0 -2 -2t2 -2t2 2t-2 2zM71 114q-1 0 -1 -2t1 -2t1 2t-1 2zM322 404q2 0 2 -2t-2 -2t-2 2t2 2zM205 132q1 0 1 -1.5t-1 -1.5q-2 1 0 3zM103 139q-1 0 -1 -2t1 -2t1 2t-1 2zM218 166q2 0 2 -2t-2 -2q-1 0 -1 2t1 2zM225 180
q1 0 1 -2.5t-1 -2.5t-1 2.5t1 2.5zM314 330q-2 1 -2.5 -0.5t1.5 -2.5q1 1 1 3zM378 611q-1 -1 -1 -2t-0.5 -1.5t-0.5 -1.5v-2q2 1 2 5v2zM338 164q-2 -1 0 -3v3zM316 385q0 -3 -3 -2q-1 1 0.5 2t2.5 0zM143 537q-3 0 -4 -2h4v2zM147 531q-1 0 -1 -1.5t1 -1.5q2 1 0 3zM64 38
q-1 0 -1 -2t1 -2q2 0 2 2t-2 2zM331 297q0 -8 2 0h-2zM217 160q1 0 1 -1.5t-1 -1.5t-1 1.5t1 1.5zM215 572l2 -2v-2q-2 1 -2 2v2zM358 253h-2l2 -2v2zM223 174q1 0 1 -1t-1 -1v2zM362 246v-1q1 -1 1 -2q0 1 0.5 1t0.5 1l-2 2v-1zM305 348v-2q2 0 0 2zM141 337h-2q2 -2 2 0z
M306 574v-2v2zM364 550q-1 0 -1 -1.5t1 -1.5q2 1 0 3zM330 300v-2q1 0 1 1t-1 1zM211 146q1 0 1 -1t-1 -1t-1 1t1 1zM215 154v-1l-2 -1z" />
    <glyph glyph-name="y" unicode="y" horiz-adv-x="356" 
d="M108 -76h-5v-7q-15 14 -15 56v99q3 3 3.5 8t0 9t0.5 9q2 27 7 77.5t7 75.5l2 5v5q0 1 -2 8t-8 33t-14.5 66.5t-24 121.5t-34.5 185q0 3 -2.5 8t-2.5 8q0 7 5 7h2q4 -4 5 -4l3 2q5 0 7 -5h2l4 1q4 1 5 1h2l2 -2h1l2 2h12q28 0 37 -11q2 2 6 2q13 0 26.5 -11t15.5 -25h2
l5 -15q4 -15 9 -34.5t7 -31.5q1 -5 4 -21.5t6.5 -35t3.5 -21.5q0 -1 1 -1t22 41q8 21 16 31l5 9q2 2 7 13.5t8 13.5v-1q0 -1 -1 -3t-1 -3v-2q6 3 21 37.5t20 34.5q3 0 3 -4q0 -3 -2 -8.5t-2 -8.5h1l7 14q2 1 5.5 4.5t6.5 3.5q0 -7 6 -8t6 -4t-2.5 -8t-2.5 -7v-2q2 5 10 5
q7 0 8 -2v-7q0 -2 -1 -7t-1 -8v-1q2 -4 2 -5q0 -2 -4 -14q-2 -3 -3 -3v-8q-1 -9 -4 -18.5t-7.5 -21.5t-6.5 -19l-60 -130q-6 -5 -17.5 -28t-11.5 -29v-1q0 -7 2 -11q10 -5 10 -7v-23q1 -1 4 -10q0 -12 2 -20q3 -2 3 -12q0 -7 -0.5 -14t-1.5 -16t-1 -14q-4 -20 -4 -51
q-1 -12 -4 -34t-4 -31l-4 -17h-4q0 -2 0.5 -9.5t0.5 -8.5l-3 -9l-3 -9q-3 -6 -3 -24q-4 -9 -5 -9v-15q-2 0 -2 1q-3 3 -3 4v-4q-6 0 -8 7l-3 -37h-1q-3 0 -8 14q-3 -21 -6 -26q-1 -2 -3.5 -2t-3.5 -2q-3 -5 -4 -10.5t-4 -8t-13 -6.5h-1q-4 0 -4 8q-2 -8 -7 -9q0 5 -5 7v-15
q-2 2 -2 4h-1q-4 0 -4 -5l-2 -2l-3 1q-3 1 -4 1q-2 0 -3 -1q-4 4 -4 15zM189 -7q-1 0 -1 -2t1 -2t1 2t-1 2zM260 477q-2 0 -2 -2t2 -2t2 2t-2 2zM315 550q-1 0 -1 -2t1 -2t1 2t-1 2zM233 378q-1 0 -1 -2t1 -2t1 2t-1 2zM240 564q-2 0 -2 -2t2 -2t2 2t-2 2zM322 587
q-2 0 -2 -2t2 -2t2 2t-2 2zM194 643q2 0 2 -1.5t-2 -1.5t-2 1.5t2 1.5zM143 657q-1 0 -1 -1.5t1 -1.5t1 1.5t-1 1.5zM152 -73q-2 0 -2 -1.5t2 -1.5t2 1.5t-2 1.5zM201 -14q1 -1 1 -2.5t-1 -1.5l-1 2q0 2 1 2zM154 -43q-2 0 -2 -1.5t2 -1.5q1 0 1 1.5t-1 1.5zM206 91
q-1 0 -1 -1.5t1 -1.5q2 0 2 1.5t-2 1.5zM104 -67v-2h2v2h-2zM74 698q1 0 1 -1t-1 -1t-1 1t1 1zM292 652h-2q2 -2 2 0z" />
    <glyph glyph-name="z" unicode="z" horiz-adv-x="350" 
d="M318 654q2 0 2 -1.5t-2 -1.5h-1q6 -8 7 -14v-24q0 -30 -21 -99t-22 -107h-2l-2 -2q2 0 2 -3q0 -10 -7 -30.5t-5 -32.5l-9 -29q-8 -30 -17 -62.5t-11 -37.5q0 -5 -7 -26q-13 -46 -13 -55v-12l5 -1q10 1 23.5 -1.5t19.5 -2.5h1l5 2h1q4 0 9 -5q-4 0 -5 -1v-2q14 0 18 -2
q13 0 23 -5h1q9 -2 7 -8l12 -13h-6q2 -1 2 -4q0 -8 -45 -19q-5 -1 -16 -3.5t-19.5 -4.5t-9.5 -2q-26 -7 -79 -12h-4q-20 -4 -49 -4h-3q-11 0 -15 2q-1 0 -1 2h-2l-4 -2q-1 0 -1 4q0 3 1 4v1q-2 2 -6 5.5t-9.5 13.5t-5.5 18l-5 5q-1 2 3 6t4 5v8l1 7q9 47 21.5 95.5
t33.5 116.5t28 94l20 75q1 0 1 1.5t-1 2.5q25 89 25 129q0 22 -13 22h-7l-86 -15h-12q-35 0 -41 12v3q-1 4 -5.5 12t-4.5 12v1l10 12l35 9q2 -1 7 1t7 2q38 5 67 5q72 0 149 -30q10 -6 21 -17v2q-2 0 -2 1.5t2 1.5q3 0 1 -2h1zM277 373q1 0 1 -2t-1 -2t-1 2t1 2zM283 394
q1 0 1 -2t-1 -2t-1 2t1 2zM279 414q-1 0 -1 -1.5t1 -1.5t1 1.5t-1 1.5zM274 360q1 -1 1 -2.5t-1 -1.5l-2 2q0 2 2 2zM143 235q-1 0 -1 -2t1 -2t1 2t-1 2zM192 686v-2q1 0 1 1t-1 1zM281 387q1 0 1 -1.5t-1 -1.5t-1 1.5t1 1.5zM169 333v-1v1zM269 347q1 0 1 -1t-1 -1t-1 1
t1 1zM251 315h-1h1zM94 214v-1v1zM233 278v-1h1z" />
    <glyph glyph-name="Agrave" unicode="&#xc0;" 
d="M33 17q-1 1 -1 3t1 3q-3 0 -4 -2q-4 0 -6 7q-5 13 2 53q0 19 8 99q4 12 7 53q5 36 16.5 100.5t15.5 88.5q1 7 6.5 23t6.5 25l1 2v2l-1 4q2 11 10.5 48.5t11.5 57.5q1 1 2 13.5t2 13.5q5 30 14 66q6 18 10.5 21.5t20.5 3.5h2l17 -2q3 -2 4 -2l2 2q2 -1 3 -1l3 -1q1 0 1 -1
l2 -1q2 0 8.5 3.5t8.5 3.5h1q5 -1 12 -6t18 -7q4 0 13 1.5t14 0.5q5 0 9.5 -2t7 -3.5t6 -6t4.5 -7t4.5 -9t4.5 -8.5q1 -3 7 -17.5t7 -16.5q5 -5 5 -6l2 -1l8 3h1q-1 -2 -1 -10.5t2 -9.5h1l2 1l2 1q4 -16 14.5 -46.5t14.5 -44.5q21 -80 39 -176q0 -1 3 -13t2 -17h-2
q-2 0 -4 12.5t-4 28t-5 20.5l-17 78q-5 -2 -5 -5q-1 -2 1 -15.5t4 -17.5l9 -37q2 -3 2 -4l30 -164q0 -4 9 -54t6 -73l-3 -7l-1 -7q0 -16 -1 -19q-1 -5 -8 -13.5t-11 -11.5q-2 0 -5 0.5t-3 -1t-2 -9.5q-3 0 -4.5 3t-2.5 3q0 -6 -6 -12q-4 -1 -5 -1q-7 0 -7 6q-2 -2 -5 -2h-2
q-17 16 -26 65l-1 7q-2 11 -7.5 49t-8.5 49l-3 3l-10 69q1 4 -4 4q-8 1 -64.5 -17.5t-59.5 -22.5q-4 -41 -11 -61q-1 -5 -6.5 -16t-6.5 -18q-1 -2 -4 -14l-3 -13q-1 -3 -3.5 -9.5t-6.5 -12.5t-7 -6h-1q-3 1 -4 2q2 -3 0 -4t-2 -4l-2 -8q-2 -4 -10 -8t-9 -5q-37 -26 -64 -23
h-8l-2 5q-2 4 -1 5zM207 359l-10 -76q0 -4 5 -4q2 0 5.5 2t5.5 2l1 -2q2 -1 3 -1h1l39 6q24 -4 37 -4h4t5 0.5t2 2.5v1l-19 94q-4 21 -14 63q-11 58 -31 117l-2 10q-14 -61 -14 -62l-1 -4q0 -5 3 -5l-4 -40l3 -3l-4 -19q-1 -11 -6.5 -32t-6.5 -31q0 -1 0.5 -4t-0.5 -5
q0 -6 -2 -6zM293 765l-37 -11q-3 0 -9 -3q-6 1 -12.5 4.5t-9.5 4.5l-2 -1l2 -4q-1 1 -9 1q-3 1 -8.5 5t-8.5 5l-2 -3l-3 2q-1 1 -4.5 3t-6.5 4l-3 1l-12 4l-3 2q-3 1 -12 10t-14 9l-7 10l2 1l-6 11v1q-4 6 -1 7q2 1 5 -1l2 -1l1 1q-4 6 4 11q3 0 4 1l1 2l1 2l4 2q1 0 2 3
l2 3h2q5 4 21 11q1 1 8 7t11 7q4 3 8.5 0.5t6 -4.5l4.5 -6l3 -5l65 -67l9 -13q-1 -2 1.5 -8t0.5 -8zM410 296q3 -1 13.5 -52t9.5 -57v-3l-3 3q-12 62 -18 88q0 4 -1.5 11t-0.5 10zM371 462q-3 -9 3 -10q0 9 -3 10zM134 76l-2 -7q5 1 5 7h-3zM337 593q-2 -1 -1 -5q2 0 2.5 2
t-1.5 3zM368 481q-2 0 -2.5 -2t1.5 -2q2 1 1 4zM134 65q-1 -2 -1 -5q1 2 1 5zM41 211q-1 -2 2 -4l1 4h-3zM431 176v1q1 0 2 -1l1 -2v-2q-3 0 -3 4zM144 792l-3 4q5 -2 5 -3zM135 99l-1 -4q3 0 3 3zM193 780q-3 -1 1 -3q3 3 -1 3zM344 571q-2 0 -2 -2t2 -2q1 0 1 2t-1 2z
M313 642l1 1l2 -5h-1l-1 1q-1 1 -1 2v1zM181 538v-4l3 1zM98 522q-2 -2 1 -4l1 4h-2zM350 536v-3l3 -1zM64 15l-1 -2h2l1 2h-2zM76 120v-2v2zM186 419q-1 0 -1 -1t1 -1v2zM117 87q-1 0 -1 -1t1 -1q4 0 0 2zM313 649v-2v2zM118 331q-1 -1 -1 -3q1 0 1 3zM262 759l1 -1z
M223 486v-1v1zM415 152v-2q1 0 1 1t-1 1zM321 629v-5q-2 2 0 5zM363 489v-2l2 2h-2zM37 118l-1 -2q3 0 1 2zM359 504v-2h2zM338 580v-2h2zM125 816q1 -1 1 -2q0 1 -1 2zM233 688v-1v1z" />
    <glyph glyph-name="Aacute" unicode="&#xc1;" 
d="M33 17q-1 1 -1 3t1 3q-3 0 -4 -2q-4 0 -6 7q-5 13 2 53q0 19 8 99q4 12 7 53q5 36 16.5 100.5t15.5 88.5q1 7 6.5 23t6.5 25l1 2v2l-1 4q2 11 10.5 48.5t11.5 57.5q1 1 2 13.5t2 13.5q5 30 14 66q6 18 10.5 21.5t20.5 3.5h2l17 -2q3 -2 4 -2l2 2q2 -1 3 -1l3 -1q1 0 1 -1
l2 -1q2 0 8.5 3.5t8.5 3.5h1q5 -1 12 -6t18 -7q4 0 13 1.5t14 0.5q5 0 9.5 -2t7 -3.5t6 -6t4.5 -7t4.5 -9t4.5 -8.5q1 -3 7 -17.5t7 -16.5q5 -5 5 -6l2 -1l8 3h1q-1 -2 -1 -10.5t2 -9.5h1l2 1l2 1q4 -16 14.5 -46.5t14.5 -44.5q21 -80 39 -176q0 -1 3 -13t2 -17h-2
q-2 0 -4 12.5t-4 28t-5 20.5l-17 78q-5 -2 -5 -5q-1 -2 1 -15.5t4 -17.5l9 -37q2 -3 2 -4l30 -164q0 -4 9 -54t6 -73l-3 -7l-1 -7q0 -16 -1 -19q-1 -5 -8 -13.5t-11 -11.5q-2 0 -5 0.5t-3 -1t-2 -9.5q-3 0 -4.5 3t-2.5 3q0 -6 -6 -12q-4 -1 -5 -1q-7 0 -7 6q-2 -2 -5 -2h-2
q-17 16 -26 65l-1 7q-2 11 -7.5 49t-8.5 49l-3 3l-10 69q1 4 -4 4q-8 1 -64.5 -17.5t-59.5 -22.5q-4 -41 -11 -61q-1 -5 -6.5 -16t-6.5 -18q-1 -2 -4 -14l-3 -13q-1 -3 -3.5 -9.5t-6.5 -12.5t-7 -6h-1q-3 1 -4 2q2 -3 0 -4t-2 -4l-2 -8q-2 -4 -10 -8t-9 -5q-37 -26 -64 -23
h-8l-2 5q-2 4 -1 5zM207 359l-10 -76q0 -4 5 -4q2 0 5.5 2t5.5 2l1 -2q2 -1 3 -1h1l39 6q24 -4 37 -4h4t5 0.5t2 2.5v1l-19 94q-4 21 -14 63q-11 58 -31 117l-2 10q-14 -61 -14 -62l-1 -4q0 -5 3 -5l-4 -40l3 -3l-4 -19q-1 -11 -6.5 -32t-6.5 -31q0 -1 0.5 -4t-0.5 -5
q0 -6 -2 -6zM162 754l-37 11q-2 2 0.5 8t1.5 8l9 13l65 67l3 5l4.5 6t6 4.5t8.5 -0.5q4 -1 11 -7t8 -7q16 -7 21 -11h2l2 -3q1 -3 2 -3l4 -2l1 -2l1 -2l4 -1q8 -5 4 -11l1 -1l2 1q3 2 5 1q3 -1 -1 -7v-1l-6 -11l2 -1l-7 -10q-5 0 -14 -9t-12 -10l-3 -2q-1 0 -3.5 -0.5
t-5 -1.5t-3.5 -2l-3 -1q-3 -2 -6.5 -4t-4.5 -3q-2 -2 -3 -2l-2 3q-3 -1 -8.5 -5t-8.5 -5q-8 0 -9 -1l2 4l-2 1q-3 -1 -9.5 -4.5t-12.5 -4.5q-6 3 -9 3zM410 296q3 -1 13.5 -52t9.5 -57v-3l-3 3q-12 62 -18 88q0 4 -1.5 11t-0.5 10zM371 462q-3 -9 3 -10q0 9 -3 10zM134 76
l-2 -7q5 1 5 7h-3zM337 593q-2 -1 -1 -5q2 0 2.5 2t-1.5 3zM368 481q-2 0 -2.5 -2t1.5 -2q2 1 1 4zM134 65q-1 -2 -1 -5q1 2 1 5zM41 211q-1 -2 2 -4l1 4h-3zM431 176v1q1 0 2 -1l1 -2v-2q-3 0 -3 4zM277 796l-3 -4l-2 1q0 1 5 3zM135 99l-1 -4q3 0 3 3zM225 780q-4 0 -1 -3
q4 2 1 3zM344 571q-2 0 -2 -2t2 -2q1 0 1 2t-1 2zM313 642l1 1l2 -5h-1l-1 1q-1 1 -1 2v1zM181 538v-4l3 1zM98 522q-2 -2 1 -4l1 4h-2zM350 536v-3l3 -1zM64 15l-1 -2h2l1 2h-2zM76 120v-2v2zM186 419q-1 0 -1 -1t1 -1v2zM117 87q-1 0 -1 -1t1 -1q4 0 0 2zM313 649v-2v2z
M118 331q-1 -1 -1 -3q1 0 1 3zM156 759l-1 -1zM293 816q-1 -1 -1 -2q1 1 1 2zM321 629v-5q-2 2 0 5zM415 152v-2q1 0 1 1t-1 1zM223 486v-1v1zM363 489v-2l2 2h-2zM37 118l-1 -2q3 0 1 2zM359 504v-2h2zM338 580v-2h2zM233 688v-1v1z" />
    <glyph glyph-name="Acircumflex" unicode="&#xc2;" 
d="M33 17q-1 1 -1 3t1 3q-3 0 -4 -2q-4 0 -6 7q-5 13 2 53q0 19 8 99q4 12 7 53q5 36 16.5 100.5t15.5 88.5q1 7 6.5 23t6.5 25l1 2v2l-1 4q2 11 10.5 48.5t11.5 57.5q1 1 2 13.5t2 13.5q5 30 14 66q6 18 10.5 21.5t20.5 3.5h2l17 -2q3 -2 4 -2l2 2q2 -1 3 -1l3 -1q1 0 1 -1
l2 -1q2 0 8.5 3.5t8.5 3.5h1q5 -1 12 -6t18 -7q4 0 13 1.5t14 0.5q5 0 9.5 -2t7 -3.5t6 -6t4.5 -7t4.5 -9t4.5 -8.5q1 -3 7 -17.5t7 -16.5q5 -5 5 -6l2 -1l8 3h1q-1 -2 -1 -10.5t2 -9.5h1l2 1l2 1q4 -16 14.5 -46.5t14.5 -44.5q21 -80 39 -176q0 -1 3 -13t2 -17h-2
q-2 0 -4 12.5t-4 28t-5 20.5l-17 78q-5 -2 -5 -5q-1 -2 1 -15.5t4 -17.5l9 -37q2 -3 2 -4l30 -164q0 -4 9 -54t6 -73l-3 -7l-1 -7q0 -16 -1 -19q-1 -5 -8 -13.5t-11 -11.5q-2 0 -5 0.5t-3 -1t-2 -9.5q-3 0 -4.5 3t-2.5 3q0 -6 -6 -12q-4 -1 -5 -1q-7 0 -7 6q-2 -2 -5 -2h-2
q-17 16 -26 65l-1 7q-2 11 -7.5 49t-8.5 49l-3 3l-10 69q1 4 -4 4q-8 1 -64.5 -17.5t-59.5 -22.5q-4 -41 -11 -61q-1 -5 -6.5 -16t-6.5 -18q-1 -2 -4 -14l-3 -13q-1 -3 -3.5 -9.5t-6.5 -12.5t-7 -6h-1q-3 1 -4 2q2 -3 0 -4t-2 -4l-2 -8q-2 -4 -10 -8t-9 -5q-37 -26 -64 -23
h-8l-2 5q-2 4 -1 5zM59 763q0 13 11 32l1 1q15 30 45 64t56 50q4 1 6 2h2v-2q1 -2 1 -3h16q0 -3 13 -3q2 0 5.5 1.5t4.5 1.5h1l-2 -3q6 -2 27 -7t35 -11.5t23 -17.5l34 -38q3 -8 4 -10l5 -19v-2l-2 -2v-2l-3 -2q-1 -1 1 -4v-2l-1 -2q-1 -1 -1 -4t1 -5l-4 -1q-5 -4 -9 -4
q-1 0 -1 -5q0 -2 -0.5 -4t-0.5 -4q-1 -4 -17 -9t-18 -7v7q-3 -6 -10 -10l-6 8q-2 0 -2 -7q-4 5 -7 20l-3 15q-8 24 -54 72l-29 -35l-16 -24q-36 -55 -76 -55q-10 0 -16 2q-3 0 -8.5 12.5t-5.5 15.5zM207 359l-10 -76q0 -4 5 -4q2 0 5.5 2t5.5 2l1 -2q2 -1 3 -1h1l39 6
q24 -4 37 -4h4t5 0.5t2 2.5v1l-19 94q-4 21 -14 63q-11 58 -31 117l-2 10q-14 -61 -14 -62l-1 -4q0 -5 3 -5l-4 -40l3 -3l-4 -19q-1 -11 -6.5 -32t-6.5 -31q0 -1 0.5 -4t-0.5 -5q0 -6 -2 -6zM410 296q3 -1 13.5 -52t9.5 -57v-3l-3 3q-12 62 -18 88q0 4 -1.5 11t-0.5 10z
M371 462q-3 -9 3 -10q0 9 -3 10zM134 76l-2 -7q5 1 5 7h-3zM337 593q-2 -1 -1 -5q2 0 2.5 2t-1.5 3zM368 481q-2 0 -2.5 -2t1.5 -2q2 1 1 4zM134 65q-1 -2 -1 -5q1 2 1 5zM331 793q-1 0 -1 -2.5t1 -2.5t1 2.5t-1 2.5zM41 211q-1 -2 2 -4l1 4h-3zM431 176v1q1 0 2 -1l1 -2v-2
q-3 0 -3 4zM189 817q1 0 1 -1.5t-1 -1.5t-1 1.5t1 1.5zM135 99l-1 -4q3 0 3 3zM344 571q-2 0 -2 -2t2 -2q1 0 1 2t-1 2zM313 642l1 1l2 -5h-1l-1 1q-1 1 -1 2v1zM181 538v-4l3 1zM98 522q-2 -2 1 -4l1 4h-2zM350 536v-3l3 -1zM64 15l-1 -2h2l1 2h-2zM76 120v-2v2zM186 419
q-1 0 -1 -1t1 -1v2zM117 87q-1 0 -1 -1t1 -1q4 0 0 2zM313 649v-2v2zM118 331q-1 -1 -1 -3q1 0 1 3zM415 152v-2q1 0 1 1t-1 1zM321 629v-5q-2 2 0 5zM223 486v-1v1zM338 580v-2h2zM363 489v-2l2 2h-2zM37 118l-1 -2q3 0 1 2zM154 856l-1 -4h1v4zM359 504v-2h2zM233 688v-1
v1zM285 823q-1 0 -1 -1t1 -1v2zM186 812h-1h1zM336 821v-1v1z" />
    <glyph glyph-name="Atilde" unicode="&#xc3;" 
d="M33 17q-1 1 -1 3t1 3q-3 0 -4 -2q-4 0 -6 7q-5 13 2 53q0 19 8 99q4 12 7 53q5 36 16.5 100.5t15.5 88.5q1 7 6.5 23t6.5 25l1 2v2l-1 4q2 11 10.5 48.5t11.5 57.5q1 1 2 13.5t2 13.5q5 30 14 66q6 18 10.5 21.5t20.5 3.5h2l17 -2q3 -2 4 -2l2 2q2 -1 3 -1l3 -1q1 0 1 -1
l2 -1q2 0 8.5 3.5t8.5 3.5h1q5 -1 12 -6t18 -7q4 0 13 1.5t14 0.5q5 0 9.5 -2t7 -3.5t6 -6t4.5 -7t4.5 -9t4.5 -8.5q1 -3 7 -17.5t7 -16.5q5 -5 5 -6l2 -1l8 3h1q-1 -2 -1 -10.5t2 -9.5h1l2 1l2 1q4 -16 14.5 -46.5t14.5 -44.5q21 -80 39 -176q0 -1 3 -13t2 -17h-2
q-2 0 -4 12.5t-4 28t-5 20.5l-17 78q-5 -2 -5 -5q-1 -2 1 -15.5t4 -17.5l9 -37q2 -3 2 -4l30 -164q0 -4 9 -54t6 -73l-3 -7l-1 -7q0 -16 -1 -19q-1 -5 -8 -13.5t-11 -11.5q-2 0 -5 0.5t-3 -1t-2 -9.5q-3 0 -4.5 3t-2.5 3q0 -6 -6 -12q-4 -1 -5 -1q-7 0 -7 6q-2 -2 -5 -2h-2
q-17 16 -26 65l-1 7q-2 11 -7.5 49t-8.5 49l-3 3l-10 69q1 4 -4 4q-8 1 -64.5 -17.5t-59.5 -22.5q-4 -41 -11 -61q-1 -5 -6.5 -16t-6.5 -18q-1 -2 -4 -14l-3 -13q-1 -3 -3.5 -9.5t-6.5 -12.5t-7 -6h-1q-3 1 -4 2q2 -3 0 -4t-2 -4l-2 -8q-2 -4 -10 -8t-9 -5q-37 -26 -64 -23
h-8l-2 5q-2 4 -1 5zM238 749q-3 2 -11.5 2.5t-11.5 1.5q-13 7 -20.5 17.5t-15 30t-10.5 24.5l-1 1q-23 -18 -26 -26q0 3 -3 3h-1q-2 -5 -4 -10.5t-4.5 -12t-3.5 -10.5q-1 -2 -3.5 -3.5t-2.5 -2.5q-1 -3 -2 -4h-1l-1 1v2q-4 -1 -6 -5l-3 -3q-10 0 -10 -2l-1 -1q-2 -2 -7 -2
q-3 0 -3 1l-4 1l-4 1q-3 11 -7 15q-2 17 -2 20q1 37 36 70q17 12 33 12q7 0 18.5 -3.5t14.5 -3.5q32 -4 37 -6l3 -2q3 -2 4 -2t11 -3.5t11 -4.5l13 -19q2 -3 3 -11t2 -11l2 -1q10 0 18.5 18t11.5 31q6 12 6 27l3 3q4 0 6 -4.5t5 -4.5l3 2q2 0 3.5 -2.5t2.5 -2.5h2l2 1
q5 0 5 -6l3 5q0 -7 5 -7q4 0 4 2l3 -1q2 0 5 -1.5t4 -4.5q2 -14 8 -15q-5 -31 -19 -58v-1h1v-2q-30 -35 -76 -35q-7 0 -25 2zM207 359l-10 -76q0 -4 5 -4q2 0 5.5 2t5.5 2l1 -2q2 -1 3 -1h1l39 6q24 -4 37 -4h4t5 0.5t2 2.5v1l-19 94q-4 21 -14 63q-11 58 -31 117l-2 10
q-14 -61 -14 -62l-1 -4q0 -5 3 -5l-4 -40l3 -3l-4 -19q-1 -11 -6.5 -32t-6.5 -31q0 -1 0.5 -4t-0.5 -5q0 -6 -2 -6zM410 296q3 -1 13.5 -52t9.5 -57v-3l-3 3q-12 62 -18 88q0 4 -1.5 11t-0.5 10zM371 462q-3 -9 3 -10q0 9 -3 10zM134 76l-2 -7q5 1 5 7h-3zM337 593
q-2 -1 -1 -5q2 0 2.5 2t-1.5 3zM368 481q-2 0 -2.5 -2t1.5 -2q2 1 1 4zM134 65q-1 -2 -1 -5q1 2 1 5zM41 211q-1 -2 2 -4l1 4h-3zM431 176v1q1 0 2 -1l1 -2v-2q-3 0 -3 4zM135 99l-1 -4q3 0 3 3zM344 571q-2 0 -2 -2t2 -2q1 0 1 2t-1 2zM313 642l1 1l2 -5h-1l-1 1q-1 1 -1 2
v1zM153 863v-4q2 1 2 4h-2zM181 538v-4l3 1zM98 522q-2 -2 1 -4l1 4h-2zM350 536v-3l3 -1zM64 15l-1 -2h2l1 2h-2zM76 120v-2v2zM186 419q-1 0 -1 -1t1 -1v2zM117 87q-1 0 -1 -1t1 -1q4 0 0 2zM313 649v-2v2zM118 331q-1 -1 -1 -3q1 0 1 3zM85 824v-3q1 1 0 3zM415 152v-2
q1 0 1 1t-1 1zM321 629v-5q-2 2 0 5zM223 486v-1v1zM359 504v-2h2zM338 580v-2h2zM37 118l-1 -2q3 0 1 2zM363 489v-2l2 2h-2zM233 688v-1v1zM350 828q-1 0 -1 -1.5t1 -1.5v3zM137 816v-1v1zM349 818v-1v1z" />
    <glyph glyph-name="Adieresis" unicode="&#xc4;" 
d="M33 17q-1 1 -1 3t1 3q-3 0 -4 -2q-4 0 -6 7q-5 13 2 53q0 19 8 99q4 12 7 53q5 36 16.5 100.5t15.5 88.5q1 7 6.5 23t6.5 25l1 2v2l-1 4q2 11 10.5 48.5t11.5 57.5q1 1 2 13.5t2 13.5q5 30 14 66q6 18 10.5 21.5t20.5 3.5h2l17 -2q3 -2 4 -2l2 2q2 -1 3 -1l3 -1q1 0 1 -1
l2 -1q2 0 8.5 3.5t8.5 3.5h1q5 -1 12 -6t18 -7q4 0 13 1.5t14 0.5q5 0 9.5 -2t7 -3.5t6 -6t4.5 -7t4.5 -9t4.5 -8.5q1 -3 7 -17.5t7 -16.5q5 -5 5 -6l2 -1l8 3h1q-1 -2 -1 -10.5t2 -9.5h1l2 1l2 1q4 -16 14.5 -46.5t14.5 -44.5q21 -80 39 -176q0 -1 3 -13t2 -17h-2
q-2 0 -4 12.5t-4 28t-5 20.5l-17 78q-5 -2 -5 -5q-1 -2 1 -15.5t4 -17.5l9 -37q2 -3 2 -4l30 -164q0 -4 9 -54t6 -73l-3 -7l-1 -7q0 -16 -1 -19q-1 -5 -8 -13.5t-11 -11.5q-2 0 -5 0.5t-3 -1t-2 -9.5q-3 0 -4.5 3t-2.5 3q0 -6 -6 -12q-4 -1 -5 -1q-7 0 -7 6q-2 -2 -5 -2h-2
q-17 16 -26 65l-1 7q-2 11 -7.5 49t-8.5 49l-3 3l-10 69q1 4 -4 4q-8 1 -64.5 -17.5t-59.5 -22.5q-4 -41 -11 -61q-1 -5 -6.5 -16t-6.5 -18q-1 -2 -4 -14l-3 -13q-1 -3 -3.5 -9.5t-6.5 -12.5t-7 -6h-1q-3 1 -4 2q2 -3 0 -4t-2 -4l-2 -8q-2 -4 -10 -8t-9 -5q-37 -26 -64 -23
h-8l-2 5q-2 4 -1 5zM207 359l-10 -76q0 -4 5 -4q2 0 5.5 2t5.5 2l1 -2q2 -1 3 -1h1l39 6q24 -4 37 -4h4t5 0.5t2 2.5v1l-19 94q-4 21 -14 63q-11 58 -31 117l-2 10q-14 -61 -14 -62l-1 -4q0 -5 3 -5l-4 -40l3 -3l-4 -19q-1 -11 -6.5 -32t-6.5 -31q0 -1 0.5 -4t-0.5 -5
q0 -6 -2 -6zM256 748q-7 0 -9 4q-1 -1 -3 -1v15l-2 2q-1 0 -1 3q0 15 9 44.5t9 45.5l-1 5q1 3 7.5 3.5t7.5 1.5q0 -2 1 -2.5t3 -1t4 -1.5l3 -3h1l1 1q2 1 3 1q2 0 5 -3t4 -3l2 1l3 1l3 -1h1l2 1v1l1 -1q1 -2 6 -4.5t7 -5.5t6 -3t7 -1l1 -4q2 -4 11.5 -6t11.5 -7q3 -9 3 -18
v-3h-2l-2 -10q-4 -1 -6 -6t-5 -7h-2l-2 -1l-2 -5l-2 3h-1q-4 0 -13 -12q0 2 -3 2l-4 -5l-5 -5h-3q-2 0 -2 -3l-2 4l-1 1q-10 -10 -13 -12q-6 0 -6 -3h-2q-2 1 -2 2h-1q-8 0 -14 -4v7q-2 -1 -3 -2.5t-1.5 -2.5t-2.5 -1.5t-5 -0.5zM113 783v60l2 4h7l2 1q1 0 6 -3.5t6 -3.5
q3 -1 15 -2t15 -3q2 -1 7.5 -4.5t7.5 -4.5q1 -1 4 -1t5 -0.5t4 -2.5t2 -5l3 2q2 0 4.5 -4t3.5 -4l2 2q3 0 3 -11l-2 -3q-3 -4 -5.5 -8t-3.5 -6t-12 -7.5t-12 -5.5h-1q-1 2 -1 3q-15 -15 -17 -15t-4 2t-3 2l-3 -3q-3 -2 -4 -2q-2 -2 -7 -2q-4 0 -4 2q-1 -2 -4 -2h-2
q-2 3 -3 3q-2 1 -3.5 0.5t-3.5 1.5q-2 3 -1 10t-3 10zM410 296q3 -1 13.5 -52t9.5 -57v-3l-3 3q-12 62 -18 88q0 4 -1.5 11t-0.5 10zM371 462q-3 -9 3 -10q0 9 -3 10zM134 76l-2 -7q5 1 5 7h-3zM337 593q-2 -1 -1 -5q2 0 2.5 2t-1.5 3zM368 481q-2 0 -2.5 -2t1.5 -2q2 1 1 4
zM134 65q-1 -2 -1 -5q1 2 1 5zM41 211q-1 -2 2 -4l1 4h-3zM368 825v-10h-1v8zM431 176v1q1 0 2 -1l1 -2v-2q-3 0 -3 4zM135 99l-1 -4q3 0 3 3zM344 571q-2 0 -2 -2t2 -2q1 0 1 2t-1 2zM313 642l1 1l2 -5h-1l-1 1q-1 1 -1 2v1zM181 538v-4l3 1zM98 522q-2 -2 1 -4l1 4h-2z
M254 758q-2 0 -2 -1.5t2 -1.5q1 0 1 1.5t-1 1.5zM350 536v-3l3 -1zM370 812q2 -2 0 -5v5zM175 822q-1 0 -1 -2t1 -2t1 2t-1 2zM64 15l-1 -2h2l1 2h-2zM76 120v-2v2zM186 419q-1 0 -1 -1t1 -1v2zM117 87q-1 0 -1 -1t1 -1q4 0 0 2zM313 649v-2v2zM118 331q-1 -1 -1 -3q1 0 1 3
zM321 629v-5q-2 2 0 5zM415 152v-2q1 0 1 1t-1 1zM223 486v-1v1zM37 118l-1 -2q3 0 1 2zM338 580v-2h2zM363 489v-2l2 2h-2zM359 504v-2h2zM233 688v-1v1zM274 757q-1 0 -1 -1t1 -1q2 0 0 2zM131 791v-1l2 1h-2zM276 874l1 -2h-1v2zM263 877h-1h1zM269 761v-1v1z" />
    <glyph glyph-name="Aring" unicode="&#xc5;" 
d="M122 751q0 11 1 12q13 25 37 48.5t46 23.5q5 0 9 -1h23h2l2 1q4 0 9 -3.5t5 -7.5h1q1 1 2 1l4 -4h8q6 -5 18.5 -22t14.5 -25l1 -5v-22h1q4 0 4 13q0 3 -1.5 9t-1.5 8h1q2 -5 2 -7l2 -8q0 -33 -34 -58q0 -2 -7 -5l-5 -2l-1 -1h-2l-17 -6q17 2 19 2q5 0 9.5 -2t7 -3.5t6 -6
t4.5 -7t4.5 -9t4.5 -8.5q1 -3 7 -17.5t7 -16.5q5 -5 5 -6l2 -1l8 3h1q-1 -2 -1 -10.5t2 -9.5h1l2 1l2 1q4 -16 14.5 -46.5t14.5 -44.5q21 -80 39 -176q0 -1 3 -13t2 -17h-2q-2 0 -4 12.5t-4 28t-5 20.5l-17 78q-5 -2 -5 -5q-1 -2 1 -15.5t4 -17.5l9 -37q2 -3 2 -4l30 -164
q0 -4 9 -54t6 -73l-3 -7l-1 -7q0 -16 -1 -19q-1 -5 -8 -13.5t-11 -11.5q-2 0 -5 0.5t-3 -1t-2 -9.5q-3 0 -4.5 3t-2.5 3q0 -6 -6 -12q-4 -1 -5 -1q-7 0 -7 6q-2 -2 -5 -2h-2q-17 16 -26 65l-1 7q-2 11 -7.5 49t-8.5 49l-3 3l-10 69q1 4 -4 4q-8 1 -64.5 -17.5t-59.5 -22.5
q-4 -41 -11 -61q-1 -5 -6.5 -16t-6.5 -18q-1 -2 -4 -14l-3 -13q-1 -3 -3.5 -9.5t-6.5 -12.5t-7 -6h-1q-3 1 -4 2q2 -3 0 -4t-2 -4l-2 -8q-2 -4 -10 -8t-9 -5q-37 -26 -64 -23h-8l-2 5q-2 4 -1 5q-1 1 -1 3t1 3q-3 0 -4 -2q-4 0 -6 7q-5 13 2 53q0 19 8 99q4 12 7 53
q5 36 16.5 100.5t15.5 88.5q1 7 6.5 23t6.5 25l1 2v2l-1 4q2 11 10.5 48.5t11.5 57.5q1 1 2 13.5t2 13.5q5 30 14 66q5 15 8 19t10 5q-5 3 -6 7q-15 21 -15 43zM207 359l-10 -76q0 -4 5 -4q2 0 5.5 2t5.5 2l1 -2q2 -1 3 -1h1l39 6q24 -4 37 -4h4t5 0.5t2 2.5v1l-19 94
q-4 21 -14 63q-11 58 -31 117l-2 10q-14 -61 -14 -62l-1 -4q0 -5 3 -5l-4 -40l3 -3l-4 -19q-1 -11 -6.5 -32t-6.5 -31q0 -1 0.5 -4t-0.5 -5q0 -6 -2 -6zM230 743h-1q8 7 16 21v1l1 3v13q0 5 -8 12.5t-13 9.5q1 1 0 2.5t-2 1.5q-2 0 -3.5 -1t-3.5 -3l-3 -3q-8 -5 -12 -14
q-2 -2 -7.5 -12.5t-5.5 -12.5h5v-6v-9t1 -7.5t3.5 -6.5t6.5 -2q14 0 24 12q0 -2 2 -2q1 0 1 1.5t-1 1.5zM410 296q3 -1 13.5 -52t9.5 -57v-3l-3 3q-12 62 -18 88q0 4 -1.5 11t-0.5 10zM371 462q-3 -9 3 -10q0 9 -3 10zM134 76l-2 -7q5 1 5 7h-3zM368 481q-2 0 -2.5 -2
t1.5 -2q2 1 1 4zM337 593q-2 -1 -1 -5q2 0 2.5 2t-1.5 3zM134 65q-1 -2 -1 -5q1 2 1 5zM41 211q-1 -2 2 -4l1 4h-3zM431 176v1q1 0 2 -1l1 -2v-2q-3 0 -3 4zM135 99l-1 -4q3 0 3 3zM344 571q-2 0 -2 -2t2 -2q1 0 1 2t-1 2zM313 642l1 1l2 -5h-1l-1 1q-1 1 -1 2v1zM181 538
v-4l3 1zM98 522q-2 -2 1 -4l1 4h-2zM211 730v-2q3 0 3 2h-3zM350 536v-3l3 -1zM64 15l-1 -2h2l1 2h-2zM76 120v-2v2zM186 419q-1 0 -1 -1t1 -1v2zM210 729q-4 0 -4 -1h4v1zM117 87q-1 0 -1 -1t1 -1q4 0 0 2zM313 649v-2v2zM118 331q-1 -1 -1 -3q1 0 1 3zM196 796
q-1 0 -1 -1.5t1 -1.5t1 1.5t-1 1.5zM187 754q-1 0 -1 -1.5t1 -1.5q1 1 0 3zM321 629v-5q-2 2 0 5zM223 486v-1v1zM415 152v-2q1 0 1 1t-1 1zM363 489v-2l2 2h-2zM338 580v-2h2zM359 504v-2h2zM37 118l-1 -2q3 0 1 2zM227 740q-1 0 -1 -1t1 -1t1 1t-1 1z" />
    <glyph glyph-name="AE" unicode="&#xc6;" horiz-adv-x="577" 
d="M247 42q-8 74 -8 141q0 15 2 45q-53 -17 -57 -21q-4 -41 -11 -61q-1 -5 -6.5 -16t-6.5 -18q-1 -2 -4 -14l-3 -13q-1 -3 -3.5 -9.5t-6.5 -12.5t-7 -6h-1q-3 1 -4 2q2 -3 0 -4t-2 -4l-2 -8q-2 -4 -10 -8t-9 -5q-37 -26 -64 -23h-8l-2 5q-2 4 -1 5q-1 1 -1 3t1 3q-3 0 -4 -2
q-4 0 -6 7q-5 13 2 53q0 19 8 99q4 12 7 53q5 36 16.5 100.5t15.5 88.5q1 7 6.5 23t6.5 25l1 2v2l-1 4q2 11 10.5 48.5t11.5 57.5q1 1 2 13.5t2 13.5q5 30 14 66q6 18 10.5 21.5t20.5 3.5h2l17 -2q3 -2 4 -2l2 2q2 -1 3 -1l3 -1q1 0 1 -1l2 -1q2 0 8.5 3.5t8.5 3.5h1
q5 -1 12 -6t18 -7q4 0 13 1.5t14 0.5q3 0 5 -1q2 2 6 2v-4l4 -2q3 2 10.5 3.5t12 2.5t4.5 3l2 -3h1q84 20 126 20q2 0 12 -1t11 -1h4q18 -2 36 -2q12 -1 35 -12.5t23 -20.5h-10l5 -6q-6 -2 -15 -7.5t-17 -8t-18 -2.5q-7 0 -19.5 3t-19.5 3q-40 0 -76 -11q0 -1 -1 -8t-1 -9
q0 -6 4 -23t4 -20v-8q2 -12 2 -37q0 -1 1 -9t2 -9v-2q1 -2 1 -3v-1l-1 -5v-6v-1v-5q1 -5 1 -6t1 -10t1 -11l2 5v-27l5 -4v-6q0 -7 -1 -21t-1 -22q5 0 14.5 2t15.5 2q4 0 11.5 -1.5t11.5 -1.5q7 0 21.5 1.5t20.5 1.5h10l24 -13l2 -2q0 -13 -27 -25h-1l-103 -34q0 -2 -7 -89
v-30q0 -55 2 -87q1 -6 1.5 -8.5t2 -3.5t6.5 -1q9 0 28 2.5t28 2.5h2q3 0 17 -1t16 -2q2 -2 9.5 -3.5t12.5 -4t5 -7.5v-1q-2 -3 -2 -4q-18 -13 -28 -19q-30 -11 -32 -12q-8 -5 -23.5 -16.5t-23.5 -16.5q-7 -4 -37 -16l-5 -3q-2 -1 -9.5 -6.5t-14.5 -10t-10 -5.5h-11l-12 -6
t-16 -5q-15 0 -27 11.5t-17 21.5t-12 28zM207 359l-10 -76q0 -4 5 -4q2 0 5.5 2t5.5 2l1 -2q2 -1 3 -1h1l27 4q1 16 2 46.5t2.5 55.5t4.5 47v85l-13 42l-2 10q-14 -61 -14 -62l-1 -4q0 -5 3 -5l-4 -40l3 -3l-4 -19q-1 -11 -6.5 -32t-6.5 -31q0 -1 0.5 -4t-0.5 -5q0 -6 -2 -6
zM377 637v-17q4 13 4 26q-5 0 -8 -5zM410 291v-6q0 -6 -2 -26v6q0 21 2 26zM378 584q-1 0 -1 -2.5t1 -2.5h1q0 -2 2 -2q1 0 1 2.5t-1 2.5h-1q0 2 -2 2zM408 224q0 -1 -1 -6t-1 -7v17l1 -2zM134 76l-2 -7q5 1 5 7h-3zM408 172q1 -2 1 -7t-1 -7v14zM134 65q-1 -2 -1 -5
q1 2 1 5zM410 302q1 0 1 -2.5t-1 -2.5q-2 0 -2 2.5t2 2.5zM41 211q-1 -2 2 -4l1 4h-3zM401 468q-1 0 -1 -2t1 -2t1 2t-1 2zM373 629q-1 0 -1 -2t1 -2t1 2t-1 2zM408 458q2 0 2 -2t-2 -2t-2 2t2 2zM408 151q2 0 2 -1.5t-2 -1.5t-2 1.5t2 1.5zM135 99l-1 -4q3 0 3 3zM266 32
q-2 0 -2 -2t2 -2q1 0 1 2t-1 2zM181 538v-4l3 1zM98 522q-2 -2 1 -4l1 4h-2zM410 120q1 0 1 -1.5t-1 -1.5q-2 0 -2 1.5t2 1.5zM371 633l2 -3v5zM64 15l-1 -2h2l1 2h-2zM406 240q1 0 1 -1t-1 -1v2zM76 120v-2v2zM186 419q-1 0 -1 -1t1 -1v2zM117 87q-1 0 -1 -1t1 -1q4 0 0 2z
M118 331q-1 -1 -1 -3q1 0 1 3zM223 486v-1v1zM406 196v-1v1zM380 582q-1 0 -1 -3q1 0 1 3zM37 118l-1 -2q3 0 1 2zM299 127v-2h1v2h-1zM233 688v-1v1z" />
    <glyph glyph-name="Ccedilla" unicode="&#xc7;" horiz-adv-x="377" 
d="M132 -209q0 1 1 1l6 5h-2q-1 0 -3 -1l-2 -1q0 1 1.5 3t1.5 4q-5 0 -5 2q0 4 10.5 10.5t14.5 7.5q2 2 6.5 7t5.5 6q11 6 24.5 19.5t13.5 23.5q12 19 12 33q0 19 -10 19q-1 0 -6.5 -3t-7.5 -3h-3q-3 1 -5 -2t-4 -3l-3 1h-1q-1 0 -4.5 -0.5t-8 -1t-7 -1.5t-2.5 -2q-3 3 -4 3
q-2 0 -4 -1t-3 -1t-10 7q-3 0 -4 1l-1 3l-11 19q-5 12 -6.5 28.5t-1.5 24.5t1.5 32.5t1.5 26.5q3 19 4 24q-57 36 -78 106q-1 3 -5.5 19t-3.5 27q-2 0 -2 2q-3 14 -4.5 37t-3.5 28q6 33 6 67l-1 3q1 2 0 6h2v1v7q0 3 1 4l-1 1v2q1 1 1 2l3 17q-1 3 2 6l2 15l3 1h-4l-1 2
q6 6 15 56v2l-1 5l2 2l2 2l1 2q0 2 -1.5 4.5t-1.5 4.5q1 3 4 4t3 2l-1 3q-1 2 0 4v3l3 -3q0 3 -0.5 4.5t-0.5 2.5v2q0 1 1 6l2 5l1 3q25 59 68 94.5t103 28.5q7 0 10 -3q5 -1 18 -1q28 -4 57.5 -20t27.5 -38l-1 -2q2 -17 -10 -21q-2 -1 -4 -3l-3.5 -3.5l-2.5 -2.5l-2 -2h-2
l-2 1l-5 -3q-5 -3 -12 -6t-14 -2v5q2 16 -11.5 35t-29.5 20q-2 0 -6 -2t-8 -4.5t-5 -3.5v-2q0 -5 -9.5 -19t-9.5 -18q0 -2 1 -2h-1q-19 -46 -19 -65v-6q-1 0 -3.5 -7t-4.5 -8l1 -3q0 -1 -1 -5t-1 -5q0 -32 -7 -48l-2 -29q0 -14 -4 -22v-1q0 -22 1 -27h3q0 -1 -0.5 -7.5
t-0.5 -11t2 -10t5 -7.5v-52q19 -86 26 -102q22 -51 64 -39l9 3q10 12 26 12q3 -1 9 -7q0 2 5 5t9 2v-5q6 -1 13.5 0t11.5 2l5 2h2q0 -18 -3 -26q-26 -48 -111 -48l-9 -1q0 -6 -2.5 -20.5t-2.5 -22.5l1 -19q0 -1 1 -12.5t1 -14.5q1 -5 20 -9.5t37 -17t18 -36.5h-3q0 7 -2 9
q-5 -40 -38 -79q-5 -2 -10.5 -9t-7.5 -8q-35 -22 -53 -25q-51 -6 -52 -6l-1 1h-4q-3 1 -4 1zM173 385v-13q0 -13 -1 -13t-1 13t2 13zM176 340q1 0 1 -3q0 -2 -1 -2q-2 0 -2 3q0 2 2 2zM225 56v2h-3v-5l1 -2q0 4 2 5zM127 -203q1 0 1 -1.5t-1 -1.5t-1 1.5t1 1.5zM307 139
q1 0 1 -2t-1 -2q-2 2 -2 3t2 1zM167 345v-4h2v4h-2zM300 132q-1 -1 -1 -3h2q0 1 1 3h-2zM35 450q1 0 1 -2h-1l-1 -1l-1 1q0 2 2 2zM171 288q0 1 -1 1l-1 -1q0 -2 1 -2q1 1 1 2zM221 46v-4q2 2 0 4zM249 -49v-3q1 0 1 1.5t-1 1.5zM238 -43q-1 0 -1 -1t1 -1v2zM125 -196v-2
q-1 0 -1 1t1 1zM163 -73q-1 0 -1 -1t1 -1v2zM304 -100q2 -2 0 -3v3zM97 518v-2h1v2h-1zM47 507l2 -2h-1q-1 0 -1 2zM268 -108v-1v1zM75 384q0 1 -2 1q-1 1 -1 0zM67 448q-1 1 -2 1v-1h2zM330 602v-1h2zM155 -80v-1v1z" />
    <glyph glyph-name="Egrave" unicode="&#xc8;" horiz-adv-x="358" 
d="M28 48q-8 74 -8 141q0 15 1 31t2.5 36t2.5 31q1 17 2 48t2.5 56.5t4.5 47.5v184q0 1 0.5 10.5t0.5 11.5t1 10.5t2 14.5t3 13.5t6 11.5t9 4v-8q2 2 10 4t14.5 3.5t6.5 3.5l2 -3h1q84 20 126 20q1 0 11 -1t12 -1h4q18 -2 36 -2q12 -1 35 -12.5t23 -20.5h-10l5 -6
q-6 -2 -15 -7.5t-17 -8t-18 -2.5q-7 0 -19.5 3t-19.5 3q-40 0 -76 -11q0 -1 -1 -8t-1 -9q0 -6 4 -23t4 -20v-8q2 -12 2 -37q0 -1 1 -9t2 -9l1 -2v-3v-1v-5q-1 -5 -1 -6v-1l1 -5v-6t1 -10t1 -11l2 5v-27l5 -4v-6q0 -7 -1 -21t-1 -22q5 0 14.5 2t15.5 2q4 0 11.5 -1.5
t11.5 -1.5q7 0 21.5 1.5t20.5 1.5h10l24 -13l2 -2q0 -13 -27 -25h-1l-103 -34q0 -2 -7 -89v-30q0 -55 2 -87q1 -6 1.5 -8.5t2 -3.5t6.5 -1q10 0 28 2.5t28 2.5h2q3 0 17 -1t16 -2q2 -2 9.5 -3.5t12.5 -4t5 -7.5v-1q-2 -3 -2 -4q-18 -13 -28 -19q-30 -11 -32 -12
q-8 -5 -23.5 -16.5t-23.5 -16.5q-7 -4 -37 -16l-5 -3q-2 -1 -9.5 -6.5t-14.5 -10t-10 -5.5h-11l-12 -6t-16 -5q-15 0 -27 11.5t-17 21.5t-12 28zM243 775l-37 -11q-3 0 -9 -3q-6 1 -12.5 4.5t-9.5 4.5l-2 -1l2 -4q-2 1 -9 1q-3 1 -8.5 5t-8.5 5l-2 -3l-3 2q-1 1 -4.5 3
t-6.5 4l-3 1l-12 4l-3 2q-3 1 -12 10t-14 9l-7 10l2 1l-6 11v1q-4 6 -1 7q2 1 5 -1l2 -1l1 1q-4 6 4 11q3 0 4 1l1 2l1 2l4 2q1 0 2 3l2 3h2q5 4 21 11q1 1 8 7t11 7q4 3 8.5 0.5t6 -4.5l4.5 -6l3 -5l65 -67l9 -13q-1 -2 1.5 -8t0.5 -8zM158 643v-17q4 13 4 26q-5 0 -8 -5z
M191 297v-6q0 -6 -2 -28v8q0 21 2 26zM189 230q0 -2 -1 -7.5t-1 -8.5v21q0 -1 1 -3zM159 590q-1 0 -1 -2.5t1 -2.5h1q0 -2 2 -2t2 2.5t-2 2.5h-1q0 2 -2 2zM189 178q1 -2 1 -7t-1 -7v14zM191 308q1 0 1 -2.5t-1 -2.5t-1 2.5t1 2.5zM154 635q-2 0 -2 -2t2 -2t2 2t-2 2z
M189 464q1 0 1 -2t-1 -2t-1 2t1 2zM182 474q-2 0 -2 -2t2 -2t2 2t-2 2zM189 157q1 0 1 -1.5t-1 -1.5t-1 1.5t1 1.5zM94 802l-3 4q5 -2 5 -3zM143 790q-3 -1 1 -3q3 3 -1 3zM47 38q-1 0 -1 -2t1 -2t1 2t-1 2zM191 126q1 0 1 -1.5t-1 -1.5t-1 1.5t1 1.5zM152 639l2 -3v5z
M187 246q1 0 1 -1t-1 -1v2zM212 769l1 -1zM75 826q1 -1 1 -2q0 1 -1 2zM187 202v-1v1zM80 133v-2h1v2h-1zM161 588q-1 0 -1 -3q1 0 1 3z" />
    <glyph glyph-name="Eacute" unicode="&#xc9;" horiz-adv-x="358" 
d="M28 48q-8 74 -8 141q0 15 1 31t2.5 36t2.5 31q1 17 2 48t2.5 56.5t4.5 47.5v184q0 1 0.5 10.5t0.5 11.5t1 10.5t2 14.5t3 13.5t6 11.5t9 4v-8q2 2 10 4t14.5 3.5t6.5 3.5l2 -3h1q84 20 126 20q1 0 11 -1t12 -1h4q18 -2 36 -2q12 -1 35 -12.5t23 -20.5h-10l5 -6
q-6 -2 -15 -7.5t-17 -8t-18 -2.5q-7 0 -19.5 3t-19.5 3q-40 0 -76 -11q0 -1 -1 -8t-1 -9q0 -6 4 -23t4 -20v-8q2 -12 2 -37q0 -1 1 -9t2 -9l1 -2v-3v-1v-5q-1 -5 -1 -6v-1l1 -5v-6t1 -10t1 -11l2 5v-27l5 -4v-6q0 -7 -1 -21t-1 -22q5 0 14.5 2t15.5 2q4 0 11.5 -1.5
t11.5 -1.5q7 0 21.5 1.5t20.5 1.5h10l24 -13l2 -2q0 -13 -27 -25h-1l-103 -34q0 -2 -7 -89v-30q0 -55 2 -87q1 -6 1.5 -8.5t2 -3.5t6.5 -1q10 0 28 2.5t28 2.5h2q3 0 17 -1t16 -2q2 -2 9.5 -3.5t12.5 -4t5 -7.5v-1q-2 -3 -2 -4q-18 -13 -28 -19q-30 -11 -32 -12
q-8 -5 -23.5 -16.5t-23.5 -16.5q-7 -4 -37 -16l-5 -3q-2 -1 -9.5 -6.5t-14.5 -10t-10 -5.5h-11l-12 -6t-16 -5q-15 0 -27 11.5t-17 21.5t-12 28zM112 764l-37 11q-2 2 0.5 8t1.5 8l9 13l65 67l3 5l4.5 6t6 4.5t8.5 -0.5q4 -1 11 -7t8 -7q16 -7 21 -11h2l2 -3q1 -3 2 -3l4 -2
l1 -2l1 -2l4 -1q8 -5 4 -11l1 -1l2 1q1 0 2 0.5t3 0.5q3 -1 -1 -7v-1l-6 -11l2 -1l-7 -10q-5 0 -14 -9t-12 -10l-3 -2l-12 -4l-3 -1q-3 -2 -6.5 -4t-4.5 -3q-2 -2 -3 -2l-2 3q-3 -1 -8.5 -5t-8.5 -5q-8 0 -9 -1l2 4l-2 1q-3 -1 -9.5 -4.5t-12.5 -4.5q-6 3 -9 3zM158 643v-17
q4 13 4 26q-5 0 -8 -5zM191 297v-6q0 -6 -2 -28v8q0 21 2 26zM189 230q0 -2 -1 -7.5t-1 -8.5v21q0 -1 1 -3zM159 590q-1 0 -1 -2.5t1 -2.5h1q0 -2 2 -2t2 2.5t-2 2.5h-1q0 2 -2 2zM189 178q1 -2 1 -7t-1 -7v14zM191 308q1 0 1 -2.5t-1 -2.5t-1 2.5t1 2.5zM154 635
q-2 0 -2 -2t2 -2t2 2t-2 2zM189 464q1 0 1 -2t-1 -2t-1 2t1 2zM182 474q-2 0 -2 -2t2 -2t2 2t-2 2zM189 157q1 0 1 -1.5t-1 -1.5t-1 1.5t1 1.5zM227 806l-3 -4l-2 1q0 1 5 3zM175 790q-4 0 -1 -3q4 2 1 3zM47 38q-1 0 -1 -2t1 -2t1 2t-1 2zM191 126q1 0 1 -1.5t-1 -1.5
t-1 1.5t1 1.5zM152 639l2 -3v5zM187 246q1 0 1 -1t-1 -1v2zM106 769l-1 -1zM243 826q-1 -1 -1 -2q1 1 1 2zM80 133v-2h1v2h-1zM161 588q-1 0 -1 -3q1 0 1 3zM187 202v-1v1z" />
    <glyph glyph-name="Ecircumflex" unicode="&#xca;" horiz-adv-x="358" 
d="M28 48q-8 74 -8 141q0 15 1 31t2.5 36t2.5 31q1 17 2 48t2.5 56.5t4.5 47.5v184q0 1 0.5 10.5t0.5 11.5t1 10.5t2 14.5t3 13.5t6 11.5t9 4v-8q2 2 10 4t14.5 3.5t6.5 3.5l2 -3h1q84 20 126 20q1 0 11 -1t12 -1h4q18 -2 36 -2q12 -1 35 -12.5t23 -20.5h-10l5 -6
q-6 -2 -15 -7.5t-17 -8t-18 -2.5q-7 0 -19.5 3t-19.5 3q-40 0 -76 -11q0 -1 -1 -8t-1 -9q0 -6 4 -23t4 -20v-8q2 -12 2 -37q0 -1 1 -9t2 -9l1 -2v-3v-1v-5q-1 -5 -1 -6v-1l1 -5v-6t1 -10t1 -11l2 5v-27l5 -4v-6q0 -7 -1 -21t-1 -22q5 0 14.5 2t15.5 2q4 0 11.5 -1.5
t11.5 -1.5q7 0 21.5 1.5t20.5 1.5h10l24 -13l2 -2q0 -13 -27 -25h-1l-103 -34q0 -2 -7 -89v-30q0 -55 2 -87q1 -6 1.5 -8.5t2 -3.5t6.5 -1q10 0 28 2.5t28 2.5h2q3 0 17 -1t16 -2q2 -2 9.5 -3.5t12.5 -4t5 -7.5v-1q-2 -3 -2 -4q-18 -13 -28 -19q-30 -11 -32 -12
q-8 -5 -23.5 -16.5t-23.5 -16.5q-7 -4 -37 -16l-5 -3q-2 -1 -9.5 -6.5t-14.5 -10t-10 -5.5h-11l-12 -6t-16 -5q-15 0 -27 11.5t-17 21.5t-12 28zM9 773q0 13 11 32l1 1q15 30 45 64t56 50q4 1 6 2h2v-2q1 -2 1 -3h16q0 -3 13 -3q2 0 5.5 1.5t4.5 1.5h1l-2 -3q6 -2 27 -7
t35 -11.5t23 -17.5l34 -38q3 -8 4 -10l5 -19v-2l-2 -2v-2l-3 -2q-1 -1 1 -4v-2l-1 -2q-1 -1 -1 -4t1 -5l-4 -1q-5 -4 -9 -4q-1 0 -1 -5q0 -2 -0.5 -4t-0.5 -4q-1 -4 -17 -9t-18 -7v7q-3 -6 -10 -10l-6 8q-2 0 -2 -7q-4 5 -7 20l-3 15q-8 24 -54 72l-29 -35l-16 -24
q-36 -55 -76 -55q-10 0 -16 2q-3 0 -8.5 12.5t-5.5 15.5zM158 643v-17q4 13 4 26q-5 0 -8 -5zM191 297v-6q0 -6 -2 -28v8q0 21 2 26zM189 230q0 -2 -1 -7.5t-1 -8.5v21q0 -1 1 -3zM159 590q-1 0 -1 -2.5t1 -2.5h1q0 -2 2 -2t2 2.5t-2 2.5h-1q0 2 -2 2zM189 178q1 -2 1 -7
t-1 -7v14zM281 803q-1 0 -1 -2.5t1 -2.5t1 2.5t-1 2.5zM191 308q1 0 1 -2.5t-1 -2.5t-1 2.5t1 2.5zM154 635q-2 0 -2 -2t2 -2t2 2t-2 2zM189 464q1 0 1 -2t-1 -2t-1 2t1 2zM182 474q-2 0 -2 -2t2 -2t2 2t-2 2zM139 827q1 0 1 -1.5t-1 -1.5t-1 1.5t1 1.5zM189 157q1 0 1 -1.5
t-1 -1.5t-1 1.5t1 1.5zM47 38q-1 0 -1 -2t1 -2t1 2t-1 2zM191 126q1 0 1 -1.5t-1 -1.5t-1 1.5t1 1.5zM152 639l2 -3v5zM187 246q1 0 1 -1t-1 -1v2zM161 588q-1 0 -1 -3q1 0 1 3zM80 133v-2h1v2h-1zM187 202v-1v1zM104 866l-1 -4h1v4zM235 833q-1 0 -1 -1t1 -1v2zM136 822h-1
h1zM286 831v-1v1z" />
    <glyph glyph-name="Edieresis" unicode="&#xcb;" horiz-adv-x="358" 
d="M28 48q-8 74 -8 141q0 15 1 31t2.5 36t2.5 31q1 17 2 48t2.5 56.5t4.5 47.5v184q0 1 0.5 10.5t0.5 11.5t1 10.5t2 14.5t3 13.5t6 11.5t9 4v-8q2 2 10 4t14.5 3.5t6.5 3.5l2 -3h1q84 20 126 20q1 0 11 -1t12 -1h4q18 -2 36 -2q12 -1 35 -12.5t23 -20.5h-10l5 -6
q-6 -2 -15 -7.5t-17 -8t-18 -2.5q-7 0 -19.5 3t-19.5 3q-40 0 -76 -11q0 -1 -1 -8t-1 -9q0 -6 4 -23t4 -20v-8q2 -12 2 -37q0 -1 1 -9t2 -9l1 -2v-3v-1v-5q-1 -5 -1 -6v-1l1 -5v-6t1 -10t1 -11l2 5v-27l5 -4v-6q0 -7 -1 -21t-1 -22q5 0 14.5 2t15.5 2q4 0 11.5 -1.5
t11.5 -1.5q7 0 21.5 1.5t20.5 1.5h10l24 -13l2 -2q0 -13 -27 -25h-1l-103 -34q0 -2 -7 -89v-30q0 -55 2 -87q1 -6 1.5 -8.5t2 -3.5t6.5 -1q10 0 28 2.5t28 2.5h2q3 0 17 -1t16 -2q2 -2 9.5 -3.5t12.5 -4t5 -7.5v-1q-2 -3 -2 -4q-18 -13 -28 -19q-30 -11 -32 -12
q-8 -5 -23.5 -16.5t-23.5 -16.5q-7 -4 -37 -16l-5 -3q-2 -1 -9.5 -6.5t-14.5 -10t-10 -5.5h-11l-12 -6t-16 -5q-15 0 -27 11.5t-17 21.5t-12 28zM197 763q0 -2 -3 -2v15l-2 2q-1 0 -1 3q0 15 9 45t9 45l-1 5q1 3 7.5 3.5t7.5 1.5q0 -2 1 -2.5t3 -1t4 -1.5l3 -3h1l1 1
q2 1 3 1q2 0 5 -3t4 -3l2 1l3 1l3 -1h1l2 1v1l1 -1q1 -2 6 -4.5t7 -5.5t6 -3t7 -1l1 -4q2 -4 11.5 -6t11.5 -7q3 -9 3 -18v-3h-2l-2 -10q-4 -1 -6 -6t-5 -7h-2l-2 -1l-2 -5l-2 3h-1q-4 0 -13 -12q0 2 -3 2l-4 -5l-5 -5h-3l-2 -3l-2 4l-1 1q-10 -10 -13 -12q-6 0 -6 -3h-2
q-2 1 -2 2h-1q-8 0 -14 -4v7q-2 -1 -3 -2.5t-1.5 -2.5t-2.5 -1.5t-5 -0.5q-9 0 -9 5zM63 793v60l2 4h7l2 1q1 0 6 -3.5t6 -3.5q3 -1 15 -2t15 -3q2 -1 7.5 -4.5t7.5 -4.5q1 -1 4 -1t5 -0.5t4 -2.5t2 -5l3 2q2 0 4.5 -4t3.5 -4l2 2q3 0 3 -11l-2 -3q-3 -4 -5.5 -8t-3.5 -6
t-12 -7.5t-12 -5.5h-1q-1 2 -1 3q-15 -15 -17 -15t-4 2t-3 2l-3 -3q-3 -2 -4 -2q-2 -2 -7 -2q-4 0 -4 2q-1 -2 -4 -2h-2q-2 3 -3 3q-2 1 -3.5 0.5t-3.5 1.5q-2 3 -1 10t-3 10zM158 643v-17q4 13 4 26q-5 0 -8 -5zM191 297v-6q0 -6 -2 -28v8q0 21 2 26zM189 230q0 -2 -1 -7.5
t-1 -8.5v21q0 -1 1 -3zM159 590q-1 0 -1 -2.5t1 -2.5h1q0 -2 2 -2t2 2.5t-2 2.5h-1q0 2 -2 2zM189 178q1 -2 1 -7t-1 -7v14zM191 308q1 0 1 -2.5t-1 -2.5t-1 2.5t1 2.5zM318 835v-10h-1v8zM154 635q-2 0 -2 -2t2 -2t2 2t-2 2zM189 464q1 0 1 -2t-1 -2t-1 2t1 2zM182 474
q-2 0 -2 -2t2 -2t2 2t-2 2zM189 157q1 0 1 -1.5t-1 -1.5t-1 1.5t1 1.5zM47 38q-1 0 -1 -2t1 -2t1 2t-1 2zM204 768q-2 0 -2 -1.5t2 -1.5q1 0 1 1.5t-1 1.5zM191 126q1 0 1 -1.5t-1 -1.5t-1 1.5t1 1.5zM152 639l2 -3v5zM320 822q2 -2 0 -5v5zM125 832q-1 0 -1 -2t1 -2t1 2
t-1 2zM187 246q1 0 1 -1t-1 -1v2zM80 133v-2h1v2h-1zM161 588q-1 0 -1 -3q1 0 1 3zM187 202v-1v1zM224 767q-1 0 -1 -1t1 -1q2 0 0 2zM226 884l1 -2h-1v2zM81 801v-1l2 1h-2zM213 887h-1h1zM219 771v-1v1z" />
    <glyph glyph-name="Igrave" unicode="&#xcc;" horiz-adv-x="175" 
d="M61 -23q-12 16 -19.5 33t-12 45t-6.5 52t-2 74t0.5 91t2 124t2.5 152v2q2 3 2 4v17q0 50 5 112l3 6q1 2 2 2h27q0 2 4 2l4 -2q14 0 17 3h12q16 0 20.5 -3t13.5 -18q4 -6 5 -6v-17q5 -2 6 -7.5t4 -6.5l3 -24l-9 -145q0 -11 2 -11l2 4v-3q0 -18 -3 -53.5t-3 -53.5
q0 -5 2 -6l-2 -4l2 -3q0 -2 -1 -4t-1 -5q1 2 2.5 -24.5t1.5 -45.5q0 -16 2 -48t2 -47q0 -1 -1 -3t-1 -5q0 -5 5 -5q0 -5 -2.5 -13.5t-2.5 -12.5q0 -8 2.5 -22t2.5 -21q0 -8 -3 -17l-6 13h-7q9 -40 9 -53v-4q-2 1 -2 4v2q0 2 -7 2v-2l2 -6q2 -5 2 -6v-1q0 -10 -5 -10h-2v-18
q0 -3 -16 -11.5t-17 -14.5l-1 2h-2q-1 -1 -4 -3t-5 -2t-4 2q-2 1 -3 1h-4q-8 5 -18 18zM154 646q1 0 1 -3q0 -2 -1 -2q-2 0 -2 2q0 3 2 3zM154 62v-1q1 -1 1 -2l-1 -2q-2 0 -2 2q0 3 2 3zM139 89q0 -3 3 -4l1 2q0 2 -4 2zM3 806q1 -1 1 -2q0 1 -1 2zM140 749l1 -1zM71 770
q-3 -1 1 -3q3 3 -1 3zM22 782l-3 4q5 -2 5 -3zM171 755l-37 -11q-3 0 -9 -3q-6 1 -12.5 4.5t-9.5 4.5l-2 -1l2 -4q-2 1 -9 1q-3 1 -8.5 5t-8.5 5l-2 -3l-3 2q-1 1 -4.5 3t-6.5 4l-3 1l-12 4l-3 2q-3 1 -12 10t-14 9l-7 10l2 1l-6 11v1q-4 6 -1 7q2 1 5 -1l2 -1l1 1
q-4 6 4 11q3 0 4 1l1 2l1 2l4 2q1 0 2 3l2 3h2q5 4 21 11q1 1 8 7t11 7q4 3 8.5 0.5t6 -4.5l4.5 -6l3 -5l65 -67l9 -13q-1 -2 1.5 -8t0.5 -8z" />
    <glyph glyph-name="Iacute" unicode="&#xcd;" horiz-adv-x="175" 
d="M61 -23q-12 16 -19.5 33t-12 45t-6.5 52t-2 74t0.5 91t2 124t2.5 152v2q2 3 2 4v17q0 50 5 112l3 6q1 2 2 2h27q0 2 4 2l4 -2q14 0 17 3h12q16 0 20.5 -3t13.5 -18q4 -6 5 -6v-17q5 -2 6 -7.5t4 -6.5l3 -24l-9 -145q0 -11 2 -11l2 4v-3q0 -18 -3 -53.5t-3 -53.5
q0 -5 2 -6l-2 -4l2 -3q0 -2 -1 -4t-1 -5q1 2 2.5 -24.5t1.5 -45.5q0 -16 2 -48t2 -47q0 -1 -1 -3t-1 -5q0 -5 5 -5q0 -5 -2.5 -13.5t-2.5 -12.5q0 -8 2.5 -22t2.5 -21q0 -8 -3 -17l-6 13h-7q9 -40 9 -53v-4q-2 1 -2 4v2q0 2 -7 2v-2l2 -6q2 -5 2 -6v-1q0 -10 -5 -10h-2v-18
q0 -3 -16 -11.5t-17 -14.5l-1 2h-2q-1 -1 -4 -3t-5 -2t-4 2q-2 1 -3 1h-4q-8 5 -18 18zM154 646q1 0 1 -3q0 -2 -1 -2q-2 0 -2 2q0 3 2 3zM154 62v-1q1 -1 1 -2l-1 -2q-2 0 -2 2q0 3 2 3zM139 89q0 -3 3 -4l1 2q0 2 -4 2zM40 744l-37 11q-2 2 0.5 8t1.5 8l9 13l65 67l3 5
l4.5 6t6 4.5t8.5 -0.5q4 -1 11 -7t8 -7q16 -7 21 -11h2l2 -3q1 -3 2 -3l4 -2l1 -2l1 -2l4 -1q8 -5 4 -11l1 -1l2 1q1 0 2 0.5t3 0.5q3 -1 -1 -7v-1l-6 -11l2 -1l-7 -10q-5 0 -14 -9t-12 -10l-3 -2l-12 -4l-3 -1q-3 -2 -6.5 -4t-4.5 -3q-2 -2 -3 -2l-2 3q-3 -1 -8.5 -5
t-8.5 -5q-8 0 -9 -1l2 4l-2 1q-3 -1 -9.5 -4.5t-12.5 -4.5q-6 3 -9 3zM155 786l-3 -4l-2 1q0 1 5 3zM103 770q-4 0 -1 -3q4 2 1 3zM34 749l-1 -1zM171 806q-1 -1 -1 -2q1 1 1 2z" />
    <glyph glyph-name="Icircumflex" unicode="&#xce;" horiz-adv-x="175" 
d="M61 -23q-12 16 -19.5 33t-12 45t-6.5 52t-2 74t0.5 91t2 124t2.5 152v2q2 3 2 4v17q0 50 5 112l3 6q1 2 2 2h27q0 2 4 2l4 -2q14 0 17 3h12q16 0 20.5 -3t13.5 -18q4 -6 5 -6v-17q5 -2 6 -7.5t4 -6.5l3 -24l-9 -145q0 -11 2 -11l2 4v-3q0 -18 -3 -53.5t-3 -53.5
q0 -5 2 -6l-2 -4l2 -3q0 -2 -1 -4t-1 -5q1 2 2.5 -24.5t1.5 -45.5q0 -16 2 -48t2 -47q0 -1 -1 -3t-1 -5q0 -5 5 -5q0 -5 -2.5 -13.5t-2.5 -12.5q0 -8 2.5 -22t2.5 -21q0 -8 -3 -17l-6 13h-7q9 -40 9 -53v-4q-2 1 -2 4v2q0 2 -7 2v-2l2 -6q2 -5 2 -6v-1q0 -10 -5 -10h-2v-18
q0 -3 -16 -11.5t-17 -14.5l-1 2h-2q-1 -1 -4 -3t-5 -2t-4 2q-2 1 -3 1h-4q-8 5 -18 18zM-63 753q0 13 11 32l1 1q15 30 45 64t56 50q4 1 6 2h2v-2q1 -2 1 -3h16q0 -3 13 -3q2 0 5.5 1.5t4.5 1.5h1l-2 -3q6 -2 27 -7t35 -11.5t23 -17.5l34 -38q3 -8 4 -10l5 -19v-2l-2 -2v-2
l-3 -2q-1 -1 1 -4v-2l-1 -2q-1 -1 -1 -4t1 -5l-4 -1q-5 -4 -9 -4q-1 0 -1 -5q0 -2 -0.5 -4t-0.5 -4q-1 -4 -17 -9t-18 -7v7q-3 -6 -10 -10l-6 8q-2 0 -2 -7q-4 5 -7 20l-3 15q-8 24 -54 72l-29 -35l-16 -24q-36 -55 -76 -55q-10 0 -16 2q-3 0 -8.5 12.5t-5.5 15.5zM154 646
q1 0 1 -3q0 -2 -1 -2q-2 0 -2 2q0 3 2 3zM154 62v-1q1 -1 1 -2l-1 -2q-2 0 -2 2q0 3 2 3zM139 89q0 -3 3 -4l1 2q0 2 -4 2zM209 783q-1 0 -1 -2.5t1 -2.5t1 2.5t-1 2.5zM67 807q1 0 1 -1.5t-1 -1.5t-1 1.5t1 1.5zM32 846l-1 -4h1v4zM163 813q-1 0 -1 -1t1 -1v2zM64 802h-1h1
zM214 811v-1v1z" />
    <glyph glyph-name="Idieresis" unicode="&#xcf;" horiz-adv-x="175" 
d="M61 -23q-12 16 -19.5 33t-12 45t-6.5 52t-2 74t0.5 91t2 124t2.5 152v2q2 3 2 4v17q0 50 5 112l3 6q1 2 2 2h27q0 2 4 2l4 -2q14 0 17 3h12q16 0 20.5 -3t13.5 -18q4 -6 5 -6v-17q5 -2 6 -7.5t4 -6.5l3 -24l-9 -145q0 -11 2 -11l2 4v-3q0 -18 -3 -53.5t-3 -53.5
q0 -5 2 -6l-2 -4l2 -3q0 -2 -1 -4t-1 -5q1 2 2.5 -24.5t1.5 -45.5q0 -16 2 -48t2 -47q0 -1 -1 -3t-1 -5q0 -5 5 -5q0 -5 -2.5 -13.5t-2.5 -12.5q0 -8 2.5 -22t2.5 -21q0 -8 -3 -17l-6 13h-7q9 -40 9 -53v-4q-2 1 -2 4v2q0 2 -7 2v-2l2 -6q2 -5 2 -6v-1q0 -10 -5 -10h-2v-18
q0 -3 -16 -11.5t-17 -14.5l-1 2h-2q-1 -1 -4 -3t-5 -2t-4 2q-2 1 -3 1h-4q-8 5 -18 18zM134 738q-7 0 -9 4q-1 -1 -3 -1v15l-2 2q-1 0 -1 3q0 15 9 45t9 45l-1 5q1 3 7.5 3.5t7.5 1.5q0 -2 1 -2.5t3 -1t4 -1.5l3 -3h1l1 1q2 1 3 1q2 0 5 -3t4 -3l2 1l3 1l3 -1h1l2 1v1l1 -1
q1 -2 6 -4.5t7 -5.5t6 -3t7 -1l1 -4q2 -4 11.5 -6t11.5 -7q3 -9 3 -18v-3h-2l-2 -10q-4 -1 -6 -6t-5 -7h-2l-2 -1l-2 -5l-2 3h-1q-4 0 -13 -12q0 2 -3 2l-4 -5l-5 -5h-3q-2 0 -2 -3l-2 4l-1 1q-10 -10 -13 -12q-6 0 -6 -3h-2q-2 1 -2 2h-1q-8 0 -14 -4v7q-2 -1 -3 -2.5
t-1.5 -2.5t-2.5 -1.5t-5 -0.5zM-9 773v60l2 4h7l2 1q1 0 6 -3.5t6 -3.5q3 -1 15 -2t15 -3q2 -1 7.5 -4.5t7.5 -4.5q1 -1 4 -1t5 -0.5t4 -2.5t2 -5l3 2q2 0 4.5 -4t3.5 -4l2 2q3 0 3 -11l-2 -3q-3 -4 -5.5 -8t-3.5 -6t-12 -7.5t-12 -5.5h-1q-1 2 -1 3q-15 -15 -17 -15t-4 2
t-3 2l-3 -3q-3 -2 -4 -2q-2 -2 -7 -2q-4 0 -4 2q-1 -2 -4 -2h-2q-2 3 -3 3q-2 1 -3.5 0.5t-3.5 1.5q-2 3 -1 10t-3 10zM154 646q1 0 1 -3q0 -2 -1 -2q-2 0 -2 2q0 3 2 3zM154 62v-1q1 -1 1 -2l-1 -2q-2 0 -2 2q0 3 2 3zM139 89q0 -3 3 -4l1 2q0 2 -4 2zM246 815v-10h-1v8z
M132 748q-2 0 -2 -1.5t2 -1.5q1 0 1 1.5t-1 1.5zM248 802q2 -2 0 -5v5zM53 812q-1 0 -1 -2t1 -2t1 2t-1 2zM152 747q-1 0 -1 -1t1 -1q2 0 0 2zM154 864l1 -2h-1v2zM9 781v-1l2 1h-2zM141 867h-1h1zM147 751v-1v1z" />
    <glyph glyph-name="Eth" unicode="&#xd0;" horiz-adv-x="478" 
d="M108 -20q-38 73 -32 207l-7 112q-15 0 -22 2q-6 1 -16.5 15t-10.5 24q0 9 4 21q0 3 2 5t3 6q0 7 3 7q2 0 7.5 -1.5t8.5 -1.5q10 0 16 1l-11 185q-3 20 -11 107q0 6 7 6q2 0 2 -1q1 -1 2 -1l3 4l2 -4q94 24 127 24q3 0 10 -1t13 -1q5 0 14 0.5t10 0.5q2 -2 31 -6
q60 -16 101.5 -42.5t66.5 -74.5q1 -3 9.5 -30t8.5 -40h-3q0 -9 3.5 -24.5t3.5 -22.5q-2 5 -6 5v-48q-4 -12 -5.5 -34.5t-4.5 -33.5q-17 -63 -43 -122t-76 -119t-110 -84q-3 -1 -6 -6t-7 -5l-2 1l-2 2q-6 -18 -24 -27.5t-22 -13.5q-7 0 -7 2q-1 0 -1.5 -2t-3.5 -2
q-9 0 -15.5 5t-9.5 6zM208 380v-5q26 0 43 -6q0 -1 -0.5 -2t-0.5 -3h2q0 -3 1.5 -4.5t1.5 -2.5t-0.5 -2.5t-0.5 -3.5l3 -6q1 -4 3.5 -5t3.5 -4q-1 0 -2 -2v-3l-2 -3q-11 -13 -19 -12q-1 0 -1 -5q-2 0 -2 2l-1 -3h-27l10 -171q8 4 14 13.5t12.5 24t7.5 17.5q12 15 22 33.5
t13.5 26.5t13 34t10.5 29q0 1 0.5 2t0.5 2q25 77 25 121q0 93 -53 167q-15 18 -47.5 30t-55.5 12q-16 0 -16 -6q0 -3 6 -27q2 2 3 2q2 0 3 -7.5t7 -7.5q6 -12 11 -83q8 -92 11 -137h17q-3 -3 -10 -5v2h-1v-1l-1 -1h-5zM222 127l1 -2l1 -1q39 45 63 101q-2 0 -5.5 -6
t-7.5 -14t-7 -11q-45 -60 -45 -67zM451 496q1 -4 2.5 -9.5t2.5 -9.5t1 -7q-6 12 -6 26zM414 585q0 -4 1.5 -6.5t4.5 -1.5q0 7 -6 9v-1zM437 524q0 -6 8 -6q0 6 -8 6zM455 439q0 -7 -2 -7q0 6 2 7zM403 605q0 -2 2 -4l2 2q-1 2 -4 2zM453 415q1 0 1 -2t-1 -2q-2 0 -2 2t2 2z
M180 489q-1 0 -1 -2t1 -2t1 2t-1 2zM55 586q-2 0 -2 -2q1 -1 2 -1l1 1zM400 612q-2 0 -2 -2q1 -1 2 -1l1 1zM233 385h1l-1 -3q0 -2 -1 -2q0 5 1 5zM231 385q-2 -2 -4 0h4zM387 520l-3 -2h3v2zM444 512q0 1 -2 1q0 -2 1 -2t1 1zM179 426l-2 -1q0 -1 2 -1v2zM121 19
q-1 0 -1 -2h1q1 0 1 1zM424 352q-1 1 -2 1l-1 -1h3zM237 385q0 -2 -2 0h2zM241 383h-1h1zM227 380h-1h1z" />
    <glyph glyph-name="Ntilde" unicode="&#xd1;" horiz-adv-x="487" 
d="M60 10l-2 1q-3 -3 -3 -4q2 -2 2 -4q-2 0 -3 1.5t-2 4t-2 3.5h-1q-3 -3 -2 -4l-8 7l-8 25l-2 3l-2 10l4 1q0 17 -2 25q-5 105 -5 196q0 10 1 12q1 4 1 23.5t0.5 37t2.5 17.5q-2 9 0.5 26.5t1.5 24.5v229q-3 16 6 16q3 0 4 -4.5t4 -4.5t5 4.5t4 4.5l2 -1l4 -2h4l4 1h1
q2 0 7 -1t7 -1q3 0 7 2t6 2q14 0 22 -5l2 -2q2 -1 3 -1l1 -1q2 0 4 2q2 1 3 1h1l8 -8l2 -24q4 -1 5.5 1.5t1.5 6.5v4h1q5 -17 16 -22h9l4 -4l3 2q1 1 8 1h1q3 0 4.5 -1.5t3.5 -4t4 -4.5l3 6q4 0 24 -10q0 -4 9.5 -26t12.5 -22q2 0 4 2l-4 -8q1 -1 3 -1h4l6 -14
q5 -10 13.5 -32t14.5 -32l5 -9q5 -8 6 -10l30 -64q4 -7 5 -7h2l4 33q0 1 1 4v2l11 90l1 2q1 2 0 3q1 8 2 22.5t2.5 26t4.5 21.5q1 2 3 15t6 21t10 4q-4 8 -4 9l2 4v10q1 0 3.5 -1t4.5 -1q-1 9 2 24t3 21q2 -4 10.5 -7t12.5 -2q3 -5 15 -9t19 -4q9 -14 11 -40q1 -3 1 -13
q0 -26 -7 -47v-4q0 -1 1.5 -3t2.5 -4v-3l-7 -69q-8 -18 -4 -55h2l5 39l4 9v-3l-16 -221l5 -44q-2 0 -2 -5.5v-6.5q-3 -62 -2 -70q1 -5 7 -16t7 -18q1 -6 -0.5 -12t-7.5 -5q-3 2 -3 3q-4 -3 -6 -9t-4 -8h-4q-4 -1 -10 -5t-11.5 -6t-12.5 -1q-3 -7 -29 -7q-8 1 -18 13.5
t-13 14.5l-44 77q-3 9 -20 37l-1 2l-60 135l-1 7l-41 91l-1 3q0 1 -2 1v-1l-5 -58q2 -10 2 -13t-1.5 -11.5t-1.5 -13.5q-3 -56 -1 -214q-3 -12 -3 -26q-4 2 -4 -1l-10 -38q-9 2 -12 -2.5t-4 -15.5q-1 2 -3 7.5t-4 6.5q-2 -1 -3 -4t-1 -6.5v-4.5q-4 -7 -16 -13t-20 -5h-5
q-1 0 -3 1l-2 1q-1 -1 -1 -2q-4 -8 -9 -8h-1q0 1 -1.5 2.5t-2.5 3.5l-1 2v3zM278 697q-4 1 -12 2t-11 2q-13 7 -20.5 17.5t-15 30t-10.5 24.5l-1 1q-23 -18 -26 -26q0 3 -3 3h-1q-2 -5 -4 -10.5t-4.5 -12t-3.5 -10.5q-1 -2 -3.5 -3.5t-2.5 -2.5q-1 -3 -2 -4h-1l-1 1v2
q-4 -1 -6 -5l-3 -3q-10 0 -10 -2l-1 -1q-2 -2 -7 -2q-3 0 -3 1l-4 1l-4 1q-3 11 -7 15q-2 17 -2 20q1 37 36 70q17 12 33 12q7 0 18.5 -3.5t14.5 -3.5q32 -4 37 -6l3 -2q3 -2 4 -2t11 -3.5t11 -4.5l13 -19q2 -3 3 -11t2 -11l2 -1q10 0 18.5 18t11.5 31q6 12 6 27l3 3
q4 0 6 -4.5t5 -4.5l3 2q2 0 3.5 -2.5t2.5 -2.5h2l2 1q5 0 5 -6l3 5q0 -7 5 -7q4 0 4 2l3 -1q2 0 5 -1.5t4 -4.5q2 -14 8 -15q-5 -31 -19 -58v-1h1v-2q-30 -35 -76 -35q-7 0 -25 2zM22 90q1 -2 2 -8t0 -7zM240 581l1 1q1 -1 2 -3l1 -1v-2q-3 3 -4 3v2zM24 69q1 -2 1.5 -7.5
t-0.5 -7.5zM464 566q2 -1 0 -3q-2 0 -2 1.5t2 1.5zM447 331q-1 0 -1 -2t1 -2t1 2t-1 2zM21 129q1 -1 1 -8zM462 485q2 -5 1 -6zM418 622l-1 -1q-2 -2 -3 -2v-2l5 4zM434 63l1 -2h4l-3 2h-2zM193 811v-4q2 1 2 4h-2zM375 594v-4h1v4h-1zM450 419v-2h2v2h-2zM48 23l-3 -2h4z
M406 652h-2q0 -2 2 0zM376 584h-2q0 -2 2 0zM451 408q0 1 -1 1t-1 -1q2 -4 2 0zM459 288q1 0 1 -1.5t-1 -1.5v3zM125 772v-3q1 1 0 3zM439 635l2 -2v2h-2zM390 776q-1 0 -1 -1.5t1 -1.5v3zM177 764v-1v1zM389 766v-1v1z" />
    <glyph glyph-name="Ograve" unicode="&#xd2;" horiz-adv-x="467" 
d="M438 440v-3q0 -3 2 -3q1 0 3 6q2 -8 4 -14q-2 -31 -5 -46q-2 -7 -6.5 -41.5t-12.5 -68.5t-20 -62q-2 -4 -15 -33t-15 -35v-7l-27 -39q-22 -33 -71.5 -49t-97.5 -16q-46 0 -84.5 45t-54.5 96q-18 55 -18 123q0 64 22 165q6 5 6 18q10 34 21.5 66.5t28 67t36.5 55.5t40 21
q8 0 25.5 -2t36.5 -2q1 -4 17 -7.5t17 -7.5l-3 -1q0 -6 13 -6h7q38 -16 48 -22q26 -13 56 -46.5t29 -49.5l-4 2q-1 -3 1 -3.5t4 -0.5q6 -8 9 -21.5t5.5 -36t5.5 -36.5q-3 -1 -3 -6zM302 267v-3l1 1l-8 -14q0 -1 0.5 -1t0.5 -1q-2 0 -2 8l12 31q4 3 4 7q0 6 4 9t4 4
q0 10 4.5 19t4.5 16q8 35 8 57q0 2 -2 4t-2 3t2 6t2 6q0 39 -1.5 60.5t-8.5 49t-24 47t-44 34.5q-23 15 -33 15q-3 0 -25.5 -41.5t-22.5 -48.5q5 0 8 8v-4h2q3 0 3 7l-2 3q2 4 6 4q0 -5 -3.5 -14.5t-3.5 -10.5q-21 -50 -21 -79q0 -7 3 -14t3 -10l-11 -66l-2 -24
q0 -2 -0.5 -14.5t-1 -24t0.5 -22t3 -12.5v-4q-1 -4 -1 -6q0 -12 14 -62q2 -12 16.5 -42t22.5 -30q3 1 3 2v-4h2q3 3 12 9.5t14.5 12.5t6.5 13q2 8 7.5 20t7.5 12l2 -1q-7 -14 -7 -25q6 4 21 36.5t17 42.5l-14 -23l12 32q1 0 2 -1l1 -1q2 0 6.5 15t5.5 22l-7 -13h-2zM427 441
q1 -3 5 -3q0 22 -4 60t-12 38l-2 -1q13 -41 13 -94zM437 393l1 -2q4 3 6 35l-2 2q-5 0 -5 -35zM267 182q5 11 17 31q-14 -31 -17 -31zM318 301q-3 0 -4 -3.5t-1 -7.5v-4q5 2 5 15zM177 529h-2l-3 -6q-4 -6 -3 -7q8 0 8 13zM291 247q0 -1 -1 -4.5t-2.5 -7.5t-1.5 -6
q-1 2 -1 3q0 3 3 8.5t3 6.5zM420 565q4 -8 4 -13q-1 0 -2 4l-2 4v5zM323 341q0 -6 -3 -7q0 5 3 7zM170 511q-5 0 -5 -4q5 0 5 4zM179 522q-2 0 -2 -2t2 -2q1 1 1 2zM427 544q1 0 1 -2t-1 -2t-1 2t1 2zM441 446h2v-6zM431 343v-2h2v2h-2zM398 601l1 -1l-1 -1q-2 0 -2 1
q1 1 2 1zM429 539q0 -1 0.5 -1t0.5 -1q0 -5 -1 -1v3zM147 439l-1 1l-1 -1l1 -1q1 0 1 1zM257 151l-3 -1l1 -1zM32 207v1l-1 -1v-2q1 0 1 2zM425 549q1 -1 1 -2l-1 -1v3zM407 446l-1 1l-1 -1h2zM437 382v-2h1zM180 529v-1l2 1h-2zM304 267l-1 -2q1 1 1 2zM139 798q1 -1 1 -2
q0 1 -1 2zM276 741l1 -1zM207 762q-3 -1 1 -3q3 3 -1 3zM158 774l-3 4q5 -2 5 -3zM307 747l-37 -11q-3 0 -9 -3q-6 1 -12.5 4.5t-9.5 4.5l-2 -1l2 -4q-2 1 -9 1q-3 1 -8.5 5t-8.5 5l-2 -3l-3 2q-1 1 -4.5 3t-6.5 4l-3 1q-1 1 -3.5 2t-5 1.5t-3.5 0.5l-3 2q-3 1 -12 10t-14 9
l-7 10l2 1l-6 11v1q-4 6 -1 7q2 1 5 -1l2 -1l1 1q-4 6 4 11q3 0 4 1l1 2l1 2l4 2q1 0 2 3l2 3h2q5 4 21 11q1 1 8 7t11 7q4 3 8.5 0.5t6 -4.5l4.5 -6l3 -5l65 -67l9 -13q-1 -2 1.5 -8t0.5 -8z" />
    <glyph glyph-name="Oacute" unicode="&#xd3;" horiz-adv-x="467" 
d="M438 440v-3q0 -3 2 -3q1 0 3 6q2 -8 4 -14q-2 -31 -5 -46q-2 -7 -6.5 -41.5t-12.5 -68.5t-20 -62q-2 -4 -15 -33t-15 -35v-7l-27 -39q-22 -33 -71.5 -49t-97.5 -16q-46 0 -84.5 45t-54.5 96q-18 55 -18 123q0 64 22 165q6 5 6 18q10 34 21.5 66.5t28 67t36.5 55.5t40 21
q8 0 25.5 -2t36.5 -2q1 -4 17 -7.5t17 -7.5l-3 -1q0 -6 13 -6h7q38 -16 48 -22q26 -13 56 -46.5t29 -49.5l-4 2q-1 -3 1 -3.5t4 -0.5q6 -8 9 -21.5t5.5 -36t5.5 -36.5q-3 -1 -3 -6zM302 267v-3l1 1l-8 -14q0 -1 0.5 -1t0.5 -1q-2 0 -2 8l12 31q4 3 4 7q0 6 4 9t4 4
q0 10 4.5 19t4.5 16q8 35 8 57q0 2 -2 4t-2 3t2 6t2 6q0 39 -1.5 60.5t-8.5 49t-24 47t-44 34.5q-23 15 -33 15q-3 0 -25.5 -41.5t-22.5 -48.5q5 0 8 8v-4h2q3 0 3 7l-2 3q2 4 6 4q0 -5 -3.5 -14.5t-3.5 -10.5q-21 -50 -21 -79q0 -7 3 -14.5t3 -8.5q-1 -1 -6 -36t-7 -55
q0 -2 -0.5 -14.5t-1 -24t0.5 -22t3 -12.5v-4q-1 -4 -1 -6q0 -12 14 -62q2 -12 16.5 -42t22.5 -30q3 1 3 2v-4h2q3 3 12 9.5t14.5 12.5t6.5 13q2 8 7.5 20t7.5 12l2 -1q-7 -14 -7 -25q6 4 21 36.5t17 42.5l-14 -23l12 32q1 0 2 -1l1 -1q2 0 6.5 15t5.5 22l-7 -13h-2zM176 736
l-37 11q-2 2 0.5 8t1.5 8l9 13l65 67l3 5l4.5 6t6 4.5t8.5 -0.5q4 -1 11 -7t8 -7q16 -7 21 -11h2l2 -3q1 -3 2 -3l4 -2l1 -2l1 -2l4 -1q8 -5 4 -11l1 -1l2 1q3 2 5 1q3 -1 -1 -7v-1l-6 -11l2 -1l-7 -10q-5 0 -14 -9t-12 -10l-3 -2q-1 0 -3.5 -0.5t-5 -1.5t-3.5 -2l-3 -1
q-3 -2 -6.5 -4t-4.5 -3q-2 -2 -3 -2l-2 3q-3 -1 -8.5 -5t-8.5 -5q-8 0 -9 -1l2 4l-2 1q-3 -1 -9.5 -4.5t-12.5 -4.5q-6 3 -9 3zM427 441q1 -3 5 -3q0 22 -4 60t-12 38l-2 -1q13 -41 13 -94zM437 393l1 -2q4 3 6 35l-2 2q-5 0 -5 -35zM267 182q5 11 17 31q-14 -31 -17 -31z
M318 301q-3 0 -4 -3.5t-1 -7.5v-4q5 2 5 15zM177 529h-2l-3 -6q-4 -6 -3 -7q8 0 8 13zM291 247q0 -1 -1 -4.5t-2.5 -7.5t-1.5 -6q-1 2 -1 3q0 3 3 8.5t3 6.5zM420 565q4 -8 4 -13q-1 0 -2 4l-2 4v5zM323 341q0 -6 -3 -7q0 5 3 7zM170 511q-5 0 -5 -4q5 0 5 4zM179 522
q-2 0 -2 -2t2 -2q1 1 1 2zM291 778l-3 -4l-2 1q0 1 5 3zM239 762q-4 0 -1 -3q4 2 1 3zM427 544q1 0 1 -2t-1 -2t-1 2t1 2zM441 446h2v-6zM431 343v-2h2v2h-2zM398 601l1 -1l-1 -1q-2 0 -2 1q1 1 2 1zM429 539q0 -1 0.5 -1t0.5 -1q0 -5 -1 -1v3zM147 439l-1 1l-1 -1l1 -1
q1 0 1 1zM170 741l-1 -1zM257 151l-3 -1l1 -1zM307 798q-1 -1 -1 -2q1 1 1 2zM32 207v1l-1 -1v-2q1 0 1 2zM425 549q1 -1 1 -2l-1 -1v3zM407 446l-1 1l-1 -1h2zM437 382v-2h1zM180 529v-1l2 1h-2zM304 267l-1 -2q1 1 1 2z" />
    <glyph glyph-name="Ocircumflex" unicode="&#xd4;" horiz-adv-x="467" 
d="M438 440v-3q0 -3 2 -3q1 0 3 6q2 -8 4 -14q-2 -31 -5 -46q-2 -7 -6.5 -41.5t-12.5 -68.5t-20 -62q-2 -4 -15 -33t-15 -35v-7l-27 -39q-22 -33 -71.5 -49t-97.5 -16q-46 0 -84.5 45t-54.5 96q-18 55 -18 123q0 64 22 165q6 5 6 18q10 34 21.5 66.5t28 67t36.5 55.5t40 21
q8 0 25.5 -2t36.5 -2q1 -4 17 -7.5t17 -7.5l-3 -1q0 -6 13 -6h7q38 -16 48 -22q26 -13 56 -46.5t29 -49.5l-4 2q-1 -3 1 -3.5t4 -0.5q6 -8 9 -21.5t5.5 -36t5.5 -36.5q-3 -1 -3 -6zM302 267v-3l1 1l-8 -14q0 -1 0.5 -1t0.5 -1q-2 0 -2 8l12 31q4 3 4 7q0 6 4 9t4 4
q0 10 4.5 19t4.5 16q8 35 8 57q0 2 -2 4t-2 3t2 6t2 6q0 39 -1.5 60.5t-8.5 49t-24 47t-44 34.5q-23 15 -33 15q-3 0 -25.5 -41.5t-22.5 -48.5q5 0 8 8v-4h2q3 0 3 7l-2 3q2 4 6 4q0 -5 -3.5 -14.5t-3.5 -10.5q-21 -50 -21 -79q0 -7 3 -14t3 -10l-11 -66l-2 -24
q0 -2 -0.5 -14.5t-1 -24t0.5 -22t3 -12.5v-4q-1 -4 -1 -6q0 -12 14 -62q2 -12 16.5 -42t22.5 -30q3 1 3 2v-4h2q3 3 12 9.5t14.5 12.5t6.5 13q2 8 7.5 20t7.5 12l2 -1q-7 -14 -7 -25q6 4 21 36.5t17 42.5l-14 -23l12 32q1 0 2 -1l1 -1q2 0 6.5 15t5.5 22l-7 -13h-2zM73 745
q0 13 11 32l1 1q15 30 45 64t56 50q4 1 6 2h2v-2q1 -2 1 -3h16q0 -3 13 -3q2 0 5.5 1.5t4.5 1.5h1l-2 -3q6 -2 27 -7t35 -11.5t23 -17.5l34 -38q3 -8 4 -10l5 -19v-2l-2 -2v-2l-3 -2q-1 -1 1 -4v-2l-1 -2q-1 -1 -1 -4t1 -5l-4 -1q-5 -4 -9 -4q-1 0 -1 -5q0 -2 -0.5 -4
t-0.5 -4q-1 -4 -17 -9t-18 -7v7q-3 -6 -10 -10l-6 8q-2 0 -2 -7q-4 5 -7 20l-3 15q-8 24 -54 72l-29 -35l-16 -24q-36 -55 -76 -55q-10 0 -16 2q-3 0 -8.5 12.5t-5.5 15.5zM427 441q1 -3 5 -3q0 22 -4 60t-12 38l-2 -1q13 -41 13 -94zM437 393l1 -2q4 3 6 35l-2 2
q-5 0 -5 -35zM267 182q5 11 17 31q-14 -31 -17 -31zM318 301q-3 0 -4 -3.5t-1 -7.5v-4q5 2 5 15zM177 529h-2l-3 -6q-4 -6 -3 -7q8 0 8 13zM291 247q0 -1 -1 -4.5t-2.5 -7.5t-1.5 -6q-1 2 -1 3q0 3 3 8.5t3 6.5zM420 565q4 -8 4 -13q-1 0 -2 4l-2 4v5zM323 341q0 -6 -3 -7
q0 5 3 7zM170 511q-5 0 -5 -4q5 0 5 4zM345 775q-1 0 -1 -2.5t1 -2.5t1 2.5t-1 2.5zM179 522q-2 0 -2 -2t2 -2q1 1 1 2zM203 799q1 0 1 -1.5t-1 -1.5t-1 1.5t1 1.5zM441 446h2v-6zM427 544q1 0 1 -2t-1 -2t-1 2t1 2zM431 343v-2h2v2h-2zM398 601l1 -1l-1 -1q-2 0 -2 1
q1 1 2 1zM429 539q0 -1 0.5 -1t0.5 -1q0 -5 -1 -1v3zM147 439l-1 1l-1 -1l1 -1q1 0 1 1zM257 151l-3 -1l1 -1zM32 207v1l-1 -1v-2q1 0 1 2zM168 838l-1 -4h1v4zM425 549q1 -1 1 -2l-1 -1v3zM407 446l-1 1l-1 -1h2zM437 382v-2h1zM180 529v-1l2 1h-2zM299 805q-1 0 -1 -1
t1 -1v2zM200 794h-1h1zM304 267l-1 -2q1 1 1 2zM350 803v-1v1z" />
    <glyph glyph-name="Otilde" unicode="&#xd5;" horiz-adv-x="467" 
d="M438 440v-3q0 -3 2 -3q1 0 3 6q2 -8 4 -14q-2 -31 -5 -46q-2 -7 -6.5 -41.5t-12.5 -68.5t-20 -62q-2 -4 -15 -33t-15 -35v-7l-27 -39q-22 -33 -71.5 -49t-97.5 -16q-46 0 -84.5 45t-54.5 96q-18 55 -18 123q0 64 22 165q6 5 6 18q10 34 21.5 66.5t28 67t36.5 55.5t40 21
q8 0 25.5 -2t36.5 -2q1 -4 17 -7.5t17 -7.5l-3 -1q0 -6 13 -6h7q38 -16 48 -22q26 -13 56 -46.5t29 -49.5l-4 2q-1 -3 1 -3.5t4 -0.5q6 -8 9 -21.5t5.5 -36t5.5 -36.5q-3 -1 -3 -6zM302 267v-3l1 1l-8 -14q0 -1 0.5 -1t0.5 -1q-2 0 -2 8l12 31q4 3 4 7q0 6 4 9t4 4
q0 10 4.5 19t4.5 16q8 35 8 57q0 2 -2 4t-2 3t2 6t2 6q0 39 -1.5 60.5t-8.5 49t-24 47t-44 34.5q-23 15 -33 15q-3 0 -25.5 -41.5t-22.5 -48.5q5 0 8 8v-4h2q3 0 3 7l-2 3q2 4 6 4q0 -5 -3.5 -14.5t-3.5 -10.5q-21 -50 -21 -79q0 -7 3 -14.5t3 -8.5q-1 -1 -6 -36t-7 -55
q0 -2 -0.5 -14.5t-1 -24t0.5 -22t3 -12.5v-4q-1 -4 -1 -6q0 -12 14 -62q2 -12 16.5 -42t22.5 -30q3 1 3 2v-4h2q3 3 12 9.5t14.5 12.5t6.5 13q2 8 7.5 20t7.5 12l2 -1q-7 -14 -7 -25q6 4 21 36.5t17 42.5l-14 -23l12 32q1 0 2 -1l1 -1q2 0 6.5 15t5.5 22l-7 -13h-2zM252 731
q-3 2 -11.5 2.5t-11.5 1.5q-13 7 -20.5 17.5t-15 30t-10.5 24.5l-1 1q-23 -18 -26 -26q0 3 -3 3h-1q-2 -5 -4 -10.5t-4.5 -12t-3.5 -10.5q-1 -2 -3.5 -3.5t-2.5 -2.5q-1 -3 -2 -4h-1l-1 1v2q-4 -1 -6 -5l-3 -3q-10 0 -10 -2l-1 -1q-2 -2 -7 -2q-3 0 -3 1l-4 1l-4 1
q-3 11 -7 15q-2 17 -2 20q1 37 36 70q17 12 33 12q7 0 18.5 -3.5t14.5 -3.5q32 -4 37 -6l3 -2q3 -2 4 -2t11 -3.5t11 -4.5l13 -19q2 -3 3 -11t2 -11l2 -1q10 0 18.5 18t11.5 31q6 12 6 27l3 3q4 0 6 -4.5t5 -4.5l3 2q2 0 3.5 -2.5t2.5 -2.5h2l2 1q5 0 5 -6l3 5q0 -7 5 -7
q4 0 4 2l3 -1q2 0 5 -1.5t4 -4.5q2 -14 8 -15q-5 -31 -19 -58v-1h1v-2q-30 -35 -76 -35q-7 0 -25 2zM427 441q1 -3 5 -3q0 22 -4 60t-12 38l-2 -1q13 -41 13 -94zM437 393l1 -2q4 3 6 35l-2 2q-5 0 -5 -35zM267 182q5 11 17 31q-14 -31 -17 -31zM318 301q-3 0 -4 -3.5
t-1 -7.5v-4q5 2 5 15zM177 529h-2l-3 -6q-4 -6 -3 -7q8 0 8 13zM291 247q0 -1 -1 -4.5t-2.5 -7.5t-1.5 -6q-1 2 -1 3q0 3 3 8.5t3 6.5zM420 565q4 -8 4 -13q-1 0 -2 4l-2 4v5zM323 341q0 -6 -3 -7q0 5 3 7zM170 511q-5 0 -5 -4q5 0 5 4zM179 522q-2 0 -2 -2t2 -2q1 1 1 2z
M167 845v-4q2 1 2 4h-2zM427 544q1 0 1 -2t-1 -2t-1 2t1 2zM441 446h2v-6zM431 343v-2h2v2h-2zM398 601l1 -1l-1 -1q-2 0 -2 1q1 1 2 1zM429 539q0 -1 0.5 -1t0.5 -1q0 -5 -1 -1v3zM147 439l-1 1l-1 -1l1 -1q1 0 1 1zM99 806v-3q1 1 0 3zM257 151l-3 -1l1 -1zM32 207v1
l-1 -1v-2q1 0 1 2zM425 549q1 -1 1 -2l-1 -1v3zM151 798v-1v1zM407 446l-1 1l-1 -1h2zM364 810q-1 0 -1 -1.5t1 -1.5v3zM180 529v-1l2 1h-2zM437 382v-2h1zM363 800v-1v1zM304 267l-1 -2q1 1 1 2z" />
    <glyph glyph-name="Odieresis" unicode="&#xd6;" horiz-adv-x="467" 
d="M438 440v-3q0 -3 2 -3q1 0 3 6q2 -8 4 -14q-2 -31 -5 -46q-2 -7 -6.5 -41.5t-12.5 -68.5t-20 -62q-2 -4 -15 -33t-15 -35v-7l-27 -39q-22 -33 -71.5 -49t-97.5 -16q-46 0 -84.5 45t-54.5 96q-18 55 -18 123q0 64 22 165q6 5 6 18q10 34 21.5 66.5t28 67t36.5 55.5t40 21
q8 0 25.5 -2t36.5 -2q1 -4 17 -7.5t17 -7.5l-3 -1q0 -6 13 -6h7q38 -16 48 -22q26 -13 56 -46.5t29 -49.5l-4 2q-1 -3 1 -3.5t4 -0.5q6 -8 9 -21.5t5.5 -36t5.5 -36.5q-3 -1 -3 -6zM302 267v-3l1 1l-8 -14q0 -1 0.5 -1t0.5 -1q-2 0 -2 8l12 31q4 3 4 7q0 6 4 9t4 4
q0 10 4.5 19t4.5 16q8 35 8 57q0 2 -2 4t-2 3t2 6t2 6q0 39 -1.5 60.5t-8.5 49t-24 47t-44 34.5q-23 15 -33 15q-3 0 -25.5 -41.5t-22.5 -48.5q5 0 8 8v-4h2q3 0 3 7l-2 3q2 4 6 4q0 -5 -3.5 -14.5t-3.5 -10.5q-21 -50 -21 -79q0 -7 3 -14.5t3 -8.5q-1 -1 -6 -36t-7 -55
q0 -2 -0.5 -14.5t-1 -24t0.5 -22t3 -12.5v-4q-1 -4 -1 -6q0 -12 14 -62q2 -12 16.5 -42t22.5 -30q3 1 3 2v-4h2q3 3 12 9.5t14.5 12.5t6.5 13q2 8 7.5 20t7.5 12l2 -1q-7 -14 -7 -25q6 4 21 36.5t17 42.5l-14 -23l12 32q1 0 2 -1l1 -1q2 0 6.5 15t5.5 22l-7 -13h-2zM261 735
q0 -2 -3 -2v15l-2 2q-1 0 -1 3q0 15 9 45t9 45l-1 5q1 3 7.5 3.5t7.5 1.5q0 -2 1 -2.5t3 -1t4 -1.5l3 -3h1l1 1q2 1 3 1q2 0 5 -3t4 -3l2 1l3 1l3 -1h1l2 1v1l1 -1q1 -2 6 -4.5t7 -5.5t6 -3t7 -1l1 -4q2 -4 11.5 -6t11.5 -7q3 -9 3 -18v-3h-2l-2 -10q-4 -1 -6 -6t-5 -7h-2
l-2 -1l-2 -5l-2 3h-1q-4 0 -13 -12q0 2 -3 2l-4 -5l-5 -5h-3l-2 -3l-2 4l-1 1q-10 -10 -13 -12q-6 0 -6 -3h-2q-2 1 -2 2h-1q-8 0 -14 -4v7q-2 -1 -3 -2.5t-1.5 -2.5t-2.5 -1.5t-5 -0.5q-9 0 -9 5zM127 765v60l2 4h7l2 1q1 0 6 -3.5t6 -3.5q3 -1 15 -2t15 -3q2 -1 7.5 -4.5
t7.5 -4.5q1 -1 4 -1t5 -0.5t4 -2.5t2 -5l3 2q2 0 4.5 -4t3.5 -4l2 2q3 0 3 -11l-2 -3q-3 -4 -5.5 -8t-3.5 -6t-12 -7.5t-12 -5.5h-1q-1 2 -1 3q-15 -15 -17 -15t-4 2t-3 2l-3 -3q-3 -2 -4 -2q-2 -2 -7 -2q-4 0 -4 2q-1 -2 -4 -2h-2q-2 3 -3 3q-2 1 -3.5 0.5t-3.5 1.5
q-2 3 -1 10t-3 10zM427 441q1 -3 5 -3q0 22 -4 60t-12 38l-2 -1q13 -41 13 -94zM437 393l1 -2q4 3 6 35l-2 2q-5 0 -5 -35zM267 182q5 11 17 31q-14 -31 -17 -31zM318 301q-3 0 -4 -3.5t-1 -7.5v-4q5 2 5 15zM177 529h-2l-3 -6q-4 -6 -3 -7q8 0 8 13zM291 247q0 -1 -1 -4.5
t-2.5 -7.5t-1.5 -6q-1 2 -1 3q0 3 3 8.5t3 6.5zM420 565q4 -8 4 -13q-1 0 -2 4l-2 4v5zM323 341q0 -6 -3 -7q0 5 3 7zM170 511q-5 0 -5 -4q5 0 5 4zM179 522q-2 0 -2 -2t2 -2q1 1 1 2zM382 807v-10h-1v8zM427 544q1 0 1 -2t-1 -2t-1 2t1 2zM441 446h2v-6zM268 740
q-2 0 -2 -1.5t2 -1.5q1 0 1 1.5t-1 1.5zM384 794q2 -2 0 -5v5zM189 804q-1 0 -1 -2t1 -2t1 2t-1 2zM431 343v-2h2v2h-2zM398 601l1 -1l-1 -1q-2 0 -2 1q1 1 2 1zM429 539q0 -1 0.5 -1t0.5 -1q0 -5 -1 -1v3zM147 439l-1 1l-1 -1l1 -1q1 0 1 1zM257 151l-3 -1l1 -1zM32 207v1
l-1 -1v-2q1 0 1 2zM425 549q1 -1 1 -2l-1 -1v3zM288 739q-1 0 -1 -1t1 -1q2 0 0 2zM407 446l-1 1l-1 -1h2zM145 773v-1l2 1h-2zM290 856l1 -2h-1v2zM180 529v-1l2 1h-2zM437 382v-2h1zM277 859h-1h1zM283 743v-1v1zM304 267l-1 -2q1 1 1 2z" />
    <glyph glyph-name="Oslash" unicode="&#xd8;" horiz-adv-x="467" 
d="M305 652l20 42l-1 -5l4 7l2 6h1v-1l2 -1l3 3v-1l1 -2h1l1 2v-1l2 -2l3 4v-1q0 -2 1 -2l1 3l2 -1q1 0 1 -1l-2 -5l4 -6l3 8l1 -1v-2h1q1 3 2 4q0 -2 1 -5.5t2.5 -7t1.5 -4.5l2 3q1 -3 4.5 -6t3.5 -5l2 2q2 -1 3 -1l1 1h2l-2 -13l2 1l1 -6h2q5 -8 3 -19t-10 -33
q43 -43 43 -64l-4 2q-1 -3 1 -3.5t4 -0.5q6 -8 9 -21.5t5.5 -36t5.5 -36.5q-3 -1 -3 -6v-3q0 -3 2 -3q1 0 3 6q2 -8 4 -14q-2 -31 -5 -46q-2 -7 -6.5 -41.5t-12.5 -68.5t-20 -62q-2 -4 -15 -33t-15 -35v-7l-27 -39q-22 -33 -71.5 -49t-97.5 -16q-23 0 -42 10
q-4 -5 -14.5 -15t-11.5 -9l2 8v3q-15 -19 -20 -16q-1 1 -2 3l-1 2h-1l-2 -4l-4 -2l1 8q-1 -4 -2.5 -6.5t-3.5 -1.5q-2 0 -1 4q-1 0 -3 -1q0 6 1 7q-1 0 -1 1l2 7l-1 2l-4 -6l-1 3q-6 -6 -7 -6q2 7 0.5 11.5t-0.5 8.5q2 8 2 11l2 6h-2l-4 -10h-1q1 6 6 16.5t7 15.5l6 14
q-27 37 -39 77q-18 55 -18 123q0 64 22 165q6 5 6 18q10 34 21.5 66.5t28 67t36.5 55.5t40 21q8 0 25.5 -2t36.5 -2q1 -4 17 -7.5t17 -7.5l-3 -1q0 -6 13 -6h7q1 0 7.5 -3t10.5 -5zM318 464l-130 -314q15 -32 24 -32q3 1 3 2v-4h2q3 3 12 9.5t14.5 12.5t6.5 13q2 8 7.5 20
t7.5 12l2 -1q-7 -14 -7 -25q6 4 21 36.5t17 42.5l-14 -23l12 32q1 0 2 -1l1 -1q2 0 6.5 15t5.5 22l-7 -13h-2v-3l1 1l-8 -14q0 -1 0.5 -1t0.5 -1q-2 0 -2 8l12 31q4 3 4 7q0 6 4 9t4 4q0 10 4.5 19t4.5 16q8 35 8 57q0 2 -2 4t-2 3t2 6t2 6q0 53 -3 76l-9 -21l-3 -6z
M190 375q14 28 18 44l73 174q-12 10 -24 17q-23 15 -33 15q-3 0 -25.5 -41.5t-22.5 -48.5q5 0 8 8v-4h2q3 0 3 7l-2 3q2 4 6 4q0 -5 -3.5 -14.5t-3.5 -10.5q-21 -50 -21 -79q0 -7 3 -14.5t3 -8.5q-1 -1 -6 -36t-7 -55q0 -1 -1 -18t-1 -27zM427 441q1 -3 5 -3q0 22 -4 60
t-12 38l-2 -1q13 -41 13 -94zM208 208l-22 -52q0 -2 2 -4l20 48q2 7 7 18t6 17v1q-1 -1 -7 -14t-6 -14zM437 393l1 -2q4 3 6 35l-2 2q-5 0 -5 -35zM267 182q5 11 17 31q-14 -31 -17 -31zM318 301q-3 0 -4 -3.5t-1 -7.5v-4q5 2 5 15zM277 373q-2 0 -6 -8.5t-4 -12.5h1
q1 2 3 6.5t3.5 8t2.5 6.5zM177 529h-2l-3 -6q-4 -6 -3 -7q8 0 8 13zM291 247q0 -1 -1 -4.5t-2.5 -7.5t-1.5 -6q-1 2 -1 3q0 3 3 8.5t3 6.5zM286 401q-4 -4 -4 -12l-1 -3q4 7 6 13zM420 565q4 -8 4 -13q-1 0 -2 4l-2 4v5zM235 273q-5 -2 -5 -11q4 4 5 9v2zM266 349l-8 -16
l2 2q0 7 6 13v1zM323 341q0 -6 -3 -7q0 5 3 7zM170 511q-5 0 -5 -4q5 0 5 4zM385 645q-2 -4 -2 -9q2 0 2 7v2zM179 522q-2 0 -2 -2t2 -2q1 1 1 2zM427 544q1 0 1 -2t-1 -2t-1 2t1 2zM441 446h2v-6zM171 315q-1 -1 -1 -4q1 1 1 4zM214 254q-1 0 -1 -2t1 -2v4zM273 409
q-1 -1 -1 -4zM431 343v-2h2v2h-2zM215 412l-2 -5q2 1 2 5zM398 601l1 -1l-1 -1q-2 0 -2 1q1 1 2 1zM116 25h-2v-3q1 -1 1 2zM429 539q0 -1 0.5 -1t0.5 -1q0 -5 -1 -1v3zM357 629l-1 -3l1 -1q1 4 0 4zM89 77q-1 -1 -1 -3q1 1 1 3zM68 64q-1 -1 -1 -3q1 1 1 3zM147 439l-1 1
l-1 -1l1 -1q1 0 1 1zM330 698q-1 -1 -1 -3zM257 151l-3 -1l1 -1zM32 207v1l-1 -1v-2q1 0 1 2zM425 549q1 -1 1 -2l-1 -1v3zM379 627h2v2l-1 -1zM337 709q1 -1 1 -2zM407 446l-1 1l-1 -1h2zM117 32v-1h1v1h-1zM437 382v-2h1zM180 529v-1l2 1h-2zM304 267l-1 -2q1 1 1 2z" />
    <glyph glyph-name="Ugrave" unicode="&#xd9;" horiz-adv-x="424" 
d="M20 364v29l20 186q1 2 3.5 18.5t7.5 28t14 11.5q3 0 3 -3l7 5l1 -1q1 -2 2 -2h1q1 0 1.5 3t2.5 3q6 0 4 -6q1 4 4.5 5.5t9 2t7.5 1.5q7 5 10 9h1q2 0 6 -3.5t5 -3.5l4 2l4 2h2l3 -4h1l10 7q2 -2 2 -8q0 -3 -1 -8.5t-1 -8.5v-5q1 4 4 8.5t4.5 9t0.5 9.5l5 -4q0 3 5 3
q0 -5 -2 -14t-2 -14q-1 -11 3 -11h1l1 1q2 1 2 2l-1 -5v-20l-12 -106q1 -8 -2 -22t-3 -18q-4 -48 -4 -75v-27l6 -66l11 -31q1 12 -6 46q-4 29 -4 67v18l2 -7q4 -62 10 -109q2 -22 4 -32l29 -81q9 -14 21 -27q3 -6 5 -6l1 1q2 5 7.5 13.5t8.5 17.5q40 101 40 223q0 64 -5 94
q-1 14 -6.5 34.5t-6.5 27.5v7q0 13 -5 33q-4 9 -4 21q2 0 5.5 1t4.5 1h2l3 -3q4 1 4 9h2q2 0 7 -3l4 -4v1q0 1 -1 4l-1 3v2l6 -5l4 1l-2 2l-1 2q1 1 13.5 6t14.5 5q5 0 6 -3h13q7 -14 8 -15v15q1 2 2 2h1q6 0 6.5 -12t5.5 -12v2q-4 8 -4 22l-1 2v2q4 0 9.5 -11.5t6.5 -17.5
l7 -48l-1 -5v-2h1l10 -60q0 -3 0.5 -25.5t4.5 -34.5l2 -46l-2 -4l1 -3l1 -3v-2q0 -1 -1 -2t-1 -2v-1l2 -2l-5 -49v-4q0 -2 0.5 -4t0.5 -4q0 -3 -2.5 -6.5t-2.5 -6.5v-2q2 1 4 5v-3q0 -4 -1 -4.5t-5 -0.5q0 -1 1 -3t1 -4q0 -9 -5 -25t-6 -20q-8 -32 -19 -52v-2q12 10 24 39
q1 2 2 3q0 -22 -43 -74q-3 -3 -22 -22.5t-22 -23.5l-2 -1q-2 -1 -3 -1l-3 2q4 -7 -13 -17l-32 -17q-13 -4 -24 -15q-8 -5 -25 -8.5t-24 -6.5h-15q-33 0 -60 24.5t-40 57.5q-2 2 -2 3q-3 4 -5 9t-3.5 12t-2.5 10q-30 83 -30 234zM25 358v-26q1 2 1 12.5t-1 13.5zM25 296l2 -1
v1q0 8 -2 14v-14zM384 481l2 -10h1l-1 12zM163 412q1 -1 1 -4.5t-1 -4.5v9zM356 570v-1v-1l1 -2q3 4 3 6q-4 0 -4 -2zM163 388q1 0 1 -2.5t-1 -2.5t-1 2.5t1 2.5zM397 403q-1 0 -1 -2.5t1 -2.5t1 2.5t-1 2.5zM63 114q-1 0 -1 -2.5t1 -2.5t1 2.5t-1 2.5zM391 418
q-1 0 -1 -2.5t1 -2.5t1 2.5t-1 2.5zM193 69q-1 0 -1 -2.5t1 -2.5t1 2.5t-1 2.5zM344 586q-2 0 -2 -2.5t2 -2.5t2 2.5t-2 2.5zM372 552v-6h2v6h-2zM369 569q0 -4 2 -6v2q0 5 -2 6v-2zM384 499v-5h2q0 5 -2 5zM333 466q-1 0 -1 -2t1 -2t1 2t-1 2zM382 507q-2 0 -2 -2t2 -2t2 2
t-2 2zM279 535q-1 0 -1 -2t1 -2t1 2t-1 2zM27 285q-1 0 -1 -2t1 -2t1 2t-1 2zM311 328q-1 0 -1 -2t1 -2t1 2t-1 2zM391 440q-1 0 -1 -2t1 -2t1 2t-1 2zM40 368q-2 0 -2 -1.5t2 -1.5t2 1.5t-2 1.5zM50 391q-2 0 -2 -1.5t2 -1.5t2 1.5t-2 1.5zM283 423q1 0 1 -2t-1 -2t-1 2
t1 2zM376 535q-1 0 -1 -2t1 -2q2 1 2 2.5t-2 1.5zM153 622q-2 -1 0 -3q1 0 1 1.5t-1 1.5zM25 326v-6q1 1 1 3t-1 3zM218 115q0 1 -3 7l3 -8v1zM53 473q-1 0 -1 -1.5t1 -1.5t1 1.5t-1 1.5zM371 559q-1 0 -1 -1.5t1 -1.5t1 1.5t-1 1.5zM117 622q-1 0 -1 -1.5t1 -1.5t1 1.5
t-1 1.5zM283 398q1 0 1 -1.5t-1 -1.5t-1 1.5t1 1.5zM283 408q1 -1 1 -2.5t-1 -2.5v5zM165 431q3 -1 0 -3q-1 0 -1 1.5t1 1.5zM382 511v-2q1 0 1 1t-1 1zM283 382q1 0 1 -1.5t-1 -2.5v4zM389 460h-2q0 -1 1 -1t1 1zM391 433v-2q4 0 0 2zM304 589q0 1 -1.5 1t-1.5 -1q1 -1 3 0
zM283 322q1 0 1 -1t-1 -1v2zM61 117q-1 0 -1 -1t1 -1q2 0 0 2zM380 522q-1 0 -1 -1t1 -1q2 0 0 2zM137 774q1 -1 1 -2q0 1 -1 2zM274 717l1 -1zM205 738q-3 -1 1 -3q3 3 -1 3zM156 750l-3 4q5 -2 5 -3zM305 723l-37 -11q-3 0 -9 -3q-6 1 -12.5 4.5t-9.5 4.5l-2 -1l2 -4
q-1 1 -9 1q-3 1 -8.5 5t-8.5 5l-2 -3l-3 2q-1 1 -4.5 3t-6.5 4l-3 1l-12 4l-3 2q-3 1 -12 10t-14 9l-7 10l2 1l-6 11v1q-4 6 -1 7q2 1 5 -1l2 -1l1 1q-4 6 4 11q3 0 4 1l1 2l1 2l4 2q1 0 2 3l2 3h2q5 4 21 11q1 1 8 7t11 7q4 3 8.5 0.5t6 -4.5l4.5 -6l3 -5l65 -67l9 -13
q-1 -2 1.5 -8t0.5 -8z" />
    <glyph glyph-name="Uacute" unicode="&#xda;" horiz-adv-x="424" 
d="M20 364v29l20 186q1 2 3.5 18.5t7.5 28t14 11.5q3 0 3 -3l7 5l1 -1q1 -2 2 -2h1q1 0 1.5 3t2.5 3q6 0 4 -6q1 4 4.5 5.5t9 2t7.5 1.5q7 5 10 9h1q2 0 6 -3.5t5 -3.5l4 2l4 2h2l3 -4h1l10 7q2 -2 2 -8q0 -3 -1 -8.5t-1 -8.5v-5q1 4 4 8.5t4.5 9t0.5 9.5l5 -4q0 3 5 3
q0 -5 -2 -14t-2 -14q-1 -11 3 -11h1l1 1q2 1 2 2l-1 -5v-20l-12 -106q1 -8 -2 -22t-3 -18q-4 -48 -4 -75v-27l6 -66l11 -31q1 12 -6 46q-4 29 -4 67v18l2 -7q4 -62 10 -109q2 -22 4 -32l29 -81q9 -14 21 -27q3 -6 5 -6l1 1q2 5 7.5 13.5t8.5 17.5q40 101 40 223q0 64 -5 94
q-1 14 -6.5 34.5t-6.5 27.5v7q0 13 -5 33q-4 9 -4 21q2 0 5.5 1t4.5 1h2l3 -3q4 1 4 9h2q2 0 7 -3l4 -4v1q0 1 -1 4l-1 3v2l6 -5l4 1l-2 2l-1 2q1 1 13.5 6t14.5 5q5 0 6 -3h13q7 -14 8 -15v15q1 2 2 2h1q6 0 6.5 -12t5.5 -12v2q-4 8 -4 22l-1 2v2q4 0 9.5 -11.5t6.5 -17.5
l7 -48l-1 -5v-2h1l10 -60q0 -3 0.5 -25.5t4.5 -34.5l2 -46l-2 -4l1 -3l1 -3v-2q0 -1 -1 -2t-1 -2v-1l2 -2l-5 -49v-4q0 -2 0.5 -4t0.5 -4q0 -3 -2.5 -6.5t-2.5 -6.5v-2q2 1 4 5v-3q0 -4 -1 -4.5t-5 -0.5q0 -1 1 -3t1 -4q0 -9 -5 -25t-6 -20q-8 -32 -19 -52v-2q12 10 24 39
q1 2 2 3q0 -22 -43 -74q-3 -3 -22 -22.5t-22 -23.5l-2 -1q-2 -1 -3 -1l-3 2q4 -7 -13 -17l-32 -17q-13 -4 -24 -15q-8 -5 -25 -8.5t-24 -6.5h-15q-33 0 -60 24.5t-40 57.5q-2 2 -2 3q-3 4 -5 9t-3.5 12t-2.5 10q-30 83 -30 234zM25 358v-26q1 2 1 12.5t-1 13.5zM25 296l2 -1
v1q0 8 -2 14v-14zM384 481l2 -10h1l-1 12zM163 412q1 -1 1 -4.5t-1 -4.5v9zM356 570v-1v-1l1 -2q3 4 3 6q-4 0 -4 -2zM163 388q1 0 1 -2.5t-1 -2.5t-1 2.5t1 2.5zM397 403q-1 0 -1 -2.5t1 -2.5t1 2.5t-1 2.5zM63 114q-1 0 -1 -2.5t1 -2.5t1 2.5t-1 2.5zM391 418
q-1 0 -1 -2.5t1 -2.5t1 2.5t-1 2.5zM193 69q-1 0 -1 -2.5t1 -2.5t1 2.5t-1 2.5zM344 586q-2 0 -2 -2.5t2 -2.5t2 2.5t-2 2.5zM372 552v-6h2v6h-2zM369 569q0 -4 2 -6v2q0 5 -2 6v-2zM384 499v-5h2q0 5 -2 5zM333 466q-1 0 -1 -2t1 -2t1 2t-1 2zM382 507q-2 0 -2 -2t2 -2t2 2
t-2 2zM279 535q-1 0 -1 -2t1 -2t1 2t-1 2zM27 285q-1 0 -1 -2t1 -2t1 2t-1 2zM311 328q-1 0 -1 -2t1 -2t1 2t-1 2zM391 440q-1 0 -1 -2t1 -2t1 2t-1 2zM40 368q-2 0 -2 -1.5t2 -1.5t2 1.5t-2 1.5zM50 391q-2 0 -2 -1.5t2 -1.5t2 1.5t-2 1.5zM283 423q1 0 1 -2t-1 -2t-1 2
t1 2zM376 535q-1 0 -1 -2t1 -2q2 1 2 2.5t-2 1.5zM153 622q-2 -1 0 -3q1 0 1 1.5t-1 1.5zM25 326v-6q1 1 1 3t-1 3zM218 115q0 1 -3 7l3 -8v1zM53 473q-1 0 -1 -1.5t1 -1.5t1 1.5t-1 1.5zM371 559q-1 0 -1 -1.5t1 -1.5t1 1.5t-1 1.5zM117 622q-1 0 -1 -1.5t1 -1.5t1 1.5
t-1 1.5zM283 398q1 0 1 -1.5t-1 -1.5t-1 1.5t1 1.5zM283 408q1 -1 1 -2.5t-1 -2.5v5zM165 431q3 -1 0 -3q-1 0 -1 1.5t1 1.5zM382 511v-2q1 0 1 1t-1 1zM283 382q1 0 1 -1.5t-1 -2.5v4zM389 460h-2q0 -1 1 -1t1 1zM391 433v-2q4 0 0 2zM304 589q0 1 -1.5 1t-1.5 -1q1 -1 3 0
zM283 322q1 0 1 -1t-1 -1v2zM61 117q-1 0 -1 -1t1 -1q2 0 0 2zM380 522q-1 0 -1 -1t1 -1q2 0 0 2zM174 712l-37 11q-2 2 0.5 8t1.5 8l9 13l65 67l3 5l4.5 6t6 4.5t8.5 -0.5q4 -1 11 -7t8 -7q16 -7 21 -11h2l2 -3q1 -3 2 -3l4 -2l1 -2l1 -2l4 -1q8 -5 4 -11l1 -1l2 1q3 2 5 1
q3 -1 -1 -7v-1l-6 -11l2 -1l-7 -10q-5 0 -14 -9t-12 -10l-3 -2q-1 0 -3.5 -0.5t-5 -1.5t-3.5 -2l-3 -1q-3 -2 -6.5 -4t-4.5 -3q-2 -2 -3 -2l-2 3q-3 -1 -8.5 -5t-8.5 -5q-8 0 -9 -1l2 4l-2 1q-3 -1 -9.5 -4.5t-12.5 -4.5q-6 3 -9 3zM289 754l-3 -4l-2 1q0 1 5 3zM237 738
q-4 0 -1 -3q4 2 1 3zM168 717l-1 -1zM305 774q-1 -1 -1 -2q1 1 1 2z" />
    </font>
</defs>
</svg>
