<?xml version="1.0" encoding="UTF-8" standalone="no"?>
<svg
   xmlns:dc="http://purl.org/dc/elements/1.1/"
   xmlns:cc="http://creativecommons.org/ns#"
   xmlns:rdf="http://www.w3.org/1999/02/22-rdf-syntax-ns#"
   xmlns:svg="http://www.w3.org/2000/svg"
   xmlns="http://www.w3.org/2000/svg"
   viewBox="0 0 380.22668 63.52"
   height="63.52"
   width="380.22668"
   xml:space="preserve"
   id="svg2"
   version="1.1"><metadata
     id="metadata8"><rdf:RDF><cc:Work
         rdf:about=""><dc:format>image/svg+xml</dc:format><dc:type
           rdf:resource="http://purl.org/dc/dcmitype/StillImage" /></cc:Work></rdf:RDF></metadata><defs
     id="defs6" /><g
     transform="matrix(1.3333333,0,0,-1.3333333,0,63.52)"
     id="g10"><g
       transform="scale(0.1)"
       id="g12"><path
         id="path14"
         style="fill:#2e2d2b;fill-opacity:1;fill-rule:nonzero;stroke:none"
         d="m 211.254,282.969 c -0.746,10.004 -2.875,19.64 -6.395,28.906 -3.527,9.262 -8.336,17.324 -14.453,24.184 -6.113,6.855 -13.535,12.414 -22.238,16.679 -8.711,4.254 -18.441,6.395 -29.184,6.395 -11.125,0 -21.218,-1.949 -30.296,-5.844 -9.0903,-3.891 -16.8716,-9.266 -23.3521,-16.117 -6.4882,-6.863 -11.6757,-14.926 -15.5664,-24.184 -3.8906,-9.265 -6.0312,-19.277 -6.3945,-30.019 z M 63.375,241.273 c 0,-11.117 1.5703,-21.875 4.7266,-32.246 3.1445,-10.379 7.8711,-19.457 14.1757,-27.242 6.2969,-7.781 14.2618,-13.992 23.9067,-18.621 9.632,-4.637 21.125,-6.949 34.464,-6.949 18.532,0 33.446,3.98 44.75,11.953 11.305,7.965 19.739,19.918 25.301,35.855 h 60.039 c -3.336,-15.562 -9.09,-29.46 -17.23,-41.695 -8.16,-12.226 -17.985,-22.512 -29.469,-30.851 -11.488,-8.336 -24.371,-14.645 -38.641,-18.903 -14.265,-4.254 -29.183,-6.39 -44.75,-6.39 -22.613,0 -42.6207,3.711 -60.0386,11.117 -17.4258,7.41 -32.1563,17.789 -44.1992,31.133 C 24.3633,161.777 15.2891,177.703 9.17578,196.242 3.05469,214.77 0,235.156 0,257.398 c 0,20.375 3.23828,39.747 9.72656,58.09 6.48044,18.352 15.75004,34.469 27.79684,48.371 12.043,13.895 26.5938,24.922 43.6446,33.075 17.039,8.148 36.316,12.23 57.816,12.23 22.598,0 42.891,-4.726 60.875,-14.172 17.969,-9.453 32.883,-21.965 44.75,-37.531 11.856,-15.566 20.473,-33.453 25.852,-53.648 5.367,-20.204 6.758,-41.047 4.168,-62.54 H 63.375" /><path
         id="path16"
         style="fill:#2e2d2b;fill-opacity:1;fill-rule:nonzero;stroke:none"
         d="M 518.684,401.383 H 752.172 V 356.906 L 587.617,164 H 760.512 V 113.965 H 507.563 v 44.473 l 158.996,192.91 H 518.684 v 50.035" /><path
         id="path18"
         style="fill:#2e2d2b;fill-opacity:1;fill-rule:nonzero;stroke:none"
         d="m 980.66,401.383 h 69.49 l 75.05,-214.59 h 1.11 l 72.83,214.59 h 66.15 L 1153.55,98.3984 c -5.19,-12.9687 -10.28,-25.3789 -15.29,-37.2461 -5,-11.8554 -11.12,-22.3242 -18.34,-31.4101 C 1112.69,20.6641 1103.7,13.4375 1092.95,8.0625 1082.2,2.69141 1068.5,0 1051.82,0 1036.99,0 1022.35,1.11328 1007.9,3.33594 V 56.7031 c 5.18,-0.7343 10.19,-1.5703 15.01,-2.5 4.81,-0.9218 9.81,-1.3906 15.01,-1.3906 7.41,0 13.52,0.9297 18.34,2.7773 4.81,1.8594 8.8,4.5469 11.96,8.0625 3.14,3.5274 5.83,7.6954 8.06,12.5079 2.22,4.8203 4.25,10.3828 6.11,16.6836 l 7.23,22.2342 -108.96,286.305" /><path
         id="path20"
         style="fill:#2e2d2b;fill-opacity:1;fill-rule:nonzero;stroke:none"
         d="m 1635.26,125.641 c 18.57,0 34.65,3.515 48.21,10.558 13.56,7.039 24.71,16.492 33.45,28.356 8.72,11.855 15.23,25.66 19.5,41.418 4.28,15.746 6.42,32.519 6.42,50.312 0,16.305 -2.05,32.328 -6.14,48.086 -4.09,15.75 -10.41,29.828 -18.95,42.25 -8.55,12.41 -19.6,22.422 -33.17,30.02 -13.57,7.593 -30,11.398 -49.32,11.398 -18.96,0 -35.12,-3.707 -48.5,-11.121 -13.38,-7.414 -24.25,-17.23 -32.6,-29.461 -8.36,-12.23 -14.41,-26.227 -18.12,-41.973 -3.72,-15.757 -5.57,-32.16 -5.57,-49.199 0,-17.051 1.66,-33.453 5.01,-49.199 3.34,-15.758 9.01,-29.66 17,-41.695 7.99,-12.051 18.77,-21.684 32.33,-28.911 13.57,-7.226 30.39,-10.839 50.45,-10.839 z m -105.34,208.472 h 1.66 c 2.22,7.035 5.92,14.817 11.12,23.348 5.19,8.527 12.04,16.402 20.57,23.629 8.52,7.226 18.81,13.246 30.86,18.066 12.04,4.813 25.85,7.231 41.41,7.231 21.87,0 40.86,-4.086 56.98,-12.231 16.13,-8.16 29.47,-19.093 40.03,-32.804 10.56,-13.715 18.43,-29.653 23.63,-47.805 5.18,-18.164 7.78,-37.246 7.78,-57.262 0,-21.875 -2.61,-41.887 -7.8,-60.043 -5.21,-18.16 -13.1,-33.824 -23.68,-46.972 -10.6,-13.161 -23.98,-23.45 -40.13,-30.856 -16.15,-7.414 -35.2,-11.117 -57.11,-11.117 -23.79,0 -44.96,5.195 -63.54,15.566 -18.57,10.371 -32.12,27.239 -40.68,50.586 h -1.09 l -0.01,-161.7732 h -20.58 V 399.711 h 20.58 v -65.598" /><path
         id="path22"
         style="fill:#2e2d2b;fill-opacity:1;fill-rule:nonzero;stroke:none"
         d="m 2040.26,336.34 h 1.67 c 2.59,9.258 7.31,17.973 14.18,26.125 6.84,8.152 15.18,15.191 25.01,21.129 9.81,5.922 20.75,10.465 32.8,13.617 12.04,3.144 24.55,4.539 37.53,4.172 v -21.129 c -11.12,1.48 -23.82,0.367 -38.09,-3.336 -14.26,-3.703 -27.89,-11.863 -40.86,-24.457 -5.19,-5.563 -9.72,-10.938 -13.62,-16.121 -3.88,-5.195 -7.14,-10.938 -9.72,-17.238 -2.6,-6.305 -4.64,-13.34 -6.12,-21.122 -1.48,-7.785 -2.41,-17.05 -2.78,-27.8 V 113.965 h -21.12 v 285.746 h 21.12 V 336.34" /><path
         id="path24"
         style="fill:#2e2d2b;fill-opacity:1;fill-rule:nonzero;stroke:none"
         d="m 2380.49,256.84 c 0,-17.051 2.41,-33.449 7.23,-49.199 4.81,-15.762 11.86,-29.746 21.12,-41.977 9.26,-12.226 20.75,-21.957 34.48,-29.184 13.7,-7.226 29.46,-10.839 47.25,-10.839 17.78,0 33.54,3.613 47.25,10.839 13.71,7.227 25.2,16.958 34.47,29.184 9.26,12.231 16.3,26.215 21.12,41.977 4.82,15.75 7.23,32.148 7.23,49.199 0,17.043 -2.41,33.441 -7.23,49.199 -4.82,15.746 -11.86,29.742 -21.12,41.973 -9.27,12.23 -20.76,21.961 -34.47,29.187 -13.71,7.227 -29.47,10.84 -47.25,10.84 -17.79,0 -33.55,-3.613 -47.25,-10.84 -13.73,-7.226 -25.22,-16.957 -34.48,-29.187 -9.26,-12.231 -16.31,-26.227 -21.12,-41.973 -4.82,-15.758 -7.23,-32.156 -7.23,-49.199 z m -21.12,0 c 0,20.379 2.86,39.558 8.61,57.539 5.75,17.969 14.18,33.816 25.3,47.531 11.12,13.707 24.82,24.551 41.14,32.524 16.3,7.964 35.02,11.953 56.15,11.953 21.12,0 39.84,-3.989 56.14,-11.953 16.31,-7.973 30.02,-18.817 41.15,-32.524 11.11,-13.715 19.54,-29.562 25.29,-47.531 5.74,-17.981 8.61,-37.16 8.61,-57.539 0,-20.391 -2.87,-39.66 -8.61,-57.817 -5.75,-18.164 -14.18,-34.007 -25.29,-47.535 -11.13,-13.527 -24.84,-24.277 -41.15,-32.242 -16.3,-7.965 -35.02,-11.949 -56.14,-11.949 -21.13,0 -39.85,3.984 -56.15,11.949 -16.32,7.965 -30.02,18.715 -41.14,32.242 -11.12,13.528 -19.55,29.371 -25.3,47.535 -5.75,18.157 -8.61,37.426 -8.61,57.817" /><path
         id="path26"
         style="fill:#2e2d2b;fill-opacity:1;fill-rule:nonzero;stroke:none"
         d="m 2782.2,419.879 h 6.48 c 7.57,0 13.68,2.519 13.68,8.637 0,5.402 -3.96,9 -12.6,9 -3.6,0 -6.12,-0.364 -7.56,-0.723 z m -0.36,-33.477 h -13.68 v 59.032 c 5.4,1.082 12.96,1.796 22.68,1.796 11.16,0 16.2,-1.796 20.52,-4.316 3.23,-2.523 5.75,-7.199 5.75,-12.957 0,-6.48 -5.03,-11.519 -12.23,-13.684 v -0.714 c 5.76,-2.161 9,-6.481 10.8,-14.403 1.8,-8.996 2.88,-12.597 4.32,-14.754 h -14.76 c -1.8,2.157 -2.88,7.559 -4.68,14.395 -1.08,6.48 -4.68,9.359 -12.23,9.359 h -6.49 z m -36.36,30.953 c 0,-26.277 19.45,-47.156 46.08,-47.156 25.92,0 45,20.879 45,46.797 0,26.277 -19.08,47.516 -45.36,47.516 -26.27,0 -45.72,-21.239 -45.72,-47.157 z m 106.19,0 c 0,-33.472 -26.27,-59.753 -60.47,-59.753 -33.83,0 -60.83,26.281 -60.83,59.753 0,32.758 27,59.032 60.83,59.032 34.2,0 60.47,-26.274 60.47,-59.032" /></g></g></svg>