<?xml version="1.0" encoding="UTF-8" standalone="no"?>
<svg
   xmlns:dc="http://purl.org/dc/elements/1.1/"
   xmlns:cc="http://creativecommons.org/ns#"
   xmlns:rdf="http://www.w3.org/1999/02/22-rdf-syntax-ns#"
   xmlns:svg="http://www.w3.org/2000/svg"
   xmlns="http://www.w3.org/2000/svg"
   viewBox="0 0 380.22668 153.18668"
   height="153.18668"
   width="380.22668"
   xml:space="preserve"
   id="svg2"
   version="1.1"><metadata
     id="metadata8"><rdf:RDF><cc:Work
         rdf:about=""><dc:format>image/svg+xml</dc:format><dc:type
           rdf:resource="http://purl.org/dc/dcmitype/StillImage" /></cc:Work></rdf:RDF></metadata><defs
     id="defs6" /><g
     transform="matrix(1.3333333,0,0,-1.3333333,0,153.18667)"
     id="g10"><g
       transform="scale(0.1)"
       id="g12"><path
         id="path14"
         style="fill:#ffffff;fill-opacity:1;fill-rule:nonzero;stroke:none"
         d="M 186.898,95.9414 V 59.9297 h 37.985 V 95.9414 H 245.52 V 2.10156 H 224.883 V 42.5781 H 186.898 V 2.10156 H 166.266 V 95.9414 h 20.632" /><path
         id="path16"
         style="fill:#ffffff;fill-opacity:1;fill-rule:nonzero;stroke:none"
         d="M 352.234,95.9414 V 78.5898 H 302.688 V 58.4883 h 45.476 V 42.4492 h -45.476 v -23 h 50.597 V 2.10156 H 282.051 V 95.9414 h 70.183" /><path
         id="path18"
         style="fill:#ffffff;fill-opacity:1;fill-rule:nonzero;stroke:none"
         d="m 433.594,38.3789 -11.832,34.4297 h -0.258 L 409.277,38.3789 Z M 432.41,95.9414 467.504,2.10156 H 446.078 L 438.984,23 H 403.891 L 396.527,2.10156 H 375.762 L 411.25,95.9414 h 21.16" /><path
         id="path20"
         style="fill:#ffffff;fill-opacity:1;fill-rule:nonzero;stroke:none"
         d="M 514.684,95.9414 V 19.4492 h 45.738 V 2.10156 H 494.047 V 95.9414 h 20.637" /><path
         id="path22"
         style="fill:#ffffff;fill-opacity:1;fill-rule:nonzero;stroke:none"
         d="M 570.938,78.5898 V 95.9414 H 647.82 V 78.5898 H 619.695 V 2.10156 H 599.063 V 78.5898 h -28.125" /><path
         id="path24"
         style="fill:#ffffff;fill-opacity:1;fill-rule:nonzero;stroke:none"
         d="M 697.633,95.9414 V 59.9297 h 37.98 V 95.9414 H 756.25 V 2.10156 H 735.613 V 42.5781 h -37.98 V 2.10156 H 676.996 V 95.9414 h 20.637" /><path
         id="path26"
         style="fill:#ffffff;fill-opacity:1;fill-rule:nonzero;stroke:none"
         d="m 782.668,95.9414 h 23.129 l 21.945,-37.0625 21.821,37.0625 h 23 L 837.734,38.1094 V 2.10156 H 817.102 V 38.6289 l -34.434,57.3125" /><path
         id="path28"
         style="fill:#ffffff;fill-opacity:1;fill-rule:nonzero;stroke:none"
         d="M 974.418,95.9414 V 19.4492 h 45.742 V 2.10156 H 953.785 V 95.9414 h 20.633" /><path
         id="path30"
         style="fill:#ffffff;fill-opacity:1;fill-rule:nonzero;stroke:none"
         d="m 1050.12,2.10156 h 20.6289 v 93.8398 H 1050.12 Z" /><path
         id="path32"
         style="fill:#ffffff;fill-opacity:1;fill-rule:nonzero;stroke:none"
         d="M 1127.66,2.10156 1097.3,95.9414 h 21.16 l 20.9,-65.9805 h 0.26 l 21.16,65.9805 h 21.3 L 1150.93,2.10156 h -23.27" /><path
         id="path34"
         style="fill:#ffffff;fill-opacity:1;fill-rule:nonzero;stroke:none"
         d="m 1208.49,2.10156 h 20.6328 v 93.8398 H 1208.49 Z" /><path
         id="path36"
         style="fill:#ffffff;fill-opacity:1;fill-rule:nonzero;stroke:none"
         d="m 1286.16,95.9414 39.17,-62.9531 h 0.26 v 62.9531 h 19.32 V 2.10156 h -20.64 l -39.03,62.82034 h -0.26 V 2.10156 h -19.32 V 95.9414 h 20.5" /><path
         id="path38"
         style="fill:#ffffff;fill-opacity:1;fill-rule:nonzero;stroke:none"
         d="M 1437.05,2.82031 C 1432.57,0.941406 1428.06,0 1423.5,0 c -7.18,0 -13.64,1.25 -19.38,3.73828 -5.75,2.5 -10.58,5.94141 -14.53,10.32032 -3.94,4.3828 -6.96,9.5234 -9.07,15.4414 -2.1,5.9219 -3.15,12.2891 -3.15,19.1211 0,7.0078 1.05,13.5195 3.15,19.5195 2.11,6 5.13,11.2383 9.07,15.711 3.95,4.4687 8.78,7.9804 14.53,10.5078 5.74,2.539 12.2,3.8125 19.38,3.8125 4.83,0 9.48,-0.7227 14,-2.1719 4.52,-1.4414 8.59,-3.5703 12.22,-6.3711 3.64,-2.7969 6.64,-6.2578 9.01,-10.3789 2.36,-4.1211 3.81,-8.8516 4.33,-14.1914 h -19.71 c -1.23,5.25 -3.59,9.2031 -7.1,11.8203 -3.5,2.6328 -7.75,3.9531 -12.75,3.9531 -4.64,0 -8.58,-0.9023 -11.83,-2.7031 -3.24,-1.7891 -5.86,-4.207 -7.88,-7.2187 -2.02,-3.0313 -3.48,-6.4688 -4.4,-10.3282 -0.92,-3.8515 -1.39,-7.8437 -1.39,-11.9609 0,-3.9297 0.47,-7.7695 1.39,-11.4922 0.92,-3.7305 2.38,-7.0781 4.4,-10.0586 2.02,-2.9805 4.64,-5.3711 7.88,-7.1601 3.25,-1.8008 7.19,-2.6914 11.83,-2.6914 6.84,0 12.12,1.7226 15.84,5.1796 3.72,3.4727 5.89,8.4805 6.5,15.0508 h -20.76 v 15.3789 h 39.43 V 2.10156 h -13.14 l -2.11,10.63674 c -3.68,-4.71877 -7.75,-8.02736 -12.21,-9.91799" /><path
         id="path40"
         style="fill:#ffffff;fill-opacity:1;fill-rule:nonzero;stroke:none"
         d="m 1583.58,95.9414 21.95,-64.5312 h 0.26 l 20.77,64.5312 h 29.04 V 2.10156 h -19.32 V 68.6016 h -0.26 l -23,-66.50004 h -15.91 l -22.99,65.84764 h -0.27 V 2.10156 h -19.31 V 95.9414 h 29.04" /><path
         id="path42"
         style="fill:#ffffff;fill-opacity:1;fill-rule:nonzero;stroke:none"
         d="m 1740.11,38.3789 -11.82,34.4297 h -0.27 L 1715.8,38.3789 Z m -1.18,57.5625 35.09,-93.83984 H 1752.6 L 1745.5,23 h -35.09 l -7.36,-20.89844 h -20.77 l 35.49,93.83984 h 21.16" /><path
         id="path44"
         style="fill:#ffffff;fill-opacity:1;fill-rule:nonzero;stroke:none"
         d="m 1839.6,19.4492 c 2.98,0 5.87,0.4805 8.68,1.4492 2.8,0.9532 5.3,2.5625 7.49,4.793 2.18,2.2383 3.94,5.1484 5.26,8.7383 1.31,3.6016 1.96,7.9687 1.96,13.1484 0,4.7227 -0.46,9 -1.37,12.8125 -0.92,3.8086 -2.44,7.0703 -4.54,9.7891 -2.1,2.7187 -4.88,4.8008 -8.34,6.2422 -3.46,1.4492 -7.74,2.1679 -12.82,2.1679 h -14.71 V 19.4492 Z m 1.45,76.4922 c 6.04,0 11.67,-0.9609 16.88,-2.8906 5.22,-1.9297 9.73,-4.8203 13.54,-8.6797 3.82,-3.8516 6.8,-8.6719 8.95,-14.4492 2.13,-5.793 3.21,-12.5821 3.21,-20.3711 0,-6.8399 -0.87,-13.1406 -2.63,-18.9414 -1.75,-5.7774 -4.4,-10.7696 -7.95,-14.9805 -3.54,-4.1992 -7.98,-7.50781 -13.27,-9.91796 -5.3,-2.41016 -11.55,-3.60938 -18.73,-3.60938 h -40.48 V 95.9414 h 40.48" /><path
         id="path46"
         style="fill:#ffffff;fill-opacity:1;fill-rule:nonzero;stroke:none"
         d="M 1986.54,95.9414 V 78.5898 H 1937 V 58.4883 h 45.47 V 42.4492 H 1937 v -23 h 50.59 V 2.10156 h -71.23 V 95.9414 h 70.18" /><path
         id="path48"
         style="fill:#ffffff;fill-opacity:1;fill-rule:nonzero;stroke:none"
         d="M 2145.04,95.9414 V 78.5898 H 2095.5 V 58.4883 h 45.47 V 42.4492 h -45.47 v -23 h 50.6 V 2.10156 h -71.23 V 95.9414 h 70.17" /><path
         id="path50"
         style="fill:#ffffff;fill-opacity:1;fill-rule:nonzero;stroke:none"
         d="m 2226.4,38.3789 -11.82,34.4297 h -0.27 l -12.23,-34.4297 z m -1.18,57.5625 35.09,-93.83984 h -21.42 L 2231.79,23 h -35.1 l -7.35,-20.89844 h -20.77 l 35.49,93.83984 h 21.16" /><path
         id="path52"
         style="fill:#ffffff;fill-opacity:1;fill-rule:nonzero;stroke:none"
         d="m 2302.63,25.2305 c 1.13,-2.1914 2.65,-3.961 4.53,-5.3203 1.89,-1.3711 4.09,-2.3711 6.64,-3.0313 2.54,-0.6484 5.17,-0.9805 7.88,-0.9805 1.85,0 3.81,0.1524 5.92,0.461 2.1,0.3125 4.07,0.8906 5.91,1.7695 1.85,0.8828 3.38,2.082 4.6,3.6211 1.23,1.5313 1.85,3.4805 1.85,5.8516 0,2.539 -0.81,4.5976 -2.44,6.1679 -1.62,1.5821 -3.75,2.9024 -6.37,3.9414 -2.63,1.0586 -5.61,1.9805 -8.94,2.7696 -3.33,0.789 -6.7,1.6601 -10.12,2.6211 -3.5,0.8789 -6.92,1.957 -10.25,3.2265 -3.33,1.2735 -6.31,2.9102 -8.93,4.9219 -2.63,2.0195 -4.76,4.5391 -6.38,7.5586 -1.62,3.0234 -2.43,6.6797 -2.43,10.9727 0,4.8203 1.02,9.0078 3.08,12.5507 2.06,3.5586 4.76,6.5196 8.09,8.8789 3.33,2.3594 7.1,4.1094 11.3,5.25 4.21,1.1485 8.42,1.711 12.61,1.711 4.92,0 9.62,-0.543 14.14,-1.6406 4.51,-1.0899 8.52,-2.8711 12.03,-5.3204 3.49,-2.4492 6.28,-5.5898 8.34,-9.3906 2.06,-3.8203 3.09,-8.4414 3.09,-13.8711 h -19.98 c -0.17,2.8008 -0.77,5.1328 -1.78,6.961 -1,1.8398 -2.34,3.2812 -4,4.3398 -1.67,1.0508 -3.57,1.7891 -5.72,2.2305 -2.15,0.4414 -4.49,0.6601 -7.03,0.6601 -1.66,0 -3.33,-0.1797 -4.99,-0.5312 -1.67,-0.3477 -3.19,-0.961 -4.54,-1.8399 -1.36,-0.8711 -2.48,-1.9687 -3.35,-3.2812 -0.88,-1.3164 -1.31,-2.9883 -1.31,-5 0,-1.8281 0.34,-3.3281 1.04,-4.4688 0.71,-1.1289 2.08,-2.1875 4.14,-3.1484 2.06,-0.9609 4.91,-1.9297 8.55,-2.8906 3.63,-0.961 8.39,-2.1914 14.26,-3.6797 1.75,-0.3516 4.18,-0.9805 7.29,-1.9102 3.12,-0.9218 6.2,-2.3789 9.27,-4.4023 3.06,-2.0195 5.72,-4.707 7.95,-8.0781 2.23,-3.3789 3.36,-7.6914 3.36,-12.9493 0,-4.3007 -0.84,-8.2812 -2.5,-11.9609 -1.67,-3.668 -4.14,-6.8594 -7.44,-9.51953 -3.28,-2.67969 -7.35,-4.76172 -12.21,-6.25 C 2332.92,0.738281 2327.29,0 2320.89,0 c -5.16,0 -10.18,0.628906 -15.05,1.89844 -4.86,1.27344 -9.15,3.26172 -12.88,5.98047 -3.72,2.71089 -6.68,6.17969 -8.86,10.38279 -2.19,4.2071 -3.25,9.1992 -3.16,14.9883 h 19.98 c 0,-3.1484 0.57,-5.8281 1.71,-8.0195" /><path
         id="path54"
         style="fill:#ffffff;fill-opacity:1;fill-rule:nonzero;stroke:none"
         d="m 2380.42,95.9414 h 23.14 l 21.95,-37.0625 21.82,37.0625 h 23 l -34.84,-57.832 V 2.10156 h -20.63 V 38.6289 l -34.44,57.3125" /><path
         id="path56"
         style="fill:#ffffff;fill-opacity:1;fill-rule:nonzero;stroke:none"
         d="m 211.254,955.492 c -0.746,10.004 -2.875,19.641 -6.395,28.906 -3.527,9.262 -8.336,17.322 -14.453,24.182 -6.113,6.86 -13.535,12.42 -22.238,16.68 -8.711,4.26 -18.441,6.39 -29.184,6.39 -11.125,0 -21.218,-1.94 -30.296,-5.84 -9.0903,-3.89 -16.8716,-9.26 -23.3521,-16.11 -6.4882,-6.87 -11.6757,-14.93 -15.5664,-24.188 -3.8906,-9.27 -6.0312,-19.278 -6.3945,-30.02 z M 63.375,913.797 c 0,-11.117 1.5703,-21.875 4.7266,-32.246 3.1445,-10.379 7.8711,-19.457 14.1757,-27.242 6.2969,-7.782 14.2618,-13.993 23.9067,-18.621 9.632,-4.637 21.125,-6.95 34.464,-6.95 18.532,0 33.446,3.981 44.75,11.953 11.305,7.965 19.739,19.918 25.301,35.856 h 60.039 c -3.336,-15.563 -9.09,-29.461 -17.23,-41.695 -8.16,-12.227 -17.985,-22.512 -29.469,-30.852 -11.488,-8.336 -24.371,-14.645 -38.641,-18.902 -14.265,-4.254 -29.183,-6.395 -44.75,-6.395 -22.613,0 -42.6207,3.715 -60.0386,11.121 -17.4258,7.41 -32.1563,17.785 -44.1992,31.133 C 24.3633,834.301 15.2891,850.227 9.17578,868.766 3.05469,887.293 0,907.68 0,929.922 c 0,20.375 3.23828,39.746 9.72656,58.09 6.48044,18.348 15.75004,34.468 27.79684,48.368 12.043,13.9 26.5938,24.92 43.6446,33.08 17.039,8.15 36.316,12.23 57.816,12.23 22.598,0 42.891,-4.73 60.875,-14.18 17.969,-9.45 32.883,-21.96 44.75,-37.53 11.856,-15.56 20.473,-33.449 25.852,-53.644 5.367,-20.203 6.758,-41.051 4.168,-62.539 H 63.375" /><path
         id="path58"
         style="fill:#ffffff;fill-opacity:1;fill-rule:nonzero;stroke:none"
         d="m 518.684,1073.91 h 233.488 v -44.48 L 587.617,836.523 H 760.512 V 786.488 H 507.563 v 44.473 L 666.559,1023.87 H 518.684 v 50.04" /><path
         id="path60"
         style="fill:#ffffff;fill-opacity:1;fill-rule:nonzero;stroke:none"
         d="m 980.66,1073.91 h 69.49 l 75.05,-214.594 h 1.11 l 72.83,214.594 h 66.15 L 1153.55,770.922 c -5.19,-12.969 -10.28,-25.379 -15.29,-37.246 -5,-11.856 -11.12,-22.324 -18.34,-31.41 -7.23,-9.078 -16.22,-16.305 -26.97,-21.68 -10.75,-5.371 -24.45,-8.063 -41.13,-8.063 -14.83,0 -29.47,1.114 -43.92,3.336 v 53.368 c 5.18,-0.739 10.19,-1.571 15.01,-2.5 4.81,-0.922 9.81,-1.391 15.01,-1.391 7.41,0 13.52,0.93 18.34,2.777 4.81,1.86 8.8,4.547 11.96,8.063 3.14,3.523 5.83,7.695 8.06,12.508 2.22,4.82 4.25,10.382 6.11,16.679 l 7.23,22.239 -108.96,286.308" /><path
         id="path62"
         style="fill:#ffffff;fill-opacity:1;fill-rule:nonzero;stroke:none"
         d="m 1635.26,798.164 c 18.57,0 34.65,3.516 48.21,10.559 13.56,7.039 24.71,16.492 33.45,28.355 8.72,11.856 15.23,25.66 19.5,41.418 4.28,15.746 6.42,32.52 6.42,50.313 0,16.3 -2.05,32.328 -6.14,48.086 -4.09,15.75 -10.41,29.825 -18.95,42.245 -8.55,12.41 -19.6,22.43 -33.17,30.02 -13.57,7.6 -30,11.4 -49.32,11.4 -18.96,0 -35.12,-3.7 -48.5,-11.12 -13.38,-7.42 -24.25,-17.23 -32.6,-29.46 -8.36,-12.23 -14.41,-26.226 -18.12,-41.972 -3.72,-15.758 -5.57,-32.16 -5.57,-49.199 0,-17.051 1.66,-33.454 5.01,-49.2 3.34,-15.757 9.01,-29.66 17,-41.695 7.99,-12.051 18.77,-21.684 32.33,-28.91 13.57,-7.227 30.39,-10.84 50.45,-10.84 z m -105.34,208.476 h 1.66 c 2.22,7.03 5.92,14.81 11.12,23.34 5.19,8.53 12.04,16.41 20.57,23.63 8.52,7.23 18.81,13.25 30.86,18.07 12.04,4.81 25.85,7.23 41.41,7.23 21.87,0 40.86,-4.09 56.98,-12.23 16.13,-8.16 29.47,-19.09 40.03,-32.8 10.56,-13.72 18.43,-29.66 23.63,-47.814 5.18,-18.164 7.78,-37.246 7.78,-57.257 0,-21.875 -2.61,-41.887 -7.8,-60.043 -5.21,-18.161 -13.1,-33.825 -23.68,-46.973 -10.6,-13.16 -23.98,-23.449 -40.13,-30.855 -16.15,-7.415 -35.2,-11.122 -57.11,-11.122 -23.79,0 -44.96,5.2 -63.54,15.571 -18.57,10.371 -32.12,27.238 -40.68,50.586 h -1.09 l -0.01,-161.774 h -20.58 v 388.031 h 20.58 v -65.59" /><path
         id="path64"
         style="fill:#ffffff;fill-opacity:1;fill-rule:nonzero;stroke:none"
         d="m 2040.26,1008.86 h 1.67 c 2.59,9.26 7.31,17.98 14.18,26.13 6.84,8.15 15.18,15.19 25.01,21.13 9.81,5.92 20.75,10.46 32.8,13.61 12.04,3.15 24.55,4.54 37.53,4.18 v -21.13 c -11.12,1.48 -23.82,0.36 -38.09,-3.34 -14.26,-3.71 -27.89,-11.86 -40.86,-24.46 -5.19,-5.56 -9.72,-10.93 -13.62,-16.12 -3.88,-5.19 -7.14,-10.934 -9.72,-17.235 -2.6,-6.305 -4.64,-13.34 -6.12,-21.121 -1.48,-7.785 -2.41,-17.055 -2.78,-27.801 V 786.488 h -21.12 v 285.742 h 21.12 v -63.37" /><path
         id="path66"
         style="fill:#ffffff;fill-opacity:1;fill-rule:nonzero;stroke:none"
         d="m 2380.49,929.363 c 0,-17.05 2.41,-33.453 7.23,-49.199 4.81,-15.762 11.86,-29.746 21.12,-41.976 9.26,-12.227 20.75,-21.958 34.48,-29.184 13.7,-7.227 29.46,-10.84 47.25,-10.84 17.78,0 33.54,3.613 47.25,10.84 13.71,7.226 25.2,16.957 34.47,29.184 9.26,12.23 16.3,26.214 21.12,41.976 4.82,15.746 7.23,32.149 7.23,49.199 0,17.043 -2.41,33.442 -7.23,49.2 -4.82,15.746 -11.86,29.737 -21.12,41.977 -9.27,12.23 -20.76,21.95 -34.47,29.18 -13.71,7.23 -29.47,10.84 -47.25,10.84 -17.79,0 -33.55,-3.61 -47.25,-10.84 -13.73,-7.23 -25.22,-16.95 -34.48,-29.18 -9.26,-12.24 -16.31,-26.231 -21.12,-41.977 -4.82,-15.758 -7.23,-32.157 -7.23,-49.2 z m -21.12,0 c 0,20.375 2.86,39.559 8.61,57.539 5.75,17.968 14.18,33.818 25.3,47.528 11.12,13.71 24.82,24.55 41.14,32.53 16.3,7.96 35.02,11.95 56.15,11.95 21.12,0 39.84,-3.99 56.14,-11.95 16.31,-7.98 30.02,-18.82 41.15,-32.53 11.11,-13.71 19.54,-29.56 25.29,-47.528 5.74,-17.98 8.61,-37.164 8.61,-57.539 0,-20.39 -2.87,-39.664 -8.61,-57.816 -5.75,-18.164 -14.18,-34.008 -25.29,-47.535 -11.13,-13.532 -24.84,-24.278 -41.15,-32.242 -16.3,-7.965 -35.02,-11.954 -56.14,-11.954 -21.13,0 -39.85,3.989 -56.15,11.954 -16.32,7.964 -30.02,18.71 -41.14,32.242 -11.12,13.527 -19.55,29.371 -25.3,47.535 -5.75,18.152 -8.61,37.426 -8.61,57.816" /><path
         id="path68"
         style="fill:#ffffff;fill-opacity:1;fill-rule:nonzero;stroke:none"
         d="m 1002.28,407.938 h 540 v 20 h -540 z" /><path
         id="path70"
         style="fill:#ffffff;fill-opacity:1;fill-rule:nonzero;stroke:none"
         d="m 2782.2,1092.4 h 6.48 c 7.57,0 13.68,2.52 13.68,8.64 0,5.4 -3.96,9 -12.6,9 -3.6,0 -6.12,-0.36 -7.56,-0.72 z m -0.36,-33.47 h -13.68 v 59.03 c 5.4,1.08 12.96,1.79 22.68,1.79 11.16,0 16.2,-1.79 20.52,-4.31 3.23,-2.53 5.75,-7.21 5.75,-12.96 0,-6.48 -5.03,-11.52 -12.23,-13.68 v -0.72 c 5.76,-2.16 9,-6.48 10.8,-14.4 1.8,-9 2.88,-12.6 4.32,-14.75 h -14.76 c -1.8,2.15 -2.88,7.55 -4.68,14.39 -1.08,6.48 -4.68,9.36 -12.23,9.36 h -6.49 z m -36.36,30.95 c 0,-26.28 19.45,-47.16 46.08,-47.16 25.92,0 45,20.88 45,46.8 0,26.27 -19.08,47.52 -45.36,47.52 -26.27,0 -45.72,-21.25 -45.72,-47.16 z m 106.19,0 c 0,-33.47 -26.27,-59.75 -60.47,-59.75 -33.83,0 -60.83,26.28 -60.83,59.75 0,32.76 27,59.03 60.83,59.03 34.2,0 60.47,-26.27 60.47,-59.03" /></g></g></svg>